M48
; DRILL file {KiCad (6.0.1)} date Tue Feb 15 20:39:11 2022
; FORMAT={-:-/ absolute / metric / decimal}
; #@! TF.CreationDate,2022-02-15T20:39:11+08:00
; #@! TF.GenerationSoftware,Kicad,Pcbnew,(6.0.1)
; #@! TF.FileFunction,NonPlated,1,2,NPTH
FMAT,2
METRIC
; #@! TA.AperFunction,NonPlated,NPTH,ComponentDrill
T1C1.700
; #@! TA.AperFunction,NonPlated,NPTH,ComponentDrill
T2C3.000
; #@! TA.AperFunction,NonPlated,NPTH,ComponentDrill
T3C4.000
%
G90
G05
T1
X110.014Y-92.869
X120.174Y-92.869
X129.064Y-92.869
X139.224Y-92.869
X148.114Y-92.869
X158.274Y-92.869
X167.164Y-92.869
X177.324Y-92.869
T2
X111.284Y-90.329
X112.554Y-87.789
X117.634Y-87.789
X118.904Y-90.329
X130.334Y-90.329
X131.604Y-87.789
X136.684Y-87.789
X137.954Y-90.329
X149.384Y-90.329
X150.654Y-87.789
X155.734Y-87.789
X157.004Y-90.329
X168.434Y-90.329
X169.704Y-87.789
X174.784Y-87.789
X176.054Y-90.329
T3
X115.094Y-92.869
X134.144Y-92.869
X153.194Y-92.869
X172.244Y-92.869
T0
M30
