%TF.GenerationSoftware,KiCad,Pcbnew,(6.0.1)*%
%TF.CreationDate,2022-02-15T20:39:13+08:00*%
%TF.ProjectId,Desk_Macropad,4465736b-5f4d-4616-9372-6f7061642e6b,rev?*%
%TF.SameCoordinates,Original*%
%TF.FileFunction,Legend,Bot*%
%TF.FilePolarity,Positive*%
%FSLAX46Y46*%
G04 Gerber Fmt 4.6, Leading zero omitted, Abs format (unit mm)*
G04 Created by KiCad (PCBNEW (6.0.1)) date 2022-02-15 20:39:13*
%MOMM*%
%LPD*%
G01*
G04 APERTURE LIST*
%ADD10C,0.150000*%
%ADD11C,0.120000*%
%ADD12C,0.381000*%
%ADD13R,1.752600X1.752600*%
%ADD14C,1.752600*%
G04 APERTURE END LIST*
D10*
%TO.C,RSW1*%
X90205654Y-82890654D02*
X90472321Y-82509702D01*
X90662797Y-82890654D02*
X90662797Y-82090654D01*
X90358035Y-82090654D01*
X90281845Y-82128750D01*
X90243750Y-82166845D01*
X90205654Y-82243035D01*
X90205654Y-82357321D01*
X90243750Y-82433511D01*
X90281845Y-82471607D01*
X90358035Y-82509702D01*
X90662797Y-82509702D01*
X89862797Y-82471607D02*
X89596130Y-82471607D01*
X89481845Y-82890654D02*
X89862797Y-82890654D01*
X89862797Y-82090654D01*
X89481845Y-82090654D01*
X89177083Y-82852559D02*
X89062797Y-82890654D01*
X88872321Y-82890654D01*
X88796130Y-82852559D01*
X88758035Y-82814464D01*
X88719940Y-82738273D01*
X88719940Y-82662083D01*
X88758035Y-82585892D01*
X88796130Y-82547797D01*
X88872321Y-82509702D01*
X89024702Y-82471607D01*
X89100892Y-82433511D01*
X89138988Y-82395416D01*
X89177083Y-82319226D01*
X89177083Y-82243035D01*
X89138988Y-82166845D01*
X89100892Y-82128750D01*
X89024702Y-82090654D01*
X88834226Y-82090654D01*
X88719940Y-82128750D01*
X88377083Y-82471607D02*
X88110416Y-82471607D01*
X87996130Y-82890654D02*
X88377083Y-82890654D01*
X88377083Y-82090654D01*
X87996130Y-82090654D01*
X87767559Y-82090654D02*
X87310416Y-82090654D01*
X87538988Y-82890654D02*
X87538988Y-82090654D01*
%TO.C,U1*%
X105588607Y-84702690D02*
X105626702Y-84816976D01*
X105664797Y-84855071D01*
X105740988Y-84893166D01*
X105855273Y-84893166D01*
X105931464Y-84855071D01*
X105969559Y-84816976D01*
X106007654Y-84740785D01*
X106007654Y-84436023D01*
X105207654Y-84436023D01*
X105207654Y-84702690D01*
X105245750Y-84778880D01*
X105283845Y-84816976D01*
X105360035Y-84855071D01*
X105436226Y-84855071D01*
X105512416Y-84816976D01*
X105550511Y-84778880D01*
X105588607Y-84702690D01*
X105588607Y-84436023D01*
X105283845Y-85197928D02*
X105245750Y-85236023D01*
X105207654Y-85312214D01*
X105207654Y-85502690D01*
X105245750Y-85578880D01*
X105283845Y-85616976D01*
X105360035Y-85655071D01*
X105436226Y-85655071D01*
X105550511Y-85616976D01*
X106007654Y-85159833D01*
X106007654Y-85655071D01*
X116167654Y-95358023D02*
X115367654Y-95358023D01*
X115367654Y-95548500D01*
X115405750Y-95662785D01*
X115481940Y-95738976D01*
X115558130Y-95777071D01*
X115710511Y-95815166D01*
X115824797Y-95815166D01*
X115977178Y-95777071D01*
X116053369Y-95738976D01*
X116129559Y-95662785D01*
X116167654Y-95548500D01*
X116167654Y-95358023D01*
X115634321Y-96500880D02*
X116167654Y-96500880D01*
X115329559Y-96310404D02*
X115900988Y-96119928D01*
X115900988Y-96615166D01*
X125565750Y-95338976D02*
X125527654Y-95262785D01*
X125527654Y-95148500D01*
X125565750Y-95034214D01*
X125641940Y-94958023D01*
X125718130Y-94919928D01*
X125870511Y-94881833D01*
X125984797Y-94881833D01*
X126137178Y-94919928D01*
X126213369Y-94958023D01*
X126289559Y-95034214D01*
X126327654Y-95148500D01*
X126327654Y-95224690D01*
X126289559Y-95338976D01*
X126251464Y-95377071D01*
X125984797Y-95377071D01*
X125984797Y-95224690D01*
X126327654Y-95719928D02*
X125527654Y-95719928D01*
X126327654Y-96177071D01*
X125527654Y-96177071D01*
X126327654Y-96558023D02*
X125527654Y-96558023D01*
X125527654Y-96748500D01*
X125565750Y-96862785D01*
X125641940Y-96938976D01*
X125718130Y-96977071D01*
X125870511Y-97015166D01*
X125984797Y-97015166D01*
X126137178Y-96977071D01*
X126213369Y-96938976D01*
X126289559Y-96862785D01*
X126327654Y-96748500D01*
X126327654Y-96558023D01*
X111087654Y-95358023D02*
X110287654Y-95358023D01*
X110287654Y-95548500D01*
X110325750Y-95662785D01*
X110401940Y-95738976D01*
X110478130Y-95777071D01*
X110630511Y-95815166D01*
X110744797Y-95815166D01*
X110897178Y-95777071D01*
X110973369Y-95738976D01*
X111049559Y-95662785D01*
X111087654Y-95548500D01*
X111087654Y-95358023D01*
X110287654Y-96081833D02*
X110287654Y-96615166D01*
X111087654Y-96272309D01*
X126319559Y-84221046D02*
X126357654Y-84335332D01*
X126357654Y-84525808D01*
X126319559Y-84601999D01*
X126281464Y-84640094D01*
X126205273Y-84678189D01*
X126129083Y-84678189D01*
X126052892Y-84640094D01*
X126014797Y-84601999D01*
X125976702Y-84525808D01*
X125938607Y-84373427D01*
X125900511Y-84297237D01*
X125862416Y-84259141D01*
X125786226Y-84221046D01*
X125710035Y-84221046D01*
X125633845Y-84259141D01*
X125595750Y-84297237D01*
X125557654Y-84373427D01*
X125557654Y-84563903D01*
X125595750Y-84678189D01*
X125557654Y-84906760D02*
X125557654Y-85363903D01*
X126357654Y-85135332D02*
X125557654Y-85135332D01*
X113208607Y-84759833D02*
X113208607Y-84493166D01*
X113627654Y-84493166D02*
X112827654Y-84493166D01*
X112827654Y-84874119D01*
X112827654Y-85102690D02*
X112827654Y-85636023D01*
X113627654Y-85293166D01*
X122987654Y-83959833D02*
X123787654Y-84226500D01*
X122987654Y-84493166D01*
X123711464Y-85216976D02*
X123749559Y-85178880D01*
X123787654Y-85064595D01*
X123787654Y-84988404D01*
X123749559Y-84874119D01*
X123673369Y-84797928D01*
X123597178Y-84759833D01*
X123444797Y-84721738D01*
X123330511Y-84721738D01*
X123178130Y-84759833D01*
X123101940Y-84797928D01*
X123025750Y-84874119D01*
X122987654Y-84988404D01*
X122987654Y-85064595D01*
X123025750Y-85178880D01*
X123063845Y-85216976D01*
X123711464Y-86016976D02*
X123749559Y-85978880D01*
X123787654Y-85864595D01*
X123787654Y-85788404D01*
X123749559Y-85674119D01*
X123673369Y-85597928D01*
X123597178Y-85559833D01*
X123444797Y-85521738D01*
X123330511Y-85521738D01*
X123178130Y-85559833D01*
X123101940Y-85597928D01*
X123025750Y-85674119D01*
X122987654Y-85788404D01*
X122987654Y-85864595D01*
X123025750Y-85978880D01*
X123063845Y-86016976D01*
X104961464Y-90354166D02*
X104999559Y-90316071D01*
X105037654Y-90201785D01*
X105037654Y-90125595D01*
X104999559Y-90011309D01*
X104923369Y-89935119D01*
X104847178Y-89897023D01*
X104694797Y-89858928D01*
X104580511Y-89858928D01*
X104428130Y-89897023D01*
X104351940Y-89935119D01*
X104275750Y-90011309D01*
X104237654Y-90125595D01*
X104237654Y-90201785D01*
X104275750Y-90316071D01*
X104313845Y-90354166D01*
X104237654Y-90620833D02*
X104237654Y-91154166D01*
X105037654Y-90811309D01*
X115748607Y-84759833D02*
X115748607Y-84493166D01*
X116167654Y-84493166D02*
X115367654Y-84493166D01*
X115367654Y-84874119D01*
X115367654Y-85521738D02*
X115367654Y-85369357D01*
X115405750Y-85293166D01*
X115443845Y-85255071D01*
X115558130Y-85178880D01*
X115710511Y-85140785D01*
X116015273Y-85140785D01*
X116091464Y-85178880D01*
X116129559Y-85216976D01*
X116167654Y-85293166D01*
X116167654Y-85445547D01*
X116129559Y-85521738D01*
X116091464Y-85559833D01*
X116015273Y-85597928D01*
X115824797Y-85597928D01*
X115748607Y-85559833D01*
X115710511Y-85521738D01*
X115672416Y-85445547D01*
X115672416Y-85293166D01*
X115710511Y-85216976D01*
X115748607Y-85178880D01*
X115824797Y-85140785D01*
X118707654Y-95358023D02*
X117907654Y-95358023D01*
X117907654Y-95548500D01*
X117945750Y-95662785D01*
X118021940Y-95738976D01*
X118098130Y-95777071D01*
X118250511Y-95815166D01*
X118364797Y-95815166D01*
X118517178Y-95777071D01*
X118593369Y-95738976D01*
X118669559Y-95662785D01*
X118707654Y-95548500D01*
X118707654Y-95358023D01*
X117907654Y-96310404D02*
X117907654Y-96386595D01*
X117945750Y-96462785D01*
X117983845Y-96500880D01*
X118060035Y-96538976D01*
X118212416Y-96577071D01*
X118402892Y-96577071D01*
X118555273Y-96538976D01*
X118631464Y-96500880D01*
X118669559Y-96462785D01*
X118707654Y-96386595D01*
X118707654Y-96310404D01*
X118669559Y-96234214D01*
X118631464Y-96196119D01*
X118555273Y-96158023D01*
X118402892Y-96119928D01*
X118212416Y-96119928D01*
X118060035Y-96158023D01*
X117983845Y-96196119D01*
X117945750Y-96234214D01*
X117907654Y-96310404D01*
X120828607Y-84759833D02*
X120828607Y-84493166D01*
X121247654Y-84493166D02*
X120447654Y-84493166D01*
X120447654Y-84874119D01*
X120714321Y-85521738D02*
X121247654Y-85521738D01*
X120409559Y-85331261D02*
X120980988Y-85140785D01*
X120980988Y-85636023D01*
X105588607Y-95624690D02*
X105626702Y-95738976D01*
X105664797Y-95777071D01*
X105740988Y-95815166D01*
X105855273Y-95815166D01*
X105931464Y-95777071D01*
X105969559Y-95738976D01*
X106007654Y-95662785D01*
X106007654Y-95358023D01*
X105207654Y-95358023D01*
X105207654Y-95624690D01*
X105245750Y-95700880D01*
X105283845Y-95738976D01*
X105360035Y-95777071D01*
X105436226Y-95777071D01*
X105512416Y-95738976D01*
X105550511Y-95700880D01*
X105588607Y-95624690D01*
X105588607Y-95358023D01*
X105474321Y-96500880D02*
X106007654Y-96500880D01*
X105169559Y-96310404D02*
X105740988Y-96119928D01*
X105740988Y-96615166D01*
X104425750Y-85754166D02*
X104425750Y-85520833D01*
X104792416Y-85520833D02*
X104092416Y-85520833D01*
X104092416Y-85854166D01*
X104092416Y-86254166D02*
X104092416Y-86320833D01*
X104125750Y-86387500D01*
X104159083Y-86420833D01*
X104225750Y-86454166D01*
X104359083Y-86487500D01*
X104525750Y-86487500D01*
X104659083Y-86454166D01*
X104725750Y-86420833D01*
X104759083Y-86387500D01*
X104792416Y-86320833D01*
X104792416Y-86254166D01*
X104759083Y-86187500D01*
X104725750Y-86154166D01*
X104659083Y-86120833D01*
X104525750Y-86087500D01*
X104359083Y-86087500D01*
X104225750Y-86120833D01*
X104159083Y-86154166D01*
X104125750Y-86187500D01*
X104092416Y-86254166D01*
X110668607Y-84702690D02*
X110706702Y-84816976D01*
X110744797Y-84855071D01*
X110820988Y-84893166D01*
X110935273Y-84893166D01*
X111011464Y-84855071D01*
X111049559Y-84816976D01*
X111087654Y-84740785D01*
X111087654Y-84436023D01*
X110287654Y-84436023D01*
X110287654Y-84702690D01*
X110325750Y-84778880D01*
X110363845Y-84816976D01*
X110440035Y-84855071D01*
X110516226Y-84855071D01*
X110592416Y-84816976D01*
X110630511Y-84778880D01*
X110668607Y-84702690D01*
X110668607Y-84436023D01*
X111087654Y-85655071D02*
X111087654Y-85197928D01*
X111087654Y-85426500D02*
X110287654Y-85426500D01*
X110401940Y-85350309D01*
X110478130Y-85274119D01*
X110516226Y-85197928D01*
X121247654Y-95358023D02*
X120447654Y-95358023D01*
X120447654Y-95548500D01*
X120485750Y-95662785D01*
X120561940Y-95738976D01*
X120638130Y-95777071D01*
X120790511Y-95815166D01*
X120904797Y-95815166D01*
X121057178Y-95777071D01*
X121133369Y-95738976D01*
X121209559Y-95662785D01*
X121247654Y-95548500D01*
X121247654Y-95358023D01*
X121247654Y-96577071D02*
X121247654Y-96119928D01*
X121247654Y-96348500D02*
X120447654Y-96348500D01*
X120561940Y-96272309D01*
X120638130Y-96196119D01*
X120676226Y-96119928D01*
X105037654Y-92437023D02*
X104237654Y-92437023D01*
X104237654Y-92627500D01*
X104275750Y-92741785D01*
X104351940Y-92817976D01*
X104428130Y-92856071D01*
X104580511Y-92894166D01*
X104694797Y-92894166D01*
X104847178Y-92856071D01*
X104923369Y-92817976D01*
X104999559Y-92741785D01*
X105037654Y-92627500D01*
X105037654Y-92437023D01*
X104237654Y-93617976D02*
X104237654Y-93237023D01*
X104618607Y-93198928D01*
X104580511Y-93237023D01*
X104542416Y-93313214D01*
X104542416Y-93503690D01*
X104580511Y-93579880D01*
X104618607Y-93617976D01*
X104694797Y-93656071D01*
X104885273Y-93656071D01*
X104961464Y-93617976D01*
X104999559Y-93579880D01*
X105037654Y-93503690D01*
X105037654Y-93313214D01*
X104999559Y-93237023D01*
X104961464Y-93198928D01*
X128105750Y-84416976D02*
X128067654Y-84340785D01*
X128067654Y-84226500D01*
X128105750Y-84112214D01*
X128181940Y-84036023D01*
X128258130Y-83997928D01*
X128410511Y-83959833D01*
X128524797Y-83959833D01*
X128677178Y-83997928D01*
X128753369Y-84036023D01*
X128829559Y-84112214D01*
X128867654Y-84226500D01*
X128867654Y-84302690D01*
X128829559Y-84416976D01*
X128791464Y-84455071D01*
X128524797Y-84455071D01*
X128524797Y-84302690D01*
X128867654Y-84797928D02*
X128067654Y-84797928D01*
X128867654Y-85255071D01*
X128067654Y-85255071D01*
X128867654Y-85636023D02*
X128067654Y-85636023D01*
X128067654Y-85826500D01*
X128105750Y-85940785D01*
X128181940Y-86016976D01*
X128258130Y-86055071D01*
X128410511Y-86093166D01*
X128524797Y-86093166D01*
X128677178Y-86055071D01*
X128753369Y-86016976D01*
X128829559Y-85940785D01*
X128867654Y-85826500D01*
X128867654Y-85636023D01*
X113551464Y-95815166D02*
X113589559Y-95777071D01*
X113627654Y-95662785D01*
X113627654Y-95586595D01*
X113589559Y-95472309D01*
X113513369Y-95396119D01*
X113437178Y-95358023D01*
X113284797Y-95319928D01*
X113170511Y-95319928D01*
X113018130Y-95358023D01*
X112941940Y-95396119D01*
X112865750Y-95472309D01*
X112827654Y-95586595D01*
X112827654Y-95662785D01*
X112865750Y-95777071D01*
X112903845Y-95815166D01*
X112827654Y-96500880D02*
X112827654Y-96348500D01*
X112865750Y-96272309D01*
X112903845Y-96234214D01*
X113018130Y-96158023D01*
X113170511Y-96119928D01*
X113475273Y-96119928D01*
X113551464Y-96158023D01*
X113589559Y-96196119D01*
X113627654Y-96272309D01*
X113627654Y-96424690D01*
X113589559Y-96500880D01*
X113551464Y-96538976D01*
X113475273Y-96577071D01*
X113284797Y-96577071D01*
X113208607Y-96538976D01*
X113170511Y-96500880D01*
X113132416Y-96424690D01*
X113132416Y-96272309D01*
X113170511Y-96196119D01*
X113208607Y-96158023D01*
X113284797Y-96119928D01*
X104618607Y-87680833D02*
X104618607Y-87414166D01*
X105037654Y-87414166D02*
X104237654Y-87414166D01*
X104237654Y-87795119D01*
X105037654Y-88518928D02*
X105037654Y-88061785D01*
X105037654Y-88290357D02*
X104237654Y-88290357D01*
X104351940Y-88214166D01*
X104428130Y-88137976D01*
X104466226Y-88061785D01*
X123025750Y-95338976D02*
X122987654Y-95262785D01*
X122987654Y-95148500D01*
X123025750Y-95034214D01*
X123101940Y-94958023D01*
X123178130Y-94919928D01*
X123330511Y-94881833D01*
X123444797Y-94881833D01*
X123597178Y-94919928D01*
X123673369Y-94958023D01*
X123749559Y-95034214D01*
X123787654Y-95148500D01*
X123787654Y-95224690D01*
X123749559Y-95338976D01*
X123711464Y-95377071D01*
X123444797Y-95377071D01*
X123444797Y-95224690D01*
X123787654Y-95719928D02*
X122987654Y-95719928D01*
X123787654Y-96177071D01*
X122987654Y-96177071D01*
X123787654Y-96558023D02*
X122987654Y-96558023D01*
X122987654Y-96748500D01*
X123025750Y-96862785D01*
X123101940Y-96938976D01*
X123178130Y-96977071D01*
X123330511Y-97015166D01*
X123444797Y-97015166D01*
X123597178Y-96977071D01*
X123673369Y-96938976D01*
X123749559Y-96862785D01*
X123787654Y-96748500D01*
X123787654Y-96558023D01*
X128867654Y-95358023D02*
X128067654Y-95358023D01*
X128067654Y-95548500D01*
X128105750Y-95662785D01*
X128181940Y-95738976D01*
X128258130Y-95777071D01*
X128410511Y-95815166D01*
X128524797Y-95815166D01*
X128677178Y-95777071D01*
X128753369Y-95738976D01*
X128829559Y-95662785D01*
X128867654Y-95548500D01*
X128867654Y-95358023D01*
X128143845Y-96119928D02*
X128105750Y-96158023D01*
X128067654Y-96234214D01*
X128067654Y-96424690D01*
X128105750Y-96500880D01*
X128143845Y-96538976D01*
X128220035Y-96577071D01*
X128296226Y-96577071D01*
X128410511Y-96538976D01*
X128867654Y-96081833D01*
X128867654Y-96577071D01*
X104140047Y-96722508D02*
X104234328Y-96769648D01*
X104281469Y-96769648D01*
X104352179Y-96746078D01*
X104422890Y-96675367D01*
X104446460Y-96604657D01*
X104446460Y-96557516D01*
X104422890Y-96486806D01*
X104234328Y-96298244D01*
X103739353Y-96793219D01*
X103904345Y-96958210D01*
X103975056Y-96981780D01*
X104022196Y-96981780D01*
X104092907Y-96958210D01*
X104140047Y-96911070D01*
X104163617Y-96840359D01*
X104163617Y-96793219D01*
X104140047Y-96722508D01*
X103975056Y-96557516D01*
X104470030Y-97523896D02*
X104234328Y-97288193D01*
X104446460Y-97028921D01*
X104446460Y-97076061D01*
X104470030Y-97146772D01*
X104587882Y-97264623D01*
X104658592Y-97288193D01*
X104705733Y-97288193D01*
X104776443Y-97264623D01*
X104894294Y-97146772D01*
X104917865Y-97076061D01*
X104917865Y-97028921D01*
X104894294Y-96958210D01*
X104776443Y-96840359D01*
X104705733Y-96816789D01*
X104658592Y-96816789D01*
X104210758Y-84323202D02*
X104257898Y-84228921D01*
X104257898Y-84181780D01*
X104234328Y-84111070D01*
X104163617Y-84040359D01*
X104092907Y-84016789D01*
X104045766Y-84016789D01*
X103975056Y-84040359D01*
X103786494Y-84228921D01*
X104281469Y-84723896D01*
X104446460Y-84558904D01*
X104470030Y-84488193D01*
X104470030Y-84441053D01*
X104446460Y-84370342D01*
X104399320Y-84323202D01*
X104328609Y-84299632D01*
X104281469Y-84299632D01*
X104210758Y-84323202D01*
X104045766Y-84488193D01*
X104988575Y-84016789D02*
X104894294Y-84111070D01*
X104823584Y-84134640D01*
X104776443Y-84134640D01*
X104658592Y-84111070D01*
X104540741Y-84040359D01*
X104352179Y-83851797D01*
X104328609Y-83781087D01*
X104328609Y-83733946D01*
X104352179Y-83663235D01*
X104446460Y-83568955D01*
X104517171Y-83545384D01*
X104564311Y-83545384D01*
X104635022Y-83568955D01*
X104752873Y-83686806D01*
X104776443Y-83757516D01*
X104776443Y-83804657D01*
X104752873Y-83875367D01*
X104658592Y-83969648D01*
X104587882Y-83993219D01*
X104540741Y-83993219D01*
X104470030Y-83969648D01*
X104425750Y-94704166D02*
X104459083Y-94804166D01*
X104492416Y-94837500D01*
X104559083Y-94870833D01*
X104659083Y-94870833D01*
X104725750Y-94837500D01*
X104759083Y-94804166D01*
X104792416Y-94737500D01*
X104792416Y-94470833D01*
X104092416Y-94470833D01*
X104092416Y-94704166D01*
X104125750Y-94770833D01*
X104159083Y-94804166D01*
X104225750Y-94837500D01*
X104292416Y-94837500D01*
X104359083Y-94804166D01*
X104392416Y-94770833D01*
X104425750Y-94704166D01*
X104425750Y-94470833D01*
X104092416Y-95104166D02*
X104092416Y-95570833D01*
X104792416Y-95270833D01*
X130988607Y-84702690D02*
X131026702Y-84816976D01*
X131064797Y-84855071D01*
X131140988Y-84893166D01*
X131255273Y-84893166D01*
X131331464Y-84855071D01*
X131369559Y-84816976D01*
X131407654Y-84740785D01*
X131407654Y-84436023D01*
X130607654Y-84436023D01*
X130607654Y-84702690D01*
X130645750Y-84778880D01*
X130683845Y-84816976D01*
X130760035Y-84855071D01*
X130836226Y-84855071D01*
X130912416Y-84816976D01*
X130950511Y-84778880D01*
X130988607Y-84702690D01*
X130988607Y-84436023D01*
X130607654Y-85388404D02*
X130607654Y-85464595D01*
X130645750Y-85540785D01*
X130683845Y-85578880D01*
X130760035Y-85616976D01*
X130912416Y-85655071D01*
X131102892Y-85655071D01*
X131255273Y-85616976D01*
X131331464Y-85578880D01*
X131369559Y-85540785D01*
X131407654Y-85464595D01*
X131407654Y-85388404D01*
X131369559Y-85312214D01*
X131331464Y-85274119D01*
X131255273Y-85236023D01*
X131102892Y-85197928D01*
X130912416Y-85197928D01*
X130760035Y-85236023D01*
X130683845Y-85274119D01*
X130645750Y-85312214D01*
X130607654Y-85388404D01*
X108128607Y-95396119D02*
X108128607Y-95662785D01*
X108547654Y-95777071D02*
X108547654Y-95396119D01*
X107747654Y-95396119D01*
X107747654Y-95777071D01*
X107747654Y-96462785D02*
X107747654Y-96310404D01*
X107785750Y-96234214D01*
X107823845Y-96196119D01*
X107938130Y-96119928D01*
X108090511Y-96081833D01*
X108395273Y-96081833D01*
X108471464Y-96119928D01*
X108509559Y-96158023D01*
X108547654Y-96234214D01*
X108547654Y-96386595D01*
X108509559Y-96462785D01*
X108471464Y-96500880D01*
X108395273Y-96538976D01*
X108204797Y-96538976D01*
X108128607Y-96500880D01*
X108090511Y-96462785D01*
X108052416Y-96386595D01*
X108052416Y-96234214D01*
X108090511Y-96158023D01*
X108128607Y-96119928D01*
X108204797Y-96081833D01*
X108128607Y-84702690D02*
X108166702Y-84816976D01*
X108204797Y-84855071D01*
X108280988Y-84893166D01*
X108395273Y-84893166D01*
X108471464Y-84855071D01*
X108509559Y-84816976D01*
X108547654Y-84740785D01*
X108547654Y-84436023D01*
X107747654Y-84436023D01*
X107747654Y-84702690D01*
X107785750Y-84778880D01*
X107823845Y-84816976D01*
X107900035Y-84855071D01*
X107976226Y-84855071D01*
X108052416Y-84816976D01*
X108090511Y-84778880D01*
X108128607Y-84702690D01*
X108128607Y-84436023D01*
X107747654Y-85159833D02*
X107747654Y-85655071D01*
X108052416Y-85388404D01*
X108052416Y-85502690D01*
X108090511Y-85578880D01*
X108128607Y-85616976D01*
X108204797Y-85655071D01*
X108395273Y-85655071D01*
X108471464Y-85616976D01*
X108509559Y-85578880D01*
X108547654Y-85502690D01*
X108547654Y-85274119D01*
X108509559Y-85197928D01*
X108471464Y-85159833D01*
X118288607Y-84759833D02*
X118288607Y-84493166D01*
X118707654Y-84493166D02*
X117907654Y-84493166D01*
X117907654Y-84874119D01*
X117907654Y-85559833D02*
X117907654Y-85178880D01*
X118288607Y-85140785D01*
X118250511Y-85178880D01*
X118212416Y-85255071D01*
X118212416Y-85445547D01*
X118250511Y-85521738D01*
X118288607Y-85559833D01*
X118364797Y-85597928D01*
X118555273Y-85597928D01*
X118631464Y-85559833D01*
X118669559Y-85521738D01*
X118707654Y-85445547D01*
X118707654Y-85255071D01*
X118669559Y-85178880D01*
X118631464Y-85140785D01*
X130607654Y-91868895D02*
X130607654Y-92326038D01*
X131407654Y-92097467D02*
X130607654Y-92097467D01*
X130607654Y-92516514D02*
X131407654Y-93049848D01*
X130607654Y-93049848D02*
X131407654Y-92516514D01*
X130607654Y-93506991D02*
X130607654Y-93583181D01*
X130645750Y-93659372D01*
X130683845Y-93697467D01*
X130760035Y-93735562D01*
X130912416Y-93773657D01*
X131102892Y-93773657D01*
X131255273Y-93735562D01*
X131331464Y-93697467D01*
X131369559Y-93659372D01*
X131407654Y-93583181D01*
X131407654Y-93506991D01*
X131369559Y-93430800D01*
X131331464Y-93392705D01*
X131255273Y-93354610D01*
X131102892Y-93316514D01*
X130912416Y-93316514D01*
X130760035Y-93354610D01*
X130683845Y-93392705D01*
X130645750Y-93430800D01*
X130607654Y-93506991D01*
X130569559Y-94687943D02*
X131598130Y-94002229D01*
X131407654Y-94954610D02*
X130607654Y-94954610D01*
X130607654Y-95145086D01*
X130645750Y-95259372D01*
X130721940Y-95335562D01*
X130798130Y-95373657D01*
X130950511Y-95411752D01*
X131064797Y-95411752D01*
X131217178Y-95373657D01*
X131293369Y-95335562D01*
X131369559Y-95259372D01*
X131407654Y-95145086D01*
X131407654Y-94954610D01*
X130607654Y-95678419D02*
X130607654Y-96173657D01*
X130912416Y-95906991D01*
X130912416Y-96021276D01*
X130950511Y-96097467D01*
X130988607Y-96135562D01*
X131064797Y-96173657D01*
X131255273Y-96173657D01*
X131331464Y-96135562D01*
X131369559Y-96097467D01*
X131407654Y-96021276D01*
X131407654Y-95792705D01*
X131369559Y-95716514D01*
X131331464Y-95678419D01*
%TO.C,SW3*%
X149368750Y-86064750D02*
G75*
G03*
X147104750Y-87948750I-190000J-2074000D01*
G01*
X152968750Y-90068751D02*
G75*
G03*
X150708751Y-91948749I-190001J-2069997D01*
G01*
X157993750Y-90018750D02*
X152943750Y-90064750D01*
X157993750Y-86064750D02*
X149368750Y-86064750D01*
X147093750Y-88018750D02*
X147093750Y-91963750D01*
X157993750Y-89972750D02*
X157993750Y-86064750D01*
X147093750Y-91972750D02*
X150703750Y-91972750D01*
%TO.C,SW4*%
X172018750Y-90068751D02*
G75*
G03*
X169758751Y-91948749I-190001J-2069997D01*
G01*
X168418750Y-86064750D02*
G75*
G03*
X166154750Y-87948750I-190000J-2074000D01*
G01*
X177043750Y-86064750D02*
X168418750Y-86064750D01*
X177043750Y-90018750D02*
X171993750Y-90064750D01*
X166143750Y-91972750D02*
X169753750Y-91972750D01*
X177043750Y-89972750D02*
X177043750Y-86064750D01*
X166143750Y-88018750D02*
X166143750Y-91963750D01*
%TO.C,D4*%
X144756250Y-102487500D02*
X144756250Y-103887500D01*
X145656250Y-102487500D02*
X145656250Y-103887500D01*
X144756250Y-103187500D02*
X145656250Y-102487500D01*
X145656250Y-103887500D02*
X144756250Y-103187500D01*
%TO.C,D3*%
X126606250Y-102487500D02*
X126606250Y-103887500D01*
X125706250Y-102487500D02*
X125706250Y-103887500D01*
X125706250Y-103187500D02*
X126606250Y-102487500D01*
X126606250Y-103887500D02*
X125706250Y-103187500D01*
%TO.C,SW1*%
X119893750Y-86064750D02*
X111268750Y-86064750D01*
X108993750Y-91972750D02*
X112603750Y-91972750D01*
X119893750Y-89972750D02*
X119893750Y-86064750D01*
X119893750Y-90018750D02*
X114843750Y-90064750D01*
X108993750Y-88018750D02*
X108993750Y-91963750D01*
X114868750Y-90068751D02*
G75*
G03*
X112608751Y-91948749I-190001J-2069997D01*
G01*
X111268750Y-86064750D02*
G75*
G03*
X109004750Y-87948750I-190000J-2074000D01*
G01*
D11*
%TO.C,SW5*%
X82943750Y-87762500D02*
X82943750Y-99562500D01*
X87043750Y-99562500D02*
X82943750Y-99562500D01*
X95143750Y-87762500D02*
X95143750Y-90162500D01*
X95143750Y-97162500D02*
X95143750Y-99562500D01*
X95143750Y-99562500D02*
X91043750Y-99562500D01*
X89043750Y-93162500D02*
X89043750Y-94162500D01*
X87043750Y-87762500D02*
X82943750Y-87762500D01*
X95143750Y-92362500D02*
X95143750Y-94962500D01*
X88543750Y-93662500D02*
X89543750Y-93662500D01*
X91043750Y-87762500D02*
X95143750Y-87762500D01*
X92043750Y-93662500D02*
G75*
G03*
X92043750Y-93662500I-3000000J0D01*
G01*
D10*
%TO.C,D2*%
X106656250Y-102487500D02*
X106656250Y-103887500D01*
X106656250Y-103187500D02*
X107556250Y-102487500D01*
X107556250Y-103887500D02*
X106656250Y-103187500D01*
X107556250Y-102487500D02*
X107556250Y-103887500D01*
%TO.C,RSW1*%
X92043750Y-84228750D02*
X86043750Y-84228750D01*
X92043750Y-80728750D02*
X92043750Y-81428750D01*
X86043750Y-80728750D02*
X86043750Y-81428750D01*
X92043750Y-84228750D02*
X92043750Y-83628750D01*
X86043750Y-80728750D02*
X91943750Y-80728750D01*
X86043750Y-80728750D02*
X92043750Y-80728750D01*
X86043750Y-84228750D02*
X86043750Y-83628750D01*
%TO.C,SW2*%
X133918750Y-90068751D02*
G75*
G03*
X131658751Y-91948749I-190001J-2069997D01*
G01*
X130318750Y-86064750D02*
G75*
G03*
X128054750Y-87948750I-190000J-2074000D01*
G01*
X128043750Y-91972750D02*
X131653750Y-91972750D01*
X138943750Y-86064750D02*
X130318750Y-86064750D01*
X138943750Y-90018750D02*
X133893750Y-90064750D01*
X128043750Y-88018750D02*
X128043750Y-91963750D01*
X138943750Y-89972750D02*
X138943750Y-86064750D01*
%TO.C,D1*%
X99362500Y-93368750D02*
X98662500Y-92468750D01*
X98662500Y-93368750D02*
X100062500Y-93368750D01*
X100062500Y-92468750D02*
X99362500Y-93368750D01*
X98662500Y-92468750D02*
X100062500Y-92468750D01*
%TO.C,D5*%
X164706250Y-103887500D02*
X163806250Y-103187500D01*
X163806250Y-103187500D02*
X164706250Y-102487500D01*
X164706250Y-102487500D02*
X164706250Y-103887500D01*
X163806250Y-102487500D02*
X163806250Y-103887500D01*
D12*
%TO.C,U1*%
X132315750Y-81597500D02*
X134855750Y-81597500D01*
X132315750Y-96837500D02*
X132315750Y-99377500D01*
X132315750Y-99377500D02*
X101835750Y-99377500D01*
X134855750Y-99377500D02*
X132315750Y-99377500D01*
X101835750Y-99377500D02*
X101835750Y-81597500D01*
X129775750Y-96837500D02*
X129775750Y-99377500D01*
X101835750Y-81597500D02*
X132315750Y-81597500D01*
X134855750Y-81597500D02*
X134855750Y-99377500D01*
X132315750Y-96837500D02*
X129775750Y-96837500D01*
D10*
X125836390Y-85555932D02*
X125636390Y-85555932D01*
X125636390Y-85555932D02*
X125636390Y-85655932D01*
X125636390Y-85655932D02*
X125836390Y-85655932D01*
X125836390Y-85655932D02*
X125836390Y-85555932D01*
G36*
X125836390Y-85655932D02*
G01*
X125636390Y-85655932D01*
X125636390Y-85555932D01*
X125836390Y-85555932D01*
X125836390Y-85655932D01*
G37*
X125836390Y-85655932D02*
X125636390Y-85655932D01*
X125636390Y-85555932D01*
X125836390Y-85555932D01*
X125836390Y-85655932D01*
X126436390Y-85955932D02*
X125636390Y-85955932D01*
X125636390Y-85955932D02*
X125636390Y-86055932D01*
X125636390Y-86055932D02*
X126436390Y-86055932D01*
X126436390Y-86055932D02*
X126436390Y-85955932D01*
G36*
X126436390Y-86055932D02*
G01*
X125636390Y-86055932D01*
X125636390Y-85955932D01*
X126436390Y-85955932D01*
X126436390Y-86055932D01*
G37*
X126436390Y-86055932D02*
X125636390Y-86055932D01*
X125636390Y-85955932D01*
X126436390Y-85955932D01*
X126436390Y-86055932D01*
X126436390Y-85555932D02*
X126136390Y-85555932D01*
X126136390Y-85555932D02*
X126136390Y-85655932D01*
X126136390Y-85655932D02*
X126436390Y-85655932D01*
X126436390Y-85655932D02*
X126436390Y-85555932D01*
G36*
X126436390Y-85655932D02*
G01*
X126136390Y-85655932D01*
X126136390Y-85555932D01*
X126436390Y-85555932D01*
X126436390Y-85655932D01*
G37*
X126436390Y-85655932D02*
X126136390Y-85655932D01*
X126136390Y-85555932D01*
X126436390Y-85555932D01*
X126436390Y-85655932D01*
X126436390Y-85555932D02*
X126336390Y-85555932D01*
X126336390Y-85555932D02*
X126336390Y-86055932D01*
X126336390Y-86055932D02*
X126436390Y-86055932D01*
X126436390Y-86055932D02*
X126436390Y-85555932D01*
G36*
X126436390Y-86055932D02*
G01*
X126336390Y-86055932D01*
X126336390Y-85555932D01*
X126436390Y-85555932D01*
X126436390Y-86055932D01*
G37*
X126436390Y-86055932D02*
X126336390Y-86055932D01*
X126336390Y-85555932D01*
X126436390Y-85555932D01*
X126436390Y-86055932D01*
X126036390Y-85755932D02*
X125936390Y-85755932D01*
X125936390Y-85755932D02*
X125936390Y-85855932D01*
X125936390Y-85855932D02*
X126036390Y-85855932D01*
X126036390Y-85855932D02*
X126036390Y-85755932D01*
G36*
X126036390Y-85855932D02*
G01*
X125936390Y-85855932D01*
X125936390Y-85755932D01*
X126036390Y-85755932D01*
X126036390Y-85855932D01*
G37*
X126036390Y-85855932D02*
X125936390Y-85855932D01*
X125936390Y-85755932D01*
X126036390Y-85755932D01*
X126036390Y-85855932D01*
%TD*%
D13*
%TO.C,U1*%
X131045750Y-98107500D03*
D14*
X128505750Y-98107500D03*
X125965750Y-98107500D03*
X123425750Y-98107500D03*
X120885750Y-98107500D03*
X118345750Y-98107500D03*
X115805750Y-98107500D03*
X113265750Y-98107500D03*
X110725750Y-98107500D03*
X108185750Y-98107500D03*
X105645750Y-98107500D03*
X103105750Y-97878900D03*
X103105750Y-82867500D03*
X105645750Y-82867500D03*
X108185750Y-82867500D03*
X110725750Y-82867500D03*
X113265750Y-82867500D03*
X115805750Y-82867500D03*
X118345750Y-82867500D03*
X120885750Y-82867500D03*
X123425750Y-82867500D03*
X125965750Y-82867500D03*
X128505750Y-82867500D03*
X131045750Y-82867500D03*
X103105750Y-95567500D03*
X103105750Y-93027500D03*
X103105750Y-90487500D03*
X103105750Y-87947500D03*
X103105750Y-85407500D03*
%TD*%
M02*
