  0
SECTION
  2
HEADER
  9
$ANGBASE
  50
0.0
  9
$ANGDIR
  70
1
  9
$MEASUREMENT
  70
0
  0
ENDSEC
  0
SECTION
  2
TABLES
  0
TABLE
  2
LTYPE
  70
4
  0
LTYPE
  5
40F
  2
CONTINUOUS
  70
0
  3
Solid line
  72
65
  73
0
  40
0.0
  0
LTYPE
  5
410
  2
DASHDOT
 70
0
  3
Dash Dot ____ _ ____ _
 72
65
 73
4
 40
2.0
 49
1.25
 49
-0.25
 49
0.25
 49
-0.25
  0
LTYPE
  5
411
  2
DASHED
 70
0
  3
Dashed __ __ __ __ __
 72
65
 73
2
 40
0.75
 49
0.5
 49
-0.25
  0
LTYPE
  5
43B
  2
DOTTED
 70
0
  3
Dotted .  .  .  .
 72
65
 73
2
 40
0.2
 49
0.0
 49
-0.2
  0
ENDTAB
  0
TABLE
  2
STYLE
  70
4
  0
STYLE
  2
KICAD
  70
0
  40
0
  41
1
  42
1
  50
0
  71
0
  3
isocp.shx
  0
STYLE
  2
KICADB
  70
0
  40
0
  41
1
  42
1
  50
0
  71
0
  3
isocp.shx
  0
STYLE
  2
KICADI
  70
0
  40
0
  41
1
  42
1
  50
15
  71
0
  3
isocp.shx
  0
STYLE
  2
KICADBI
  70
0
  40
0
  41
1
  42
1
  50
15
  71
0
  3
isocp.shx
  0
ENDTAB
  0
TABLE
  2
LAYER
  70
1
  0
LAYER
  2
BLACK
  70
0
  62
7
  6
CONTINUOUS
  0
ENDTAB
  0
ENDSEC
  0
SECTION
  2
ENTITIES
0
LINE
8
BLACK
6
CONTINUOUS
10
7.2147
20
-3.22029
11
7.21483
21
-3.22027
0
LINE
8
BLACK
6
CONTINUOUS
10
7.21483
20
-3.22027
11
7.21495
21
-3.22034
0
LINE
8
BLACK
6
CONTINUOUS
10
7.21495
20
-3.22034
11
7.21533
21
-3.2204
0
LINE
8
BLACK
6
CONTINUOUS
10
7.21533
20
-3.2204
11
7.21592
21
-3.2209
0
LINE
8
BLACK
6
CONTINUOUS
10
7.21592
20
-3.2209
11
7.21658
21
-3.22128
0
LINE
8
BLACK
6
CONTINUOUS
10
7.21658
20
-3.22128
11
7.21667
21
-3.22153
0
LINE
8
BLACK
6
CONTINUOUS
10
7.21667
20
-3.22153
11
7.21688
21
-3.2217
0
LINE
8
BLACK
6
CONTINUOUS
10
7.21688
20
-3.2217
11
7.21701
21
-3.22246
0
LINE
8
BLACK
6
CONTINUOUS
10
7.21701
20
-3.22246
11
7.21727
21
-3.22318
0
LINE
8
BLACK
6
CONTINUOUS
10
7.21727
20
-3.22318
11
7.21727
21
-4.08932
0
LINE
8
BLACK
6
CONTINUOUS
10
7.21727
20
-4.08932
11
7.21721
21
-4.0897
0
LINE
8
BLACK
6
CONTINUOUS
10
7.21721
20
-4.0897
11
7.21723
21
-4.08983
0
LINE
8
BLACK
6
CONTINUOUS
10
7.21723
20
-4.08983
11
7.21716
21
-4.08995
0
LINE
8
BLACK
6
CONTINUOUS
10
7.21716
20
-4.08995
11
7.2171
21
-4.09033
0
LINE
8
BLACK
6
CONTINUOUS
10
7.2171
20
-4.09033
11
7.2166
21
-4.09092
0
LINE
8
BLACK
6
CONTINUOUS
10
7.2166
20
-4.09092
11
7.21622
21
-4.09158
0
LINE
8
BLACK
6
CONTINUOUS
10
7.21622
20
-4.09158
11
7.21597
21
-4.09167
0
LINE
8
BLACK
6
CONTINUOUS
10
7.21597
20
-4.09167
11
7.2158
21
-4.09188
0
LINE
8
BLACK
6
CONTINUOUS
10
7.2158
20
-4.09188
11
7.21504
21
-4.09201
0
LINE
8
BLACK
6
CONTINUOUS
10
7.21504
20
-4.09201
11
7.21432
21
-4.09227
0
LINE
8
BLACK
6
CONTINUOUS
10
7.21432
20
-4.09227
11
6.34818
21
-4.09227
0
LINE
8
BLACK
6
CONTINUOUS
10
6.34818
20
-4.09227
11
6.34818
21
-4.09227
0
LINE
8
BLACK
6
CONTINUOUS
10
6.34818
20
-4.09227
11
5.59818
21
-4.09227
0
LINE
8
BLACK
6
CONTINUOUS
10
5.59818
20
-4.09227
11
5.59818
21
-4.09227
0
LINE
8
BLACK
6
CONTINUOUS
10
5.59818
20
-4.09227
11
4.84818
21
-4.09227
0
LINE
8
BLACK
6
CONTINUOUS
10
4.84818
20
-4.09227
11
4.84818
21
-4.09227
0
LINE
8
BLACK
6
CONTINUOUS
10
4.84818
20
-4.09227
11
4.09818
21
-4.09227
0
LINE
8
BLACK
6
CONTINUOUS
10
4.09818
20
-4.09227
11
4.0978
21
-4.09221
0
LINE
8
BLACK
6
CONTINUOUS
10
4.0978
20
-4.09221
11
4.09767
21
-4.09223
0
LINE
8
BLACK
6
CONTINUOUS
10
4.09767
20
-4.09223
11
4.09755
21
-4.09216
0
LINE
8
BLACK
6
CONTINUOUS
10
4.09755
20
-4.09216
11
4.09717
21
-4.0921
0
LINE
8
BLACK
6
CONTINUOUS
10
4.09717
20
-4.0921
11
4.09658
21
-4.0916
0
LINE
8
BLACK
6
CONTINUOUS
10
4.09658
20
-4.0916
11
4.09592
21
-4.09122
0
LINE
8
BLACK
6
CONTINUOUS
10
4.09592
20
-4.09122
11
4.09583
21
-4.09097
0
LINE
8
BLACK
6
CONTINUOUS
10
4.09583
20
-4.09097
11
4.09562
21
-4.0908
0
LINE
8
BLACK
6
CONTINUOUS
10
4.09562
20
-4.0908
11
4.09549
21
-4.09004
0
LINE
8
BLACK
6
CONTINUOUS
10
4.09549
20
-4.09004
11
4.09523
21
-4.08932
0
LINE
8
BLACK
6
CONTINUOUS
10
4.09523
20
-4.08932
11
4.09523
21
-3.22318
0
LINE
8
BLACK
6
CONTINUOUS
10
4.09523
20
-3.22318
11
4.09529
21
-3.2228
0
LINE
8
BLACK
6
CONTINUOUS
10
4.09529
20
-3.2228
11
4.09527
21
-3.22267
0
LINE
8
BLACK
6
CONTINUOUS
10
4.09527
20
-3.22267
11
4.09534
21
-3.22255
0
LINE
8
BLACK
6
CONTINUOUS
10
4.09534
20
-3.22255
11
4.0954
21
-3.22217
0
LINE
8
BLACK
6
CONTINUOUS
10
4.0954
20
-3.22217
11
4.0959
21
-3.22158
0
LINE
8
BLACK
6
CONTINUOUS
10
4.0959
20
-3.22158
11
4.09628
21
-3.22092
0
LINE
8
BLACK
6
CONTINUOUS
10
4.09628
20
-3.22092
11
4.09653
21
-3.22083
0
LINE
8
BLACK
6
CONTINUOUS
10
4.09653
20
-3.22083
11
4.0967
21
-3.22062
0
LINE
8
BLACK
6
CONTINUOUS
10
4.0967
20
-3.22062
11
4.09746
21
-3.22049
0
LINE
8
BLACK
6
CONTINUOUS
10
4.09746
20
-3.22049
11
4.09818
21
-3.22023
0
LINE
8
BLACK
6
CONTINUOUS
10
4.09818
20
-3.22023
11
4.96432
21
-3.22023
0
LINE
8
BLACK
6
CONTINUOUS
10
4.96432
20
-3.22023
11
4.96432
21
-3.22023
0
LINE
8
BLACK
6
CONTINUOUS
10
4.96432
20
-3.22023
11
5.71432
21
-3.22023
0
LINE
8
BLACK
6
CONTINUOUS
10
5.71432
20
-3.22023
11
5.71432
21
-3.22023
0
LINE
8
BLACK
6
CONTINUOUS
10
5.71432
20
-3.22023
11
6.46432
21
-3.22023
0
LINE
8
BLACK
6
CONTINUOUS
10
6.46432
20
-3.22023
11
6.46432
21
-3.22023
0
LINE
8
BLACK
6
CONTINUOUS
10
6.46432
20
-3.22023
11
7.21432
21
-3.22023
0
LINE
8
BLACK
6
CONTINUOUS
10
7.21432
20
-3.22023
11
7.2147
21
-3.22029
0
LINE
8
BLACK
6
CONTINUOUS
10
4.10113
20
-3.22613
11
4.10113
21
-4.08637
0
LINE
8
BLACK
6
CONTINUOUS
10
4.10113
20
-4.08637
11
4.84523
21
-4.08637
0
LINE
8
BLACK
6
CONTINUOUS
10
4.84523
20
-4.08637
11
4.84523
21
-3.22613
0
LINE
8
BLACK
6
CONTINUOUS
10
4.84523
20
-3.22613
11
4.10113
21
-3.22613
0
LINE
8
BLACK
6
CONTINUOUS
10
4.96727
20
-3.22613
11
4.96727
21
-4.08637
0
LINE
8
BLACK
6
CONTINUOUS
10
4.96727
20
-4.08637
11
5.59523
21
-4.08637
0
LINE
8
BLACK
6
CONTINUOUS
10
5.59523
20
-4.08637
11
5.59523
21
-3.22613
0
LINE
8
BLACK
6
CONTINUOUS
10
5.59523
20
-3.22613
11
4.96727
21
-3.22613
0
LINE
8
BLACK
6
CONTINUOUS
10
5.71727
20
-3.22613
11
5.71727
21
-4.08637
0
LINE
8
BLACK
6
CONTINUOUS
10
5.71727
20
-4.08637
11
6.34523
21
-4.08637
0
LINE
8
BLACK
6
CONTINUOUS
10
6.34523
20
-4.08637
11
6.34523
21
-3.22613
0
LINE
8
BLACK
6
CONTINUOUS
10
6.34523
20
-3.22613
11
5.71727
21
-3.22613
0
LINE
8
BLACK
6
CONTINUOUS
10
6.46727
20
-3.22613
11
6.46727
21
-4.08637
0
LINE
8
BLACK
6
CONTINUOUS
10
6.46727
20
-4.08637
11
7.21137
21
-4.08637
0
LINE
8
BLACK
6
CONTINUOUS
10
7.21137
20
-4.08637
11
7.21137
21
-3.22613
0
LINE
8
BLACK
6
CONTINUOUS
10
7.21137
20
-3.22613
11
6.46727
21
-3.22613
0
LINE
8
BLACK
6
CONTINUOUS
10
4.85113
20
-3.22613
11
4.85113
21
-4.08637
0
LINE
8
BLACK
6
CONTINUOUS
10
4.85113
20
-4.08637
11
4.96137
21
-4.08637
0
LINE
8
BLACK
6
CONTINUOUS
10
4.96137
20
-4.08637
11
4.96137
21
-3.22613
0
LINE
8
BLACK
6
CONTINUOUS
10
4.96137
20
-3.22613
11
4.85113
21
-3.22613
0
LINE
8
BLACK
6
CONTINUOUS
10
5.60113
20
-3.22613
11
5.60113
21
-4.08637
0
LINE
8
BLACK
6
CONTINUOUS
10
5.60113
20
-4.08637
11
5.71137
21
-4.08637
0
LINE
8
BLACK
6
CONTINUOUS
10
5.71137
20
-4.08637
11
5.71137
21
-3.22613
0
LINE
8
BLACK
6
CONTINUOUS
10
5.71137
20
-3.22613
11
5.60113
21
-3.22613
0
LINE
8
BLACK
6
CONTINUOUS
10
6.35113
20
-3.22613
11
6.35113
21
-4.08637
0
LINE
8
BLACK
6
CONTINUOUS
10
6.35113
20
-4.08637
11
6.46137
21
-4.08637
0
LINE
8
BLACK
6
CONTINUOUS
10
6.46137
20
-4.08637
11
6.46137
21
-3.22613
0
LINE
8
BLACK
6
CONTINUOUS
10
6.46137
20
-3.22613
11
6.35113
21
-3.22613
0
LINE
8
BLACK
6
CONTINUOUS
10
3.44435
20
-3.98754
11
3.44564
21
-3.98909
0
LINE
8
BLACK
6
CONTINUOUS
10
3.44564
20
-3.98909
11
3.45223
21
-4.00755
0
LINE
8
BLACK
6
CONTINUOUS
10
3.45223
20
-4.00755
11
3.45882
21
-3.98909
0
LINE
8
BLACK
6
CONTINUOUS
10
3.45882
20
-3.98909
11
3.45933
21
-3.9882
0
LINE
8
BLACK
6
CONTINUOUS
10
3.45933
20
-3.9882
11
3.46107
21
-3.98718
0
LINE
8
BLACK
6
CONTINUOUS
10
3.46107
20
-3.98718
11
3.46306
21
-3.98752
0
LINE
8
BLACK
6
CONTINUOUS
10
3.46306
20
-3.98752
11
3.46437
21
-3.98906
0
LINE
8
BLACK
6
CONTINUOUS
10
3.46437
20
-3.98906
11
3.46438
21
-3.99108
0
LINE
8
BLACK
6
CONTINUOUS
10
3.46438
20
-3.99108
11
3.45501
21
-4.01733
0
LINE
8
BLACK
6
CONTINUOUS
10
3.45501
20
-4.01733
11
3.45497
21
-4.01739
0
LINE
8
BLACK
6
CONTINUOUS
10
3.45497
20
-4.01739
11
3.45497
21
-4.01743
0
LINE
8
BLACK
6
CONTINUOUS
10
3.45497
20
-4.01743
11
3.45122
21
-4.0268
0
LINE
8
BLACK
6
CONTINUOUS
10
3.45122
20
-4.0268
11
3.45068
21
-4.02768
0
LINE
8
BLACK
6
CONTINUOUS
10
3.45068
20
-4.02768
11
3.4506
21
-4.02772
0
LINE
8
BLACK
6
CONTINUOUS
10
3.4506
20
-4.02772
11
3.45057
21
-4.0278
0
LINE
8
BLACK
6
CONTINUOUS
10
3.45057
20
-4.0278
11
3.44869
21
-4.02967
0
LINE
8
BLACK
6
CONTINUOUS
10
3.44869
20
-4.02967
11
3.44797
21
-4.03018
0
LINE
8
BLACK
6
CONTINUOUS
10
3.44797
20
-4.03018
11
3.44792
21
-4.03022
0
LINE
8
BLACK
6
CONTINUOUS
10
3.44792
20
-4.03022
11
3.44418
21
-4.0321
0
LINE
8
BLACK
6
CONTINUOUS
10
3.44418
20
-4.0321
11
3.44319
21
-4.03239
0
LINE
8
BLACK
6
CONTINUOUS
10
3.44319
20
-4.03239
11
3.44123
21
-4.03192
0
LINE
8
BLACK
6
CONTINUOUS
10
3.44123
20
-4.03192
11
3.44002
21
-4.0303
0
LINE
8
BLACK
6
CONTINUOUS
10
3.44002
20
-4.0303
11
3.44015
21
-4.02828
0
LINE
8
BLACK
6
CONTINUOUS
10
3.44015
20
-4.02828
11
3.44153
21
-4.02682
0
LINE
8
BLACK
6
CONTINUOUS
10
3.44153
20
-4.02682
11
3.44486
21
-4.02516
0
LINE
8
BLACK
6
CONTINUOUS
10
3.44486
20
-4.02516
11
3.44596
21
-4.02405
0
LINE
8
BLACK
6
CONTINUOUS
10
3.44596
20
-4.02405
11
3.44907
21
-4.01627
0
LINE
8
BLACK
6
CONTINUOUS
10
3.44907
20
-4.01627
11
3.44007
21
-3.99108
0
LINE
8
BLACK
6
CONTINUOUS
10
3.44007
20
-3.99108
11
3.4399
21
-3.99007
0
LINE
8
BLACK
6
CONTINUOUS
10
3.4399
20
-3.99007
11
3.4406
21
-3.98818
0
LINE
8
BLACK
6
CONTINUOUS
10
3.4406
20
-3.98818
11
3.44236
21
-3.98718
0
LINE
8
BLACK
6
CONTINUOUS
10
3.44236
20
-3.98718
11
3.44435
21
-3.98754
0
LINE
8
BLACK
6
CONTINUOUS
10
3.76257
20
-4.01731
11
3.76412
21
-4.01861
0
LINE
8
BLACK
6
CONTINUOUS
10
3.76412
20
-4.01861
11
3.76447
21
-4.0206
0
LINE
8
BLACK
6
CONTINUOUS
10
3.76447
20
-4.0206
11
3.76346
21
-4.02235
0
LINE
8
BLACK
6
CONTINUOUS
10
3.76346
20
-4.02235
11
3.76156
21
-4.02304
0
LINE
8
BLACK
6
CONTINUOUS
10
3.76156
20
-4.02304
11
3.73157
21
-4.02304
0
LINE
8
BLACK
6
CONTINUOUS
10
3.73157
20
-4.02304
11
3.73056
21
-4.02286
0
LINE
8
BLACK
6
CONTINUOUS
10
3.73056
20
-4.02286
11
3.72901
21
-4.02156
0
LINE
8
BLACK
6
CONTINUOUS
10
3.72901
20
-4.02156
11
3.72866
21
-4.01957
0
LINE
8
BLACK
6
CONTINUOUS
10
3.72866
20
-4.01957
11
3.72967
21
-4.01782
0
LINE
8
BLACK
6
CONTINUOUS
10
3.72967
20
-4.01782
11
3.73157
21
-4.01713
0
LINE
8
BLACK
6
CONTINUOUS
10
3.73157
20
-4.01713
11
3.76156
21
-4.01713
0
LINE
8
BLACK
6
CONTINUOUS
10
3.76156
20
-4.01713
11
3.76257
21
-4.01731
0
LINE
8
BLACK
6
CONTINUOUS
10
3.49823
20
-4.01731
11
3.49978
21
-4.01861
0
LINE
8
BLACK
6
CONTINUOUS
10
3.49978
20
-4.01861
11
3.50013
21
-4.0206
0
LINE
8
BLACK
6
CONTINUOUS
10
3.50013
20
-4.0206
11
3.49912
21
-4.02235
0
LINE
8
BLACK
6
CONTINUOUS
10
3.49912
20
-4.02235
11
3.49722
21
-4.02304
0
LINE
8
BLACK
6
CONTINUOUS
10
3.49722
20
-4.02304
11
3.46723
21
-4.02304
0
LINE
8
BLACK
6
CONTINUOUS
10
3.46723
20
-4.02304
11
3.46622
21
-4.02286
0
LINE
8
BLACK
6
CONTINUOUS
10
3.46622
20
-4.02286
11
3.46467
21
-4.02156
0
LINE
8
BLACK
6
CONTINUOUS
10
3.46467
20
-4.02156
11
3.46432
21
-4.01957
0
LINE
8
BLACK
6
CONTINUOUS
10
3.46432
20
-4.01957
11
3.46533
21
-4.01782
0
LINE
8
BLACK
6
CONTINUOUS
10
3.46533
20
-4.01782
11
3.46723
21
-4.01713
0
LINE
8
BLACK
6
CONTINUOUS
10
3.46723
20
-4.01713
11
3.49722
21
-4.01713
0
LINE
8
BLACK
6
CONTINUOUS
10
3.49722
20
-4.01713
11
3.49823
21
-4.01731
0
LINE
8
BLACK
6
CONTINUOUS
10
3.28076
20
-4.01731
11
3.28231
21
-4.01861
0
LINE
8
BLACK
6
CONTINUOUS
10
3.28231
20
-4.01861
11
3.28266
21
-4.0206
0
LINE
8
BLACK
6
CONTINUOUS
10
3.28266
20
-4.0206
11
3.28165
21
-4.02235
0
LINE
8
BLACK
6
CONTINUOUS
10
3.28165
20
-4.02235
11
3.27975
21
-4.02304
0
LINE
8
BLACK
6
CONTINUOUS
10
3.27975
20
-4.02304
11
3.24975
21
-4.02304
0
LINE
8
BLACK
6
CONTINUOUS
10
3.24975
20
-4.02304
11
3.24874
21
-4.02286
0
LINE
8
BLACK
6
CONTINUOUS
10
3.24874
20
-4.02286
11
3.2472
21
-4.02156
0
LINE
8
BLACK
6
CONTINUOUS
10
3.2472
20
-4.02156
11
3.24685
21
-4.01957
0
LINE
8
BLACK
6
CONTINUOUS
10
3.24685
20
-4.01957
11
3.24786
21
-4.01782
0
LINE
8
BLACK
6
CONTINUOUS
10
3.24786
20
-4.01782
11
3.24975
21
-4.01713
0
LINE
8
BLACK
6
CONTINUOUS
10
3.24975
20
-4.01713
11
3.27975
21
-4.01713
0
LINE
8
BLACK
6
CONTINUOUS
10
3.27975
20
-4.01713
11
3.28076
21
-4.01731
0
LINE
8
BLACK
6
CONTINUOUS
10
3.39887
20
-3.98731
11
3.39901
21
-3.98743
0
LINE
8
BLACK
6
CONTINUOUS
10
3.39901
20
-3.98743
11
3.39918
21
-3.98745
0
LINE
8
BLACK
6
CONTINUOUS
10
3.39918
20
-3.98745
11
3.40293
21
-3.98932
0
LINE
8
BLACK
6
CONTINUOUS
10
3.40293
20
-3.98932
11
3.40375
21
-3.98993
0
LINE
8
BLACK
6
CONTINUOUS
10
3.40375
20
-3.98993
11
3.40393
21
-3.99034
0
LINE
8
BLACK
6
CONTINUOUS
10
3.40393
20
-3.99034
11
3.40425
21
-3.99064
0
LINE
8
BLACK
6
CONTINUOUS
10
3.40425
20
-3.99064
11
3.40613
21
-3.99439
0
LINE
8
BLACK
6
CONTINUOUS
10
3.40613
20
-3.99439
11
3.40642
21
-3.99537
0
LINE
8
BLACK
6
CONTINUOUS
10
3.40642
20
-3.99537
11
3.40638
21
-3.99555
0
LINE
8
BLACK
6
CONTINUOUS
10
3.40638
20
-3.99555
11
3.40644
21
-3.99571
0
LINE
8
BLACK
6
CONTINUOUS
10
3.40644
20
-3.99571
11
3.40644
21
-4.01633
0
LINE
8
BLACK
6
CONTINUOUS
10
3.40644
20
-4.01633
11
3.40626
21
-4.01734
0
LINE
8
BLACK
6
CONTINUOUS
10
3.40626
20
-4.01734
11
3.40496
21
-4.01889
0
LINE
8
BLACK
6
CONTINUOUS
10
3.40496
20
-4.01889
11
3.40297
21
-4.01924
0
LINE
8
BLACK
6
CONTINUOUS
10
3.40297
20
-4.01924
11
3.40183
21
-4.01859
0
LINE
8
BLACK
6
CONTINUOUS
10
3.40183
20
-4.01859
11
3.40106
21
-4.01897
0
LINE
8
BLACK
6
CONTINUOUS
10
3.40106
20
-4.01897
11
3.40007
21
-4.01927
0
LINE
8
BLACK
6
CONTINUOUS
10
3.40007
20
-4.01927
11
3.3999
21
-4.01923
0
LINE
8
BLACK
6
CONTINUOUS
10
3.3999
20
-4.01923
11
3.39974
21
-4.01929
0
LINE
8
BLACK
6
CONTINUOUS
10
3.39974
20
-4.01929
11
3.39036
21
-4.01929
0
LINE
8
BLACK
6
CONTINUOUS
10
3.39036
20
-4.01929
11
3.38935
21
-4.01911
0
LINE
8
BLACK
6
CONTINUOUS
10
3.38935
20
-4.01911
11
3.38922
21
-4.019
0
LINE
8
BLACK
6
CONTINUOUS
10
3.38922
20
-4.019
11
3.38904
21
-4.01897
0
LINE
8
BLACK
6
CONTINUOUS
10
3.38904
20
-4.01897
11
3.38529
21
-4.0171
0
LINE
8
BLACK
6
CONTINUOUS
10
3.38529
20
-4.0171
11
3.38447
21
-4.01649
0
LINE
8
BLACK
6
CONTINUOUS
10
3.38447
20
-4.01649
11
3.38429
21
-4.01608
0
LINE
8
BLACK
6
CONTINUOUS
10
3.38429
20
-4.01608
11
3.38397
21
-4.01578
0
LINE
8
BLACK
6
CONTINUOUS
10
3.38397
20
-4.01578
11
3.3821
21
-4.01203
0
LINE
8
BLACK
6
CONTINUOUS
10
3.3821
20
-4.01203
11
3.3818
21
-4.01105
0
LINE
8
BLACK
6
CONTINUOUS
10
3.3818
20
-4.01105
11
3.38184
21
-4.01088
0
LINE
8
BLACK
6
CONTINUOUS
10
3.38184
20
-4.01088
11
3.38178
21
-4.01071
0
LINE
8
BLACK
6
CONTINUOUS
10
3.38178
20
-4.01071
11
3.38178
21
-4.00696
0
LINE
8
BLACK
6
CONTINUOUS
10
3.38178
20
-4.00696
11
3.38196
21
-4.00595
0
LINE
8
BLACK
6
CONTINUOUS
10
3.38196
20
-4.00595
11
3.38208
21
-4.00581
0
LINE
8
BLACK
6
CONTINUOUS
10
3.38208
20
-4.00581
11
3.3821
21
-4.00564
0
LINE
8
BLACK
6
CONTINUOUS
10
3.3821
20
-4.00564
11
3.38397
21
-4.00189
0
LINE
8
BLACK
6
CONTINUOUS
10
3.38397
20
-4.00189
11
3.38458
21
-4.00107
0
LINE
8
BLACK
6
CONTINUOUS
10
3.38458
20
-4.00107
11
3.38499
21
-4.00089
0
LINE
8
BLACK
6
CONTINUOUS
10
3.38499
20
-4.00089
11
3.38529
21
-4.00057
0
LINE
8
BLACK
6
CONTINUOUS
10
3.38529
20
-4.00057
11
3.38904
21
-3.99869
0
LINE
8
BLACK
6
CONTINUOUS
10
3.38904
20
-3.99869
11
3.39002
21
-3.9984
0
LINE
8
BLACK
6
CONTINUOUS
10
3.39002
20
-3.9984
11
3.3902
21
-3.99844
0
LINE
8
BLACK
6
CONTINUOUS
10
3.3902
20
-3.99844
11
3.39036
21
-3.99838
0
LINE
8
BLACK
6
CONTINUOUS
10
3.39036
20
-3.99838
11
3.39904
21
-3.99838
0
LINE
8
BLACK
6
CONTINUOUS
10
3.39904
20
-3.99838
11
3.40053
21
-3.99764
0
LINE
8
BLACK
6
CONTINUOUS
10
3.40053
20
-3.99764
11
3.40053
21
-3.99641
0
LINE
8
BLACK
6
CONTINUOUS
10
3.40053
20
-3.99641
11
3.39941
21
-3.99416
0
LINE
8
BLACK
6
CONTINUOUS
10
3.39941
20
-3.99416
11
3.39716
21
-3.99304
0
LINE
8
BLACK
6
CONTINUOUS
10
3.39716
20
-3.99304
11
3.39106
21
-3.99304
0
LINE
8
BLACK
6
CONTINUOUS
10
3.39106
20
-3.99304
11
3.38793
21
-3.9946
0
LINE
8
BLACK
6
CONTINUOUS
10
3.38793
20
-3.9946
11
3.38695
21
-3.9949
0
LINE
8
BLACK
6
CONTINUOUS
10
3.38695
20
-3.9949
11
3.38498
21
-3.99443
0
LINE
8
BLACK
6
CONTINUOUS
10
3.38498
20
-3.99443
11
3.38378
21
-3.9928
0
LINE
8
BLACK
6
CONTINUOUS
10
3.38378
20
-3.9928
11
3.3839
21
-3.99079
0
LINE
8
BLACK
6
CONTINUOUS
10
3.3839
20
-3.99079
11
3.38529
21
-3.98932
0
LINE
8
BLACK
6
CONTINUOUS
10
3.38529
20
-3.98932
11
3.38904
21
-3.98745
0
LINE
8
BLACK
6
CONTINUOUS
10
3.38904
20
-3.98745
11
3.39002
21
-3.98715
0
LINE
8
BLACK
6
CONTINUOUS
10
3.39002
20
-3.98715
11
3.3902
21
-3.98719
0
LINE
8
BLACK
6
CONTINUOUS
10
3.3902
20
-3.98719
11
3.39036
21
-3.98713
0
LINE
8
BLACK
6
CONTINUOUS
10
3.39036
20
-3.98713
11
3.39786
21
-3.98713
0
LINE
8
BLACK
6
CONTINUOUS
10
3.39786
20
-3.98713
11
3.39887
21
-3.98731
0
LINE
8
BLACK
6
CONTINUOUS
10
3.40007
20
-4.00427
11
3.3999
21
-4.00423
0
LINE
8
BLACK
6
CONTINUOUS
10
3.3999
20
-4.00423
11
3.39974
21
-4.00429
0
LINE
8
BLACK
6
CONTINUOUS
10
3.39974
20
-4.00429
11
3.39106
21
-4.00429
0
LINE
8
BLACK
6
CONTINUOUS
10
3.39106
20
-4.00429
11
3.38881
21
-4.00541
0
LINE
8
BLACK
6
CONTINUOUS
10
3.38881
20
-4.00541
11
3.38769
21
-4.00766
0
LINE
8
BLACK
6
CONTINUOUS
10
3.38769
20
-4.00766
11
3.38769
21
-4.01001
0
LINE
8
BLACK
6
CONTINUOUS
10
3.38769
20
-4.01001
11
3.38881
21
-4.01226
0
LINE
8
BLACK
6
CONTINUOUS
10
3.38881
20
-4.01226
11
3.39106
21
-4.01338
0
LINE
8
BLACK
6
CONTINUOUS
10
3.39106
20
-4.01338
11
3.39904
21
-4.01338
0
LINE
8
BLACK
6
CONTINUOUS
10
3.39904
20
-4.01338
11
3.40053
21
-4.01263
0
LINE
8
BLACK
6
CONTINUOUS
10
3.40053
20
-4.01263
11
3.40053
21
-4.00413
0
LINE
8
BLACK
6
CONTINUOUS
10
3.40053
20
-4.00413
11
3.40007
21
-4.00427
0
LINE
8
BLACK
6
CONTINUOUS
10
3.66634
20
-3.97507
11
3.66703
21
-3.97696
0
LINE
8
BLACK
6
CONTINUOUS
10
3.66703
20
-3.97696
11
3.66703
21
-4.01633
0
LINE
8
BLACK
6
CONTINUOUS
10
3.66703
20
-4.01633
11
3.66685
21
-4.01734
0
LINE
8
BLACK
6
CONTINUOUS
10
3.66685
20
-4.01734
11
3.66555
21
-4.01889
0
LINE
8
BLACK
6
CONTINUOUS
10
3.66555
20
-4.01889
11
3.66356
21
-4.01924
0
LINE
8
BLACK
6
CONTINUOUS
10
3.66356
20
-4.01924
11
3.66243
21
-4.01859
0
LINE
8
BLACK
6
CONTINUOUS
10
3.66243
20
-4.01859
11
3.66165
21
-4.01897
0
LINE
8
BLACK
6
CONTINUOUS
10
3.66165
20
-4.01897
11
3.66067
21
-4.01927
0
LINE
8
BLACK
6
CONTINUOUS
10
3.66067
20
-4.01927
11
3.66049
21
-4.01923
0
LINE
8
BLACK
6
CONTINUOUS
10
3.66049
20
-4.01923
11
3.66033
21
-4.01929
0
LINE
8
BLACK
6
CONTINUOUS
10
3.66033
20
-4.01929
11
3.65283
21
-4.01929
0
LINE
8
BLACK
6
CONTINUOUS
10
3.65283
20
-4.01929
11
3.65182
21
-4.01911
0
LINE
8
BLACK
6
CONTINUOUS
10
3.65182
20
-4.01911
11
3.65168
21
-4.019
0
LINE
8
BLACK
6
CONTINUOUS
10
3.65168
20
-4.019
11
3.65151
21
-4.01897
0
LINE
8
BLACK
6
CONTINUOUS
10
3.65151
20
-4.01897
11
3.64776
21
-4.0171
0
LINE
8
BLACK
6
CONTINUOUS
10
3.64776
20
-4.0171
11
3.64705
21
-4.01657
0
LINE
8
BLACK
6
CONTINUOUS
10
3.64705
20
-4.01657
11
3.64699
21
-4.01655
0
LINE
8
BLACK
6
CONTINUOUS
10
3.64699
20
-4.01655
11
3.64512
21
-4.01467
0
LINE
8
BLACK
6
CONTINUOUS
10
3.64512
20
-4.01467
11
3.64461
21
-4.01395
0
LINE
8
BLACK
6
CONTINUOUS
10
3.64461
20
-4.01395
11
3.64456
21
-4.0139
0
LINE
8
BLACK
6
CONTINUOUS
10
3.64456
20
-4.0139
11
3.64269
21
-4.01016
0
LINE
8
BLACK
6
CONTINUOUS
10
3.64269
20
-4.01016
11
3.6424
21
-4.00917
0
LINE
8
BLACK
6
CONTINUOUS
10
3.6424
20
-4.00917
11
3.64244
21
-4.009
0
LINE
8
BLACK
6
CONTINUOUS
10
3.64244
20
-4.009
11
3.64238
21
-4.00883
0
LINE
8
BLACK
6
CONTINUOUS
10
3.64238
20
-4.00883
11
3.64238
21
-3.99759
0
LINE
8
BLACK
6
CONTINUOUS
10
3.64238
20
-3.99759
11
3.64255
21
-3.99658
0
LINE
8
BLACK
6
CONTINUOUS
10
3.64255
20
-3.99658
11
3.64267
21
-3.99644
0
LINE
8
BLACK
6
CONTINUOUS
10
3.64267
20
-3.99644
11
3.64269
21
-3.99627
0
LINE
8
BLACK
6
CONTINUOUS
10
3.64269
20
-3.99627
11
3.64456
21
-3.99252
0
LINE
8
BLACK
6
CONTINUOUS
10
3.64456
20
-3.99252
11
3.64509
21
-3.99181
0
LINE
8
BLACK
6
CONTINUOUS
10
3.64509
20
-3.99181
11
3.64512
21
-3.99175
0
LINE
8
BLACK
6
CONTINUOUS
10
3.64512
20
-3.99175
11
3.64699
21
-3.98987
0
LINE
8
BLACK
6
CONTINUOUS
10
3.64699
20
-3.98987
11
3.64771
21
-3.98937
0
LINE
8
BLACK
6
CONTINUOUS
10
3.64771
20
-3.98937
11
3.64776
21
-3.98932
0
LINE
8
BLACK
6
CONTINUOUS
10
3.64776
20
-3.98932
11
3.65151
21
-3.98745
0
LINE
8
BLACK
6
CONTINUOUS
10
3.65151
20
-3.98745
11
3.65249
21
-3.98715
0
LINE
8
BLACK
6
CONTINUOUS
10
3.65249
20
-3.98715
11
3.65266
21
-3.98719
0
LINE
8
BLACK
6
CONTINUOUS
10
3.65266
20
-3.98719
11
3.65283
21
-3.98713
0
LINE
8
BLACK
6
CONTINUOUS
10
3.65283
20
-3.98713
11
3.66033
21
-3.98713
0
LINE
8
BLACK
6
CONTINUOUS
10
3.66033
20
-3.98713
11
3.66112
21
-3.98727
0
LINE
8
BLACK
6
CONTINUOUS
10
3.66112
20
-3.98727
11
3.66112
21
-3.97696
0
LINE
8
BLACK
6
CONTINUOUS
10
3.66112
20
-3.97696
11
3.6613
21
-3.97595
0
LINE
8
BLACK
6
CONTINUOUS
10
3.6613
20
-3.97595
11
3.6626
21
-3.97441
0
LINE
8
BLACK
6
CONTINUOUS
10
3.6626
20
-3.97441
11
3.66459
21
-3.97406
0
LINE
8
BLACK
6
CONTINUOUS
10
3.66459
20
-3.97406
11
3.66634
21
-3.97507
0
LINE
8
BLACK
6
CONTINUOUS
10
3.65353
20
-3.99304
11
3.65083
21
-3.99439
0
LINE
8
BLACK
6
CONTINUOUS
10
3.65083
20
-3.99439
11
3.64963
21
-3.99559
0
LINE
8
BLACK
6
CONTINUOUS
10
3.64963
20
-3.99559
11
3.64828
21
-3.99828
0
LINE
8
BLACK
6
CONTINUOUS
10
3.64828
20
-3.99828
11
3.64828
21
-4.00814
0
LINE
8
BLACK
6
CONTINUOUS
10
3.64828
20
-4.00814
11
3.64963
21
-4.01084
0
LINE
8
BLACK
6
CONTINUOUS
10
3.64963
20
-4.01084
11
3.65083
21
-4.01203
0
LINE
8
BLACK
6
CONTINUOUS
10
3.65083
20
-4.01203
11
3.65353
21
-4.01338
0
LINE
8
BLACK
6
CONTINUOUS
10
3.65353
20
-4.01338
11
3.65963
21
-4.01338
0
LINE
8
BLACK
6
CONTINUOUS
10
3.65963
20
-4.01338
11
3.66112
21
-4.01263
0
LINE
8
BLACK
6
CONTINUOUS
10
3.66112
20
-4.01263
11
3.66112
21
-3.99379
0
LINE
8
BLACK
6
CONTINUOUS
10
3.66112
20
-3.99379
11
3.65963
21
-3.99304
0
LINE
8
BLACK
6
CONTINUOUS
10
3.65963
20
-3.99304
11
3.65353
21
-3.99304
0
LINE
8
BLACK
6
CONTINUOUS
10
3.20577
20
-3.98731
11
3.2059
21
-3.98743
0
LINE
8
BLACK
6
CONTINUOUS
10
3.2059
20
-3.98743
11
3.20608
21
-3.98745
0
LINE
8
BLACK
6
CONTINUOUS
10
3.20608
20
-3.98745
11
3.20983
21
-3.98932
0
LINE
8
BLACK
6
CONTINUOUS
10
3.20983
20
-3.98932
11
3.21065
21
-3.98993
0
LINE
8
BLACK
6
CONTINUOUS
10
3.21065
20
-3.98993
11
3.21146
21
-3.99178
0
LINE
8
BLACK
6
CONTINUOUS
10
3.21146
20
-3.99178
11
3.21088
21
-3.99372
0
LINE
8
BLACK
6
CONTINUOUS
10
3.21088
20
-3.99372
11
3.2092
21
-3.99483
0
LINE
8
BLACK
6
CONTINUOUS
10
3.2092
20
-3.99483
11
3.20719
21
-3.9946
0
LINE
8
BLACK
6
CONTINUOUS
10
3.20719
20
-3.9946
11
3.20406
21
-3.99304
0
LINE
8
BLACK
6
CONTINUOUS
10
3.20406
20
-3.99304
11
3.19796
21
-3.99304
0
LINE
8
BLACK
6
CONTINUOUS
10
3.19796
20
-3.99304
11
3.19526
21
-3.99439
0
LINE
8
BLACK
6
CONTINUOUS
10
3.19526
20
-3.99439
11
3.19406
21
-3.99559
0
LINE
8
BLACK
6
CONTINUOUS
10
3.19406
20
-3.99559
11
3.19271
21
-3.99828
0
LINE
8
BLACK
6
CONTINUOUS
10
3.19271
20
-3.99828
11
3.19271
21
-4.00814
0
LINE
8
BLACK
6
CONTINUOUS
10
3.19271
20
-4.00814
11
3.19406
21
-4.01084
0
LINE
8
BLACK
6
CONTINUOUS
10
3.19406
20
-4.01084
11
3.19526
21
-4.01203
0
LINE
8
BLACK
6
CONTINUOUS
10
3.19526
20
-4.01203
11
3.19796
21
-4.01338
0
LINE
8
BLACK
6
CONTINUOUS
10
3.19796
20
-4.01338
11
3.20406
21
-4.01338
0
LINE
8
BLACK
6
CONTINUOUS
10
3.20406
20
-4.01338
11
3.20719
21
-4.01182
0
LINE
8
BLACK
6
CONTINUOUS
10
3.20719
20
-4.01182
11
3.20817
21
-4.01153
0
LINE
8
BLACK
6
CONTINUOUS
10
3.20817
20
-4.01153
11
3.21014
21
-4.01199
0
LINE
8
BLACK
6
CONTINUOUS
10
3.21014
20
-4.01199
11
3.21134
21
-4.01362
0
LINE
8
BLACK
6
CONTINUOUS
10
3.21134
20
-4.01362
11
3.21122
21
-4.01563
0
LINE
8
BLACK
6
CONTINUOUS
10
3.21122
20
-4.01563
11
3.20983
21
-4.0171
0
LINE
8
BLACK
6
CONTINUOUS
10
3.20983
20
-4.0171
11
3.20608
21
-4.01897
0
LINE
8
BLACK
6
CONTINUOUS
10
3.20608
20
-4.01897
11
3.2051
21
-4.01927
0
LINE
8
BLACK
6
CONTINUOUS
10
3.2051
20
-4.01927
11
3.20493
21
-4.01923
0
LINE
8
BLACK
6
CONTINUOUS
10
3.20493
20
-4.01923
11
3.20476
21
-4.01929
0
LINE
8
BLACK
6
CONTINUOUS
10
3.20476
20
-4.01929
11
3.19726
21
-4.01929
0
LINE
8
BLACK
6
CONTINUOUS
10
3.19726
20
-4.01929
11
3.19625
21
-4.01911
0
LINE
8
BLACK
6
CONTINUOUS
10
3.19625
20
-4.01911
11
3.19612
21
-4.019
0
LINE
8
BLACK
6
CONTINUOUS
10
3.19612
20
-4.019
11
3.19594
21
-4.01897
0
LINE
8
BLACK
6
CONTINUOUS
10
3.19594
20
-4.01897
11
3.19219
21
-4.0171
0
LINE
8
BLACK
6
CONTINUOUS
10
3.19219
20
-4.0171
11
3.19148
21
-4.01657
0
LINE
8
BLACK
6
CONTINUOUS
10
3.19148
20
-4.01657
11
3.19142
21
-4.01655
0
LINE
8
BLACK
6
CONTINUOUS
10
3.19142
20
-4.01655
11
3.18955
21
-4.01467
0
LINE
8
BLACK
6
CONTINUOUS
10
3.18955
20
-4.01467
11
3.18904
21
-4.01395
0
LINE
8
BLACK
6
CONTINUOUS
10
3.18904
20
-4.01395
11
3.189
21
-4.0139
0
LINE
8
BLACK
6
CONTINUOUS
10
3.189
20
-4.0139
11
3.18712
21
-4.01016
0
LINE
8
BLACK
6
CONTINUOUS
10
3.18712
20
-4.01016
11
3.18683
21
-4.00917
0
LINE
8
BLACK
6
CONTINUOUS
10
3.18683
20
-4.00917
11
3.18687
21
-4.009
0
LINE
8
BLACK
6
CONTINUOUS
10
3.18687
20
-4.009
11
3.18681
21
-4.00883
0
LINE
8
BLACK
6
CONTINUOUS
10
3.18681
20
-4.00883
11
3.18681
21
-3.99759
0
LINE
8
BLACK
6
CONTINUOUS
10
3.18681
20
-3.99759
11
3.18699
21
-3.99658
0
LINE
8
BLACK
6
CONTINUOUS
10
3.18699
20
-3.99658
11
3.1871
21
-3.99644
0
LINE
8
BLACK
6
CONTINUOUS
10
3.1871
20
-3.99644
11
3.18712
21
-3.99627
0
LINE
8
BLACK
6
CONTINUOUS
10
3.18712
20
-3.99627
11
3.189
21
-3.99252
0
LINE
8
BLACK
6
CONTINUOUS
10
3.189
20
-3.99252
11
3.18952
21
-3.99181
0
LINE
8
BLACK
6
CONTINUOUS
10
3.18952
20
-3.99181
11
3.18955
21
-3.99175
0
LINE
8
BLACK
6
CONTINUOUS
10
3.18955
20
-3.99175
11
3.19142
21
-3.98987
0
LINE
8
BLACK
6
CONTINUOUS
10
3.19142
20
-3.98987
11
3.19215
21
-3.98937
0
LINE
8
BLACK
6
CONTINUOUS
10
3.19215
20
-3.98937
11
3.19219
21
-3.98932
0
LINE
8
BLACK
6
CONTINUOUS
10
3.19219
20
-3.98932
11
3.19594
21
-3.98745
0
LINE
8
BLACK
6
CONTINUOUS
10
3.19594
20
-3.98745
11
3.19692
21
-3.98715
0
LINE
8
BLACK
6
CONTINUOUS
10
3.19692
20
-3.98715
11
3.19709
21
-3.98719
0
LINE
8
BLACK
6
CONTINUOUS
10
3.19709
20
-3.98719
11
3.19726
21
-3.98713
0
LINE
8
BLACK
6
CONTINUOUS
10
3.19726
20
-3.98713
11
3.20476
21
-3.98713
0
LINE
8
BLACK
6
CONTINUOUS
10
3.20476
20
-3.98713
11
3.20577
21
-3.98731
0
LINE
8
BLACK
6
CONTINUOUS
10
3.62384
20
-3.98731
11
3.62398
21
-3.98743
0
LINE
8
BLACK
6
CONTINUOUS
10
3.62398
20
-3.98743
11
3.62415
21
-3.98745
0
LINE
8
BLACK
6
CONTINUOUS
10
3.62415
20
-3.98745
11
3.6279
21
-3.98932
0
LINE
8
BLACK
6
CONTINUOUS
10
3.6279
20
-3.98932
11
3.62861
21
-3.98985
0
LINE
8
BLACK
6
CONTINUOUS
10
3.62861
20
-3.98985
11
3.62867
21
-3.98987
0
LINE
8
BLACK
6
CONTINUOUS
10
3.62867
20
-3.98987
11
3.63054
21
-3.99175
0
LINE
8
BLACK
6
CONTINUOUS
10
3.63054
20
-3.99175
11
3.63105
21
-3.99247
0
LINE
8
BLACK
6
CONTINUOUS
10
3.63105
20
-3.99247
11
3.6311
21
-3.99252
0
LINE
8
BLACK
6
CONTINUOUS
10
3.6311
20
-3.99252
11
3.63297
21
-3.99627
0
LINE
8
BLACK
6
CONTINUOUS
10
3.63297
20
-3.99627
11
3.63326
21
-3.99725
0
LINE
8
BLACK
6
CONTINUOUS
10
3.63326
20
-3.99725
11
3.63322
21
-3.99742
0
LINE
8
BLACK
6
CONTINUOUS
10
3.63322
20
-3.99742
11
3.63328
21
-3.99759
0
LINE
8
BLACK
6
CONTINUOUS
10
3.63328
20
-3.99759
11
3.63328
21
-4.00883
0
LINE
8
BLACK
6
CONTINUOUS
10
3.63328
20
-4.00883
11
3.63311
21
-4.00984
0
LINE
8
BLACK
6
CONTINUOUS
10
3.63311
20
-4.00984
11
3.63299
21
-4.00998
0
LINE
8
BLACK
6
CONTINUOUS
10
3.63299
20
-4.00998
11
3.63297
21
-4.01016
0
LINE
8
BLACK
6
CONTINUOUS
10
3.63297
20
-4.01016
11
3.6311
21
-4.0139
0
LINE
8
BLACK
6
CONTINUOUS
10
3.6311
20
-4.0139
11
3.63057
21
-4.01461
0
LINE
8
BLACK
6
CONTINUOUS
10
3.63057
20
-4.01461
11
3.63054
21
-4.01467
0
LINE
8
BLACK
6
CONTINUOUS
10
3.63054
20
-4.01467
11
3.62867
21
-4.01655
0
LINE
8
BLACK
6
CONTINUOUS
10
3.62867
20
-4.01655
11
3.62795
21
-4.01705
0
LINE
8
BLACK
6
CONTINUOUS
10
3.62795
20
-4.01705
11
3.6279
21
-4.0171
0
LINE
8
BLACK
6
CONTINUOUS
10
3.6279
20
-4.0171
11
3.62415
21
-4.01897
0
LINE
8
BLACK
6
CONTINUOUS
10
3.62415
20
-4.01897
11
3.62317
21
-4.01927
0
LINE
8
BLACK
6
CONTINUOUS
10
3.62317
20
-4.01927
11
3.623
21
-4.01923
0
LINE
8
BLACK
6
CONTINUOUS
10
3.623
20
-4.01923
11
3.62283
21
-4.01929
0
LINE
8
BLACK
6
CONTINUOUS
10
3.62283
20
-4.01929
11
3.61721
21
-4.01929
0
LINE
8
BLACK
6
CONTINUOUS
10
3.61721
20
-4.01929
11
3.6162
21
-4.01911
0
LINE
8
BLACK
6
CONTINUOUS
10
3.6162
20
-4.01911
11
3.61606
21
-4.019
0
LINE
8
BLACK
6
CONTINUOUS
10
3.61606
20
-4.019
11
3.61589
21
-4.01897
0
LINE
8
BLACK
6
CONTINUOUS
10
3.61589
20
-4.01897
11
3.61214
21
-4.0171
0
LINE
8
BLACK
6
CONTINUOUS
10
3.61214
20
-4.0171
11
3.61143
21
-4.01657
0
LINE
8
BLACK
6
CONTINUOUS
10
3.61143
20
-4.01657
11
3.61137
21
-4.01655
0
LINE
8
BLACK
6
CONTINUOUS
10
3.61137
20
-4.01655
11
3.6095
21
-4.01467
0
LINE
8
BLACK
6
CONTINUOUS
10
3.6095
20
-4.01467
11
3.60899
21
-4.01395
0
LINE
8
BLACK
6
CONTINUOUS
10
3.60899
20
-4.01395
11
3.60894
21
-4.0139
0
LINE
8
BLACK
6
CONTINUOUS
10
3.60894
20
-4.0139
11
3.60707
21
-4.01016
0
LINE
8
BLACK
6
CONTINUOUS
10
3.60707
20
-4.01016
11
3.60678
21
-4.00917
0
LINE
8
BLACK
6
CONTINUOUS
10
3.60678
20
-4.00917
11
3.60682
21
-4.009
0
LINE
8
BLACK
6
CONTINUOUS
10
3.60682
20
-4.009
11
3.60676
21
-4.00883
0
LINE
8
BLACK
6
CONTINUOUS
10
3.60676
20
-4.00883
11
3.60676
21
-3.99759
0
LINE
8
BLACK
6
CONTINUOUS
10
3.60676
20
-3.99759
11
3.60693
21
-3.99658
0
LINE
8
BLACK
6
CONTINUOUS
10
3.60693
20
-3.99658
11
3.60705
21
-3.99644
0
LINE
8
BLACK
6
CONTINUOUS
10
3.60705
20
-3.99644
11
3.60707
21
-3.99627
0
LINE
8
BLACK
6
CONTINUOUS
10
3.60707
20
-3.99627
11
3.60894
21
-3.99252
0
LINE
8
BLACK
6
CONTINUOUS
10
3.60894
20
-3.99252
11
3.60947
21
-3.99181
0
LINE
8
BLACK
6
CONTINUOUS
10
3.60947
20
-3.99181
11
3.6095
21
-3.99175
0
LINE
8
BLACK
6
CONTINUOUS
10
3.6095
20
-3.99175
11
3.61137
21
-3.98987
0
LINE
8
BLACK
6
CONTINUOUS
10
3.61137
20
-3.98987
11
3.61209
21
-3.98937
0
LINE
8
BLACK
6
CONTINUOUS
10
3.61209
20
-3.98937
11
3.61214
21
-3.98932
0
LINE
8
BLACK
6
CONTINUOUS
10
3.61214
20
-3.98932
11
3.61589
21
-3.98745
0
LINE
8
BLACK
6
CONTINUOUS
10
3.61589
20
-3.98745
11
3.61687
21
-3.98715
0
LINE
8
BLACK
6
CONTINUOUS
10
3.61687
20
-3.98715
11
3.61704
21
-3.98719
0
LINE
8
BLACK
6
CONTINUOUS
10
3.61704
20
-3.98719
11
3.61721
21
-3.98713
0
LINE
8
BLACK
6
CONTINUOUS
10
3.61721
20
-3.98713
11
3.62283
21
-3.98713
0
LINE
8
BLACK
6
CONTINUOUS
10
3.62283
20
-3.98713
11
3.62384
21
-3.98731
0
LINE
8
BLACK
6
CONTINUOUS
10
3.61791
20
-3.99304
11
3.61521
21
-3.99439
0
LINE
8
BLACK
6
CONTINUOUS
10
3.61521
20
-3.99439
11
3.61401
21
-3.99559
0
LINE
8
BLACK
6
CONTINUOUS
10
3.61401
20
-3.99559
11
3.61266
21
-3.99828
0
LINE
8
BLACK
6
CONTINUOUS
10
3.61266
20
-3.99828
11
3.61266
21
-4.00814
0
LINE
8
BLACK
6
CONTINUOUS
10
3.61266
20
-4.00814
11
3.61401
21
-4.01084
0
LINE
8
BLACK
6
CONTINUOUS
10
3.61401
20
-4.01084
11
3.61521
21
-4.01203
0
LINE
8
BLACK
6
CONTINUOUS
10
3.61521
20
-4.01203
11
3.61791
21
-4.01338
0
LINE
8
BLACK
6
CONTINUOUS
10
3.61791
20
-4.01338
11
3.62214
21
-4.01338
0
LINE
8
BLACK
6
CONTINUOUS
10
3.62214
20
-4.01338
11
3.62483
21
-4.01203
0
LINE
8
BLACK
6
CONTINUOUS
10
3.62483
20
-4.01203
11
3.62603
21
-4.01084
0
LINE
8
BLACK
6
CONTINUOUS
10
3.62603
20
-4.01084
11
3.62738
21
-4.00814
0
LINE
8
BLACK
6
CONTINUOUS
10
3.62738
20
-4.00814
11
3.62738
21
-3.99828
0
LINE
8
BLACK
6
CONTINUOUS
10
3.62738
20
-3.99828
11
3.62603
21
-3.99559
0
LINE
8
BLACK
6
CONTINUOUS
10
3.62603
20
-3.99559
11
3.62483
21
-3.99439
0
LINE
8
BLACK
6
CONTINUOUS
10
3.62483
20
-3.99439
11
3.62214
21
-3.99304
0
LINE
8
BLACK
6
CONTINUOUS
10
3.62214
20
-3.99304
11
3.61791
21
-3.99304
0
LINE
8
BLACK
6
CONTINUOUS
10
3.59197
20
-3.98731
11
3.59211
21
-3.98743
0
LINE
8
BLACK
6
CONTINUOUS
10
3.59211
20
-3.98743
11
3.59228
21
-3.98745
0
LINE
8
BLACK
6
CONTINUOUS
10
3.59228
20
-3.98745
11
3.59603
21
-3.98932
0
LINE
8
BLACK
6
CONTINUOUS
10
3.59603
20
-3.98932
11
3.59685
21
-3.98993
0
LINE
8
BLACK
6
CONTINUOUS
10
3.59685
20
-3.98993
11
3.59766
21
-3.99178
0
LINE
8
BLACK
6
CONTINUOUS
10
3.59766
20
-3.99178
11
3.59708
21
-3.99372
0
LINE
8
BLACK
6
CONTINUOUS
10
3.59708
20
-3.99372
11
3.5954
21
-3.99483
0
LINE
8
BLACK
6
CONTINUOUS
10
3.5954
20
-3.99483
11
3.59339
21
-3.9946
0
LINE
8
BLACK
6
CONTINUOUS
10
3.59339
20
-3.9946
11
3.59026
21
-3.99304
0
LINE
8
BLACK
6
CONTINUOUS
10
3.59026
20
-3.99304
11
3.58416
21
-3.99304
0
LINE
8
BLACK
6
CONTINUOUS
10
3.58416
20
-3.99304
11
3.58146
21
-3.99439
0
LINE
8
BLACK
6
CONTINUOUS
10
3.58146
20
-3.99439
11
3.58026
21
-3.99559
0
LINE
8
BLACK
6
CONTINUOUS
10
3.58026
20
-3.99559
11
3.57892
21
-3.99828
0
LINE
8
BLACK
6
CONTINUOUS
10
3.57892
20
-3.99828
11
3.57892
21
-4.00814
0
LINE
8
BLACK
6
CONTINUOUS
10
3.57892
20
-4.00814
11
3.58026
21
-4.01084
0
LINE
8
BLACK
6
CONTINUOUS
10
3.58026
20
-4.01084
11
3.58146
21
-4.01203
0
LINE
8
BLACK
6
CONTINUOUS
10
3.58146
20
-4.01203
11
3.58416
21
-4.01338
0
LINE
8
BLACK
6
CONTINUOUS
10
3.58416
20
-4.01338
11
3.59026
21
-4.01338
0
LINE
8
BLACK
6
CONTINUOUS
10
3.59026
20
-4.01338
11
3.59339
21
-4.01182
0
LINE
8
BLACK
6
CONTINUOUS
10
3.59339
20
-4.01182
11
3.59437
21
-4.01153
0
LINE
8
BLACK
6
CONTINUOUS
10
3.59437
20
-4.01153
11
3.59634
21
-4.01199
0
LINE
8
BLACK
6
CONTINUOUS
10
3.59634
20
-4.01199
11
3.59754
21
-4.01362
0
LINE
8
BLACK
6
CONTINUOUS
10
3.59754
20
-4.01362
11
3.59742
21
-4.01563
0
LINE
8
BLACK
6
CONTINUOUS
10
3.59742
20
-4.01563
11
3.59603
21
-4.0171
0
LINE
8
BLACK
6
CONTINUOUS
10
3.59603
20
-4.0171
11
3.59228
21
-4.01897
0
LINE
8
BLACK
6
CONTINUOUS
10
3.59228
20
-4.01897
11
3.5913
21
-4.01927
0
LINE
8
BLACK
6
CONTINUOUS
10
3.5913
20
-4.01927
11
3.59113
21
-4.01923
0
LINE
8
BLACK
6
CONTINUOUS
10
3.59113
20
-4.01923
11
3.59096
21
-4.01929
0
LINE
8
BLACK
6
CONTINUOUS
10
3.59096
20
-4.01929
11
3.58346
21
-4.01929
0
LINE
8
BLACK
6
CONTINUOUS
10
3.58346
20
-4.01929
11
3.58245
21
-4.01911
0
LINE
8
BLACK
6
CONTINUOUS
10
3.58245
20
-4.01911
11
3.58232
21
-4.019
0
LINE
8
BLACK
6
CONTINUOUS
10
3.58232
20
-4.019
11
3.58214
21
-4.01897
0
LINE
8
BLACK
6
CONTINUOUS
10
3.58214
20
-4.01897
11
3.57839
21
-4.0171
0
LINE
8
BLACK
6
CONTINUOUS
10
3.57839
20
-4.0171
11
3.57768
21
-4.01657
0
LINE
8
BLACK
6
CONTINUOUS
10
3.57768
20
-4.01657
11
3.57762
21
-4.01655
0
LINE
8
BLACK
6
CONTINUOUS
10
3.57762
20
-4.01655
11
3.57575
21
-4.01467
0
LINE
8
BLACK
6
CONTINUOUS
10
3.57575
20
-4.01467
11
3.57524
21
-4.01395
0
LINE
8
BLACK
6
CONTINUOUS
10
3.57524
20
-4.01395
11
3.5752
21
-4.0139
0
LINE
8
BLACK
6
CONTINUOUS
10
3.5752
20
-4.0139
11
3.57332
21
-4.01016
0
LINE
8
BLACK
6
CONTINUOUS
10
3.57332
20
-4.01016
11
3.57303
21
-4.00917
0
LINE
8
BLACK
6
CONTINUOUS
10
3.57303
20
-4.00917
11
3.57307
21
-4.009
0
LINE
8
BLACK
6
CONTINUOUS
10
3.57307
20
-4.009
11
3.57301
21
-4.00883
0
LINE
8
BLACK
6
CONTINUOUS
10
3.57301
20
-4.00883
11
3.57301
21
-3.99759
0
LINE
8
BLACK
6
CONTINUOUS
10
3.57301
20
-3.99759
11
3.57319
21
-3.99658
0
LINE
8
BLACK
6
CONTINUOUS
10
3.57319
20
-3.99658
11
3.5733
21
-3.99644
0
LINE
8
BLACK
6
CONTINUOUS
10
3.5733
20
-3.99644
11
3.57332
21
-3.99627
0
LINE
8
BLACK
6
CONTINUOUS
10
3.57332
20
-3.99627
11
3.5752
21
-3.99252
0
LINE
8
BLACK
6
CONTINUOUS
10
3.5752
20
-3.99252
11
3.57572
21
-3.99181
0
LINE
8
BLACK
6
CONTINUOUS
10
3.57572
20
-3.99181
11
3.57575
21
-3.99175
0
LINE
8
BLACK
6
CONTINUOUS
10
3.57575
20
-3.99175
11
3.57762
21
-3.98987
0
LINE
8
BLACK
6
CONTINUOUS
10
3.57762
20
-3.98987
11
3.57835
21
-3.98937
0
LINE
8
BLACK
6
CONTINUOUS
10
3.57835
20
-3.98937
11
3.57839
21
-3.98932
0
LINE
8
BLACK
6
CONTINUOUS
10
3.57839
20
-3.98932
11
3.58214
21
-3.98745
0
LINE
8
BLACK
6
CONTINUOUS
10
3.58214
20
-3.98745
11
3.58312
21
-3.98715
0
LINE
8
BLACK
6
CONTINUOUS
10
3.58312
20
-3.98715
11
3.5833
21
-3.98719
0
LINE
8
BLACK
6
CONTINUOUS
10
3.5833
20
-3.98719
11
3.58346
21
-3.98713
0
LINE
8
BLACK
6
CONTINUOUS
10
3.58346
20
-3.98713
11
3.59096
21
-3.98713
0
LINE
8
BLACK
6
CONTINUOUS
10
3.59096
20
-3.98713
11
3.59197
21
-3.98731
0
LINE
8
BLACK
6
CONTINUOUS
10
3.52635
20
-3.97419
11
3.5279
21
-3.97549
0
LINE
8
BLACK
6
CONTINUOUS
10
3.5279
20
-3.97549
11
3.52825
21
-3.97748
0
LINE
8
BLACK
6
CONTINUOUS
10
3.52825
20
-3.97748
11
3.52724
21
-3.97923
0
LINE
8
BLACK
6
CONTINUOUS
10
3.52724
20
-3.97923
11
3.52534
21
-3.97992
0
LINE
8
BLACK
6
CONTINUOUS
10
3.52534
20
-3.97992
11
3.50955
21
-3.97992
0
LINE
8
BLACK
6
CONTINUOUS
10
3.50955
20
-3.97992
11
3.50955
21
-3.99276
0
LINE
8
BLACK
6
CONTINUOUS
10
3.50955
20
-3.99276
11
3.51972
21
-3.99276
0
LINE
8
BLACK
6
CONTINUOUS
10
3.51972
20
-3.99276
11
3.52073
21
-3.99294
0
LINE
8
BLACK
6
CONTINUOUS
10
3.52073
20
-3.99294
11
3.52228
21
-3.99424
0
LINE
8
BLACK
6
CONTINUOUS
10
3.52228
20
-3.99424
11
3.52263
21
-3.99622
0
LINE
8
BLACK
6
CONTINUOUS
10
3.52263
20
-3.99622
11
3.52162
21
-3.99797
0
LINE
8
BLACK
6
CONTINUOUS
10
3.52162
20
-3.99797
11
3.51972
21
-3.99866
0
LINE
8
BLACK
6
CONTINUOUS
10
3.51972
20
-3.99866
11
3.50955
21
-3.99866
0
LINE
8
BLACK
6
CONTINUOUS
10
3.50955
20
-3.99866
11
3.50955
21
-4.01338
0
LINE
8
BLACK
6
CONTINUOUS
10
3.50955
20
-4.01338
11
3.52534
21
-4.01338
0
LINE
8
BLACK
6
CONTINUOUS
10
3.52534
20
-4.01338
11
3.52635
21
-4.01356
0
LINE
8
BLACK
6
CONTINUOUS
10
3.52635
20
-4.01356
11
3.5279
21
-4.01486
0
LINE
8
BLACK
6
CONTINUOUS
10
3.5279
20
-4.01486
11
3.52825
21
-4.01685
0
LINE
8
BLACK
6
CONTINUOUS
10
3.52825
20
-4.01685
11
3.52724
21
-4.0186
0
LINE
8
BLACK
6
CONTINUOUS
10
3.52724
20
-4.0186
11
3.52534
21
-4.01929
0
LINE
8
BLACK
6
CONTINUOUS
10
3.52534
20
-4.01929
11
3.5066
21
-4.01929
0
LINE
8
BLACK
6
CONTINUOUS
10
3.5066
20
-4.01929
11
3.50621
21
-4.01922
0
LINE
8
BLACK
6
CONTINUOUS
10
3.50621
20
-4.01922
11
3.50608
21
-4.01924
0
LINE
8
BLACK
6
CONTINUOUS
10
3.50608
20
-4.01924
11
3.50597
21
-4.01918
0
LINE
8
BLACK
6
CONTINUOUS
10
3.50597
20
-4.01918
11
3.50559
21
-4.01911
0
LINE
8
BLACK
6
CONTINUOUS
10
3.50559
20
-4.01911
11
3.505
21
-4.01862
0
LINE
8
BLACK
6
CONTINUOUS
10
3.505
20
-4.01862
11
3.50433
21
-4.01823
0
LINE
8
BLACK
6
CONTINUOUS
10
3.50433
20
-4.01823
11
3.50424
21
-4.01798
0
LINE
8
BLACK
6
CONTINUOUS
10
3.50424
20
-4.01798
11
3.50404
21
-4.01781
0
LINE
8
BLACK
6
CONTINUOUS
10
3.50404
20
-4.01781
11
3.50391
21
-4.01705
0
LINE
8
BLACK
6
CONTINUOUS
10
3.50391
20
-4.01705
11
3.50364
21
-4.01633
0
LINE
8
BLACK
6
CONTINUOUS
10
3.50364
20
-4.01633
11
3.50364
21
-3.97696
0
LINE
8
BLACK
6
CONTINUOUS
10
3.50364
20
-3.97696
11
3.50371
21
-3.97658
0
LINE
8
BLACK
6
CONTINUOUS
10
3.50371
20
-3.97658
11
3.50369
21
-3.97645
0
LINE
8
BLACK
6
CONTINUOUS
10
3.50369
20
-3.97645
11
3.50375
21
-3.97634
0
LINE
8
BLACK
6
CONTINUOUS
10
3.50375
20
-3.97634
11
3.50382
21
-3.97595
0
LINE
8
BLACK
6
CONTINUOUS
10
3.50382
20
-3.97595
11
3.50432
21
-3.97537
0
LINE
8
BLACK
6
CONTINUOUS
10
3.50432
20
-3.97537
11
3.5047
21
-3.9747
0
LINE
8
BLACK
6
CONTINUOUS
10
3.5047
20
-3.9747
11
3.50495
21
-3.97461
0
LINE
8
BLACK
6
CONTINUOUS
10
3.50495
20
-3.97461
11
3.50512
21
-3.97441
0
LINE
8
BLACK
6
CONTINUOUS
10
3.50512
20
-3.97441
11
3.50588
21
-3.97427
0
LINE
8
BLACK
6
CONTINUOUS
10
3.50588
20
-3.97427
11
3.5066
21
-3.97401
0
LINE
8
BLACK
6
CONTINUOUS
10
3.5066
20
-3.97401
11
3.52534
21
-3.97401
0
LINE
8
BLACK
6
CONTINUOUS
10
3.52534
20
-3.97401
11
3.52635
21
-3.97419
0
LINE
8
BLACK
6
CONTINUOUS
10
3.69508
20
-3.98731
11
3.69522
21
-3.98743
0
LINE
8
BLACK
6
CONTINUOUS
10
3.69522
20
-3.98743
11
3.69539
21
-3.98745
0
LINE
8
BLACK
6
CONTINUOUS
10
3.69539
20
-3.98745
11
3.69914
21
-3.98932
0
LINE
8
BLACK
6
CONTINUOUS
10
3.69914
20
-3.98932
11
3.69997
21
-3.98993
0
LINE
8
BLACK
6
CONTINUOUS
10
3.69997
20
-3.98993
11
3.70014
21
-3.99034
0
LINE
8
BLACK
6
CONTINUOUS
10
3.70014
20
-3.99034
11
3.70046
21
-3.99064
0
LINE
8
BLACK
6
CONTINUOUS
10
3.70046
20
-3.99064
11
3.70234
21
-3.99439
0
LINE
8
BLACK
6
CONTINUOUS
10
3.70234
20
-3.99439
11
3.70263
21
-3.99537
0
LINE
8
BLACK
6
CONTINUOUS
10
3.70263
20
-3.99537
11
3.70259
21
-3.99555
0
LINE
8
BLACK
6
CONTINUOUS
10
3.70259
20
-3.99555
11
3.70265
21
-3.99571
0
LINE
8
BLACK
6
CONTINUOUS
10
3.70265
20
-3.99571
11
3.70265
21
-3.99946
0
LINE
8
BLACK
6
CONTINUOUS
10
3.70265
20
-3.99946
11
3.70247
21
-4.00047
0
LINE
8
BLACK
6
CONTINUOUS
10
3.70247
20
-4.00047
11
3.70216
21
-4.00084
0
LINE
8
BLACK
6
CONTINUOUS
10
3.70216
20
-4.00084
11
3.702
21
-4.00131
0
LINE
8
BLACK
6
CONTINUOUS
10
3.702
20
-4.00131
11
3.70153
21
-4.00159
0
LINE
8
BLACK
6
CONTINUOUS
10
3.70153
20
-4.00159
11
3.70117
21
-4.00202
0
LINE
8
BLACK
6
CONTINUOUS
10
3.70117
20
-4.00202
11
3.70069
21
-4.0021
0
LINE
8
BLACK
6
CONTINUOUS
10
3.70069
20
-4.0021
11
3.70028
21
-4.00236
0
LINE
8
BLACK
6
CONTINUOUS
10
3.70028
20
-4.00236
11
3.6839
21
-4.00563
0
LINE
8
BLACK
6
CONTINUOUS
10
3.6839
20
-4.00563
11
3.6839
21
-4.01001
0
LINE
8
BLACK
6
CONTINUOUS
10
3.6839
20
-4.01001
11
3.68503
21
-4.01226
0
LINE
8
BLACK
6
CONTINUOUS
10
3.68503
20
-4.01226
11
3.68727
21
-4.01338
0
LINE
8
BLACK
6
CONTINUOUS
10
3.68727
20
-4.01338
11
3.69338
21
-4.01338
0
LINE
8
BLACK
6
CONTINUOUS
10
3.69338
20
-4.01338
11
3.6965
21
-4.01182
0
LINE
8
BLACK
6
CONTINUOUS
10
3.6965
20
-4.01182
11
3.69749
21
-4.01153
0
LINE
8
BLACK
6
CONTINUOUS
10
3.69749
20
-4.01153
11
3.69945
21
-4.01199
0
LINE
8
BLACK
6
CONTINUOUS
10
3.69945
20
-4.01199
11
3.70065
21
-4.01362
0
LINE
8
BLACK
6
CONTINUOUS
10
3.70065
20
-4.01362
11
3.70053
21
-4.01563
0
LINE
8
BLACK
6
CONTINUOUS
10
3.70053
20
-4.01563
11
3.69914
21
-4.0171
0
LINE
8
BLACK
6
CONTINUOUS
10
3.69914
20
-4.0171
11
3.69539
21
-4.01897
0
LINE
8
BLACK
6
CONTINUOUS
10
3.69539
20
-4.01897
11
3.69441
21
-4.01927
0
LINE
8
BLACK
6
CONTINUOUS
10
3.69441
20
-4.01927
11
3.69424
21
-4.01923
0
LINE
8
BLACK
6
CONTINUOUS
10
3.69424
20
-4.01923
11
3.69407
21
-4.01929
0
LINE
8
BLACK
6
CONTINUOUS
10
3.69407
20
-4.01929
11
3.68657
21
-4.01929
0
LINE
8
BLACK
6
CONTINUOUS
10
3.68657
20
-4.01929
11
3.68556
21
-4.01911
0
LINE
8
BLACK
6
CONTINUOUS
10
3.68556
20
-4.01911
11
3.68543
21
-4.019
0
LINE
8
BLACK
6
CONTINUOUS
10
3.68543
20
-4.019
11
3.68525
21
-4.01897
0
LINE
8
BLACK
6
CONTINUOUS
10
3.68525
20
-4.01897
11
3.6815
21
-4.0171
0
LINE
8
BLACK
6
CONTINUOUS
10
3.6815
20
-4.0171
11
3.68068
21
-4.01649
0
LINE
8
BLACK
6
CONTINUOUS
10
3.68068
20
-4.01649
11
3.6805
21
-4.01608
0
LINE
8
BLACK
6
CONTINUOUS
10
3.6805
20
-4.01608
11
3.68018
21
-4.01578
0
LINE
8
BLACK
6
CONTINUOUS
10
3.68018
20
-4.01578
11
3.67831
21
-4.01203
0
LINE
8
BLACK
6
CONTINUOUS
10
3.67831
20
-4.01203
11
3.67802
21
-4.01105
0
LINE
8
BLACK
6
CONTINUOUS
10
3.67802
20
-4.01105
11
3.67806
21
-4.01088
0
LINE
8
BLACK
6
CONTINUOUS
10
3.67806
20
-4.01088
11
3.678
21
-4.01071
0
LINE
8
BLACK
6
CONTINUOUS
10
3.678
20
-4.01071
11
3.678
21
-3.99571
0
LINE
8
BLACK
6
CONTINUOUS
10
3.678
20
-3.99571
11
3.67818
21
-3.9947
0
LINE
8
BLACK
6
CONTINUOUS
10
3.67818
20
-3.9947
11
3.67829
21
-3.99457
0
LINE
8
BLACK
6
CONTINUOUS
10
3.67829
20
-3.99457
11
3.67831
21
-3.99439
0
LINE
8
BLACK
6
CONTINUOUS
10
3.67831
20
-3.99439
11
3.68018
21
-3.99064
0
LINE
8
BLACK
6
CONTINUOUS
10
3.68018
20
-3.99064
11
3.68079
21
-3.98982
0
LINE
8
BLACK
6
CONTINUOUS
10
3.68079
20
-3.98982
11
3.6812
21
-3.98964
0
LINE
8
BLACK
6
CONTINUOUS
10
3.6812
20
-3.98964
11
3.6815
21
-3.98932
0
LINE
8
BLACK
6
CONTINUOUS
10
3.6815
20
-3.98932
11
3.68525
21
-3.98745
0
LINE
8
BLACK
6
CONTINUOUS
10
3.68525
20
-3.98745
11
3.68624
21
-3.98715
0
LINE
8
BLACK
6
CONTINUOUS
10
3.68624
20
-3.98715
11
3.68641
21
-3.98719
0
LINE
8
BLACK
6
CONTINUOUS
10
3.68641
20
-3.98719
11
3.68657
21
-3.98713
0
LINE
8
BLACK
6
CONTINUOUS
10
3.68657
20
-3.98713
11
3.69407
21
-3.98713
0
LINE
8
BLACK
6
CONTINUOUS
10
3.69407
20
-3.98713
11
3.69508
21
-3.98731
0
LINE
8
BLACK
6
CONTINUOUS
10
3.68727
20
-3.99304
11
3.68503
21
-3.99416
0
LINE
8
BLACK
6
CONTINUOUS
10
3.68503
20
-3.99416
11
3.6839
21
-3.99641
0
LINE
8
BLACK
6
CONTINUOUS
10
3.6839
20
-3.99641
11
3.6839
21
-3.99961
0
LINE
8
BLACK
6
CONTINUOUS
10
3.6839
20
-3.99961
11
3.69674
21
-3.99704
0
LINE
8
BLACK
6
CONTINUOUS
10
3.69674
20
-3.99704
11
3.69674
21
-3.99641
0
LINE
8
BLACK
6
CONTINUOUS
10
3.69674
20
-3.99641
11
3.69562
21
-3.99416
0
LINE
8
BLACK
6
CONTINUOUS
10
3.69562
20
-3.99416
11
3.69338
21
-3.99304
0
LINE
8
BLACK
6
CONTINUOUS
10
3.69338
20
-3.99304
11
3.68727
21
-3.99304
0
LINE
8
BLACK
6
CONTINUOUS
10
3.23764
20
-3.98731
11
3.23778
21
-3.98743
0
LINE
8
BLACK
6
CONTINUOUS
10
3.23778
20
-3.98743
11
3.23795
21
-3.98745
0
LINE
8
BLACK
6
CONTINUOUS
10
3.23795
20
-3.98745
11
3.2417
21
-3.98932
0
LINE
8
BLACK
6
CONTINUOUS
10
3.2417
20
-3.98932
11
3.24252
21
-3.98993
0
LINE
8
BLACK
6
CONTINUOUS
10
3.24252
20
-3.98993
11
3.2427
21
-3.99034
0
LINE
8
BLACK
6
CONTINUOUS
10
3.2427
20
-3.99034
11
3.24302
21
-3.99064
0
LINE
8
BLACK
6
CONTINUOUS
10
3.24302
20
-3.99064
11
3.2449
21
-3.99439
0
LINE
8
BLACK
6
CONTINUOUS
10
3.2449
20
-3.99439
11
3.24519
21
-3.99537
0
LINE
8
BLACK
6
CONTINUOUS
10
3.24519
20
-3.99537
11
3.24515
21
-3.99555
0
LINE
8
BLACK
6
CONTINUOUS
10
3.24515
20
-3.99555
11
3.24521
21
-3.99571
0
LINE
8
BLACK
6
CONTINUOUS
10
3.24521
20
-3.99571
11
3.24521
21
-3.99946
0
LINE
8
BLACK
6
CONTINUOUS
10
3.24521
20
-3.99946
11
3.24503
21
-4.00047
0
LINE
8
BLACK
6
CONTINUOUS
10
3.24503
20
-4.00047
11
3.24472
21
-4.00084
0
LINE
8
BLACK
6
CONTINUOUS
10
3.24472
20
-4.00084
11
3.24456
21
-4.00131
0
LINE
8
BLACK
6
CONTINUOUS
10
3.24456
20
-4.00131
11
3.24409
21
-4.00159
0
LINE
8
BLACK
6
CONTINUOUS
10
3.24409
20
-4.00159
11
3.24373
21
-4.00202
0
LINE
8
BLACK
6
CONTINUOUS
10
3.24373
20
-4.00202
11
3.24325
21
-4.0021
0
LINE
8
BLACK
6
CONTINUOUS
10
3.24325
20
-4.0021
11
3.24283
21
-4.00236
0
LINE
8
BLACK
6
CONTINUOUS
10
3.24283
20
-4.00236
11
3.22646
21
-4.00563
0
LINE
8
BLACK
6
CONTINUOUS
10
3.22646
20
-4.00563
11
3.22646
21
-4.01001
0
LINE
8
BLACK
6
CONTINUOUS
10
3.22646
20
-4.01001
11
3.22758
21
-4.01226
0
LINE
8
BLACK
6
CONTINUOUS
10
3.22758
20
-4.01226
11
3.22983
21
-4.01338
0
LINE
8
BLACK
6
CONTINUOUS
10
3.22983
20
-4.01338
11
3.23593
21
-4.01338
0
LINE
8
BLACK
6
CONTINUOUS
10
3.23593
20
-4.01338
11
3.23906
21
-4.01182
0
LINE
8
BLACK
6
CONTINUOUS
10
3.23906
20
-4.01182
11
3.24004
21
-4.01153
0
LINE
8
BLACK
6
CONTINUOUS
10
3.24004
20
-4.01153
11
3.24201
21
-4.01199
0
LINE
8
BLACK
6
CONTINUOUS
10
3.24201
20
-4.01199
11
3.24321
21
-4.01362
0
LINE
8
BLACK
6
CONTINUOUS
10
3.24321
20
-4.01362
11
3.24309
21
-4.01563
0
LINE
8
BLACK
6
CONTINUOUS
10
3.24309
20
-4.01563
11
3.2417
21
-4.0171
0
LINE
8
BLACK
6
CONTINUOUS
10
3.2417
20
-4.0171
11
3.23795
21
-4.01897
0
LINE
8
BLACK
6
CONTINUOUS
10
3.23795
20
-4.01897
11
3.23697
21
-4.01927
0
LINE
8
BLACK
6
CONTINUOUS
10
3.23697
20
-4.01927
11
3.2368
21
-4.01923
0
LINE
8
BLACK
6
CONTINUOUS
10
3.2368
20
-4.01923
11
3.23663
21
-4.01929
0
LINE
8
BLACK
6
CONTINUOUS
10
3.23663
20
-4.01929
11
3.22913
21
-4.01929
0
LINE
8
BLACK
6
CONTINUOUS
10
3.22913
20
-4.01929
11
3.22812
21
-4.01911
0
LINE
8
BLACK
6
CONTINUOUS
10
3.22812
20
-4.01911
11
3.22799
21
-4.019
0
LINE
8
BLACK
6
CONTINUOUS
10
3.22799
20
-4.019
11
3.22781
21
-4.01897
0
LINE
8
BLACK
6
CONTINUOUS
10
3.22781
20
-4.01897
11
3.22406
21
-4.0171
0
LINE
8
BLACK
6
CONTINUOUS
10
3.22406
20
-4.0171
11
3.22324
21
-4.01649
0
LINE
8
BLACK
6
CONTINUOUS
10
3.22324
20
-4.01649
11
3.22306
21
-4.01608
0
LINE
8
BLACK
6
CONTINUOUS
10
3.22306
20
-4.01608
11
3.22274
21
-4.01578
0
LINE
8
BLACK
6
CONTINUOUS
10
3.22274
20
-4.01578
11
3.22087
21
-4.01203
0
LINE
8
BLACK
6
CONTINUOUS
10
3.22087
20
-4.01203
11
3.22057
21
-4.01105
0
LINE
8
BLACK
6
CONTINUOUS
10
3.22057
20
-4.01105
11
3.22061
21
-4.01088
0
LINE
8
BLACK
6
CONTINUOUS
10
3.22061
20
-4.01088
11
3.22055
21
-4.01071
0
LINE
8
BLACK
6
CONTINUOUS
10
3.22055
20
-4.01071
11
3.22055
21
-3.99571
0
LINE
8
BLACK
6
CONTINUOUS
10
3.22055
20
-3.99571
11
3.22073
21
-3.9947
0
LINE
8
BLACK
6
CONTINUOUS
10
3.22073
20
-3.9947
11
3.22085
21
-3.99457
0
LINE
8
BLACK
6
CONTINUOUS
10
3.22085
20
-3.99457
11
3.22087
21
-3.99439
0
LINE
8
BLACK
6
CONTINUOUS
10
3.22087
20
-3.99439
11
3.22274
21
-3.99064
0
LINE
8
BLACK
6
CONTINUOUS
10
3.22274
20
-3.99064
11
3.22335
21
-3.98982
0
LINE
8
BLACK
6
CONTINUOUS
10
3.22335
20
-3.98982
11
3.22376
21
-3.98964
0
LINE
8
BLACK
6
CONTINUOUS
10
3.22376
20
-3.98964
11
3.22406
21
-3.98932
0
LINE
8
BLACK
6
CONTINUOUS
10
3.22406
20
-3.98932
11
3.22781
21
-3.98745
0
LINE
8
BLACK
6
CONTINUOUS
10
3.22781
20
-3.98745
11
3.22879
21
-3.98715
0
LINE
8
BLACK
6
CONTINUOUS
10
3.22879
20
-3.98715
11
3.22897
21
-3.98719
0
LINE
8
BLACK
6
CONTINUOUS
10
3.22897
20
-3.98719
11
3.22913
21
-3.98713
0
LINE
8
BLACK
6
CONTINUOUS
10
3.22913
20
-3.98713
11
3.23663
21
-3.98713
0
LINE
8
BLACK
6
CONTINUOUS
10
3.23663
20
-3.98713
11
3.23764
21
-3.98731
0
LINE
8
BLACK
6
CONTINUOUS
10
3.22983
20
-3.99304
11
3.22758
21
-3.99416
0
LINE
8
BLACK
6
CONTINUOUS
10
3.22758
20
-3.99416
11
3.22646
21
-3.99641
0
LINE
8
BLACK
6
CONTINUOUS
10
3.22646
20
-3.99641
11
3.22646
21
-3.99961
0
LINE
8
BLACK
6
CONTINUOUS
10
3.22646
20
-3.99961
11
3.2393
21
-3.99704
0
LINE
8
BLACK
6
CONTINUOUS
10
3.2393
20
-3.99704
11
3.2393
21
-3.99641
0
LINE
8
BLACK
6
CONTINUOUS
10
3.2393
20
-3.99641
11
3.23818
21
-3.99416
0
LINE
8
BLACK
6
CONTINUOUS
10
3.23818
20
-3.99416
11
3.23593
21
-3.99304
0
LINE
8
BLACK
6
CONTINUOUS
10
3.23593
20
-3.99304
11
3.22983
21
-3.99304
0
LINE
8
BLACK
6
CONTINUOUS
10
3.90506
20
-3.98731
11
3.90519
21
-3.98743
0
LINE
8
BLACK
6
CONTINUOUS
10
3.90519
20
-3.98743
11
3.90537
21
-3.98745
0
LINE
8
BLACK
6
CONTINUOUS
10
3.90537
20
-3.98745
11
3.90912
21
-3.98932
0
LINE
8
BLACK
6
CONTINUOUS
10
3.90912
20
-3.98932
11
3.90994
21
-3.98993
0
LINE
8
BLACK
6
CONTINUOUS
10
3.90994
20
-3.98993
11
3.91074
21
-3.99178
0
LINE
8
BLACK
6
CONTINUOUS
10
3.91074
20
-3.99178
11
3.91017
21
-3.99372
0
LINE
8
BLACK
6
CONTINUOUS
10
3.91017
20
-3.99372
11
3.90848
21
-3.99483
0
LINE
8
BLACK
6
CONTINUOUS
10
3.90848
20
-3.99483
11
3.90648
21
-3.9946
0
LINE
8
BLACK
6
CONTINUOUS
10
3.90648
20
-3.9946
11
3.90335
21
-3.99304
0
LINE
8
BLACK
6
CONTINUOUS
10
3.90335
20
-3.99304
11
3.89725
21
-3.99304
0
LINE
8
BLACK
6
CONTINUOUS
10
3.89725
20
-3.99304
11
3.89455
21
-3.99439
0
LINE
8
BLACK
6
CONTINUOUS
10
3.89455
20
-3.99439
11
3.89335
21
-3.99559
0
LINE
8
BLACK
6
CONTINUOUS
10
3.89335
20
-3.99559
11
3.892
21
-3.99828
0
LINE
8
BLACK
6
CONTINUOUS
10
3.892
20
-3.99828
11
3.892
21
-4.00814
0
LINE
8
BLACK
6
CONTINUOUS
10
3.892
20
-4.00814
11
3.89335
21
-4.01084
0
LINE
8
BLACK
6
CONTINUOUS
10
3.89335
20
-4.01084
11
3.89455
21
-4.01203
0
LINE
8
BLACK
6
CONTINUOUS
10
3.89455
20
-4.01203
11
3.89725
21
-4.01338
0
LINE
8
BLACK
6
CONTINUOUS
10
3.89725
20
-4.01338
11
3.90335
21
-4.01338
0
LINE
8
BLACK
6
CONTINUOUS
10
3.90335
20
-4.01338
11
3.90648
21
-4.01182
0
LINE
8
BLACK
6
CONTINUOUS
10
3.90648
20
-4.01182
11
3.90746
21
-4.01153
0
LINE
8
BLACK
6
CONTINUOUS
10
3.90746
20
-4.01153
11
3.90942
21
-4.01199
0
LINE
8
BLACK
6
CONTINUOUS
10
3.90942
20
-4.01199
11
3.91063
21
-4.01362
0
LINE
8
BLACK
6
CONTINUOUS
10
3.91063
20
-4.01362
11
3.91051
21
-4.01563
0
LINE
8
BLACK
6
CONTINUOUS
10
3.91051
20
-4.01563
11
3.90912
21
-4.0171
0
LINE
8
BLACK
6
CONTINUOUS
10
3.90912
20
-4.0171
11
3.90537
21
-4.01897
0
LINE
8
BLACK
6
CONTINUOUS
10
3.90537
20
-4.01897
11
3.90438
21
-4.01927
0
LINE
8
BLACK
6
CONTINUOUS
10
3.90438
20
-4.01927
11
3.90421
21
-4.01923
0
LINE
8
BLACK
6
CONTINUOUS
10
3.90421
20
-4.01923
11
3.90405
21
-4.01929
0
LINE
8
BLACK
6
CONTINUOUS
10
3.90405
20
-4.01929
11
3.89655
21
-4.01929
0
LINE
8
BLACK
6
CONTINUOUS
10
3.89655
20
-4.01929
11
3.89554
21
-4.01911
0
LINE
8
BLACK
6
CONTINUOUS
10
3.89554
20
-4.01911
11
3.8954
21
-4.019
0
LINE
8
BLACK
6
CONTINUOUS
10
3.8954
20
-4.019
11
3.89523
21
-4.01897
0
LINE
8
BLACK
6
CONTINUOUS
10
3.89523
20
-4.01897
11
3.89148
21
-4.0171
0
LINE
8
BLACK
6
CONTINUOUS
10
3.89148
20
-4.0171
11
3.89077
21
-4.01657
0
LINE
8
BLACK
6
CONTINUOUS
10
3.89077
20
-4.01657
11
3.89071
21
-4.01655
0
LINE
8
BLACK
6
CONTINUOUS
10
3.89071
20
-4.01655
11
3.88884
21
-4.01467
0
LINE
8
BLACK
6
CONTINUOUS
10
3.88884
20
-4.01467
11
3.88833
21
-4.01395
0
LINE
8
BLACK
6
CONTINUOUS
10
3.88833
20
-4.01395
11
3.88828
21
-4.0139
0
LINE
8
BLACK
6
CONTINUOUS
10
3.88828
20
-4.0139
11
3.88641
21
-4.01016
0
LINE
8
BLACK
6
CONTINUOUS
10
3.88641
20
-4.01016
11
3.88612
21
-4.00917
0
LINE
8
BLACK
6
CONTINUOUS
10
3.88612
20
-4.00917
11
3.88616
21
-4.009
0
LINE
8
BLACK
6
CONTINUOUS
10
3.88616
20
-4.009
11
3.8861
21
-4.00883
0
LINE
8
BLACK
6
CONTINUOUS
10
3.8861
20
-4.00883
11
3.8861
21
-3.99759
0
LINE
8
BLACK
6
CONTINUOUS
10
3.8861
20
-3.99759
11
3.88627
21
-3.99658
0
LINE
8
BLACK
6
CONTINUOUS
10
3.88627
20
-3.99658
11
3.88639
21
-3.99644
0
LINE
8
BLACK
6
CONTINUOUS
10
3.88639
20
-3.99644
11
3.88641
21
-3.99627
0
LINE
8
BLACK
6
CONTINUOUS
10
3.88641
20
-3.99627
11
3.88828
21
-3.99252
0
LINE
8
BLACK
6
CONTINUOUS
10
3.88828
20
-3.99252
11
3.88881
21
-3.99181
0
LINE
8
BLACK
6
CONTINUOUS
10
3.88881
20
-3.99181
11
3.88884
21
-3.99175
0
LINE
8
BLACK
6
CONTINUOUS
10
3.88884
20
-3.99175
11
3.89071
21
-3.98987
0
LINE
8
BLACK
6
CONTINUOUS
10
3.89071
20
-3.98987
11
3.89143
21
-3.98937
0
LINE
8
BLACK
6
CONTINUOUS
10
3.89143
20
-3.98937
11
3.89148
21
-3.98932
0
LINE
8
BLACK
6
CONTINUOUS
10
3.89148
20
-3.98932
11
3.89523
21
-3.98745
0
LINE
8
BLACK
6
CONTINUOUS
10
3.89523
20
-3.98745
11
3.89621
21
-3.98715
0
LINE
8
BLACK
6
CONTINUOUS
10
3.89621
20
-3.98715
11
3.89638
21
-3.98719
0
LINE
8
BLACK
6
CONTINUOUS
10
3.89638
20
-3.98719
11
3.89655
21
-3.98713
0
LINE
8
BLACK
6
CONTINUOUS
10
3.89655
20
-3.98713
11
3.90405
21
-3.98713
0
LINE
8
BLACK
6
CONTINUOUS
10
3.90405
20
-3.98713
11
3.90506
21
-3.98731
0
LINE
8
BLACK
6
CONTINUOUS
10
3.87069
20
-3.97507
11
3.87138
21
-3.97696
0
LINE
8
BLACK
6
CONTINUOUS
10
3.87138
20
-3.97696
11
3.87138
21
-3.98713
0
LINE
8
BLACK
6
CONTINUOUS
10
3.87138
20
-3.98713
11
3.8778
21
-3.98713
0
LINE
8
BLACK
6
CONTINUOUS
10
3.8778
20
-3.98713
11
3.87881
21
-3.98731
0
LINE
8
BLACK
6
CONTINUOUS
10
3.87881
20
-3.98731
11
3.88036
21
-3.98861
0
LINE
8
BLACK
6
CONTINUOUS
10
3.88036
20
-3.98861
11
3.88071
21
-3.9906
0
LINE
8
BLACK
6
CONTINUOUS
10
3.88071
20
-3.9906
11
3.8797
21
-3.99235
0
LINE
8
BLACK
6
CONTINUOUS
10
3.8797
20
-3.99235
11
3.8778
21
-3.99304
0
LINE
8
BLACK
6
CONTINUOUS
10
3.8778
20
-3.99304
11
3.87138
21
-3.99304
0
LINE
8
BLACK
6
CONTINUOUS
10
3.87138
20
-3.99304
11
3.87138
21
-4.01001
0
LINE
8
BLACK
6
CONTINUOUS
10
3.87138
20
-4.01001
11
3.8725
21
-4.01226
0
LINE
8
BLACK
6
CONTINUOUS
10
3.8725
20
-4.01226
11
3.87475
21
-4.01338
0
LINE
8
BLACK
6
CONTINUOUS
10
3.87475
20
-4.01338
11
3.8778
21
-4.01338
0
LINE
8
BLACK
6
CONTINUOUS
10
3.8778
20
-4.01338
11
3.87881
21
-4.01356
0
LINE
8
BLACK
6
CONTINUOUS
10
3.87881
20
-4.01356
11
3.88036
21
-4.01486
0
LINE
8
BLACK
6
CONTINUOUS
10
3.88036
20
-4.01486
11
3.88071
21
-4.01685
0
LINE
8
BLACK
6
CONTINUOUS
10
3.88071
20
-4.01685
11
3.8797
21
-4.0186
0
LINE
8
BLACK
6
CONTINUOUS
10
3.8797
20
-4.0186
11
3.8778
21
-4.01929
0
LINE
8
BLACK
6
CONTINUOUS
10
3.8778
20
-4.01929
11
3.87405
21
-4.01929
0
LINE
8
BLACK
6
CONTINUOUS
10
3.87405
20
-4.01929
11
3.87304
21
-4.01911
0
LINE
8
BLACK
6
CONTINUOUS
10
3.87304
20
-4.01911
11
3.87291
21
-4.019
0
LINE
8
BLACK
6
CONTINUOUS
10
3.87291
20
-4.019
11
3.87273
21
-4.01897
0
LINE
8
BLACK
6
CONTINUOUS
10
3.87273
20
-4.01897
11
3.86898
21
-4.0171
0
LINE
8
BLACK
6
CONTINUOUS
10
3.86898
20
-4.0171
11
3.86816
21
-4.01649
0
LINE
8
BLACK
6
CONTINUOUS
10
3.86816
20
-4.01649
11
3.86798
21
-4.01608
0
LINE
8
BLACK
6
CONTINUOUS
10
3.86798
20
-4.01608
11
3.86766
21
-4.01578
0
LINE
8
BLACK
6
CONTINUOUS
10
3.86766
20
-4.01578
11
3.86579
21
-4.01203
0
LINE
8
BLACK
6
CONTINUOUS
10
3.86579
20
-4.01203
11
3.86549
21
-4.01105
0
LINE
8
BLACK
6
CONTINUOUS
10
3.86549
20
-4.01105
11
3.86553
21
-4.01088
0
LINE
8
BLACK
6
CONTINUOUS
10
3.86553
20
-4.01088
11
3.86547
21
-4.01071
0
LINE
8
BLACK
6
CONTINUOUS
10
3.86547
20
-4.01071
11
3.86547
21
-3.99304
0
LINE
8
BLACK
6
CONTINUOUS
10
3.86547
20
-3.99304
11
3.8628
21
-3.99304
0
LINE
8
BLACK
6
CONTINUOUS
10
3.8628
20
-3.99304
11
3.86179
21
-3.99286
0
LINE
8
BLACK
6
CONTINUOUS
10
3.86179
20
-3.99286
11
3.86025
21
-3.99156
0
LINE
8
BLACK
6
CONTINUOUS
10
3.86025
20
-3.99156
11
3.85989
21
-3.98957
0
LINE
8
BLACK
6
CONTINUOUS
10
3.85989
20
-3.98957
11
3.8609
21
-3.98783
0
LINE
8
BLACK
6
CONTINUOUS
10
3.8609
20
-3.98783
11
3.8628
21
-3.98713
0
LINE
8
BLACK
6
CONTINUOUS
10
3.8628
20
-3.98713
11
3.86547
21
-3.98713
0
LINE
8
BLACK
6
CONTINUOUS
10
3.86547
20
-3.98713
11
3.86547
21
-3.97696
0
LINE
8
BLACK
6
CONTINUOUS
10
3.86547
20
-3.97696
11
3.86565
21
-3.97595
0
LINE
8
BLACK
6
CONTINUOUS
10
3.86565
20
-3.97595
11
3.86695
21
-3.97441
0
LINE
8
BLACK
6
CONTINUOUS
10
3.86695
20
-3.97441
11
3.86894
21
-3.97406
0
LINE
8
BLACK
6
CONTINUOUS
10
3.86894
20
-3.97406
11
3.87069
21
-3.97507
0
LINE
8
BLACK
6
CONTINUOUS
10
3.08002
20
-3.97416
11
3.08008
21
-3.97416
0
LINE
8
BLACK
6
CONTINUOUS
10
3.08008
20
-3.97416
11
3.08571
21
-3.97604
0
LINE
8
BLACK
6
CONTINUOUS
10
3.08571
20
-3.97604
11
3.08661
21
-3.97653
0
LINE
8
BLACK
6
CONTINUOUS
10
3.08661
20
-3.97653
11
3.0867
21
-3.97668
0
LINE
8
BLACK
6
CONTINUOUS
10
3.0867
20
-3.97668
11
3.08686
21
-3.97675
0
LINE
8
BLACK
6
CONTINUOUS
10
3.08686
20
-3.97675
11
3.09061
21
-3.9805
0
LINE
8
BLACK
6
CONTINUOUS
10
3.09061
20
-3.9805
11
3.09112
21
-3.98122
0
LINE
8
BLACK
6
CONTINUOUS
10
3.09112
20
-3.98122
11
3.09117
21
-3.98127
0
LINE
8
BLACK
6
CONTINUOUS
10
3.09117
20
-3.98127
11
3.09304
21
-3.98502
0
LINE
8
BLACK
6
CONTINUOUS
10
3.09304
20
-3.98502
11
3.09319
21
-3.98551
0
LINE
8
BLACK
6
CONTINUOUS
10
3.09319
20
-3.98551
11
3.09326
21
-3.98562
0
LINE
8
BLACK
6
CONTINUOUS
10
3.09326
20
-3.98562
11
3.09514
21
-3.99312
0
LINE
8
BLACK
6
CONTINUOUS
10
3.09514
20
-3.99312
11
3.09518
21
-3.99371
0
LINE
8
BLACK
6
CONTINUOUS
10
3.09518
20
-3.99371
11
3.09523
21
-3.99384
0
LINE
8
BLACK
6
CONTINUOUS
10
3.09523
20
-3.99384
11
3.09523
21
-3.99946
0
LINE
8
BLACK
6
CONTINUOUS
10
3.09523
20
-3.99946
11
3.09512
21
-4.00004
0
LINE
8
BLACK
6
CONTINUOUS
10
3.09512
20
-4.00004
11
3.09514
21
-4.00018
0
LINE
8
BLACK
6
CONTINUOUS
10
3.09514
20
-4.00018
11
3.09326
21
-4.00768
0
LINE
8
BLACK
6
CONTINUOUS
10
3.09326
20
-4.00768
11
3.09306
21
-4.00814
0
LINE
8
BLACK
6
CONTINUOUS
10
3.09306
20
-4.00814
11
3.09304
21
-4.00828
0
LINE
8
BLACK
6
CONTINUOUS
10
3.09304
20
-4.00828
11
3.09117
21
-4.01203
0
LINE
8
BLACK
6
CONTINUOUS
10
3.09117
20
-4.01203
11
3.09064
21
-4.01274
0
LINE
8
BLACK
6
CONTINUOUS
10
3.09064
20
-4.01274
11
3.09061
21
-4.0128
0
LINE
8
BLACK
6
CONTINUOUS
10
3.09061
20
-4.0128
11
3.08686
21
-4.01655
0
LINE
8
BLACK
6
CONTINUOUS
10
3.08686
20
-4.01655
11
3.08602
21
-4.01714
0
LINE
8
BLACK
6
CONTINUOUS
10
3.08602
20
-4.01714
11
3.08585
21
-4.01715
0
LINE
8
BLACK
6
CONTINUOUS
10
3.08585
20
-4.01715
11
3.08571
21
-4.01726
0
LINE
8
BLACK
6
CONTINUOUS
10
3.08571
20
-4.01726
11
3.08008
21
-4.01914
0
LINE
8
BLACK
6
CONTINUOUS
10
3.08008
20
-4.01914
11
3.07921
21
-4.01926
0
LINE
8
BLACK
6
CONTINUOUS
10
3.07921
20
-4.01926
11
3.07915
21
-4.01929
0
LINE
8
BLACK
6
CONTINUOUS
10
3.07915
20
-4.01929
11
3.06978
21
-4.01929
0
LINE
8
BLACK
6
CONTINUOUS
10
3.06978
20
-4.01929
11
3.06939
21
-4.01922
0
LINE
8
BLACK
6
CONTINUOUS
10
3.06939
20
-4.01922
11
3.06926
21
-4.01924
0
LINE
8
BLACK
6
CONTINUOUS
10
3.06926
20
-4.01924
11
3.06915
21
-4.01918
0
LINE
8
BLACK
6
CONTINUOUS
10
3.06915
20
-4.01918
11
3.06877
21
-4.01911
0
LINE
8
BLACK
6
CONTINUOUS
10
3.06877
20
-4.01911
11
3.06818
21
-4.01862
0
LINE
8
BLACK
6
CONTINUOUS
10
3.06818
20
-4.01862
11
3.06751
21
-4.01823
0
LINE
8
BLACK
6
CONTINUOUS
10
3.06751
20
-4.01823
11
3.06742
21
-4.01798
0
LINE
8
BLACK
6
CONTINUOUS
10
3.06742
20
-4.01798
11
3.06722
21
-4.01781
0
LINE
8
BLACK
6
CONTINUOUS
10
3.06722
20
-4.01781
11
3.06709
21
-4.01705
0
LINE
8
BLACK
6
CONTINUOUS
10
3.06709
20
-4.01705
11
3.06682
21
-4.01633
0
LINE
8
BLACK
6
CONTINUOUS
10
3.06682
20
-4.01633
11
3.06682
21
-3.97696
0
LINE
8
BLACK
6
CONTINUOUS
10
3.06682
20
-3.97696
11
3.06689
21
-3.97658
0
LINE
8
BLACK
6
CONTINUOUS
10
3.06689
20
-3.97658
11
3.06687
21
-3.97645
0
LINE
8
BLACK
6
CONTINUOUS
10
3.06687
20
-3.97645
11
3.06693
21
-3.97634
0
LINE
8
BLACK
6
CONTINUOUS
10
3.06693
20
-3.97634
11
3.067
21
-3.97595
0
LINE
8
BLACK
6
CONTINUOUS
10
3.067
20
-3.97595
11
3.06749
21
-3.97537
0
LINE
8
BLACK
6
CONTINUOUS
10
3.06749
20
-3.97537
11
3.06788
21
-3.9747
0
LINE
8
BLACK
6
CONTINUOUS
10
3.06788
20
-3.9747
11
3.06813
21
-3.97461
0
LINE
8
BLACK
6
CONTINUOUS
10
3.06813
20
-3.97461
11
3.0683
21
-3.97441
0
LINE
8
BLACK
6
CONTINUOUS
10
3.0683
20
-3.97441
11
3.06906
21
-3.97427
0
LINE
8
BLACK
6
CONTINUOUS
10
3.06906
20
-3.97427
11
3.06978
21
-3.97401
0
LINE
8
BLACK
6
CONTINUOUS
10
3.06978
20
-3.97401
11
3.07915
21
-3.97401
0
LINE
8
BLACK
6
CONTINUOUS
10
3.07915
20
-3.97401
11
3.08002
21
-3.97416
0
LINE
8
BLACK
6
CONTINUOUS
10
3.07273
20
-3.97992
11
3.07273
21
-4.01338
0
LINE
8
BLACK
6
CONTINUOUS
10
3.07273
20
-4.01338
11
3.07867
21
-4.01338
0
LINE
8
BLACK
6
CONTINUOUS
10
3.07867
20
-4.01338
11
3.08318
21
-4.01188
0
LINE
8
BLACK
6
CONTINUOUS
10
3.08318
20
-4.01188
11
3.0861
21
-4.00896
0
LINE
8
BLACK
6
CONTINUOUS
10
3.0861
20
-4.00896
11
3.08761
21
-4.00593
0
LINE
8
BLACK
6
CONTINUOUS
10
3.08761
20
-4.00593
11
3.08932
21
-3.9991
0
LINE
8
BLACK
6
CONTINUOUS
10
3.08932
20
-3.9991
11
3.08932
21
-3.9942
0
LINE
8
BLACK
6
CONTINUOUS
10
3.08932
20
-3.9942
11
3.08761
21
-3.98737
0
LINE
8
BLACK
6
CONTINUOUS
10
3.08761
20
-3.98737
11
3.0861
21
-3.98434
0
LINE
8
BLACK
6
CONTINUOUS
10
3.0861
20
-3.98434
11
3.08318
21
-3.98142
0
LINE
8
BLACK
6
CONTINUOUS
10
3.08318
20
-3.98142
11
3.07867
21
-3.97992
0
LINE
8
BLACK
6
CONTINUOUS
10
3.07867
20
-3.97992
11
3.07273
21
-3.97992
0
LINE
8
BLACK
6
CONTINUOUS
10
3.1214
20
-3.98731
11
3.12154
21
-3.98743
0
LINE
8
BLACK
6
CONTINUOUS
10
3.12154
20
-3.98743
11
3.12172
21
-3.98745
0
LINE
8
BLACK
6
CONTINUOUS
10
3.12172
20
-3.98745
11
3.12547
21
-3.98932
0
LINE
8
BLACK
6
CONTINUOUS
10
3.12547
20
-3.98932
11
3.12629
21
-3.98993
0
LINE
8
BLACK
6
CONTINUOUS
10
3.12629
20
-3.98993
11
3.12646
21
-3.99034
0
LINE
8
BLACK
6
CONTINUOUS
10
3.12646
20
-3.99034
11
3.12679
21
-3.99064
0
LINE
8
BLACK
6
CONTINUOUS
10
3.12679
20
-3.99064
11
3.12866
21
-3.99439
0
LINE
8
BLACK
6
CONTINUOUS
10
3.12866
20
-3.99439
11
3.12895
21
-3.99537
0
LINE
8
BLACK
6
CONTINUOUS
10
3.12895
20
-3.99537
11
3.12891
21
-3.99555
0
LINE
8
BLACK
6
CONTINUOUS
10
3.12891
20
-3.99555
11
3.12897
21
-3.99571
0
LINE
8
BLACK
6
CONTINUOUS
10
3.12897
20
-3.99571
11
3.12897
21
-3.99946
0
LINE
8
BLACK
6
CONTINUOUS
10
3.12897
20
-3.99946
11
3.12879
21
-4.00047
0
LINE
8
BLACK
6
CONTINUOUS
10
3.12879
20
-4.00047
11
3.12848
21
-4.00084
0
LINE
8
BLACK
6
CONTINUOUS
10
3.12848
20
-4.00084
11
3.12832
21
-4.00131
0
LINE
8
BLACK
6
CONTINUOUS
10
3.12832
20
-4.00131
11
3.12785
21
-4.00159
0
LINE
8
BLACK
6
CONTINUOUS
10
3.12785
20
-4.00159
11
3.1275
21
-4.00202
0
LINE
8
BLACK
6
CONTINUOUS
10
3.1275
20
-4.00202
11
3.12702
21
-4.0021
0
LINE
8
BLACK
6
CONTINUOUS
10
3.12702
20
-4.0021
11
3.1266
21
-4.00236
0
LINE
8
BLACK
6
CONTINUOUS
10
3.1266
20
-4.00236
11
3.11022
21
-4.00563
0
LINE
8
BLACK
6
CONTINUOUS
10
3.11022
20
-4.00563
11
3.11022
21
-4.01001
0
LINE
8
BLACK
6
CONTINUOUS
10
3.11022
20
-4.01001
11
3.11135
21
-4.01226
0
LINE
8
BLACK
6
CONTINUOUS
10
3.11135
20
-4.01226
11
3.11359
21
-4.01338
0
LINE
8
BLACK
6
CONTINUOUS
10
3.11359
20
-4.01338
11
3.1197
21
-4.01338
0
LINE
8
BLACK
6
CONTINUOUS
10
3.1197
20
-4.01338
11
3.12282
21
-4.01182
0
LINE
8
BLACK
6
CONTINUOUS
10
3.12282
20
-4.01182
11
3.12381
21
-4.01153
0
LINE
8
BLACK
6
CONTINUOUS
10
3.12381
20
-4.01153
11
3.12577
21
-4.01199
0
LINE
8
BLACK
6
CONTINUOUS
10
3.12577
20
-4.01199
11
3.12697
21
-4.01362
0
LINE
8
BLACK
6
CONTINUOUS
10
3.12697
20
-4.01362
11
3.12685
21
-4.01563
0
LINE
8
BLACK
6
CONTINUOUS
10
3.12685
20
-4.01563
11
3.12547
21
-4.0171
0
LINE
8
BLACK
6
CONTINUOUS
10
3.12547
20
-4.0171
11
3.12172
21
-4.01897
0
LINE
8
BLACK
6
CONTINUOUS
10
3.12172
20
-4.01897
11
3.12073
21
-4.01927
0
LINE
8
BLACK
6
CONTINUOUS
10
3.12073
20
-4.01927
11
3.12056
21
-4.01923
0
LINE
8
BLACK
6
CONTINUOUS
10
3.12056
20
-4.01923
11
3.1204
21
-4.01929
0
LINE
8
BLACK
6
CONTINUOUS
10
3.1204
20
-4.01929
11
3.1129
21
-4.01929
0
LINE
8
BLACK
6
CONTINUOUS
10
3.1129
20
-4.01929
11
3.11189
21
-4.01911
0
LINE
8
BLACK
6
CONTINUOUS
10
3.11189
20
-4.01911
11
3.11175
21
-4.019
0
LINE
8
BLACK
6
CONTINUOUS
10
3.11175
20
-4.019
11
3.11158
21
-4.01897
0
LINE
8
BLACK
6
CONTINUOUS
10
3.11158
20
-4.01897
11
3.10783
21
-4.0171
0
LINE
8
BLACK
6
CONTINUOUS
10
3.10783
20
-4.0171
11
3.107
21
-4.01649
0
LINE
8
BLACK
6
CONTINUOUS
10
3.107
20
-4.01649
11
3.10683
21
-4.01608
0
LINE
8
BLACK
6
CONTINUOUS
10
3.10683
20
-4.01608
11
3.10651
21
-4.01578
0
LINE
8
BLACK
6
CONTINUOUS
10
3.10651
20
-4.01578
11
3.10463
21
-4.01203
0
LINE
8
BLACK
6
CONTINUOUS
10
3.10463
20
-4.01203
11
3.10434
21
-4.01105
0
LINE
8
BLACK
6
CONTINUOUS
10
3.10434
20
-4.01105
11
3.10438
21
-4.01088
0
LINE
8
BLACK
6
CONTINUOUS
10
3.10438
20
-4.01088
11
3.10432
21
-4.01071
0
LINE
8
BLACK
6
CONTINUOUS
10
3.10432
20
-4.01071
11
3.10432
21
-3.99571
0
LINE
8
BLACK
6
CONTINUOUS
10
3.10432
20
-3.99571
11
3.1045
21
-3.9947
0
LINE
8
BLACK
6
CONTINUOUS
10
3.1045
20
-3.9947
11
3.10461
21
-3.99457
0
LINE
8
BLACK
6
CONTINUOUS
10
3.10461
20
-3.99457
11
3.10463
21
-3.99439
0
LINE
8
BLACK
6
CONTINUOUS
10
3.10463
20
-3.99439
11
3.10651
21
-3.99064
0
LINE
8
BLACK
6
CONTINUOUS
10
3.10651
20
-3.99064
11
3.10712
21
-3.98982
0
LINE
8
BLACK
6
CONTINUOUS
10
3.10712
20
-3.98982
11
3.10752
21
-3.98964
0
LINE
8
BLACK
6
CONTINUOUS
10
3.10752
20
-3.98964
11
3.10783
21
-3.98932
0
LINE
8
BLACK
6
CONTINUOUS
10
3.10783
20
-3.98932
11
3.11158
21
-3.98745
0
LINE
8
BLACK
6
CONTINUOUS
10
3.11158
20
-3.98745
11
3.11256
21
-3.98715
0
LINE
8
BLACK
6
CONTINUOUS
10
3.11256
20
-3.98715
11
3.11273
21
-3.98719
0
LINE
8
BLACK
6
CONTINUOUS
10
3.11273
20
-3.98719
11
3.1129
21
-3.98713
0
LINE
8
BLACK
6
CONTINUOUS
10
3.1129
20
-3.98713
11
3.1204
21
-3.98713
0
LINE
8
BLACK
6
CONTINUOUS
10
3.1204
20
-3.98713
11
3.1214
21
-3.98731
0
LINE
8
BLACK
6
CONTINUOUS
10
3.11359
20
-3.99304
11
3.11135
21
-3.99416
0
LINE
8
BLACK
6
CONTINUOUS
10
3.11135
20
-3.99416
11
3.11022
21
-3.99641
0
LINE
8
BLACK
6
CONTINUOUS
10
3.11022
20
-3.99641
11
3.11022
21
-3.99961
0
LINE
8
BLACK
6
CONTINUOUS
10
3.11022
20
-3.99961
11
3.12307
21
-3.99704
0
LINE
8
BLACK
6
CONTINUOUS
10
3.12307
20
-3.99704
11
3.12307
21
-3.99641
0
LINE
8
BLACK
6
CONTINUOUS
10
3.12307
20
-3.99641
11
3.12194
21
-3.99416
0
LINE
8
BLACK
6
CONTINUOUS
10
3.12194
20
-3.99416
11
3.1197
21
-3.99304
0
LINE
8
BLACK
6
CONTINUOUS
10
3.1197
20
-3.99304
11
3.11359
21
-3.99304
0
LINE
8
BLACK
6
CONTINUOUS
10
3.78681
20
-3.97416
11
3.78687
21
-3.97416
0
LINE
8
BLACK
6
CONTINUOUS
10
3.78687
20
-3.97416
11
3.79249
21
-3.97604
0
LINE
8
BLACK
6
CONTINUOUS
10
3.79249
20
-3.97604
11
3.7934
21
-3.97653
0
LINE
8
BLACK
6
CONTINUOUS
10
3.7934
20
-3.97653
11
3.79445
21
-3.97825
0
LINE
8
BLACK
6
CONTINUOUS
10
3.79445
20
-3.97825
11
3.79416
21
-3.98024
0
LINE
8
BLACK
6
CONTINUOUS
10
3.79416
20
-3.98024
11
3.79265
21
-3.98158
0
LINE
8
BLACK
6
CONTINUOUS
10
3.79265
20
-3.98158
11
3.79063
21
-3.98164
0
LINE
8
BLACK
6
CONTINUOUS
10
3.79063
20
-3.98164
11
3.78546
21
-3.97992
0
LINE
8
BLACK
6
CONTINUOUS
10
3.78546
20
-3.97992
11
3.77726
21
-3.97992
0
LINE
8
BLACK
6
CONTINUOUS
10
3.77726
20
-3.97992
11
3.77456
21
-3.98127
0
LINE
8
BLACK
6
CONTINUOUS
10
3.77456
20
-3.98127
11
3.77337
21
-3.98246
0
LINE
8
BLACK
6
CONTINUOUS
10
3.77337
20
-3.98246
11
3.77202
21
-3.98516
0
LINE
8
BLACK
6
CONTINUOUS
10
3.77202
20
-3.98516
11
3.77202
21
-3.98752
0
LINE
8
BLACK
6
CONTINUOUS
10
3.77202
20
-3.98752
11
3.77337
21
-3.99021
0
LINE
8
BLACK
6
CONTINUOUS
10
3.77337
20
-3.99021
11
3.77456
21
-3.99141
0
LINE
8
BLACK
6
CONTINUOUS
10
3.77456
20
-3.99141
11
3.77759
21
-3.99293
0
LINE
8
BLACK
6
CONTINUOUS
10
3.77759
20
-3.99293
11
3.78478
21
-3.99472
0
LINE
8
BLACK
6
CONTINUOUS
10
3.78478
20
-3.99472
11
3.78524
21
-3.99493
0
LINE
8
BLACK
6
CONTINUOUS
10
3.78524
20
-3.99493
11
3.78538
21
-3.99495
0
LINE
8
BLACK
6
CONTINUOUS
10
3.78538
20
-3.99495
11
3.78913
21
-3.99682
0
LINE
8
BLACK
6
CONTINUOUS
10
3.78913
20
-3.99682
11
3.78984
21
-3.99735
0
LINE
8
BLACK
6
CONTINUOUS
10
3.78984
20
-3.99735
11
3.7899
21
-3.99737
0
LINE
8
BLACK
6
CONTINUOUS
10
3.7899
20
-3.99737
11
3.79177
21
-3.99925
0
LINE
8
BLACK
6
CONTINUOUS
10
3.79177
20
-3.99925
11
3.79228
21
-3.99997
0
LINE
8
BLACK
6
CONTINUOUS
10
3.79228
20
-3.99997
11
3.79233
21
-4.00002
0
LINE
8
BLACK
6
CONTINUOUS
10
3.79233
20
-4.00002
11
3.7942
21
-4.00376
0
LINE
8
BLACK
6
CONTINUOUS
10
3.7942
20
-4.00376
11
3.79449
21
-4.00475
0
LINE
8
BLACK
6
CONTINUOUS
10
3.79449
20
-4.00475
11
3.79445
21
-4.00492
0
LINE
8
BLACK
6
CONTINUOUS
10
3.79445
20
-4.00492
11
3.79451
21
-4.00509
0
LINE
8
BLACK
6
CONTINUOUS
10
3.79451
20
-4.00509
11
3.79451
21
-4.00883
0
LINE
8
BLACK
6
CONTINUOUS
10
3.79451
20
-4.00883
11
3.79434
21
-4.00984
0
LINE
8
BLACK
6
CONTINUOUS
10
3.79434
20
-4.00984
11
3.79422
21
-4.00998
0
LINE
8
BLACK
6
CONTINUOUS
10
3.79422
20
-4.00998
11
3.7942
21
-4.01016
0
LINE
8
BLACK
6
CONTINUOUS
10
3.7942
20
-4.01016
11
3.79233
21
-4.0139
0
LINE
8
BLACK
6
CONTINUOUS
10
3.79233
20
-4.0139
11
3.7918
21
-4.01461
0
LINE
8
BLACK
6
CONTINUOUS
10
3.7918
20
-4.01461
11
3.79177
21
-4.01467
0
LINE
8
BLACK
6
CONTINUOUS
10
3.79177
20
-4.01467
11
3.7899
21
-4.01655
0
LINE
8
BLACK
6
CONTINUOUS
10
3.7899
20
-4.01655
11
3.78918
21
-4.01705
0
LINE
8
BLACK
6
CONTINUOUS
10
3.78918
20
-4.01705
11
3.78913
21
-4.0171
0
LINE
8
BLACK
6
CONTINUOUS
10
3.78913
20
-4.0171
11
3.78538
21
-4.01897
0
LINE
8
BLACK
6
CONTINUOUS
10
3.78538
20
-4.01897
11
3.7844
21
-4.01927
0
LINE
8
BLACK
6
CONTINUOUS
10
3.7844
20
-4.01927
11
3.78423
21
-4.01923
0
LINE
8
BLACK
6
CONTINUOUS
10
3.78423
20
-4.01923
11
3.78406
21
-4.01929
0
LINE
8
BLACK
6
CONTINUOUS
10
3.78406
20
-4.01929
11
3.77469
21
-4.01929
0
LINE
8
BLACK
6
CONTINUOUS
10
3.77469
20
-4.01929
11
3.77382
21
-4.01913
0
LINE
8
BLACK
6
CONTINUOUS
10
3.77382
20
-4.01913
11
3.77375
21
-4.01914
0
LINE
8
BLACK
6
CONTINUOUS
10
3.77375
20
-4.01914
11
3.76813
21
-4.01726
0
LINE
8
BLACK
6
CONTINUOUS
10
3.76813
20
-4.01726
11
3.76723
21
-4.01677
0
LINE
8
BLACK
6
CONTINUOUS
10
3.76723
20
-4.01677
11
3.76617
21
-4.01505
0
LINE
8
BLACK
6
CONTINUOUS
10
3.76617
20
-4.01505
11
3.76647
21
-4.01305
0
LINE
8
BLACK
6
CONTINUOUS
10
3.76647
20
-4.01305
11
3.76798
21
-4.01171
0
LINE
8
BLACK
6
CONTINUOUS
10
3.76798
20
-4.01171
11
3.77
21
-4.01166
0
LINE
8
BLACK
6
CONTINUOUS
10
3.77
20
-4.01166
11
3.77517
21
-4.01338
0
LINE
8
BLACK
6
CONTINUOUS
10
3.77517
20
-4.01338
11
3.78337
21
-4.01338
0
LINE
8
BLACK
6
CONTINUOUS
10
3.78337
20
-4.01338
11
3.78606
21
-4.01203
0
LINE
8
BLACK
6
CONTINUOUS
10
3.78606
20
-4.01203
11
3.78726
21
-4.01084
0
LINE
8
BLACK
6
CONTINUOUS
10
3.78726
20
-4.01084
11
3.78861
21
-4.00814
0
LINE
8
BLACK
6
CONTINUOUS
10
3.78861
20
-4.00814
11
3.78861
21
-4.00578
0
LINE
8
BLACK
6
CONTINUOUS
10
3.78861
20
-4.00578
11
3.78726
21
-4.00308
0
LINE
8
BLACK
6
CONTINUOUS
10
3.78726
20
-4.00308
11
3.78606
21
-4.00189
0
LINE
8
BLACK
6
CONTINUOUS
10
3.78606
20
-4.00189
11
3.78303
21
-4.00037
0
LINE
8
BLACK
6
CONTINUOUS
10
3.78303
20
-4.00037
11
3.77585
21
-3.99858
0
LINE
8
BLACK
6
CONTINUOUS
10
3.77585
20
-3.99858
11
3.77538
21
-3.99837
0
LINE
8
BLACK
6
CONTINUOUS
10
3.77538
20
-3.99837
11
3.77524
21
-3.99835
0
LINE
8
BLACK
6
CONTINUOUS
10
3.77524
20
-3.99835
11
3.77149
21
-3.99648
0
LINE
8
BLACK
6
CONTINUOUS
10
3.77149
20
-3.99648
11
3.77078
21
-3.99595
0
LINE
8
BLACK
6
CONTINUOUS
10
3.77078
20
-3.99595
11
3.77073
21
-3.99592
0
LINE
8
BLACK
6
CONTINUOUS
10
3.77073
20
-3.99592
11
3.76885
21
-3.99405
0
LINE
8
BLACK
6
CONTINUOUS
10
3.76885
20
-3.99405
11
3.76834
21
-3.99333
0
LINE
8
BLACK
6
CONTINUOUS
10
3.76834
20
-3.99333
11
3.7683
21
-3.99328
0
LINE
8
BLACK
6
CONTINUOUS
10
3.7683
20
-3.99328
11
3.76642
21
-3.98953
0
LINE
8
BLACK
6
CONTINUOUS
10
3.76642
20
-3.98953
11
3.76613
21
-3.98855
0
LINE
8
BLACK
6
CONTINUOUS
10
3.76613
20
-3.98855
11
3.76617
21
-3.98838
0
LINE
8
BLACK
6
CONTINUOUS
10
3.76617
20
-3.98838
11
3.76611
21
-3.98821
0
LINE
8
BLACK
6
CONTINUOUS
10
3.76611
20
-3.98821
11
3.76611
21
-3.98446
0
LINE
8
BLACK
6
CONTINUOUS
10
3.76611
20
-3.98446
11
3.76629
21
-3.98345
0
LINE
8
BLACK
6
CONTINUOUS
10
3.76629
20
-3.98345
11
3.7664
21
-3.98332
0
LINE
8
BLACK
6
CONTINUOUS
10
3.7664
20
-3.98332
11
3.76642
21
-3.98314
0
LINE
8
BLACK
6
CONTINUOUS
10
3.76642
20
-3.98314
11
3.7683
21
-3.97939
0
LINE
8
BLACK
6
CONTINUOUS
10
3.7683
20
-3.97939
11
3.76882
21
-3.97868
0
LINE
8
BLACK
6
CONTINUOUS
10
3.76882
20
-3.97868
11
3.76885
21
-3.97863
0
LINE
8
BLACK
6
CONTINUOUS
10
3.76885
20
-3.97863
11
3.77073
21
-3.97675
0
LINE
8
BLACK
6
CONTINUOUS
10
3.77073
20
-3.97675
11
3.77145
21
-3.97624
0
LINE
8
BLACK
6
CONTINUOUS
10
3.77145
20
-3.97624
11
3.77149
21
-3.9762
0
LINE
8
BLACK
6
CONTINUOUS
10
3.77149
20
-3.9762
11
3.77524
21
-3.97432
0
LINE
8
BLACK
6
CONTINUOUS
10
3.77524
20
-3.97432
11
3.77623
21
-3.97403
0
LINE
8
BLACK
6
CONTINUOUS
10
3.77623
20
-3.97403
11
3.7764
21
-3.97407
0
LINE
8
BLACK
6
CONTINUOUS
10
3.7764
20
-3.97407
11
3.77656
21
-3.97401
0
LINE
8
BLACK
6
CONTINUOUS
10
3.77656
20
-3.97401
11
3.78594
21
-3.97401
0
LINE
8
BLACK
6
CONTINUOUS
10
3.78594
20
-3.97401
11
3.78681
21
-3.97416
0
LINE
8
BLACK
6
CONTINUOUS
10
3.34075
20
-3.98731
11
3.34089
21
-3.98743
0
LINE
8
BLACK
6
CONTINUOUS
10
3.34089
20
-3.98743
11
3.34106
21
-3.98745
0
LINE
8
BLACK
6
CONTINUOUS
10
3.34106
20
-3.98745
11
3.34481
21
-3.98932
0
LINE
8
BLACK
6
CONTINUOUS
10
3.34481
20
-3.98932
11
3.34552
21
-3.98985
0
LINE
8
BLACK
6
CONTINUOUS
10
3.34552
20
-3.98985
11
3.34558
21
-3.98987
0
LINE
8
BLACK
6
CONTINUOUS
10
3.34558
20
-3.98987
11
3.34745
21
-3.99175
0
LINE
8
BLACK
6
CONTINUOUS
10
3.34745
20
-3.99175
11
3.34796
21
-3.99247
0
LINE
8
BLACK
6
CONTINUOUS
10
3.34796
20
-3.99247
11
3.34801
21
-3.99252
0
LINE
8
BLACK
6
CONTINUOUS
10
3.34801
20
-3.99252
11
3.34988
21
-3.99627
0
LINE
8
BLACK
6
CONTINUOUS
10
3.34988
20
-3.99627
11
3.35018
21
-3.99725
0
LINE
8
BLACK
6
CONTINUOUS
10
3.35018
20
-3.99725
11
3.35013
21
-3.99742
0
LINE
8
BLACK
6
CONTINUOUS
10
3.35013
20
-3.99742
11
3.35019
21
-3.99759
0
LINE
8
BLACK
6
CONTINUOUS
10
3.35019
20
-3.99759
11
3.35019
21
-4.00883
0
LINE
8
BLACK
6
CONTINUOUS
10
3.35019
20
-4.00883
11
3.35002
21
-4.00984
0
LINE
8
BLACK
6
CONTINUOUS
10
3.35002
20
-4.00984
11
3.3499
21
-4.00998
0
LINE
8
BLACK
6
CONTINUOUS
10
3.3499
20
-4.00998
11
3.34988
21
-4.01016
0
LINE
8
BLACK
6
CONTINUOUS
10
3.34988
20
-4.01016
11
3.34801
21
-4.0139
0
LINE
8
BLACK
6
CONTINUOUS
10
3.34801
20
-4.0139
11
3.34748
21
-4.01461
0
LINE
8
BLACK
6
CONTINUOUS
10
3.34748
20
-4.01461
11
3.34745
21
-4.01467
0
LINE
8
BLACK
6
CONTINUOUS
10
3.34745
20
-4.01467
11
3.34558
21
-4.01655
0
LINE
8
BLACK
6
CONTINUOUS
10
3.34558
20
-4.01655
11
3.34486
21
-4.01705
0
LINE
8
BLACK
6
CONTINUOUS
10
3.34486
20
-4.01705
11
3.34481
21
-4.0171
0
LINE
8
BLACK
6
CONTINUOUS
10
3.34481
20
-4.0171
11
3.34106
21
-4.01897
0
LINE
8
BLACK
6
CONTINUOUS
10
3.34106
20
-4.01897
11
3.34008
21
-4.01927
0
LINE
8
BLACK
6
CONTINUOUS
10
3.34008
20
-4.01927
11
3.33991
21
-4.01923
0
LINE
8
BLACK
6
CONTINUOUS
10
3.33991
20
-4.01923
11
3.33974
21
-4.01929
0
LINE
8
BLACK
6
CONTINUOUS
10
3.33974
20
-4.01929
11
3.33412
21
-4.01929
0
LINE
8
BLACK
6
CONTINUOUS
10
3.33412
20
-4.01929
11
3.33311
21
-4.01911
0
LINE
8
BLACK
6
CONTINUOUS
10
3.33311
20
-4.01911
11
3.33297
21
-4.019
0
LINE
8
BLACK
6
CONTINUOUS
10
3.33297
20
-4.019
11
3.3328
21
-4.01897
0
LINE
8
BLACK
6
CONTINUOUS
10
3.3328
20
-4.01897
11
3.32905
21
-4.0171
0
LINE
8
BLACK
6
CONTINUOUS
10
3.32905
20
-4.0171
11
3.32834
21
-4.01657
0
LINE
8
BLACK
6
CONTINUOUS
10
3.32834
20
-4.01657
11
3.32828
21
-4.01655
0
LINE
8
BLACK
6
CONTINUOUS
10
3.32828
20
-4.01655
11
3.32641
21
-4.01467
0
LINE
8
BLACK
6
CONTINUOUS
10
3.32641
20
-4.01467
11
3.3259
21
-4.01395
0
LINE
8
BLACK
6
CONTINUOUS
10
3.3259
20
-4.01395
11
3.32585
21
-4.0139
0
LINE
8
BLACK
6
CONTINUOUS
10
3.32585
20
-4.0139
11
3.32398
21
-4.01016
0
LINE
8
BLACK
6
CONTINUOUS
10
3.32398
20
-4.01016
11
3.32369
21
-4.00917
0
LINE
8
BLACK
6
CONTINUOUS
10
3.32369
20
-4.00917
11
3.32373
21
-4.009
0
LINE
8
BLACK
6
CONTINUOUS
10
3.32373
20
-4.009
11
3.32367
21
-4.00883
0
LINE
8
BLACK
6
CONTINUOUS
10
3.32367
20
-4.00883
11
3.32367
21
-3.99759
0
LINE
8
BLACK
6
CONTINUOUS
10
3.32367
20
-3.99759
11
3.32384
21
-3.99658
0
LINE
8
BLACK
6
CONTINUOUS
10
3.32384
20
-3.99658
11
3.32396
21
-3.99644
0
LINE
8
BLACK
6
CONTINUOUS
10
3.32396
20
-3.99644
11
3.32398
21
-3.99627
0
LINE
8
BLACK
6
CONTINUOUS
10
3.32398
20
-3.99627
11
3.32585
21
-3.99252
0
LINE
8
BLACK
6
CONTINUOUS
10
3.32585
20
-3.99252
11
3.32638
21
-3.99181
0
LINE
8
BLACK
6
CONTINUOUS
10
3.32638
20
-3.99181
11
3.32641
21
-3.99175
0
LINE
8
BLACK
6
CONTINUOUS
10
3.32641
20
-3.99175
11
3.32828
21
-3.98987
0
LINE
8
BLACK
6
CONTINUOUS
10
3.32828
20
-3.98987
11
3.329
21
-3.98937
0
LINE
8
BLACK
6
CONTINUOUS
10
3.329
20
-3.98937
11
3.32905
21
-3.98932
0
LINE
8
BLACK
6
CONTINUOUS
10
3.32905
20
-3.98932
11
3.3328
21
-3.98745
0
LINE
8
BLACK
6
CONTINUOUS
10
3.3328
20
-3.98745
11
3.33378
21
-3.98715
0
LINE
8
BLACK
6
CONTINUOUS
10
3.33378
20
-3.98715
11
3.33395
21
-3.98719
0
LINE
8
BLACK
6
CONTINUOUS
10
3.33395
20
-3.98719
11
3.33412
21
-3.98713
0
LINE
8
BLACK
6
CONTINUOUS
10
3.33412
20
-3.98713
11
3.33974
21
-3.98713
0
LINE
8
BLACK
6
CONTINUOUS
10
3.33974
20
-3.98713
11
3.34075
21
-3.98731
0
LINE
8
BLACK
6
CONTINUOUS
10
3.33482
20
-3.99304
11
3.33212
21
-3.99439
0
LINE
8
BLACK
6
CONTINUOUS
10
3.33212
20
-3.99439
11
3.33092
21
-3.99559
0
LINE
8
BLACK
6
CONTINUOUS
10
3.33092
20
-3.99559
11
3.32957
21
-3.99828
0
LINE
8
BLACK
6
CONTINUOUS
10
3.32957
20
-3.99828
11
3.32957
21
-4.00814
0
LINE
8
BLACK
6
CONTINUOUS
10
3.32957
20
-4.00814
11
3.33092
21
-4.01084
0
LINE
8
BLACK
6
CONTINUOUS
10
3.33092
20
-4.01084
11
3.33212
21
-4.01203
0
LINE
8
BLACK
6
CONTINUOUS
10
3.33212
20
-4.01203
11
3.33482
21
-4.01338
0
LINE
8
BLACK
6
CONTINUOUS
10
3.33482
20
-4.01338
11
3.33905
21
-4.01338
0
LINE
8
BLACK
6
CONTINUOUS
10
3.33905
20
-4.01338
11
3.34174
21
-4.01203
0
LINE
8
BLACK
6
CONTINUOUS
10
3.34174
20
-4.01203
11
3.34294
21
-4.01084
0
LINE
8
BLACK
6
CONTINUOUS
10
3.34294
20
-4.01084
11
3.34429
21
-4.00814
0
LINE
8
BLACK
6
CONTINUOUS
10
3.34429
20
-4.00814
11
3.34429
21
-3.99828
0
LINE
8
BLACK
6
CONTINUOUS
10
3.34429
20
-3.99828
11
3.34294
21
-3.99559
0
LINE
8
BLACK
6
CONTINUOUS
10
3.34294
20
-3.99559
11
3.34174
21
-3.99439
0
LINE
8
BLACK
6
CONTINUOUS
10
3.34174
20
-3.99439
11
3.33905
21
-3.99304
0
LINE
8
BLACK
6
CONTINUOUS
10
3.33905
20
-3.99304
11
3.33482
21
-3.99304
0
LINE
8
BLACK
6
CONTINUOUS
10
3.36638
20
-3.97507
11
3.36707
21
-3.97696
0
LINE
8
BLACK
6
CONTINUOUS
10
3.36707
20
-3.97696
11
3.36707
21
-3.98713
0
LINE
8
BLACK
6
CONTINUOUS
10
3.36707
20
-3.98713
11
3.37349
21
-3.98713
0
LINE
8
BLACK
6
CONTINUOUS
10
3.37349
20
-3.98713
11
3.3745
21
-3.98731
0
LINE
8
BLACK
6
CONTINUOUS
10
3.3745
20
-3.98731
11
3.37605
21
-3.98861
0
LINE
8
BLACK
6
CONTINUOUS
10
3.37605
20
-3.98861
11
3.3764
21
-3.9906
0
LINE
8
BLACK
6
CONTINUOUS
10
3.3764
20
-3.9906
11
3.37539
21
-3.99235
0
LINE
8
BLACK
6
CONTINUOUS
10
3.37539
20
-3.99235
11
3.37349
21
-3.99304
0
LINE
8
BLACK
6
CONTINUOUS
10
3.37349
20
-3.99304
11
3.36707
21
-3.99304
0
LINE
8
BLACK
6
CONTINUOUS
10
3.36707
20
-3.99304
11
3.36707
21
-4.01001
0
LINE
8
BLACK
6
CONTINUOUS
10
3.36707
20
-4.01001
11
3.36819
21
-4.01226
0
LINE
8
BLACK
6
CONTINUOUS
10
3.36819
20
-4.01226
11
3.37044
21
-4.01338
0
LINE
8
BLACK
6
CONTINUOUS
10
3.37044
20
-4.01338
11
3.37349
21
-4.01338
0
LINE
8
BLACK
6
CONTINUOUS
10
3.37349
20
-4.01338
11
3.3745
21
-4.01356
0
LINE
8
BLACK
6
CONTINUOUS
10
3.3745
20
-4.01356
11
3.37605
21
-4.01486
0
LINE
8
BLACK
6
CONTINUOUS
10
3.37605
20
-4.01486
11
3.3764
21
-4.01685
0
LINE
8
BLACK
6
CONTINUOUS
10
3.3764
20
-4.01685
11
3.37539
21
-4.0186
0
LINE
8
BLACK
6
CONTINUOUS
10
3.37539
20
-4.0186
11
3.37349
21
-4.01929
0
LINE
8
BLACK
6
CONTINUOUS
10
3.37349
20
-4.01929
11
3.36974
21
-4.01929
0
LINE
8
BLACK
6
CONTINUOUS
10
3.36974
20
-4.01929
11
3.36873
21
-4.01911
0
LINE
8
BLACK
6
CONTINUOUS
10
3.36873
20
-4.01911
11
3.36859
21
-4.019
0
LINE
8
BLACK
6
CONTINUOUS
10
3.36859
20
-4.019
11
3.36842
21
-4.01897
0
LINE
8
BLACK
6
CONTINUOUS
10
3.36842
20
-4.01897
11
3.36467
21
-4.0171
0
LINE
8
BLACK
6
CONTINUOUS
10
3.36467
20
-4.0171
11
3.36385
21
-4.01649
0
LINE
8
BLACK
6
CONTINUOUS
10
3.36385
20
-4.01649
11
3.36367
21
-4.01608
0
LINE
8
BLACK
6
CONTINUOUS
10
3.36367
20
-4.01608
11
3.36335
21
-4.01578
0
LINE
8
BLACK
6
CONTINUOUS
10
3.36335
20
-4.01578
11
3.36147
21
-4.01203
0
LINE
8
BLACK
6
CONTINUOUS
10
3.36147
20
-4.01203
11
3.36118
21
-4.01105
0
LINE
8
BLACK
6
CONTINUOUS
10
3.36118
20
-4.01105
11
3.36122
21
-4.01088
0
LINE
8
BLACK
6
CONTINUOUS
10
3.36122
20
-4.01088
11
3.36116
21
-4.01071
0
LINE
8
BLACK
6
CONTINUOUS
10
3.36116
20
-4.01071
11
3.36116
21
-3.99304
0
LINE
8
BLACK
6
CONTINUOUS
10
3.36116
20
-3.99304
11
3.35849
21
-3.99304
0
LINE
8
BLACK
6
CONTINUOUS
10
3.35849
20
-3.99304
11
3.35748
21
-3.99286
0
LINE
8
BLACK
6
CONTINUOUS
10
3.35748
20
-3.99286
11
3.35593
21
-3.99156
0
LINE
8
BLACK
6
CONTINUOUS
10
3.35593
20
-3.99156
11
3.35558
21
-3.98957
0
LINE
8
BLACK
6
CONTINUOUS
10
3.35558
20
-3.98957
11
3.35659
21
-3.98783
0
LINE
8
BLACK
6
CONTINUOUS
10
3.35659
20
-3.98783
11
3.35849
21
-3.98713
0
LINE
8
BLACK
6
CONTINUOUS
10
3.35849
20
-3.98713
11
3.36116
21
-3.98713
0
LINE
8
BLACK
6
CONTINUOUS
10
3.36116
20
-3.98713
11
3.36116
21
-3.97696
0
LINE
8
BLACK
6
CONTINUOUS
10
3.36116
20
-3.97696
11
3.36134
21
-3.97595
0
LINE
8
BLACK
6
CONTINUOUS
10
3.36134
20
-3.97595
11
3.36264
21
-3.97441
0
LINE
8
BLACK
6
CONTINUOUS
10
3.36264
20
-3.97441
11
3.36463
21
-3.97406
0
LINE
8
BLACK
6
CONTINUOUS
10
3.36463
20
-3.97406
11
3.36638
21
-3.97507
0
LINE
8
BLACK
6
CONTINUOUS
10
3.80634
20
-3.98764
11
3.80752
21
-3.98928
0
LINE
8
BLACK
6
CONTINUOUS
10
3.80752
20
-3.98928
11
3.81265
21
-4.00722
0
LINE
8
BLACK
6
CONTINUOUS
10
3.81265
20
-4.00722
11
3.81694
21
-3.99649
0
LINE
8
BLACK
6
CONTINUOUS
10
3.81694
20
-3.99649
11
3.81733
21
-3.99587
0
LINE
8
BLACK
6
CONTINUOUS
10
3.81733
20
-3.99587
11
3.81736
21
-3.99576
0
LINE
8
BLACK
6
CONTINUOUS
10
3.81736
20
-3.99576
11
3.81741
21
-3.99573
0
LINE
8
BLACK
6
CONTINUOUS
10
3.81741
20
-3.99573
11
3.81748
21
-3.99562
0
LINE
8
BLACK
6
CONTINUOUS
10
3.81748
20
-3.99562
11
3.81829
21
-3.99518
0
LINE
8
BLACK
6
CONTINUOUS
10
3.81829
20
-3.99518
11
3.81908
21
-3.9947
0
LINE
8
BLACK
6
CONTINUOUS
10
3.81908
20
-3.9947
11
3.81918
21
-3.99471
0
LINE
8
BLACK
6
CONTINUOUS
10
3.81918
20
-3.99471
11
3.81926
21
-3.99466
0
LINE
8
BLACK
6
CONTINUOUS
10
3.81926
20
-3.99466
11
3.82016
21
-3.99485
0
LINE
8
BLACK
6
CONTINUOUS
10
3.82016
20
-3.99485
11
3.82108
21
-3.99498
0
LINE
8
BLACK
6
CONTINUOUS
10
3.82108
20
-3.99498
11
3.82114
21
-3.99506
0
LINE
8
BLACK
6
CONTINUOUS
10
3.82114
20
-3.99506
11
3.82124
21
-3.99508
0
LINE
8
BLACK
6
CONTINUOUS
10
3.82124
20
-3.99508
11
3.82181
21
-3.9958
0
LINE
8
BLACK
6
CONTINUOUS
10
3.82181
20
-3.9958
11
3.82242
21
-3.99649
0
LINE
8
BLACK
6
CONTINUOUS
10
3.82242
20
-3.99649
11
3.82672
21
-4.00722
0
LINE
8
BLACK
6
CONTINUOUS
10
3.82672
20
-4.00722
11
3.83184
21
-3.98928
0
LINE
8
BLACK
6
CONTINUOUS
10
3.83184
20
-3.98928
11
3.83229
21
-3.98835
0
LINE
8
BLACK
6
CONTINUOUS
10
3.83229
20
-3.98835
11
3.83396
21
-3.98722
0
LINE
8
BLACK
6
CONTINUOUS
10
3.83396
20
-3.98722
11
3.83597
21
-3.98743
0
LINE
8
BLACK
6
CONTINUOUS
10
3.83597
20
-3.98743
11
3.83738
21
-3.98888
0
LINE
8
BLACK
6
CONTINUOUS
10
3.83738
20
-3.98888
11
3.83752
21
-3.9909
0
LINE
8
BLACK
6
CONTINUOUS
10
3.83752
20
-3.9909
11
3.83002
21
-4.01715
0
LINE
8
BLACK
6
CONTINUOUS
10
3.83002
20
-4.01715
11
3.82957
21
-4.01807
0
LINE
8
BLACK
6
CONTINUOUS
10
3.82957
20
-4.01807
11
3.82952
21
-4.0181
0
LINE
8
BLACK
6
CONTINUOUS
10
3.82952
20
-4.0181
11
3.8295
21
-4.01816
0
LINE
8
BLACK
6
CONTINUOUS
10
3.8295
20
-4.01816
11
3.82869
21
-4.01866
0
LINE
8
BLACK
6
CONTINUOUS
10
3.82869
20
-4.01866
11
3.8279
21
-4.0192
0
LINE
8
BLACK
6
CONTINUOUS
10
3.8279
20
-4.0192
11
3.82784
21
-4.01919
0
LINE
8
BLACK
6
CONTINUOUS
10
3.82784
20
-4.01919
11
3.82779
21
-4.01922
0
LINE
8
BLACK
6
CONTINUOUS
10
3.82779
20
-4.01922
11
3.82684
21
-4.01909
0
LINE
8
BLACK
6
CONTINUOUS
10
3.82684
20
-4.01909
11
3.82589
21
-4.01899
0
LINE
8
BLACK
6
CONTINUOUS
10
3.82589
20
-4.01899
11
3.82585
21
-4.01894
0
LINE
8
BLACK
6
CONTINUOUS
10
3.82585
20
-4.01894
11
3.82579
21
-4.01894
0
LINE
8
BLACK
6
CONTINUOUS
10
3.82579
20
-4.01894
11
3.82515
21
-4.01822
0
LINE
8
BLACK
6
CONTINUOUS
10
3.82515
20
-4.01822
11
3.82449
21
-4.01754
0
LINE
8
BLACK
6
CONTINUOUS
10
3.82449
20
-4.01754
11
3.82448
21
-4.01748
0
LINE
8
BLACK
6
CONTINUOUS
10
3.82448
20
-4.01748
11
3.82444
21
-4.01743
0
LINE
8
BLACK
6
CONTINUOUS
10
3.82444
20
-4.01743
11
3.81968
21
-4.00554
0
LINE
8
BLACK
6
CONTINUOUS
10
3.81968
20
-4.00554
11
3.81493
21
-4.01743
0
LINE
8
BLACK
6
CONTINUOUS
10
3.81493
20
-4.01743
11
3.81438
21
-4.0183
0
LINE
8
BLACK
6
CONTINUOUS
10
3.81438
20
-4.0183
11
3.81433
21
-4.01833
0
LINE
8
BLACK
6
CONTINUOUS
10
3.81433
20
-4.01833
11
3.81431
21
-4.01839
0
LINE
8
BLACK
6
CONTINUOUS
10
3.81431
20
-4.01839
11
3.81345
21
-4.0188
0
LINE
8
BLACK
6
CONTINUOUS
10
3.81345
20
-4.0188
11
3.8126
21
-4.01926
0
LINE
8
BLACK
6
CONTINUOUS
10
3.8126
20
-4.01926
11
3.81254
21
-4.01924
0
LINE
8
BLACK
6
CONTINUOUS
10
3.81254
20
-4.01924
11
3.81249
21
-4.01927
0
LINE
8
BLACK
6
CONTINUOUS
10
3.81249
20
-4.01927
11
3.81156
21
-4.01904
0
LINE
8
BLACK
6
CONTINUOUS
10
3.81156
20
-4.01904
11
3.81063
21
-4.01884
0
LINE
8
BLACK
6
CONTINUOUS
10
3.81063
20
-4.01884
11
3.81059
21
-4.0188
0
LINE
8
BLACK
6
CONTINUOUS
10
3.81059
20
-4.0188
11
3.81053
21
-4.01878
0
LINE
8
BLACK
6
CONTINUOUS
10
3.81053
20
-4.01878
11
3.80997
21
-4.01801
0
LINE
8
BLACK
6
CONTINUOUS
10
3.80997
20
-4.01801
11
3.80938
21
-4.01726
0
LINE
8
BLACK
6
CONTINUOUS
10
3.80938
20
-4.01726
11
3.80938
21
-4.01719
0
LINE
8
BLACK
6
CONTINUOUS
10
3.80938
20
-4.01719
11
3.80934
21
-4.01715
0
LINE
8
BLACK
6
CONTINUOUS
10
3.80934
20
-4.01715
11
3.80185
21
-3.9909
0
LINE
8
BLACK
6
CONTINUOUS
10
3.80185
20
-3.9909
11
3.80174
21
-3.98988
0
LINE
8
BLACK
6
CONTINUOUS
10
3.80174
20
-3.98988
11
3.80256
21
-3.98803
0
LINE
8
BLACK
6
CONTINUOUS
10
3.80256
20
-3.98803
11
3.80438
21
-3.98715
0
LINE
8
BLACK
6
CONTINUOUS
10
3.80438
20
-3.98715
11
3.80634
21
-3.98764
0
LINE
8
BLACK
6
CONTINUOUS
10
3.14063
20
-3.98754
11
3.14192
21
-3.98909
0
LINE
8
BLACK
6
CONTINUOUS
10
3.14192
20
-3.98909
11
3.14852
21
-4.00755
0
LINE
8
BLACK
6
CONTINUOUS
10
3.14852
20
-4.00755
11
3.15511
21
-3.98909
0
LINE
8
BLACK
6
CONTINUOUS
10
3.15511
20
-3.98909
11
3.15562
21
-3.9882
0
LINE
8
BLACK
6
CONTINUOUS
10
3.15562
20
-3.9882
11
3.15736
21
-3.98718
0
LINE
8
BLACK
6
CONTINUOUS
10
3.15736
20
-3.98718
11
3.15935
21
-3.98752
0
LINE
8
BLACK
6
CONTINUOUS
10
3.15935
20
-3.98752
11
3.16066
21
-3.98906
0
LINE
8
BLACK
6
CONTINUOUS
10
3.16066
20
-3.98906
11
3.16067
21
-3.99108
0
LINE
8
BLACK
6
CONTINUOUS
10
3.16067
20
-3.99108
11
3.1513
21
-4.01733
0
LINE
8
BLACK
6
CONTINUOUS
10
3.1513
20
-4.01733
11
3.15079
21
-4.01822
0
LINE
8
BLACK
6
CONTINUOUS
10
3.15079
20
-4.01822
11
3.15077
21
-4.01823
0
LINE
8
BLACK
6
CONTINUOUS
10
3.15077
20
-4.01823
11
3.15077
21
-4.01825
0
LINE
8
BLACK
6
CONTINUOUS
10
3.15077
20
-4.01825
11
3.14991
21
-4.01874
0
LINE
8
BLACK
6
CONTINUOUS
10
3.14991
20
-4.01874
11
3.14905
21
-4.01924
0
LINE
8
BLACK
6
CONTINUOUS
10
3.14905
20
-4.01924
11
3.14903
21
-4.01924
0
LINE
8
BLACK
6
CONTINUOUS
10
3.14903
20
-4.01924
11
3.14901
21
-4.01924
0
LINE
8
BLACK
6
CONTINUOUS
10
3.14901
20
-4.01924
11
3.14804
21
-4.01907
0
LINE
8
BLACK
6
CONTINUOUS
10
3.14804
20
-4.01907
11
3.14706
21
-4.0189
0
LINE
8
BLACK
6
CONTINUOUS
10
3.14706
20
-4.0189
11
3.14704
21
-4.01889
0
LINE
8
BLACK
6
CONTINUOUS
10
3.14704
20
-4.01889
11
3.14702
21
-4.01888
0
LINE
8
BLACK
6
CONTINUOUS
10
3.14702
20
-4.01888
11
3.14639
21
-4.01812
0
LINE
8
BLACK
6
CONTINUOUS
10
3.14639
20
-4.01812
11
3.14575
21
-4.01736
0
LINE
8
BLACK
6
CONTINUOUS
10
3.14575
20
-4.01736
11
3.14575
21
-4.01734
0
LINE
8
BLACK
6
CONTINUOUS
10
3.14575
20
-4.01734
11
3.14574
21
-4.01733
0
LINE
8
BLACK
6
CONTINUOUS
10
3.14574
20
-4.01733
11
3.13636
21
-3.99108
0
LINE
8
BLACK
6
CONTINUOUS
10
3.13636
20
-3.99108
11
3.13619
21
-3.99007
0
LINE
8
BLACK
6
CONTINUOUS
10
3.13619
20
-3.99007
11
3.13689
21
-3.98818
0
LINE
8
BLACK
6
CONTINUOUS
10
3.13689
20
-3.98818
11
3.13865
21
-3.98718
0
LINE
8
BLACK
6
CONTINUOUS
10
3.13865
20
-3.98718
11
3.14063
21
-3.98754
0
LINE
8
BLACK
6
CONTINUOUS
10
3.30513
20
-3.97419
11
3.30527
21
-3.9743
0
LINE
8
BLACK
6
CONTINUOUS
10
3.30527
20
-3.9743
11
3.30544
21
-3.97432
0
LINE
8
BLACK
6
CONTINUOUS
10
3.30544
20
-3.97432
11
3.30919
21
-3.9762
0
LINE
8
BLACK
6
CONTINUOUS
10
3.30919
20
-3.9762
11
3.3099
21
-3.97672
0
LINE
8
BLACK
6
CONTINUOUS
10
3.3099
20
-3.97672
11
3.30996
21
-3.97675
0
LINE
8
BLACK
6
CONTINUOUS
10
3.30996
20
-3.97675
11
3.31183
21
-3.97863
0
LINE
8
BLACK
6
CONTINUOUS
10
3.31183
20
-3.97863
11
3.31234
21
-3.97935
0
LINE
8
BLACK
6
CONTINUOUS
10
3.31234
20
-3.97935
11
3.31239
21
-3.97939
0
LINE
8
BLACK
6
CONTINUOUS
10
3.31239
20
-3.97939
11
3.31426
21
-3.98314
0
LINE
8
BLACK
6
CONTINUOUS
10
3.31426
20
-3.98314
11
3.31455
21
-3.98413
0
LINE
8
BLACK
6
CONTINUOUS
10
3.31455
20
-3.98413
11
3.31451
21
-3.9843
0
LINE
8
BLACK
6
CONTINUOUS
10
3.31451
20
-3.9843
11
3.31457
21
-3.98446
0
LINE
8
BLACK
6
CONTINUOUS
10
3.31457
20
-3.98446
11
3.31457
21
-3.99009
0
LINE
8
BLACK
6
CONTINUOUS
10
3.31457
20
-3.99009
11
3.3144
21
-3.9911
0
LINE
8
BLACK
6
CONTINUOUS
10
3.3144
20
-3.9911
11
3.31428
21
-3.99123
0
LINE
8
BLACK
6
CONTINUOUS
10
3.31428
20
-3.99123
11
3.31426
21
-3.99141
0
LINE
8
BLACK
6
CONTINUOUS
10
3.31426
20
-3.99141
11
3.31239
21
-3.99516
0
LINE
8
BLACK
6
CONTINUOUS
10
3.31239
20
-3.99516
11
3.31186
21
-3.99587
0
LINE
8
BLACK
6
CONTINUOUS
10
3.31186
20
-3.99587
11
3.31183
21
-3.99592
0
LINE
8
BLACK
6
CONTINUOUS
10
3.31183
20
-3.99592
11
3.30996
21
-3.9978
0
LINE
8
BLACK
6
CONTINUOUS
10
3.30996
20
-3.9978
11
3.30924
21
-3.99831
0
LINE
8
BLACK
6
CONTINUOUS
10
3.30924
20
-3.99831
11
3.30919
21
-3.99835
0
LINE
8
BLACK
6
CONTINUOUS
10
3.30919
20
-3.99835
11
3.30544
21
-4.00023
0
LINE
8
BLACK
6
CONTINUOUS
10
3.30544
20
-4.00023
11
3.30446
21
-4.00052
0
LINE
8
BLACK
6
CONTINUOUS
10
3.30446
20
-4.00052
11
3.30429
21
-4.00048
0
LINE
8
BLACK
6
CONTINUOUS
10
3.30429
20
-4.00048
11
3.30416
21
-4.00053
0
LINE
8
BLACK
6
CONTINUOUS
10
3.30416
20
-4.00053
11
3.31404
21
-4.01464
0
LINE
8
BLACK
6
CONTINUOUS
10
3.31404
20
-4.01464
11
3.31447
21
-4.01557
0
LINE
8
BLACK
6
CONTINUOUS
10
3.31447
20
-4.01557
11
3.3143
21
-4.01758
0
LINE
8
BLACK
6
CONTINUOUS
10
3.3143
20
-4.01758
11
3.31287
21
-4.01901
0
LINE
8
BLACK
6
CONTINUOUS
10
3.31287
20
-4.01901
11
3.31086
21
-4.01919
0
LINE
8
BLACK
6
CONTINUOUS
10
3.31086
20
-4.01919
11
3.3092
21
-4.01803
0
LINE
8
BLACK
6
CONTINUOUS
10
3.3092
20
-4.01803
11
3.29696
21
-4.00054
0
LINE
8
BLACK
6
CONTINUOUS
10
3.29696
20
-4.00054
11
3.29208
21
-4.00054
0
LINE
8
BLACK
6
CONTINUOUS
10
3.29208
20
-4.00054
11
3.29208
21
-4.01633
0
LINE
8
BLACK
6
CONTINUOUS
10
3.29208
20
-4.01633
11
3.2919
21
-4.01734
0
LINE
8
BLACK
6
CONTINUOUS
10
3.2919
20
-4.01734
11
3.2906
21
-4.01889
0
LINE
8
BLACK
6
CONTINUOUS
10
3.2906
20
-4.01889
11
3.28861
21
-4.01924
0
LINE
8
BLACK
6
CONTINUOUS
10
3.28861
20
-4.01924
11
3.28686
21
-4.01823
0
LINE
8
BLACK
6
CONTINUOUS
10
3.28686
20
-4.01823
11
3.28617
21
-4.01633
0
LINE
8
BLACK
6
CONTINUOUS
10
3.28617
20
-4.01633
11
3.28617
21
-3.97696
0
LINE
8
BLACK
6
CONTINUOUS
10
3.28617
20
-3.97696
11
3.28624
21
-3.97658
0
LINE
8
BLACK
6
CONTINUOUS
10
3.28624
20
-3.97658
11
3.28622
21
-3.97645
0
LINE
8
BLACK
6
CONTINUOUS
10
3.28622
20
-3.97645
11
3.28628
21
-3.97634
0
LINE
8
BLACK
6
CONTINUOUS
10
3.28628
20
-3.97634
11
3.28635
21
-3.97595
0
LINE
8
BLACK
6
CONTINUOUS
10
3.28635
20
-3.97595
11
3.28684
21
-3.97537
0
LINE
8
BLACK
6
CONTINUOUS
10
3.28684
20
-3.97537
11
3.28723
21
-3.9747
0
LINE
8
BLACK
6
CONTINUOUS
10
3.28723
20
-3.9747
11
3.28748
21
-3.97461
0
LINE
8
BLACK
6
CONTINUOUS
10
3.28748
20
-3.97461
11
3.28765
21
-3.97441
0
LINE
8
BLACK
6
CONTINUOUS
10
3.28765
20
-3.97441
11
3.2884
21
-3.97427
0
LINE
8
BLACK
6
CONTINUOUS
10
3.2884
20
-3.97427
11
3.28912
21
-3.97401
0
LINE
8
BLACK
6
CONTINUOUS
10
3.28912
20
-3.97401
11
3.30412
21
-3.97401
0
LINE
8
BLACK
6
CONTINUOUS
10
3.30412
20
-3.97401
11
3.30513
21
-3.97419
0
LINE
8
BLACK
6
CONTINUOUS
10
3.29208
20
-3.97992
11
3.29208
21
-3.99463
0
LINE
8
BLACK
6
CONTINUOUS
10
3.29208
20
-3.99463
11
3.30343
21
-3.99463
0
LINE
8
BLACK
6
CONTINUOUS
10
3.30343
20
-3.99463
11
3.30612
21
-3.99328
0
LINE
8
BLACK
6
CONTINUOUS
10
3.30612
20
-3.99328
11
3.30732
21
-3.99209
0
LINE
8
BLACK
6
CONTINUOUS
10
3.30732
20
-3.99209
11
3.30867
21
-3.98939
0
LINE
8
BLACK
6
CONTINUOUS
10
3.30867
20
-3.98939
11
3.30867
21
-3.98516
0
LINE
8
BLACK
6
CONTINUOUS
10
3.30867
20
-3.98516
11
3.30732
21
-3.98246
0
LINE
8
BLACK
6
CONTINUOUS
10
3.30732
20
-3.98246
11
3.30612
21
-3.98127
0
LINE
8
BLACK
6
CONTINUOUS
10
3.30612
20
-3.98127
11
3.30343
21
-3.97992
0
LINE
8
BLACK
6
CONTINUOUS
10
3.30343
20
-3.97992
11
3.29208
21
-3.97992
0
LINE
8
BLACK
6
CONTINUOUS
10
3.55448
20
-3.98731
11
3.55461
21
-3.98743
0
LINE
8
BLACK
6
CONTINUOUS
10
3.55461
20
-3.98743
11
3.55479
21
-3.98745
0
LINE
8
BLACK
6
CONTINUOUS
10
3.55479
20
-3.98745
11
3.55854
21
-3.98932
0
LINE
8
BLACK
6
CONTINUOUS
10
3.55854
20
-3.98932
11
3.55936
21
-3.98993
0
LINE
8
BLACK
6
CONTINUOUS
10
3.55936
20
-3.98993
11
3.55954
21
-3.99034
0
LINE
8
BLACK
6
CONTINUOUS
10
3.55954
20
-3.99034
11
3.55986
21
-3.99064
0
LINE
8
BLACK
6
CONTINUOUS
10
3.55986
20
-3.99064
11
3.56173
21
-3.99439
0
LINE
8
BLACK
6
CONTINUOUS
10
3.56173
20
-3.99439
11
3.56202
21
-3.99537
0
LINE
8
BLACK
6
CONTINUOUS
10
3.56202
20
-3.99537
11
3.56198
21
-3.99555
0
LINE
8
BLACK
6
CONTINUOUS
10
3.56198
20
-3.99555
11
3.56204
21
-3.99571
0
LINE
8
BLACK
6
CONTINUOUS
10
3.56204
20
-3.99571
11
3.56204
21
-4.01633
0
LINE
8
BLACK
6
CONTINUOUS
10
3.56204
20
-4.01633
11
3.56186
21
-4.01734
0
LINE
8
BLACK
6
CONTINUOUS
10
3.56186
20
-4.01734
11
3.56057
21
-4.01889
0
LINE
8
BLACK
6
CONTINUOUS
10
3.56057
20
-4.01889
11
3.55858
21
-4.01924
0
LINE
8
BLACK
6
CONTINUOUS
10
3.55858
20
-4.01924
11
3.55683
21
-4.01823
0
LINE
8
BLACK
6
CONTINUOUS
10
3.55683
20
-4.01823
11
3.55614
21
-4.01633
0
LINE
8
BLACK
6
CONTINUOUS
10
3.55614
20
-4.01633
11
3.55614
21
-3.99641
0
LINE
8
BLACK
6
CONTINUOUS
10
3.55614
20
-3.99641
11
3.55501
21
-3.99416
0
LINE
8
BLACK
6
CONTINUOUS
10
3.55501
20
-3.99416
11
3.55277
21
-3.99304
0
LINE
8
BLACK
6
CONTINUOUS
10
3.55277
20
-3.99304
11
3.54854
21
-3.99304
0
LINE
8
BLACK
6
CONTINUOUS
10
3.54854
20
-3.99304
11
3.54584
21
-3.99439
0
LINE
8
BLACK
6
CONTINUOUS
10
3.54584
20
-3.99439
11
3.54517
21
-3.99506
0
LINE
8
BLACK
6
CONTINUOUS
10
3.54517
20
-3.99506
11
3.54517
21
-4.01633
0
LINE
8
BLACK
6
CONTINUOUS
10
3.54517
20
-4.01633
11
3.54499
21
-4.01734
0
LINE
8
BLACK
6
CONTINUOUS
10
3.54499
20
-4.01734
11
3.54369
21
-4.01889
0
LINE
8
BLACK
6
CONTINUOUS
10
3.54369
20
-4.01889
11
3.5417
21
-4.01924
0
LINE
8
BLACK
6
CONTINUOUS
10
3.5417
20
-4.01924
11
3.53996
21
-4.01823
0
LINE
8
BLACK
6
CONTINUOUS
10
3.53996
20
-4.01823
11
3.53926
21
-4.01633
0
LINE
8
BLACK
6
CONTINUOUS
10
3.53926
20
-4.01633
11
3.53926
21
-3.99009
0
LINE
8
BLACK
6
CONTINUOUS
10
3.53926
20
-3.99009
11
3.53944
21
-3.98908
0
LINE
8
BLACK
6
CONTINUOUS
10
3.53944
20
-3.98908
11
3.54074
21
-3.98753
0
LINE
8
BLACK
6
CONTINUOUS
10
3.54074
20
-3.98753
11
3.54273
21
-3.98718
0
LINE
8
BLACK
6
CONTINUOUS
10
3.54273
20
-3.98718
11
3.54448
21
-3.98819
0
LINE
8
BLACK
6
CONTINUOUS
10
3.54448
20
-3.98819
11
3.54456
21
-3.98842
0
LINE
8
BLACK
6
CONTINUOUS
10
3.54456
20
-3.98842
11
3.54652
21
-3.98745
0
LINE
8
BLACK
6
CONTINUOUS
10
3.54652
20
-3.98745
11
3.5475
21
-3.98715
0
LINE
8
BLACK
6
CONTINUOUS
10
3.5475
20
-3.98715
11
3.54768
21
-3.98719
0
LINE
8
BLACK
6
CONTINUOUS
10
3.54768
20
-3.98719
11
3.54784
21
-3.98713
0
LINE
8
BLACK
6
CONTINUOUS
10
3.54784
20
-3.98713
11
3.55347
21
-3.98713
0
LINE
8
BLACK
6
CONTINUOUS
10
3.55347
20
-3.98713
11
3.55448
21
-3.98731
0
LINE
8
BLACK
6
CONTINUOUS
10
3.72883
20
-3.98731
11
3.73038
21
-3.98861
0
LINE
8
BLACK
6
CONTINUOUS
10
3.73038
20
-3.98861
11
3.73073
21
-3.9906
0
LINE
8
BLACK
6
CONTINUOUS
10
3.73073
20
-3.9906
11
3.72972
21
-3.99235
0
LINE
8
BLACK
6
CONTINUOUS
10
3.72972
20
-3.99235
11
3.72782
21
-3.99304
0
LINE
8
BLACK
6
CONTINUOUS
10
3.72782
20
-3.99304
11
3.72477
21
-3.99304
0
LINE
8
BLACK
6
CONTINUOUS
10
3.72477
20
-3.99304
11
3.72207
21
-3.99439
0
LINE
8
BLACK
6
CONTINUOUS
10
3.72207
20
-3.99439
11
3.72087
21
-3.99559
0
LINE
8
BLACK
6
CONTINUOUS
10
3.72087
20
-3.99559
11
3.71952
21
-3.99828
0
LINE
8
BLACK
6
CONTINUOUS
10
3.71952
20
-3.99828
11
3.71952
21
-4.01633
0
LINE
8
BLACK
6
CONTINUOUS
10
3.71952
20
-4.01633
11
3.71935
21
-4.01734
0
LINE
8
BLACK
6
CONTINUOUS
10
3.71935
20
-4.01734
11
3.71805
21
-4.01889
0
LINE
8
BLACK
6
CONTINUOUS
10
3.71805
20
-4.01889
11
3.71606
21
-4.01924
0
LINE
8
BLACK
6
CONTINUOUS
10
3.71606
20
-4.01924
11
3.71431
21
-4.01823
0
LINE
8
BLACK
6
CONTINUOUS
10
3.71431
20
-4.01823
11
3.71362
21
-4.01633
0
LINE
8
BLACK
6
CONTINUOUS
10
3.71362
20
-4.01633
11
3.71362
21
-3.99009
0
LINE
8
BLACK
6
CONTINUOUS
10
3.71362
20
-3.99009
11
3.7138
21
-3.98908
0
LINE
8
BLACK
6
CONTINUOUS
10
3.7138
20
-3.98908
11
3.71509
21
-3.98753
0
LINE
8
BLACK
6
CONTINUOUS
10
3.71509
20
-3.98753
11
3.71708
21
-3.98718
0
LINE
8
BLACK
6
CONTINUOUS
10
3.71708
20
-3.98718
11
3.71883
21
-3.98819
0
LINE
8
BLACK
6
CONTINUOUS
10
3.71883
20
-3.98819
11
3.71921
21
-3.98922
0
LINE
8
BLACK
6
CONTINUOUS
10
3.71921
20
-3.98922
11
3.72275
21
-3.98745
0
LINE
8
BLACK
6
CONTINUOUS
10
3.72275
20
-3.98745
11
3.72373
21
-3.98715
0
LINE
8
BLACK
6
CONTINUOUS
10
3.72373
20
-3.98715
11
3.7239
21
-3.98719
0
LINE
8
BLACK
6
CONTINUOUS
10
3.7239
20
-3.98719
11
3.72407
21
-3.98713
0
LINE
8
BLACK
6
CONTINUOUS
10
3.72407
20
-3.98713
11
3.72782
21
-3.98713
0
LINE
8
BLACK
6
CONTINUOUS
10
3.72782
20
-3.98713
11
3.72883
21
-3.98731
0
LINE
8
BLACK
6
CONTINUOUS
10
3.92693
20
-3.97507
11
3.92762
21
-3.97696
0
LINE
8
BLACK
6
CONTINUOUS
10
3.92762
20
-3.97696
11
3.92762
21
-3.98812
0
LINE
8
BLACK
6
CONTINUOUS
10
3.92762
20
-3.98812
11
3.92897
21
-3.98745
0
LINE
8
BLACK
6
CONTINUOUS
10
3.92897
20
-3.98745
11
3.92996
21
-3.98715
0
LINE
8
BLACK
6
CONTINUOUS
10
3.92996
20
-3.98715
11
3.93013
21
-3.98719
0
LINE
8
BLACK
6
CONTINUOUS
10
3.93013
20
-3.98719
11
3.93029
21
-3.98713
0
LINE
8
BLACK
6
CONTINUOUS
10
3.93029
20
-3.98713
11
3.93592
21
-3.98713
0
LINE
8
BLACK
6
CONTINUOUS
10
3.93592
20
-3.98713
11
3.93693
21
-3.98731
0
LINE
8
BLACK
6
CONTINUOUS
10
3.93693
20
-3.98731
11
3.93706
21
-3.98743
0
LINE
8
BLACK
6
CONTINUOUS
10
3.93706
20
-3.98743
11
3.93724
21
-3.98745
0
LINE
8
BLACK
6
CONTINUOUS
10
3.93724
20
-3.98745
11
3.94099
21
-3.98932
0
LINE
8
BLACK
6
CONTINUOUS
10
3.94099
20
-3.98932
11
3.94181
21
-3.98993
0
LINE
8
BLACK
6
CONTINUOUS
10
3.94181
20
-3.98993
11
3.94199
21
-3.99034
0
LINE
8
BLACK
6
CONTINUOUS
10
3.94199
20
-3.99034
11
3.94231
21
-3.99064
0
LINE
8
BLACK
6
CONTINUOUS
10
3.94231
20
-3.99064
11
3.94418
21
-3.99439
0
LINE
8
BLACK
6
CONTINUOUS
10
3.94418
20
-3.99439
11
3.94448
21
-3.99537
0
LINE
8
BLACK
6
CONTINUOUS
10
3.94448
20
-3.99537
11
3.94443
21
-3.99555
0
LINE
8
BLACK
6
CONTINUOUS
10
3.94443
20
-3.99555
11
3.9445
21
-3.99571
0
LINE
8
BLACK
6
CONTINUOUS
10
3.9445
20
-3.99571
11
3.9445
21
-4.01633
0
LINE
8
BLACK
6
CONTINUOUS
10
3.9445
20
-4.01633
11
3.94432
21
-4.01734
0
LINE
8
BLACK
6
CONTINUOUS
10
3.94432
20
-4.01734
11
3.94302
21
-4.01889
0
LINE
8
BLACK
6
CONTINUOUS
10
3.94302
20
-4.01889
11
3.94103
21
-4.01924
0
LINE
8
BLACK
6
CONTINUOUS
10
3.94103
20
-4.01924
11
3.93928
21
-4.01823
0
LINE
8
BLACK
6
CONTINUOUS
10
3.93928
20
-4.01823
11
3.93859
21
-4.01633
0
LINE
8
BLACK
6
CONTINUOUS
10
3.93859
20
-4.01633
11
3.93859
21
-3.99641
0
LINE
8
BLACK
6
CONTINUOUS
10
3.93859
20
-3.99641
11
3.93747
21
-3.99416
0
LINE
8
BLACK
6
CONTINUOUS
10
3.93747
20
-3.99416
11
3.93522
21
-3.99304
0
LINE
8
BLACK
6
CONTINUOUS
10
3.93522
20
-3.99304
11
3.93099
21
-3.99304
0
LINE
8
BLACK
6
CONTINUOUS
10
3.93099
20
-3.99304
11
3.92829
21
-3.99439
0
LINE
8
BLACK
6
CONTINUOUS
10
3.92829
20
-3.99439
11
3.92762
21
-3.99506
0
LINE
8
BLACK
6
CONTINUOUS
10
3.92762
20
-3.99506
11
3.92762
21
-4.01633
0
LINE
8
BLACK
6
CONTINUOUS
10
3.92762
20
-4.01633
11
3.92744
21
-4.01734
0
LINE
8
BLACK
6
CONTINUOUS
10
3.92744
20
-4.01734
11
3.92615
21
-4.01889
0
LINE
8
BLACK
6
CONTINUOUS
10
3.92615
20
-4.01889
11
3.92416
21
-4.01924
0
LINE
8
BLACK
6
CONTINUOUS
10
3.92416
20
-4.01924
11
3.92241
21
-4.01823
0
LINE
8
BLACK
6
CONTINUOUS
10
3.92241
20
-4.01823
11
3.92172
21
-4.01633
0
LINE
8
BLACK
6
CONTINUOUS
10
3.92172
20
-4.01633
11
3.92172
21
-3.97696
0
LINE
8
BLACK
6
CONTINUOUS
10
3.92172
20
-3.97696
11
3.92189
21
-3.97595
0
LINE
8
BLACK
6
CONTINUOUS
10
3.92189
20
-3.97595
11
3.92319
21
-3.97441
0
LINE
8
BLACK
6
CONTINUOUS
10
3.92319
20
-3.97441
11
3.92518
21
-3.97406
0
LINE
8
BLACK
6
CONTINUOUS
10
3.92518
20
-3.97406
11
3.92693
21
-3.97507
0
LINE
8
BLACK
6
CONTINUOUS
10
3.17515
20
-3.98819
11
3.17584
21
-3.99009
0
LINE
8
BLACK
6
CONTINUOUS
10
3.17584
20
-3.99009
11
3.17584
21
-4.01633
0
LINE
8
BLACK
6
CONTINUOUS
10
3.17584
20
-4.01633
11
3.17566
21
-4.01734
0
LINE
8
BLACK
6
CONTINUOUS
10
3.17566
20
-4.01734
11
3.17436
21
-4.01889
0
LINE
8
BLACK
6
CONTINUOUS
10
3.17436
20
-4.01889
11
3.17238
21
-4.01924
0
LINE
8
BLACK
6
CONTINUOUS
10
3.17238
20
-4.01924
11
3.17063
21
-4.01823
0
LINE
8
BLACK
6
CONTINUOUS
10
3.17063
20
-4.01823
11
3.16994
21
-4.01633
0
LINE
8
BLACK
6
CONTINUOUS
10
3.16994
20
-4.01633
11
3.16994
21
-3.99009
0
LINE
8
BLACK
6
CONTINUOUS
10
3.16994
20
-3.99009
11
3.17011
21
-3.98908
0
LINE
8
BLACK
6
CONTINUOUS
10
3.17011
20
-3.98908
11
3.17141
21
-3.98753
0
LINE
8
BLACK
6
CONTINUOUS
10
3.17141
20
-3.98753
11
3.1734
21
-3.98718
0
LINE
8
BLACK
6
CONTINUOUS
10
3.1734
20
-3.98718
11
3.17515
21
-3.98819
0
LINE
8
BLACK
6
CONTINUOUS
10
3.43449
20
-3.98731
11
3.43604
21
-3.98861
0
LINE
8
BLACK
6
CONTINUOUS
10
3.43604
20
-3.98861
11
3.43639
21
-3.9906
0
LINE
8
BLACK
6
CONTINUOUS
10
3.43639
20
-3.9906
11
3.43538
21
-3.99235
0
LINE
8
BLACK
6
CONTINUOUS
10
3.43538
20
-3.99235
11
3.43348
21
-3.99304
0
LINE
8
BLACK
6
CONTINUOUS
10
3.43348
20
-3.99304
11
3.43043
21
-3.99304
0
LINE
8
BLACK
6
CONTINUOUS
10
3.43043
20
-3.99304
11
3.42773
21
-3.99439
0
LINE
8
BLACK
6
CONTINUOUS
10
3.42773
20
-3.99439
11
3.42653
21
-3.99559
0
LINE
8
BLACK
6
CONTINUOUS
10
3.42653
20
-3.99559
11
3.42519
21
-3.99828
0
LINE
8
BLACK
6
CONTINUOUS
10
3.42519
20
-3.99828
11
3.42519
21
-4.01633
0
LINE
8
BLACK
6
CONTINUOUS
10
3.42519
20
-4.01633
11
3.42501
21
-4.01734
0
LINE
8
BLACK
6
CONTINUOUS
10
3.42501
20
-4.01734
11
3.42371
21
-4.01889
0
LINE
8
BLACK
6
CONTINUOUS
10
3.42371
20
-4.01889
11
3.42172
21
-4.01924
0
LINE
8
BLACK
6
CONTINUOUS
10
3.42172
20
-4.01924
11
3.41997
21
-4.01823
0
LINE
8
BLACK
6
CONTINUOUS
10
3.41997
20
-4.01823
11
3.41928
21
-4.01633
0
LINE
8
BLACK
6
CONTINUOUS
10
3.41928
20
-4.01633
11
3.41928
21
-3.99009
0
LINE
8
BLACK
6
CONTINUOUS
10
3.41928
20
-3.99009
11
3.41946
21
-3.98908
0
LINE
8
BLACK
6
CONTINUOUS
10
3.41946
20
-3.98908
11
3.42076
21
-3.98753
0
LINE
8
BLACK
6
CONTINUOUS
10
3.42076
20
-3.98753
11
3.42275
21
-3.98718
0
LINE
8
BLACK
6
CONTINUOUS
10
3.42275
20
-3.98718
11
3.42449
21
-3.98819
0
LINE
8
BLACK
6
CONTINUOUS
10
3.42449
20
-3.98819
11
3.42487
21
-3.98922
0
LINE
8
BLACK
6
CONTINUOUS
10
3.42487
20
-3.98922
11
3.42841
21
-3.98745
0
LINE
8
BLACK
6
CONTINUOUS
10
3.42841
20
-3.98745
11
3.42939
21
-3.98715
0
LINE
8
BLACK
6
CONTINUOUS
10
3.42939
20
-3.98715
11
3.42957
21
-3.98719
0
LINE
8
BLACK
6
CONTINUOUS
10
3.42957
20
-3.98719
11
3.42973
21
-3.98713
0
LINE
8
BLACK
6
CONTINUOUS
10
3.42973
20
-3.98713
11
3.43348
21
-3.98713
0
LINE
8
BLACK
6
CONTINUOUS
10
3.43348
20
-3.98713
11
3.43449
21
-3.98731
0
LINE
8
BLACK
6
CONTINUOUS
10
3.85194
20
-3.98819
11
3.85263
21
-3.99009
0
LINE
8
BLACK
6
CONTINUOUS
10
3.85263
20
-3.99009
11
3.85263
21
-4.01633
0
LINE
8
BLACK
6
CONTINUOUS
10
3.85263
20
-4.01633
11
3.85245
21
-4.01734
0
LINE
8
BLACK
6
CONTINUOUS
10
3.85245
20
-4.01734
11
3.85116
21
-4.01889
0
LINE
8
BLACK
6
CONTINUOUS
10
3.85116
20
-4.01889
11
3.84917
21
-4.01924
0
LINE
8
BLACK
6
CONTINUOUS
10
3.84917
20
-4.01924
11
3.84742
21
-4.01823
0
LINE
8
BLACK
6
CONTINUOUS
10
3.84742
20
-4.01823
11
3.84673
21
-4.01633
0
LINE
8
BLACK
6
CONTINUOUS
10
3.84673
20
-4.01633
11
3.84673
21
-3.99009
0
LINE
8
BLACK
6
CONTINUOUS
10
3.84673
20
-3.99009
11
3.8469
21
-3.98908
0
LINE
8
BLACK
6
CONTINUOUS
10
3.8469
20
-3.98908
11
3.8482
21
-3.98753
0
LINE
8
BLACK
6
CONTINUOUS
10
3.8482
20
-3.98753
11
3.85019
21
-3.98718
0
LINE
8
BLACK
6
CONTINUOUS
10
3.85019
20
-3.98718
11
3.85194
21
-3.98819
0
LINE
8
BLACK
6
CONTINUOUS
10
3.85006
20
-3.97408
11
3.85019
21
-3.97406
0
LINE
8
BLACK
6
CONTINUOUS
10
3.85019
20
-3.97406
11
3.85031
21
-3.97412
0
LINE
8
BLACK
6
CONTINUOUS
10
3.85031
20
-3.97412
11
3.85044
21
-3.97411
0
LINE
8
BLACK
6
CONTINUOUS
10
3.85044
20
-3.97411
11
3.85107
21
-3.97455
0
LINE
8
BLACK
6
CONTINUOUS
10
3.85107
20
-3.97455
11
3.85177
21
-3.97488
0
LINE
8
BLACK
6
CONTINUOUS
10
3.85177
20
-3.97488
11
3.85364
21
-3.97675
0
LINE
8
BLACK
6
CONTINUOUS
10
3.85364
20
-3.97675
11
3.85386
21
-3.97707
0
LINE
8
BLACK
6
CONTINUOUS
10
3.85386
20
-3.97707
11
3.85397
21
-3.97714
0
LINE
8
BLACK
6
CONTINUOUS
10
3.85397
20
-3.97714
11
3.85401
21
-3.97727
0
LINE
8
BLACK
6
CONTINUOUS
10
3.85401
20
-3.97727
11
3.85423
21
-3.97759
0
LINE
8
BLACK
6
CONTINUOUS
10
3.85423
20
-3.97759
11
3.8543
21
-3.97836
0
LINE
8
BLACK
6
CONTINUOUS
10
3.8543
20
-3.97836
11
3.8545
21
-3.9791
0
LINE
8
BLACK
6
CONTINUOUS
10
3.8545
20
-3.9791
11
3.85438
21
-3.97934
0
LINE
8
BLACK
6
CONTINUOUS
10
3.85438
20
-3.97934
11
3.85441
21
-3.9796
0
LINE
8
BLACK
6
CONTINUOUS
10
3.85441
20
-3.9796
11
3.85397
21
-3.98023
0
LINE
8
BLACK
6
CONTINUOUS
10
3.85397
20
-3.98023
11
3.85364
21
-3.98093
0
LINE
8
BLACK
6
CONTINUOUS
10
3.85364
20
-3.98093
11
3.85177
21
-3.9828
0
LINE
8
BLACK
6
CONTINUOUS
10
3.85177
20
-3.9828
11
3.85145
21
-3.98302
0
LINE
8
BLACK
6
CONTINUOUS
10
3.85145
20
-3.98302
11
3.85137
21
-3.98313
0
LINE
8
BLACK
6
CONTINUOUS
10
3.85137
20
-3.98313
11
3.85125
21
-3.98317
0
LINE
8
BLACK
6
CONTINUOUS
10
3.85125
20
-3.98317
11
3.85124
21
-3.98317
0
LINE
8
BLACK
6
CONTINUOUS
10
3.85124
20
-3.98317
11
3.85116
21
-3.98327
0
LINE
8
BLACK
6
CONTINUOUS
10
3.85116
20
-3.98327
11
3.85108
21
-3.98328
0
LINE
8
BLACK
6
CONTINUOUS
10
3.85108
20
-3.98328
11
3.85093
21
-3.98339
0
LINE
8
BLACK
6
CONTINUOUS
10
3.85093
20
-3.98339
11
3.85016
21
-3.98346
0
LINE
8
BLACK
6
CONTINUOUS
10
3.85016
20
-3.98346
11
3.84942
21
-3.98365
0
LINE
8
BLACK
6
CONTINUOUS
10
3.84942
20
-3.98365
11
3.8493
21
-3.9836
0
LINE
8
BLACK
6
CONTINUOUS
10
3.8493
20
-3.9836
11
3.84917
21
-3.98362
0
LINE
8
BLACK
6
CONTINUOUS
10
3.84917
20
-3.98362
11
3.84905
21
-3.98355
0
LINE
8
BLACK
6
CONTINUOUS
10
3.84905
20
-3.98355
11
3.84891
21
-3.98357
0
LINE
8
BLACK
6
CONTINUOUS
10
3.84891
20
-3.98357
11
3.84829
21
-3.98313
0
LINE
8
BLACK
6
CONTINUOUS
10
3.84829
20
-3.98313
11
3.84759
21
-3.9828
0
LINE
8
BLACK
6
CONTINUOUS
10
3.84759
20
-3.9828
11
3.84572
21
-3.98093
0
LINE
8
BLACK
6
CONTINUOUS
10
3.84572
20
-3.98093
11
3.84549
21
-3.98061
0
LINE
8
BLACK
6
CONTINUOUS
10
3.84549
20
-3.98061
11
3.84539
21
-3.98053
0
LINE
8
BLACK
6
CONTINUOUS
10
3.84539
20
-3.98053
11
3.84535
21
-3.98041
0
LINE
8
BLACK
6
CONTINUOUS
10
3.84535
20
-3.98041
11
3.84513
21
-3.98009
0
LINE
8
BLACK
6
CONTINUOUS
10
3.84513
20
-3.98009
11
3.84506
21
-3.97932
0
LINE
8
BLACK
6
CONTINUOUS
10
3.84506
20
-3.97932
11
3.84486
21
-3.97858
0
LINE
8
BLACK
6
CONTINUOUS
10
3.84486
20
-3.97858
11
3.84498
21
-3.97834
0
LINE
8
BLACK
6
CONTINUOUS
10
3.84498
20
-3.97834
11
3.84495
21
-3.97807
0
LINE
8
BLACK
6
CONTINUOUS
10
3.84495
20
-3.97807
11
3.84539
21
-3.97745
0
LINE
8
BLACK
6
CONTINUOUS
10
3.84539
20
-3.97745
11
3.84572
21
-3.97675
0
LINE
8
BLACK
6
CONTINUOUS
10
3.84572
20
-3.97675
11
3.84759
21
-3.97488
0
LINE
8
BLACK
6
CONTINUOUS
10
3.84759
20
-3.97488
11
3.84791
21
-3.97465
0
LINE
8
BLACK
6
CONTINUOUS
10
3.84791
20
-3.97465
11
3.84799
21
-3.97454
0
LINE
8
BLACK
6
CONTINUOUS
10
3.84799
20
-3.97454
11
3.84811
21
-3.97451
0
LINE
8
BLACK
6
CONTINUOUS
10
3.84811
20
-3.97451
11
3.84812
21
-3.97451
0
LINE
8
BLACK
6
CONTINUOUS
10
3.84812
20
-3.97451
11
3.8482
21
-3.97441
0
LINE
8
BLACK
6
CONTINUOUS
10
3.8482
20
-3.97441
11
3.84828
21
-3.97439
0
LINE
8
BLACK
6
CONTINUOUS
10
3.84828
20
-3.97439
11
3.84843
21
-3.97429
0
LINE
8
BLACK
6
CONTINUOUS
10
3.84843
20
-3.97429
11
3.8492
21
-3.97422
0
LINE
8
BLACK
6
CONTINUOUS
10
3.8492
20
-3.97422
11
3.84994
21
-3.97402
0
LINE
8
BLACK
6
CONTINUOUS
10
3.84994
20
-3.97402
11
3.85006
21
-3.97408
0
LINE
8
BLACK
6
CONTINUOUS
10
3.17327
20
-3.97408
11
3.1734
21
-3.97406
0
LINE
8
BLACK
6
CONTINUOUS
10
3.1734
20
-3.97406
11
3.17352
21
-3.97412
0
LINE
8
BLACK
6
CONTINUOUS
10
3.17352
20
-3.97412
11
3.17365
21
-3.97411
0
LINE
8
BLACK
6
CONTINUOUS
10
3.17365
20
-3.97411
11
3.17428
21
-3.97455
0
LINE
8
BLACK
6
CONTINUOUS
10
3.17428
20
-3.97455
11
3.17498
21
-3.97488
0
LINE
8
BLACK
6
CONTINUOUS
10
3.17498
20
-3.97488
11
3.17685
21
-3.97675
0
LINE
8
BLACK
6
CONTINUOUS
10
3.17685
20
-3.97675
11
3.17707
21
-3.97707
0
LINE
8
BLACK
6
CONTINUOUS
10
3.17707
20
-3.97707
11
3.17718
21
-3.97714
0
LINE
8
BLACK
6
CONTINUOUS
10
3.17718
20
-3.97714
11
3.17722
21
-3.97727
0
LINE
8
BLACK
6
CONTINUOUS
10
3.17722
20
-3.97727
11
3.17744
21
-3.97759
0
LINE
8
BLACK
6
CONTINUOUS
10
3.17744
20
-3.97759
11
3.17751
21
-3.97836
0
LINE
8
BLACK
6
CONTINUOUS
10
3.17751
20
-3.97836
11
3.1777
21
-3.9791
0
LINE
8
BLACK
6
CONTINUOUS
10
3.1777
20
-3.9791
11
3.17759
21
-3.97934
0
LINE
8
BLACK
6
CONTINUOUS
10
3.17759
20
-3.97934
11
3.17762
21
-3.9796
0
LINE
8
BLACK
6
CONTINUOUS
10
3.17762
20
-3.9796
11
3.17718
21
-3.98023
0
LINE
8
BLACK
6
CONTINUOUS
10
3.17718
20
-3.98023
11
3.17685
21
-3.98093
0
LINE
8
BLACK
6
CONTINUOUS
10
3.17685
20
-3.98093
11
3.17498
21
-3.9828
0
LINE
8
BLACK
6
CONTINUOUS
10
3.17498
20
-3.9828
11
3.17466
21
-3.98302
0
LINE
8
BLACK
6
CONTINUOUS
10
3.17466
20
-3.98302
11
3.17458
21
-3.98313
0
LINE
8
BLACK
6
CONTINUOUS
10
3.17458
20
-3.98313
11
3.17446
21
-3.98317
0
LINE
8
BLACK
6
CONTINUOUS
10
3.17446
20
-3.98317
11
3.17445
21
-3.98317
0
LINE
8
BLACK
6
CONTINUOUS
10
3.17445
20
-3.98317
11
3.17436
21
-3.98327
0
LINE
8
BLACK
6
CONTINUOUS
10
3.17436
20
-3.98327
11
3.17429
21
-3.98328
0
LINE
8
BLACK
6
CONTINUOUS
10
3.17429
20
-3.98328
11
3.17414
21
-3.98339
0
LINE
8
BLACK
6
CONTINUOUS
10
3.17414
20
-3.98339
11
3.17337
21
-3.98346
0
LINE
8
BLACK
6
CONTINUOUS
10
3.17337
20
-3.98346
11
3.17263
21
-3.98365
0
LINE
8
BLACK
6
CONTINUOUS
10
3.17263
20
-3.98365
11
3.17251
21
-3.9836
0
LINE
8
BLACK
6
CONTINUOUS
10
3.17251
20
-3.9836
11
3.17238
21
-3.98362
0
LINE
8
BLACK
6
CONTINUOUS
10
3.17238
20
-3.98362
11
3.17226
21
-3.98355
0
LINE
8
BLACK
6
CONTINUOUS
10
3.17226
20
-3.98355
11
3.17212
21
-3.98357
0
LINE
8
BLACK
6
CONTINUOUS
10
3.17212
20
-3.98357
11
3.1715
21
-3.98313
0
LINE
8
BLACK
6
CONTINUOUS
10
3.1715
20
-3.98313
11
3.1708
21
-3.9828
0
LINE
8
BLACK
6
CONTINUOUS
10
3.1708
20
-3.9828
11
3.16893
21
-3.98093
0
LINE
8
BLACK
6
CONTINUOUS
10
3.16893
20
-3.98093
11
3.1687
21
-3.98061
0
LINE
8
BLACK
6
CONTINUOUS
10
3.1687
20
-3.98061
11
3.16859
21
-3.98053
0
LINE
8
BLACK
6
CONTINUOUS
10
3.16859
20
-3.98053
11
3.16856
21
-3.98041
0
LINE
8
BLACK
6
CONTINUOUS
10
3.16856
20
-3.98041
11
3.16834
21
-3.98009
0
LINE
8
BLACK
6
CONTINUOUS
10
3.16834
20
-3.98009
11
3.16827
21
-3.97932
0
LINE
8
BLACK
6
CONTINUOUS
10
3.16827
20
-3.97932
11
3.16807
21
-3.97858
0
LINE
8
BLACK
6
CONTINUOUS
10
3.16807
20
-3.97858
11
3.16818
21
-3.97834
0
LINE
8
BLACK
6
CONTINUOUS
10
3.16818
20
-3.97834
11
3.16816
21
-3.97807
0
LINE
8
BLACK
6
CONTINUOUS
10
3.16816
20
-3.97807
11
3.1686
21
-3.97745
0
LINE
8
BLACK
6
CONTINUOUS
10
3.1686
20
-3.97745
11
3.16893
21
-3.97675
0
LINE
8
BLACK
6
CONTINUOUS
10
3.16893
20
-3.97675
11
3.1708
21
-3.97488
0
LINE
8
BLACK
6
CONTINUOUS
10
3.1708
20
-3.97488
11
3.17112
21
-3.97465
0
LINE
8
BLACK
6
CONTINUOUS
10
3.17112
20
-3.97465
11
3.17119
21
-3.97454
0
LINE
8
BLACK
6
CONTINUOUS
10
3.17119
20
-3.97454
11
3.17132
21
-3.97451
0
LINE
8
BLACK
6
CONTINUOUS
10
3.17132
20
-3.97451
11
3.17133
21
-3.97451
0
LINE
8
BLACK
6
CONTINUOUS
10
3.17133
20
-3.97451
11
3.17141
21
-3.97441
0
LINE
8
BLACK
6
CONTINUOUS
10
3.17141
20
-3.97441
11
3.17149
21
-3.97439
0
LINE
8
BLACK
6
CONTINUOUS
10
3.17149
20
-3.97439
11
3.17164
21
-3.97429
0
LINE
8
BLACK
6
CONTINUOUS
10
3.17164
20
-3.97429
11
3.1724
21
-3.97422
0
LINE
8
BLACK
6
CONTINUOUS
10
3.1724
20
-3.97422
11
3.17315
21
-3.97402
0
LINE
8
BLACK
6
CONTINUOUS
10
3.17315
20
-3.97402
11
3.17327
21
-3.97408
0
LINE
8
BLACK
6
CONTINUOUS
10
3.26777
20
-3.91752
11
3.26708
21
-3.91585
0
LINE
8
BLACK
6
CONTINUOUS
10
3.26708
20
-3.91585
11
3.26708
21
-3.50246
0
LINE
8
BLACK
6
CONTINUOUS
10
3.26708
20
-3.50246
11
3.2674
21
-3.50167
0
LINE
8
BLACK
6
CONTINUOUS
10
3.2674
20
-3.50167
11
3.26769
21
-3.50087
0
LINE
8
BLACK
6
CONTINUOUS
10
3.26769
20
-3.50087
11
3.30706
21
-3.45756
0
LINE
8
BLACK
6
CONTINUOUS
10
3.30706
20
-3.45756
11
3.30712
21
-3.45754
0
LINE
8
BLACK
6
CONTINUOUS
10
3.30712
20
-3.45754
11
3.30714
21
-3.45748
0
LINE
8
BLACK
6
CONTINUOUS
10
3.30714
20
-3.45748
11
3.30793
21
-3.45716
0
LINE
8
BLACK
6
CONTINUOUS
10
3.30793
20
-3.45716
11
3.3087
21
-3.45679
0
LINE
8
BLACK
6
CONTINUOUS
10
3.3087
20
-3.45679
11
3.30875
21
-3.45681
0
LINE
8
BLACK
6
CONTINUOUS
10
3.30875
20
-3.45681
11
3.30881
21
-3.45679
0
LINE
8
BLACK
6
CONTINUOUS
10
3.30881
20
-3.45679
11
3.74188
21
-3.45679
0
LINE
8
BLACK
6
CONTINUOUS
10
3.74188
20
-3.45679
11
3.74355
21
-3.45748
0
LINE
8
BLACK
6
CONTINUOUS
10
3.74355
20
-3.45748
11
3.74424
21
-3.45915
0
LINE
8
BLACK
6
CONTINUOUS
10
3.74424
20
-3.45915
11
3.74424
21
-3.91585
0
LINE
8
BLACK
6
CONTINUOUS
10
3.74424
20
-3.91585
11
3.74355
21
-3.91752
0
LINE
8
BLACK
6
CONTINUOUS
10
3.74355
20
-3.91752
11
3.74188
21
-3.91821
0
LINE
8
BLACK
6
CONTINUOUS
10
3.74188
20
-3.91821
11
3.26944
21
-3.91821
0
LINE
8
BLACK
6
CONTINUOUS
10
3.26944
20
-3.91821
11
3.26777
21
-3.91752
0
LINE
8
BLACK
6
CONTINUOUS
10
3.30985
20
-3.46152
11
3.2718
21
-3.50337
0
LINE
8
BLACK
6
CONTINUOUS
10
3.2718
20
-3.50337
11
3.2718
21
-3.91348
0
LINE
8
BLACK
6
CONTINUOUS
10
3.2718
20
-3.91348
11
3.73952
21
-3.91348
0
LINE
8
BLACK
6
CONTINUOUS
10
3.73952
20
-3.91348
11
3.73952
21
-3.46152
0
LINE
8
BLACK
6
CONTINUOUS
10
3.73952
20
-3.46152
11
3.30985
21
-3.46152
0
LINE
8
BLACK
6
CONTINUOUS
10
3.38856
20
-3.65917
11
3.39245
21
-3.6463
0
LINE
8
BLACK
6
CONTINUOUS
10
3.39245
20
-3.6463
11
3.39775
21
-3.63393
0
LINE
8
BLACK
6
CONTINUOUS
10
3.39775
20
-3.63393
11
3.40439
21
-3.62224
0
LINE
8
BLACK
6
CONTINUOUS
10
3.40439
20
-3.62224
11
3.4123
21
-3.61136
0
LINE
8
BLACK
6
CONTINUOUS
10
3.4123
20
-3.61136
11
3.42137
21
-3.60143
0
LINE
8
BLACK
6
CONTINUOUS
10
3.42137
20
-3.60143
11
3.43149
21
-3.59257
0
LINE
8
BLACK
6
CONTINUOUS
10
3.43149
20
-3.59257
11
3.44253
21
-3.58489
0
LINE
8
BLACK
6
CONTINUOUS
10
3.44253
20
-3.58489
11
3.45436
21
-3.57849
0
LINE
8
BLACK
6
CONTINUOUS
10
3.45436
20
-3.57849
11
3.46684
21
-3.57345
0
LINE
8
BLACK
6
CONTINUOUS
10
3.46684
20
-3.57345
11
3.47979
21
-3.56984
0
LINE
8
BLACK
6
CONTINUOUS
10
3.47979
20
-3.56984
11
3.49307
21
-3.56769
0
LINE
8
BLACK
6
CONTINUOUS
10
3.49307
20
-3.56769
11
3.50554
21
-3.56708
0
LINE
8
BLACK
6
CONTINUOUS
10
3.50554
20
-3.56708
11
3.50566
21
-3.56703
0
LINE
8
BLACK
6
CONTINUOUS
10
3.50566
20
-3.56703
11
3.50575
21
-3.56707
0
LINE
8
BLACK
6
CONTINUOUS
10
3.50575
20
-3.56707
11
3.5065
21
-3.56703
0
LINE
8
BLACK
6
CONTINUOUS
10
3.5065
20
-3.56703
11
3.51992
21
-3.56788
0
LINE
8
BLACK
6
CONTINUOUS
10
3.51992
20
-3.56788
11
3.53317
21
-3.57021
0
LINE
8
BLACK
6
CONTINUOUS
10
3.53317
20
-3.57021
11
3.54607
21
-3.57401
0
LINE
8
BLACK
6
CONTINUOUS
10
3.54607
20
-3.57401
11
3.55847
21
-3.57922
0
LINE
8
BLACK
6
CONTINUOUS
10
3.55847
20
-3.57922
11
3.57021
21
-3.58578
0
LINE
8
BLACK
6
CONTINUOUS
10
3.57021
20
-3.58578
11
3.58115
21
-3.59361
0
LINE
8
BLACK
6
CONTINUOUS
10
3.58115
20
-3.59361
11
3.59114
21
-3.60261
0
LINE
8
BLACK
6
CONTINUOUS
10
3.59114
20
-3.60261
11
3.60007
21
-3.61267
0
LINE
8
BLACK
6
CONTINUOUS
10
3.60007
20
-3.61267
11
3.60783
21
-3.62366
0
LINE
8
BLACK
6
CONTINUOUS
10
3.60783
20
-3.62366
11
3.61431
21
-3.63545
0
LINE
8
BLACK
6
CONTINUOUS
10
3.61431
20
-3.63545
11
3.61943
21
-3.64788
0
LINE
8
BLACK
6
CONTINUOUS
10
3.61943
20
-3.64788
11
3.62314
21
-3.66081
0
LINE
8
BLACK
6
CONTINUOUS
10
3.62314
20
-3.66081
11
3.62538
21
-3.67407
0
LINE
8
BLACK
6
CONTINUOUS
10
3.62538
20
-3.67407
11
3.62613
21
-3.6875
0
LINE
8
BLACK
6
CONTINUOUS
10
3.62613
20
-3.6875
11
3.62608
21
-3.69086
0
LINE
8
BLACK
6
CONTINUOUS
10
3.62608
20
-3.69086
11
3.62496
21
-3.70427
0
LINE
8
BLACK
6
CONTINUOUS
10
3.62496
20
-3.70427
11
3.62235
21
-3.71746
0
LINE
8
BLACK
6
CONTINUOUS
10
3.62235
20
-3.71746
11
3.61828
21
-3.73028
0
LINE
8
BLACK
6
CONTINUOUS
10
3.61828
20
-3.73028
11
3.61281
21
-3.74257
0
LINE
8
BLACK
6
CONTINUOUS
10
3.61281
20
-3.74257
11
3.606
21
-3.75417
0
LINE
8
BLACK
6
CONTINUOUS
10
3.606
20
-3.75417
11
3.59795
21
-3.76494
0
LINE
8
BLACK
6
CONTINUOUS
10
3.59795
20
-3.76494
11
3.58874
21
-3.77474
0
LINE
8
BLACK
6
CONTINUOUS
10
3.58874
20
-3.77474
11
3.5785
21
-3.78346
0
LINE
8
BLACK
6
CONTINUOUS
10
3.5785
20
-3.78346
11
3.56735
21
-3.79098
0
LINE
8
BLACK
6
CONTINUOUS
10
3.56735
20
-3.79098
11
3.55543
21
-3.79721
0
LINE
8
BLACK
6
CONTINUOUS
10
3.55543
20
-3.79721
11
3.54289
21
-3.80208
0
LINE
8
BLACK
6
CONTINUOUS
10
3.54289
20
-3.80208
11
3.52988
21
-3.80551
0
LINE
8
BLACK
6
CONTINUOUS
10
3.52988
20
-3.80551
11
3.51658
21
-3.80748
0
LINE
8
BLACK
6
CONTINUOUS
10
3.51658
20
-3.80748
11
3.50596
21
-3.80785
0
LINE
8
BLACK
6
CONTINUOUS
10
3.50596
20
-3.80785
11
3.50566
21
-3.80797
0
LINE
8
BLACK
6
CONTINUOUS
10
3.50566
20
-3.80797
11
3.5054
21
-3.80787
0
LINE
8
BLACK
6
CONTINUOUS
10
3.5054
20
-3.80787
11
3.50314
21
-3.80795
0
LINE
8
BLACK
6
CONTINUOUS
10
3.50314
20
-3.80795
11
3.48973
21
-3.80691
0
LINE
8
BLACK
6
CONTINUOUS
10
3.48973
20
-3.80691
11
3.47651
21
-3.80439
0
LINE
8
BLACK
6
CONTINUOUS
10
3.47651
20
-3.80439
11
3.46367
21
-3.80042
0
LINE
8
BLACK
6
CONTINUOUS
10
3.46367
20
-3.80042
11
3.45134
21
-3.79503
0
LINE
8
BLACK
6
CONTINUOUS
10
3.45134
20
-3.79503
11
3.43969
21
-3.78831
0
LINE
8
BLACK
6
CONTINUOUS
10
3.43969
20
-3.78831
11
3.42887
21
-3.78033
0
LINE
8
BLACK
6
CONTINUOUS
10
3.42887
20
-3.78033
11
3.419
21
-3.77119
0
LINE
8
BLACK
6
CONTINUOUS
10
3.419
20
-3.77119
11
3.41021
21
-3.76101
0
LINE
8
BLACK
6
CONTINUOUS
10
3.41021
20
-3.76101
11
3.40261
21
-3.74991
0
LINE
8
BLACK
6
CONTINUOUS
10
3.40261
20
-3.74991
11
3.3963
21
-3.73803
0
LINE
8
BLACK
6
CONTINUOUS
10
3.3963
20
-3.73803
11
3.39135
21
-3.72553
0
LINE
8
BLACK
6
CONTINUOUS
10
3.39135
20
-3.72553
11
3.38782
21
-3.71255
0
LINE
8
BLACK
6
CONTINUOUS
10
3.38782
20
-3.71255
11
3.38576
21
-3.69926
0
LINE
8
BLACK
6
CONTINUOUS
10
3.38576
20
-3.69926
11
3.38528
21
-3.68772
0
LINE
8
BLACK
6
CONTINUOUS
10
3.38528
20
-3.68772
11
3.38519
21
-3.6875
0
LINE
8
BLACK
6
CONTINUOUS
10
3.38519
20
-3.6875
11
3.38526
21
-3.68732
0
LINE
8
BLACK
6
CONTINUOUS
10
3.38526
20
-3.68732
11
3.3852
21
-3.68582
0
LINE
8
BLACK
6
CONTINUOUS
10
3.3852
20
-3.68582
11
3.38534
21
-3.68386
0
LINE
8
BLACK
6
CONTINUOUS
10
3.38534
20
-3.68386
11
3.38614
21
-3.6724
0
LINE
8
BLACK
6
CONTINUOUS
10
3.38614
20
-3.6724
11
3.38856
21
-3.65917
0
LINE
8
BLACK
6
CONTINUOUS
10
3.5033
20
-3.68514
11
3.5033
21
-3.5717
0
LINE
8
BLACK
6
CONTINUOUS
10
3.5033
20
-3.5717
11
3.5008
21
-3.57166
0
LINE
8
BLACK
6
CONTINUOUS
10
3.5008
20
-3.57166
11
3.48752
21
-3.57298
0
LINE
8
BLACK
6
CONTINUOUS
10
3.48752
20
-3.57298
11
3.47448
21
-3.57583
0
LINE
8
BLACK
6
CONTINUOUS
10
3.47448
20
-3.57583
11
3.46185
21
-3.58015
0
LINE
8
BLACK
6
CONTINUOUS
10
3.46185
20
-3.58015
11
3.4498
21
-3.5859
0
LINE
8
BLACK
6
CONTINUOUS
10
3.4498
20
-3.5859
11
3.4385
21
-3.59299
0
LINE
8
BLACK
6
CONTINUOUS
10
3.4385
20
-3.59299
11
3.42808
21
-3.60134
0
LINE
8
BLACK
6
CONTINUOUS
10
3.42808
20
-3.60134
11
3.41869
21
-3.61082
0
LINE
8
BLACK
6
CONTINUOUS
10
3.41869
20
-3.61082
11
3.41045
21
-3.62133
0
LINE
8
BLACK
6
CONTINUOUS
10
3.41045
20
-3.62133
11
3.40348
21
-3.63271
0
LINE
8
BLACK
6
CONTINUOUS
10
3.40348
20
-3.63271
11
3.39786
21
-3.64482
0
LINE
8
BLACK
6
CONTINUOUS
10
3.39786
20
-3.64482
11
3.39367
21
-3.65749
0
LINE
8
BLACK
6
CONTINUOUS
10
3.39367
20
-3.65749
11
3.39096
21
-3.67056
0
LINE
8
BLACK
6
CONTINUOUS
10
3.39096
20
-3.67056
11
3.38977
21
-3.68386
0
LINE
8
BLACK
6
CONTINUOUS
10
3.38977
20
-3.68386
11
3.38981
21
-3.68514
0
LINE
8
BLACK
6
CONTINUOUS
10
3.38981
20
-3.68514
11
3.5033
21
-3.68514
0
LINE
8
BLACK
6
CONTINUOUS
10
3.50802
20
-3.68986
11
3.50802
21
-3.80336
0
LINE
8
BLACK
6
CONTINUOUS
10
3.50802
20
-3.80336
11
3.52019
21
-3.80253
0
LINE
8
BLACK
6
CONTINUOUS
10
3.52019
20
-3.80253
11
3.53332
21
-3.8001
0
LINE
8
BLACK
6
CONTINUOUS
10
3.53332
20
-3.8001
11
3.54607
21
-3.79617
0
LINE
8
BLACK
6
CONTINUOUS
10
3.54607
20
-3.79617
11
3.5583
21
-3.79081
0
LINE
8
BLACK
6
CONTINUOUS
10
3.5583
20
-3.79081
11
3.56982
21
-3.78407
0
LINE
8
BLACK
6
CONTINUOUS
10
3.56982
20
-3.78407
11
3.5805
21
-3.77606
0
LINE
8
BLACK
6
CONTINUOUS
10
3.5805
20
-3.77606
11
3.59018
21
-3.76687
0
LINE
8
BLACK
6
CONTINUOUS
10
3.59018
20
-3.76687
11
3.59874
21
-3.75663
0
LINE
8
BLACK
6
CONTINUOUS
10
3.59874
20
-3.75663
11
3.60607
21
-3.74547
0
LINE
8
BLACK
6
CONTINUOUS
10
3.60607
20
-3.74547
11
3.61207
21
-3.73355
0
LINE
8
BLACK
6
CONTINUOUS
10
3.61207
20
-3.73355
11
3.61666
21
-3.72101
0
LINE
8
BLACK
6
CONTINUOUS
10
3.61666
20
-3.72101
11
3.61977
21
-3.70803
0
LINE
8
BLACK
6
CONTINUOUS
10
3.61977
20
-3.70803
11
3.62137
21
-3.69478
0
LINE
8
BLACK
6
CONTINUOUS
10
3.62137
20
-3.69478
11
3.62153
21
-3.68986
0
LINE
8
BLACK
6
CONTINUOUS
10
3.62153
20
-3.68986
11
3.50802
21
-3.68986
0
LINE
8
BLACK
6
CONTINUOUS
10
3.38993
20
-3.68986
11
3.39012
21
-3.6972
0
LINE
8
BLACK
6
CONTINUOUS
10
3.39012
20
-3.6972
11
3.392
21
-3.71042
0
LINE
8
BLACK
6
CONTINUOUS
10
3.392
20
-3.71042
11
3.39539
21
-3.72333
0
LINE
8
BLACK
6
CONTINUOUS
10
3.39539
20
-3.72333
11
3.40024
21
-3.73577
0
LINE
8
BLACK
6
CONTINUOUS
10
3.40024
20
-3.73577
11
3.40648
21
-3.74756
0
LINE
8
BLACK
6
CONTINUOUS
10
3.40648
20
-3.74756
11
3.41405
21
-3.75856
0
LINE
8
BLACK
6
CONTINUOUS
10
3.41405
20
-3.75856
11
3.42282
21
-3.76862
0
LINE
8
BLACK
6
CONTINUOUS
10
3.42282
20
-3.76862
11
3.43269
21
-3.77761
0
LINE
8
BLACK
6
CONTINUOUS
10
3.43269
20
-3.77761
11
3.44353
21
-3.78539
0
LINE
8
BLACK
6
CONTINUOUS
10
3.44353
20
-3.78539
11
3.4552
21
-3.79189
0
LINE
8
BLACK
6
CONTINUOUS
10
3.4552
20
-3.79189
11
3.46753
21
-3.79699
0
LINE
8
BLACK
6
CONTINUOUS
10
3.46753
20
-3.79699
11
3.48037
21
-3.80065
0
LINE
8
BLACK
6
CONTINUOUS
10
3.48037
20
-3.80065
11
3.49354
21
-3.80281
0
LINE
8
BLACK
6
CONTINUOUS
10
3.49354
20
-3.80281
11
3.5033
21
-3.80327
0
LINE
8
BLACK
6
CONTINUOUS
10
3.5033
20
-3.80327
11
3.5033
21
-3.68986
0
LINE
8
BLACK
6
CONTINUOUS
10
3.5033
20
-3.68986
11
3.38993
21
-3.68986
0
LINE
8
BLACK
6
CONTINUOUS
10
3.50802
20
-3.68514
11
3.62147
21
-3.68514
0
LINE
8
BLACK
6
CONTINUOUS
10
3.62147
20
-3.68514
11
3.62084
21
-3.67417
0
LINE
8
BLACK
6
CONTINUOUS
10
3.62084
20
-3.67417
11
3.61854
21
-3.66102
0
LINE
8
BLACK
6
CONTINUOUS
10
3.61854
20
-3.66102
11
3.61475
21
-3.64823
0
LINE
8
BLACK
6
CONTINUOUS
10
3.61475
20
-3.64823
11
3.60951
21
-3.63595
0
LINE
8
BLACK
6
CONTINUOUS
10
3.60951
20
-3.63595
11
3.6029
21
-3.62435
0
LINE
8
BLACK
6
CONTINUOUS
10
3.6029
20
-3.62435
11
3.595
21
-3.61359
0
LINE
8
BLACK
6
CONTINUOUS
10
3.595
20
-3.61359
11
3.58591
21
-3.60382
0
LINE
8
BLACK
6
CONTINUOUS
10
3.58591
20
-3.60382
11
3.57576
21
-3.59515
0
LINE
8
BLACK
6
CONTINUOUS
10
3.57576
20
-3.59515
11
3.56468
21
-3.5877
0
LINE
8
BLACK
6
CONTINUOUS
10
3.56468
20
-3.5877
11
3.55282
21
-3.58158
0
LINE
8
BLACK
6
CONTINUOUS
10
3.55282
20
-3.58158
11
3.54033
21
-3.57686
0
LINE
8
BLACK
6
CONTINUOUS
10
3.54033
20
-3.57686
11
3.52739
21
-3.57361
0
LINE
8
BLACK
6
CONTINUOUS
10
3.52739
20
-3.57361
11
3.51415
21
-3.57187
0
LINE
8
BLACK
6
CONTINUOUS
10
3.51415
20
-3.57187
11
3.50802
21
-3.57177
0
LINE
8
BLACK
6
CONTINUOUS
10
3.50802
20
-3.57177
11
3.50802
21
-3.68514
  0
ENDSEC
  0
EOF
