%TF.GenerationSoftware,KiCad,Pcbnew,(6.0.1)*%
%TF.CreationDate,2022-02-15T20:39:13+08:00*%
%TF.ProjectId,Desk_Macropad,4465736b-5f4d-4616-9372-6f7061642e6b,rev?*%
%TF.SameCoordinates,Original*%
%TF.FileFunction,Copper,L1,Top*%
%TF.FilePolarity,Positive*%
%FSLAX46Y46*%
G04 Gerber Fmt 4.6, Leading zero omitted, Abs format (unit mm)*
G04 Created by KiCad (PCBNEW (6.0.1)) date 2022-02-15 20:39:13*
%MOMM*%
%LPD*%
G01*
G04 APERTURE LIST*
G04 Aperture macros list*
%AMFreePoly0*
4,1,17,-0.364645,1.235355,-0.350000,1.200000,-0.350000,0.750000,0.350000,0.750000,0.350000,-0.750000,-0.350000,-0.750000,-0.350000,-1.200000,-0.364645,-1.235355,-0.400000,-1.250000,-2.800000,-1.250000,-2.835355,-1.235355,-2.850000,-1.200000,-2.850000,1.200000,-2.835355,1.235355,-2.800000,1.250000,-0.400000,1.250000,-0.364645,1.235355,-0.364645,1.235355,$1*%
%AMFreePoly1*
4,1,24,2.735355,1.235355,2.750000,1.200000,2.750000,-0.800000,2.748029,-0.804757,2.749028,-0.809806,2.740927,-0.821903,2.735355,-0.835355,2.730600,-0.837325,2.727735,-0.841603,2.127735,-1.241603,2.113450,-1.244429,2.100000,-1.250000,0.300000,-1.250000,0.264645,-1.235355,0.250000,-1.200000,0.250000,-0.750000,-0.350000,-0.750000,-0.350000,0.750000,0.250000,0.750000,0.250000,1.200000,
0.264645,1.235355,0.300000,1.250000,2.700000,1.250000,2.735355,1.235355,2.735355,1.235355,$1*%
G04 Aperture macros list end*
%TA.AperFunction,SMDPad,CuDef*%
%ADD10FreePoly0,0.000000*%
%TD*%
%TA.AperFunction,SMDPad,CuDef*%
%ADD11FreePoly1,0.000000*%
%TD*%
%TA.AperFunction,ComponentPad*%
%ADD12R,1.800000X1.500000*%
%TD*%
%TA.AperFunction,ComponentPad*%
%ADD13C,2.000000*%
%TD*%
%TA.AperFunction,ComponentPad*%
%ADD14R,3.200000X2.000000*%
%TD*%
%TA.AperFunction,ComponentPad*%
%ADD15R,1.500000X1.800000*%
%TD*%
%TA.AperFunction,ComponentPad*%
%ADD16R,1.752600X1.752600*%
%TD*%
%TA.AperFunction,ComponentPad*%
%ADD17C,1.752600*%
%TD*%
%TA.AperFunction,ViaPad*%
%ADD18C,0.800000*%
%TD*%
%TA.AperFunction,Conductor*%
%ADD19C,0.250000*%
%TD*%
G04 APERTURE END LIST*
D10*
%TO.P,SW3,2,2*%
%TO.N,Net-(D4-Pad2)*%
X161693750Y-90368750D03*
D11*
%TO.P,SW3,1,1*%
%TO.N,col1*%
X145993750Y-87768750D03*
%TD*%
D10*
%TO.P,SW4,2,2*%
%TO.N,Net-(D5-Pad2)*%
X180743750Y-90368750D03*
D11*
%TO.P,SW4,1,1*%
%TO.N,col0*%
X165043750Y-87768750D03*
%TD*%
D12*
%TO.P,D4,2,A*%
%TO.N,Net-(D4-Pad2)*%
X146956250Y-103187500D03*
%TO.P,D4,1,K*%
%TO.N,row0*%
X143556250Y-103187500D03*
%TD*%
%TO.P,D3,1,K*%
%TO.N,row0*%
X124506250Y-103187500D03*
%TO.P,D3,2,A*%
%TO.N,Net-(D3-Pad2)*%
X127906250Y-103187500D03*
%TD*%
D11*
%TO.P,SW1,1,1*%
%TO.N,col3*%
X107893750Y-87768750D03*
D10*
%TO.P,SW1,2,2*%
%TO.N,Net-(D2-Pad2)*%
X123593750Y-90368750D03*
%TD*%
D13*
%TO.P,SW5,A,A*%
%TO.N,ENCA*%
X81543750Y-91162500D03*
%TO.P,SW5,B,B*%
%TO.N,ENCB*%
X81543750Y-96162500D03*
%TO.P,SW5,C,C*%
%TO.N,GND*%
X81543750Y-93662500D03*
D14*
%TO.P,SW5,MP*%
%TO.N,N/C*%
X89043750Y-88062500D03*
X89043750Y-99262500D03*
D13*
%TO.P,SW5,S1,S1*%
%TO.N,SW25A*%
X96043750Y-96162500D03*
%TO.P,SW5,S2,S2*%
%TO.N,SW25B*%
X96043750Y-91162500D03*
%TD*%
D12*
%TO.P,D2,1,K*%
%TO.N,row0*%
X105456250Y-103187500D03*
%TO.P,D2,2,A*%
%TO.N,Net-(D2-Pad2)*%
X108856250Y-103187500D03*
%TD*%
D13*
%TO.P,RSW1,1,1*%
%TO.N,GND*%
X85793750Y-82528750D03*
%TO.P,RSW1,2,2*%
%TO.N,RESET*%
X92293750Y-82528750D03*
%TD*%
D10*
%TO.P,SW2,2,2*%
%TO.N,Net-(D3-Pad2)*%
X142643750Y-90368750D03*
D11*
%TO.P,SW2,1,1*%
%TO.N,col2*%
X126943750Y-87768750D03*
%TD*%
D15*
%TO.P,D1,1,K*%
%TO.N,row0*%
X99362500Y-94568750D03*
%TO.P,D1,2,A*%
%TO.N,SW25B*%
X99362500Y-91168750D03*
%TD*%
D12*
%TO.P,D5,2,A*%
%TO.N,Net-(D5-Pad2)*%
X166006250Y-103187500D03*
%TO.P,D5,1,K*%
%TO.N,row0*%
X162606250Y-103187500D03*
%TD*%
D16*
%TO.P,U1,1,TX0/PD3*%
%TO.N,unconnected-(U1-Pad1)*%
X131045750Y-98107500D03*
D17*
%TO.P,U1,2,RX1/PD2*%
%TO.N,unconnected-(U1-Pad2)*%
X128505750Y-98107500D03*
%TO.P,U1,3,GND*%
%TO.N,GND*%
X125965750Y-98107500D03*
%TO.P,U1,4,GND*%
X123425750Y-98107500D03*
%TO.P,U1,5,2/PD1*%
%TO.N,unconnected-(U1-Pad5)*%
X120885750Y-98107500D03*
%TO.P,U1,6,3/PD0*%
%TO.N,unconnected-(U1-Pad6)*%
X118345750Y-98107500D03*
%TO.P,U1,7,4/PD4*%
%TO.N,unconnected-(U1-Pad7)*%
X115805750Y-98107500D03*
%TO.P,U1,8,5/PC6*%
%TO.N,row0*%
X113265750Y-98107500D03*
%TO.P,U1,9,6/PD7*%
%TO.N,unconnected-(U1-Pad9)*%
X110725750Y-98107500D03*
%TO.P,U1,10,7/PE6*%
%TO.N,unconnected-(U1-Pad10)*%
X108185750Y-98107500D03*
%TO.P,U1,11,8/PB4*%
%TO.N,unconnected-(U1-Pad11)*%
X105645750Y-98107500D03*
%TO.P,U1,12,9/PB5*%
%TO.N,unconnected-(U1-Pad12)*%
X103105750Y-97878900D03*
%TO.P,U1,13,10/PB6*%
%TO.N,unconnected-(U1-Pad13)*%
X103105750Y-82867500D03*
%TO.P,U1,14,16/PB2*%
%TO.N,SW25A*%
X105645750Y-82867500D03*
%TO.P,U1,15,14/PB3*%
%TO.N,col3*%
X108185750Y-82867500D03*
%TO.P,U1,16,15/PB1*%
%TO.N,col2*%
X110725750Y-82867500D03*
%TO.P,U1,17,A0/PF7*%
%TO.N,col1*%
X113265750Y-82867500D03*
%TO.P,U1,18,A1/PF6*%
%TO.N,col0*%
X115805750Y-82867500D03*
%TO.P,U1,19,A2/PF5*%
%TO.N,ENCB*%
X118345750Y-82867500D03*
%TO.P,U1,20,A3/PF4*%
%TO.N,ENCA*%
X120885750Y-82867500D03*
%TO.P,U1,21,VCC*%
%TO.N,VCC*%
X123425750Y-82867500D03*
%TO.P,U1,22,RST*%
%TO.N,RESET*%
X125965750Y-82867500D03*
%TO.P,U1,23,GND*%
%TO.N,GND*%
X128505750Y-82867500D03*
%TO.P,U1,24,B0*%
%TO.N,unconnected-(U1-Pad24)*%
X131045750Y-82867500D03*
%TO.P,U1,25,B7*%
%TO.N,unconnected-(U1-Pad25)*%
X103105750Y-95567500D03*
%TO.P,U1,26,D5*%
%TO.N,unconnected-(U1-Pad26)*%
X103105750Y-93027500D03*
%TO.P,U1,27,C7*%
%TO.N,unconnected-(U1-Pad27)*%
X103105750Y-90487500D03*
%TO.P,U1,28,F1*%
%TO.N,unconnected-(U1-Pad28)*%
X103105750Y-87947500D03*
%TO.P,U1,29,F0*%
%TO.N,unconnected-(U1-Pad29)*%
X103105750Y-85407500D03*
%TD*%
D18*
%TO.N,col3*%
X106362500Y-88900000D03*
%TO.N,Net-(D2-Pad2)*%
X123031250Y-88900000D03*
%TO.N,col2*%
X125412500Y-88900000D03*
%TO.N,Net-(D3-Pad2)*%
X142081250Y-88900000D03*
%TO.N,col1*%
X144462500Y-88900000D03*
%TO.N,col0*%
X163512500Y-88900000D03*
%TO.N,Net-(D5-Pad2)*%
X180181250Y-88900000D03*
%TO.N,Net-(D4-Pad2)*%
X161131250Y-88900000D03*
%TD*%
D19*
%TO.N,GND*%
X87312500Y-80962500D02*
X87312500Y-81010000D01*
X126600750Y-80962500D02*
X87312500Y-80962500D01*
X87312500Y-81010000D02*
X85793750Y-82528750D01*
X128505750Y-82867500D02*
X126600750Y-80962500D01*
%TO.N,RESET*%
X93155811Y-81666689D02*
X92293750Y-82528750D01*
X124764939Y-81666689D02*
X93155811Y-81666689D01*
X125965750Y-82867500D02*
X124764939Y-81666689D01*
%TO.N,GND*%
X80983750Y-82528750D02*
X85793750Y-82528750D01*
X80168750Y-83343750D02*
X80983750Y-82528750D01*
X80168750Y-92287500D02*
X80168750Y-83343750D01*
X81543750Y-93662500D02*
X80168750Y-92287500D01*
%TO.N,col0*%
X162718750Y-84137500D02*
X163512500Y-84931250D01*
X163512500Y-84931250D02*
X163512500Y-88900000D01*
X117075750Y-84137500D02*
X162718750Y-84137500D01*
X115805750Y-82867500D02*
X117075750Y-84137500D01*
%TO.N,col1*%
X144462500Y-85725000D02*
X144462500Y-88900000D01*
X143668750Y-84931250D02*
X144462500Y-85725000D01*
X113265750Y-84690750D02*
X113506250Y-84931250D01*
X113506250Y-84931250D02*
X143668750Y-84931250D01*
X113265750Y-82867500D02*
X113265750Y-84690750D01*
%TO.N,col2*%
X124618750Y-85725000D02*
X125412500Y-86518750D01*
X110725750Y-84532000D02*
X111918750Y-85725000D01*
X125412500Y-86518750D02*
X125412500Y-88900000D01*
X111918750Y-85725000D02*
X124618750Y-85725000D01*
X110725750Y-82867500D02*
X110725750Y-84532000D01*
%TO.N,col3*%
X108185750Y-82867500D02*
X106362500Y-84690750D01*
X106362500Y-84690750D02*
X106362500Y-88900000D01*
%TO.N,GND*%
X123425750Y-98107500D02*
X125965750Y-98107500D01*
%TO.N,row0*%
X105456250Y-100918750D02*
X105456250Y-103187500D01*
X111360750Y-100012500D02*
X106362500Y-100012500D01*
X113265750Y-98107500D02*
X111360750Y-100012500D01*
X106362500Y-100012500D02*
X105456250Y-100918750D01*
X105456250Y-103300000D02*
X103981250Y-104775000D01*
X105456250Y-103187500D02*
X105456250Y-103300000D01*
X100012500Y-104775000D02*
X103981250Y-104775000D01*
X103981250Y-104775000D02*
X142081250Y-104775000D01*
X124506250Y-103300000D02*
X123031250Y-104775000D01*
X124506250Y-103187500D02*
X124506250Y-103300000D01*
X143556250Y-103300000D02*
X142081250Y-104775000D01*
X142081250Y-104775000D02*
X161018750Y-104775000D01*
X143556250Y-103187500D02*
X143556250Y-103300000D01*
X161018750Y-104775000D02*
X162606250Y-103187500D01*
X99362500Y-104125000D02*
X100012500Y-104775000D01*
X99362500Y-94568750D02*
X99362500Y-104125000D01*
%TO.N,SW25B*%
X96043750Y-91162500D02*
X99356250Y-91162500D01*
X99356250Y-91162500D02*
X99362500Y-91168750D01*
%TO.N,Net-(D2-Pad2)*%
X119546561Y-102703439D02*
X119062500Y-103187500D01*
X119546561Y-97610107D02*
X119546561Y-102703439D01*
X123593750Y-93562918D02*
X119546561Y-97610107D01*
X123593750Y-90368750D02*
X123593750Y-93562918D01*
X119062500Y-103187500D02*
X108856250Y-103187500D01*
%TO.N,Net-(D3-Pad2)*%
X142643750Y-91180485D02*
X130636735Y-103187500D01*
X130636735Y-103187500D02*
X127906250Y-103187500D01*
X142643750Y-90368750D02*
X142643750Y-91180485D01*
%TO.N,col3*%
X107493750Y-87768750D02*
X106362500Y-88900000D01*
X107893750Y-87768750D02*
X107493750Y-87768750D01*
%TO.N,Net-(D2-Pad2)*%
X123593750Y-89462500D02*
X123031250Y-88900000D01*
X123593750Y-90368750D02*
X123593750Y-89462500D01*
%TO.N,col2*%
X126543750Y-87768750D02*
X125412500Y-88900000D01*
X126943750Y-87768750D02*
X126543750Y-87768750D01*
%TO.N,Net-(D4-Pad2)*%
X149686735Y-103187500D02*
X146956250Y-103187500D01*
X161693750Y-91180485D02*
X149686735Y-103187500D01*
X161693750Y-90368750D02*
X161693750Y-91180485D01*
%TO.N,Net-(D5-Pad2)*%
X168736735Y-103187500D02*
X166006250Y-103187500D01*
X180743750Y-90368750D02*
X180743750Y-91180485D01*
X180743750Y-91180485D02*
X168736735Y-103187500D01*
%TO.N,Net-(D3-Pad2)*%
X142643750Y-89462500D02*
X142081250Y-88900000D01*
X142643750Y-90368750D02*
X142643750Y-89462500D01*
%TO.N,col1*%
X145593750Y-87768750D02*
X144462500Y-88900000D01*
X145993750Y-87768750D02*
X145593750Y-87768750D01*
%TO.N,col0*%
X164643750Y-87768750D02*
X163512500Y-88900000D01*
X165043750Y-87768750D02*
X164643750Y-87768750D01*
%TO.N,Net-(D5-Pad2)*%
X180743750Y-89462500D02*
X180181250Y-88900000D01*
X180743750Y-90368750D02*
X180743750Y-89462500D01*
%TO.N,Net-(D4-Pad2)*%
X161693750Y-89462500D02*
X161131250Y-88900000D01*
X161693750Y-90368750D02*
X161693750Y-89462500D01*
%TD*%
%TA.AperFunction,Conductor*%
%TO.N,GND*%
G36*
X183326307Y-78297000D02*
G01*
X183341108Y-78299305D01*
X183341111Y-78299305D01*
X183349980Y-78300686D01*
X183358882Y-78299522D01*
X183358884Y-78299522D01*
X183363212Y-78298956D01*
X183367945Y-78298337D01*
X183391343Y-78297471D01*
X183647800Y-78311874D01*
X183661829Y-78313454D01*
X183942742Y-78361183D01*
X183956507Y-78364324D01*
X184230315Y-78443207D01*
X184243635Y-78447868D01*
X184506885Y-78556910D01*
X184519608Y-78563037D01*
X184628486Y-78623212D01*
X184768988Y-78700865D01*
X184780951Y-78708382D01*
X185013323Y-78873258D01*
X185024371Y-78882068D01*
X185236828Y-79071931D01*
X185246819Y-79081922D01*
X185436682Y-79294379D01*
X185445492Y-79305427D01*
X185610368Y-79537799D01*
X185617885Y-79549762D01*
X185755711Y-79799138D01*
X185761840Y-79811865D01*
X185870882Y-80075115D01*
X185875543Y-80088435D01*
X185920106Y-80243116D01*
X185954425Y-80362240D01*
X185957569Y-80376015D01*
X186005295Y-80656914D01*
X186006877Y-80670955D01*
X186020870Y-80920122D01*
X186019568Y-80946568D01*
X186019446Y-80947350D01*
X186019446Y-80947356D01*
X186018064Y-80956230D01*
X186019229Y-80965137D01*
X186022186Y-80987751D01*
X186023250Y-81004089D01*
X186023250Y-104725672D01*
X186021750Y-104745056D01*
X186018064Y-104768730D01*
X186020349Y-104786201D01*
X186021195Y-104809929D01*
X186005284Y-105080354D01*
X186003551Y-105095028D01*
X185953674Y-105375010D01*
X185951206Y-105388862D01*
X185947760Y-105403251D01*
X185944744Y-105413220D01*
X185861317Y-105688923D01*
X185856206Y-105702812D01*
X185736868Y-105976365D01*
X185730163Y-105989561D01*
X185579565Y-106247240D01*
X185571359Y-106259557D01*
X185432844Y-106443121D01*
X185391591Y-106497790D01*
X185382001Y-106509057D01*
X185175522Y-106724583D01*
X185164691Y-106734634D01*
X184934353Y-106924468D01*
X184922421Y-106933178D01*
X184773321Y-107029118D01*
X184671425Y-107094684D01*
X184658529Y-107101948D01*
X184390344Y-107232899D01*
X184376691Y-107238600D01*
X184094977Y-107337208D01*
X184080763Y-107341263D01*
X183790478Y-107405922D01*
X183789442Y-107406153D01*
X183774833Y-107408517D01*
X183512580Y-107435263D01*
X183485764Y-107435129D01*
X183476583Y-107434100D01*
X183467736Y-107435645D01*
X183442107Y-107440121D01*
X183420430Y-107442000D01*
X80081892Y-107442000D01*
X80062507Y-107440500D01*
X80047706Y-107438195D01*
X80047703Y-107438195D01*
X80038834Y-107436814D01*
X80029932Y-107437978D01*
X80029930Y-107437978D01*
X80025602Y-107438544D01*
X80020869Y-107439163D01*
X79997471Y-107440029D01*
X79741014Y-107425626D01*
X79726985Y-107424046D01*
X79446072Y-107376317D01*
X79432307Y-107373176D01*
X79158499Y-107294293D01*
X79145179Y-107289632D01*
X78881929Y-107180590D01*
X78869206Y-107174463D01*
X78718873Y-107091377D01*
X78619826Y-107036635D01*
X78607863Y-107029118D01*
X78375491Y-106864242D01*
X78364443Y-106855432D01*
X78151986Y-106665569D01*
X78141995Y-106655578D01*
X77952132Y-106443121D01*
X77943322Y-106432073D01*
X77778446Y-106199701D01*
X77770929Y-106187738D01*
X77633103Y-105938362D01*
X77626972Y-105925631D01*
X77517932Y-105662385D01*
X77513271Y-105649065D01*
X77434388Y-105375257D01*
X77431245Y-105361485D01*
X77429414Y-105350707D01*
X77383518Y-105080579D01*
X77381937Y-105066545D01*
X77368151Y-104821071D01*
X77369473Y-104797196D01*
X77369393Y-104797189D01*
X77369603Y-104794847D01*
X77369700Y-104793096D01*
X77369829Y-104792332D01*
X77369829Y-104792327D01*
X77370635Y-104787539D01*
X77370788Y-104775000D01*
X77366837Y-104747412D01*
X77365564Y-104729549D01*
X77365564Y-100310634D01*
X86935250Y-100310634D01*
X86942005Y-100372816D01*
X86993135Y-100509205D01*
X87080489Y-100625761D01*
X87197045Y-100713115D01*
X87333434Y-100764245D01*
X87395616Y-100771000D01*
X90691884Y-100771000D01*
X90754066Y-100764245D01*
X90890455Y-100713115D01*
X91007011Y-100625761D01*
X91094365Y-100509205D01*
X91145495Y-100372816D01*
X91152250Y-100310634D01*
X91152250Y-98214366D01*
X91145495Y-98152184D01*
X91094365Y-98015795D01*
X91007011Y-97899239D01*
X90890455Y-97811885D01*
X90754066Y-97760755D01*
X90691884Y-97754000D01*
X87395616Y-97754000D01*
X87333434Y-97760755D01*
X87197045Y-97811885D01*
X87080489Y-97899239D01*
X86993135Y-98015795D01*
X86942005Y-98152184D01*
X86935250Y-98214366D01*
X86935250Y-100310634D01*
X77365564Y-100310634D01*
X77365564Y-96162500D01*
X80030585Y-96162500D01*
X80049215Y-96399211D01*
X80050369Y-96404018D01*
X80050370Y-96404024D01*
X80085390Y-96549891D01*
X80104645Y-96630094D01*
X80106538Y-96634665D01*
X80106539Y-96634667D01*
X80193056Y-96843538D01*
X80195510Y-96849463D01*
X80198096Y-96853683D01*
X80316991Y-97047702D01*
X80316995Y-97047708D01*
X80319574Y-97051916D01*
X80473781Y-97232469D01*
X80477537Y-97235677D01*
X80495634Y-97251133D01*
X80654334Y-97386676D01*
X80658542Y-97389255D01*
X80658548Y-97389259D01*
X80852567Y-97508154D01*
X80856787Y-97510740D01*
X80861357Y-97512633D01*
X80861361Y-97512635D01*
X81071583Y-97599711D01*
X81076156Y-97601605D01*
X81146633Y-97618525D01*
X81302226Y-97655880D01*
X81302232Y-97655881D01*
X81307039Y-97657035D01*
X81543750Y-97675665D01*
X81780461Y-97657035D01*
X81785268Y-97655881D01*
X81785274Y-97655880D01*
X81940867Y-97618525D01*
X82011344Y-97601605D01*
X82015917Y-97599711D01*
X82226139Y-97512635D01*
X82226143Y-97512633D01*
X82230713Y-97510740D01*
X82234933Y-97508154D01*
X82428952Y-97389259D01*
X82428958Y-97389255D01*
X82433166Y-97386676D01*
X82591866Y-97251133D01*
X82609963Y-97235677D01*
X82613719Y-97232469D01*
X82767926Y-97051916D01*
X82770505Y-97047708D01*
X82770509Y-97047702D01*
X82889404Y-96853683D01*
X82891990Y-96849463D01*
X82894445Y-96843538D01*
X82980961Y-96634667D01*
X82980962Y-96634665D01*
X82982855Y-96630094D01*
X83002110Y-96549891D01*
X83037130Y-96404024D01*
X83037131Y-96404018D01*
X83038285Y-96399211D01*
X83056915Y-96162500D01*
X94530585Y-96162500D01*
X94549215Y-96399211D01*
X94550369Y-96404018D01*
X94550370Y-96404024D01*
X94585390Y-96549891D01*
X94604645Y-96630094D01*
X94606538Y-96634665D01*
X94606539Y-96634667D01*
X94693056Y-96843538D01*
X94695510Y-96849463D01*
X94698096Y-96853683D01*
X94816991Y-97047702D01*
X94816995Y-97047708D01*
X94819574Y-97051916D01*
X94973781Y-97232469D01*
X94977537Y-97235677D01*
X94995634Y-97251133D01*
X95154334Y-97386676D01*
X95158542Y-97389255D01*
X95158548Y-97389259D01*
X95352567Y-97508154D01*
X95356787Y-97510740D01*
X95361357Y-97512633D01*
X95361361Y-97512635D01*
X95571583Y-97599711D01*
X95576156Y-97601605D01*
X95646633Y-97618525D01*
X95802226Y-97655880D01*
X95802232Y-97655881D01*
X95807039Y-97657035D01*
X96043750Y-97675665D01*
X96280461Y-97657035D01*
X96285268Y-97655881D01*
X96285274Y-97655880D01*
X96440867Y-97618525D01*
X96511344Y-97601605D01*
X96515917Y-97599711D01*
X96726139Y-97512635D01*
X96726143Y-97512633D01*
X96730713Y-97510740D01*
X96734933Y-97508154D01*
X96928952Y-97389259D01*
X96928958Y-97389255D01*
X96933166Y-97386676D01*
X97091866Y-97251133D01*
X97109963Y-97235677D01*
X97113719Y-97232469D01*
X97267926Y-97051916D01*
X97270505Y-97047708D01*
X97270509Y-97047702D01*
X97389404Y-96853683D01*
X97391990Y-96849463D01*
X97394445Y-96843538D01*
X97480961Y-96634667D01*
X97480962Y-96634665D01*
X97482855Y-96630094D01*
X97502110Y-96549891D01*
X97537130Y-96404024D01*
X97537131Y-96404018D01*
X97538285Y-96399211D01*
X97556915Y-96162500D01*
X97538285Y-95925789D01*
X97482855Y-95694906D01*
X97480961Y-95690333D01*
X97393885Y-95480111D01*
X97393883Y-95480107D01*
X97391990Y-95475537D01*
X97389404Y-95471317D01*
X97270509Y-95277298D01*
X97270505Y-95277292D01*
X97267926Y-95273084D01*
X97113719Y-95092531D01*
X96933166Y-94938324D01*
X96928958Y-94935745D01*
X96928952Y-94935741D01*
X96734933Y-94816846D01*
X96730713Y-94814260D01*
X96726143Y-94812367D01*
X96726139Y-94812365D01*
X96515917Y-94725289D01*
X96515915Y-94725288D01*
X96511344Y-94723395D01*
X96417991Y-94700983D01*
X96285274Y-94669120D01*
X96285268Y-94669119D01*
X96280461Y-94667965D01*
X96043750Y-94649335D01*
X95807039Y-94667965D01*
X95802232Y-94669119D01*
X95802226Y-94669120D01*
X95669509Y-94700983D01*
X95576156Y-94723395D01*
X95571585Y-94725288D01*
X95571583Y-94725289D01*
X95361361Y-94812365D01*
X95361357Y-94812367D01*
X95356787Y-94814260D01*
X95352567Y-94816846D01*
X95158548Y-94935741D01*
X95158542Y-94935745D01*
X95154334Y-94938324D01*
X94973781Y-95092531D01*
X94819574Y-95273084D01*
X94816995Y-95277292D01*
X94816991Y-95277298D01*
X94698096Y-95471317D01*
X94695510Y-95475537D01*
X94693617Y-95480107D01*
X94693615Y-95480111D01*
X94606539Y-95690333D01*
X94604645Y-95694906D01*
X94549215Y-95925789D01*
X94530585Y-96162500D01*
X83056915Y-96162500D01*
X83038285Y-95925789D01*
X82982855Y-95694906D01*
X82980961Y-95690333D01*
X82893885Y-95480111D01*
X82893883Y-95480107D01*
X82891990Y-95475537D01*
X82889404Y-95471317D01*
X82770509Y-95277298D01*
X82770505Y-95277292D01*
X82767926Y-95273084D01*
X82613719Y-95092531D01*
X82451224Y-94953747D01*
X82417348Y-94907814D01*
X82407872Y-94885832D01*
X81556562Y-94034522D01*
X81542618Y-94026908D01*
X81540785Y-94027039D01*
X81534170Y-94031290D01*
X80682670Y-94882790D01*
X80661724Y-94921148D01*
X80632968Y-94956572D01*
X80473781Y-95092531D01*
X80319574Y-95273084D01*
X80316995Y-95277292D01*
X80316991Y-95277298D01*
X80198096Y-95471317D01*
X80195510Y-95475537D01*
X80193617Y-95480107D01*
X80193615Y-95480111D01*
X80106539Y-95690333D01*
X80104645Y-95694906D01*
X80049215Y-95925789D01*
X80030585Y-96162500D01*
X77365564Y-96162500D01*
X77365564Y-93667430D01*
X80031475Y-93667430D01*
X80049322Y-93894199D01*
X80050865Y-93903946D01*
X80103967Y-94125127D01*
X80107016Y-94134512D01*
X80194063Y-94344663D01*
X80198545Y-94353458D01*
X80301182Y-94520945D01*
X80311640Y-94530407D01*
X80320416Y-94526624D01*
X81171728Y-93675312D01*
X81178106Y-93663632D01*
X81908158Y-93663632D01*
X81908289Y-93665465D01*
X81912540Y-93672080D01*
X82764040Y-94523580D01*
X82776420Y-94530340D01*
X82784070Y-94524613D01*
X82888955Y-94353458D01*
X82893437Y-94344663D01*
X82980484Y-94134512D01*
X82983533Y-94125127D01*
X83036635Y-93903946D01*
X83038178Y-93894199D01*
X83056025Y-93667430D01*
X83056025Y-93657570D01*
X83038178Y-93430801D01*
X83036635Y-93421054D01*
X82983533Y-93199873D01*
X82980484Y-93190488D01*
X82893437Y-92980337D01*
X82888955Y-92971542D01*
X82786318Y-92804055D01*
X82775860Y-92794593D01*
X82767084Y-92798376D01*
X81915772Y-93649688D01*
X81908158Y-93663632D01*
X81178106Y-93663632D01*
X81179342Y-93661368D01*
X81179211Y-93659535D01*
X81174960Y-93652920D01*
X80323460Y-92801420D01*
X80311080Y-92794660D01*
X80303430Y-92800387D01*
X80198545Y-92971542D01*
X80194063Y-92980337D01*
X80107016Y-93190488D01*
X80103967Y-93199873D01*
X80050865Y-93421054D01*
X80049322Y-93430801D01*
X80031475Y-93657570D01*
X80031475Y-93667430D01*
X77365564Y-93667430D01*
X77365564Y-91162500D01*
X80030585Y-91162500D01*
X80049215Y-91399211D01*
X80050369Y-91404018D01*
X80050370Y-91404024D01*
X80067743Y-91476386D01*
X80104645Y-91630094D01*
X80106538Y-91634665D01*
X80106539Y-91634667D01*
X80178557Y-91808534D01*
X80195510Y-91849463D01*
X80198096Y-91853683D01*
X80316991Y-92047702D01*
X80316995Y-92047708D01*
X80319574Y-92051916D01*
X80473781Y-92232469D01*
X80477537Y-92235677D01*
X80636276Y-92371253D01*
X80670152Y-92417186D01*
X80679628Y-92439168D01*
X81530938Y-93290478D01*
X81544882Y-93298092D01*
X81546715Y-93297961D01*
X81553330Y-93293710D01*
X82404830Y-92442210D01*
X82425776Y-92403852D01*
X82454532Y-92368428D01*
X82609963Y-92235677D01*
X82613719Y-92232469D01*
X82767926Y-92051916D01*
X82770505Y-92047708D01*
X82770509Y-92047702D01*
X82889404Y-91853683D01*
X82891990Y-91849463D01*
X82908944Y-91808534D01*
X82980961Y-91634667D01*
X82980962Y-91634665D01*
X82982855Y-91630094D01*
X83019757Y-91476386D01*
X83037130Y-91404024D01*
X83037131Y-91404018D01*
X83038285Y-91399211D01*
X83056915Y-91162500D01*
X94530585Y-91162500D01*
X94549215Y-91399211D01*
X94550369Y-91404018D01*
X94550370Y-91404024D01*
X94567743Y-91476386D01*
X94604645Y-91630094D01*
X94606538Y-91634665D01*
X94606539Y-91634667D01*
X94678557Y-91808534D01*
X94695510Y-91849463D01*
X94698096Y-91853683D01*
X94816991Y-92047702D01*
X94816995Y-92047708D01*
X94819574Y-92051916D01*
X94973781Y-92232469D01*
X95154334Y-92386676D01*
X95158542Y-92389255D01*
X95158548Y-92389259D01*
X95310178Y-92482178D01*
X95356787Y-92510740D01*
X95361357Y-92512633D01*
X95361361Y-92512635D01*
X95571583Y-92599711D01*
X95576156Y-92601605D01*
X95656359Y-92620860D01*
X95802226Y-92655880D01*
X95802232Y-92655881D01*
X95807039Y-92657035D01*
X96043750Y-92675665D01*
X96280461Y-92657035D01*
X96285268Y-92655881D01*
X96285274Y-92655880D01*
X96431141Y-92620860D01*
X96511344Y-92601605D01*
X96515917Y-92599711D01*
X96726139Y-92512635D01*
X96726143Y-92512633D01*
X96730713Y-92510740D01*
X96777322Y-92482178D01*
X96928952Y-92389259D01*
X96928958Y-92389255D01*
X96933166Y-92386676D01*
X97113719Y-92232469D01*
X97267926Y-92051916D01*
X97270505Y-92047708D01*
X97270509Y-92047702D01*
X97387883Y-91856165D01*
X97440531Y-91808534D01*
X97495316Y-91796000D01*
X97978000Y-91796000D01*
X98046121Y-91816002D01*
X98092614Y-91869658D01*
X98104000Y-91922000D01*
X98104000Y-92116884D01*
X98110755Y-92179066D01*
X98161885Y-92315455D01*
X98249239Y-92432011D01*
X98365795Y-92519365D01*
X98502184Y-92570495D01*
X98564366Y-92577250D01*
X100160634Y-92577250D01*
X100222816Y-92570495D01*
X100359205Y-92519365D01*
X100475761Y-92432011D01*
X100563115Y-92315455D01*
X100614245Y-92179066D01*
X100621000Y-92116884D01*
X100621000Y-90220616D01*
X100614245Y-90158434D01*
X100563115Y-90022045D01*
X100475761Y-89905489D01*
X100359205Y-89818135D01*
X100222816Y-89767005D01*
X100160634Y-89760250D01*
X98564366Y-89760250D01*
X98502184Y-89767005D01*
X98365795Y-89818135D01*
X98249239Y-89905489D01*
X98161885Y-90022045D01*
X98110755Y-90158434D01*
X98104000Y-90220616D01*
X98104000Y-90403000D01*
X98083998Y-90471121D01*
X98030342Y-90517614D01*
X97978000Y-90529000D01*
X97495316Y-90529000D01*
X97427195Y-90508998D01*
X97387883Y-90468835D01*
X97270509Y-90277298D01*
X97270505Y-90277292D01*
X97267926Y-90273084D01*
X97113719Y-90092531D01*
X96933166Y-89938324D01*
X96928958Y-89935745D01*
X96928952Y-89935741D01*
X96734933Y-89816846D01*
X96730713Y-89814260D01*
X96726143Y-89812367D01*
X96726139Y-89812365D01*
X96515917Y-89725289D01*
X96515915Y-89725288D01*
X96511344Y-89723395D01*
X96391904Y-89694720D01*
X96285274Y-89669120D01*
X96285268Y-89669119D01*
X96280461Y-89667965D01*
X96043750Y-89649335D01*
X95807039Y-89667965D01*
X95802232Y-89669119D01*
X95802226Y-89669120D01*
X95695596Y-89694720D01*
X95576156Y-89723395D01*
X95571585Y-89725288D01*
X95571583Y-89725289D01*
X95361361Y-89812365D01*
X95361357Y-89812367D01*
X95356787Y-89814260D01*
X95352567Y-89816846D01*
X95158548Y-89935741D01*
X95158542Y-89935745D01*
X95154334Y-89938324D01*
X94973781Y-90092531D01*
X94819574Y-90273084D01*
X94816995Y-90277292D01*
X94816991Y-90277298D01*
X94745095Y-90394622D01*
X94695510Y-90475537D01*
X94693617Y-90480107D01*
X94693615Y-90480111D01*
X94613304Y-90674000D01*
X94604645Y-90694906D01*
X94603490Y-90699718D01*
X94554679Y-90903031D01*
X94549215Y-90925789D01*
X94530585Y-91162500D01*
X83056915Y-91162500D01*
X83038285Y-90925789D01*
X83032822Y-90903031D01*
X82984010Y-90699718D01*
X82982855Y-90694906D01*
X82974196Y-90674000D01*
X82893885Y-90480111D01*
X82893883Y-90480107D01*
X82891990Y-90475537D01*
X82842405Y-90394622D01*
X82770509Y-90277298D01*
X82770505Y-90277292D01*
X82767926Y-90273084D01*
X82613719Y-90092531D01*
X82433166Y-89938324D01*
X82428958Y-89935745D01*
X82428952Y-89935741D01*
X82234933Y-89816846D01*
X82230713Y-89814260D01*
X82226143Y-89812367D01*
X82226139Y-89812365D01*
X82015917Y-89725289D01*
X82015915Y-89725288D01*
X82011344Y-89723395D01*
X81891904Y-89694720D01*
X81785274Y-89669120D01*
X81785268Y-89669119D01*
X81780461Y-89667965D01*
X81543750Y-89649335D01*
X81307039Y-89667965D01*
X81302232Y-89669119D01*
X81302226Y-89669120D01*
X81195596Y-89694720D01*
X81076156Y-89723395D01*
X81071585Y-89725288D01*
X81071583Y-89725289D01*
X80861361Y-89812365D01*
X80861357Y-89812367D01*
X80856787Y-89814260D01*
X80852567Y-89816846D01*
X80658548Y-89935741D01*
X80658542Y-89935745D01*
X80654334Y-89938324D01*
X80473781Y-90092531D01*
X80319574Y-90273084D01*
X80316995Y-90277292D01*
X80316991Y-90277298D01*
X80245095Y-90394622D01*
X80195510Y-90475537D01*
X80193617Y-90480107D01*
X80193615Y-90480111D01*
X80113304Y-90674000D01*
X80104645Y-90694906D01*
X80103490Y-90699718D01*
X80054679Y-90903031D01*
X80049215Y-90925789D01*
X80030585Y-91162500D01*
X77365564Y-91162500D01*
X77365564Y-89110634D01*
X86935250Y-89110634D01*
X86942005Y-89172816D01*
X86993135Y-89309205D01*
X87080489Y-89425761D01*
X87197045Y-89513115D01*
X87333434Y-89564245D01*
X87395616Y-89571000D01*
X90691884Y-89571000D01*
X90754066Y-89564245D01*
X90890455Y-89513115D01*
X91007011Y-89425761D01*
X91094365Y-89309205D01*
X91145495Y-89172816D01*
X91152250Y-89110634D01*
X91152250Y-87014366D01*
X91145495Y-86952184D01*
X91094365Y-86815795D01*
X91007011Y-86699239D01*
X90890455Y-86611885D01*
X90754066Y-86560755D01*
X90691884Y-86554000D01*
X87395616Y-86554000D01*
X87333434Y-86560755D01*
X87197045Y-86611885D01*
X87080489Y-86699239D01*
X86993135Y-86815795D01*
X86942005Y-86952184D01*
X86935250Y-87014366D01*
X86935250Y-89110634D01*
X77365564Y-89110634D01*
X77365564Y-83761420D01*
X84925910Y-83761420D01*
X84931637Y-83769070D01*
X85102792Y-83873955D01*
X85111587Y-83878437D01*
X85321738Y-83965484D01*
X85331123Y-83968533D01*
X85552304Y-84021635D01*
X85562051Y-84023178D01*
X85788820Y-84041025D01*
X85798680Y-84041025D01*
X86025449Y-84023178D01*
X86035196Y-84021635D01*
X86256377Y-83968533D01*
X86265762Y-83965484D01*
X86475913Y-83878437D01*
X86484708Y-83873955D01*
X86652195Y-83771318D01*
X86661657Y-83760860D01*
X86657874Y-83752084D01*
X85806562Y-82900772D01*
X85792618Y-82893158D01*
X85790785Y-82893289D01*
X85784170Y-82897540D01*
X84932670Y-83749040D01*
X84925910Y-83761420D01*
X77365564Y-83761420D01*
X77365564Y-82533680D01*
X84281475Y-82533680D01*
X84299322Y-82760449D01*
X84300865Y-82770196D01*
X84353967Y-82991377D01*
X84357016Y-83000762D01*
X84444063Y-83210913D01*
X84448545Y-83219708D01*
X84551182Y-83387195D01*
X84561640Y-83396657D01*
X84570416Y-83392874D01*
X85421728Y-82541562D01*
X85428106Y-82529882D01*
X86158158Y-82529882D01*
X86158289Y-82531715D01*
X86162540Y-82538330D01*
X87014040Y-83389830D01*
X87026420Y-83396590D01*
X87034070Y-83390863D01*
X87138955Y-83219708D01*
X87143437Y-83210913D01*
X87230484Y-83000762D01*
X87233533Y-82991377D01*
X87286635Y-82770196D01*
X87288178Y-82760449D01*
X87306025Y-82533680D01*
X87306025Y-82528750D01*
X90780585Y-82528750D01*
X90799215Y-82765461D01*
X90800369Y-82770268D01*
X90800370Y-82770274D01*
X90822907Y-82864147D01*
X90854645Y-82996344D01*
X90856538Y-83000915D01*
X90856539Y-83000917D01*
X90943522Y-83210913D01*
X90945510Y-83215713D01*
X90948096Y-83219933D01*
X91066991Y-83413952D01*
X91066995Y-83413958D01*
X91069574Y-83418166D01*
X91223781Y-83598719D01*
X91404334Y-83752926D01*
X91408542Y-83755505D01*
X91408548Y-83755509D01*
X91579540Y-83860293D01*
X91606787Y-83876990D01*
X91611357Y-83878883D01*
X91611361Y-83878885D01*
X91821583Y-83965961D01*
X91826156Y-83967855D01*
X91906359Y-83987110D01*
X92052226Y-84022130D01*
X92052232Y-84022131D01*
X92057039Y-84023285D01*
X92293750Y-84041915D01*
X92530461Y-84023285D01*
X92535268Y-84022131D01*
X92535274Y-84022130D01*
X92681141Y-83987110D01*
X92761344Y-83967855D01*
X92765917Y-83965961D01*
X92976139Y-83878885D01*
X92976143Y-83878883D01*
X92980713Y-83876990D01*
X93007960Y-83860293D01*
X93178952Y-83755509D01*
X93178958Y-83755505D01*
X93183166Y-83752926D01*
X93363719Y-83598719D01*
X93517926Y-83418166D01*
X93520505Y-83413958D01*
X93520509Y-83413952D01*
X93639404Y-83219933D01*
X93641990Y-83215713D01*
X93643979Y-83210913D01*
X93730961Y-83000917D01*
X93730962Y-83000915D01*
X93732855Y-82996344D01*
X93764593Y-82864147D01*
X93787130Y-82770274D01*
X93787131Y-82770268D01*
X93788285Y-82765461D01*
X93806915Y-82528750D01*
X93799621Y-82436075D01*
X93814217Y-82366595D01*
X93864059Y-82316036D01*
X93925233Y-82300189D01*
X101660240Y-82300189D01*
X101728361Y-82320191D01*
X101774854Y-82373847D01*
X101784958Y-82444121D01*
X101781658Y-82459858D01*
X101740817Y-82607125D01*
X101716619Y-82833550D01*
X101716916Y-82838702D01*
X101716916Y-82838706D01*
X101720056Y-82893158D01*
X101729727Y-83060887D01*
X101730862Y-83065924D01*
X101730863Y-83065930D01*
X101765569Y-83219933D01*
X101779789Y-83283031D01*
X101781733Y-83287817D01*
X101781734Y-83287822D01*
X101863517Y-83489228D01*
X101865461Y-83494015D01*
X101929624Y-83598719D01*
X101981740Y-83683764D01*
X101984442Y-83688174D01*
X102133536Y-83860293D01*
X102308739Y-84005749D01*
X102313190Y-84008350D01*
X102313200Y-84008357D01*
X102346016Y-84027533D01*
X102394739Y-84079172D01*
X102407809Y-84148955D01*
X102381076Y-84214727D01*
X102358103Y-84237075D01*
X102183194Y-84368400D01*
X102179622Y-84372138D01*
X102039705Y-84518553D01*
X102025870Y-84533030D01*
X102022956Y-84537302D01*
X102022955Y-84537303D01*
X101978113Y-84603039D01*
X101897547Y-84721145D01*
X101801671Y-84927692D01*
X101800289Y-84932674D01*
X101800289Y-84932675D01*
X101798900Y-84937683D01*
X101740817Y-85147125D01*
X101716619Y-85373550D01*
X101716916Y-85378702D01*
X101716916Y-85378706D01*
X101718776Y-85410966D01*
X101729727Y-85600887D01*
X101730862Y-85605924D01*
X101730863Y-85605930D01*
X101770148Y-85780250D01*
X101779789Y-85823031D01*
X101781733Y-85827817D01*
X101781734Y-85827822D01*
X101855216Y-86008784D01*
X101865461Y-86034015D01*
X101922669Y-86127369D01*
X101975335Y-86213312D01*
X101984442Y-86228174D01*
X102133536Y-86400293D01*
X102308739Y-86545749D01*
X102313190Y-86548350D01*
X102313200Y-86548357D01*
X102346016Y-86567533D01*
X102394739Y-86619172D01*
X102407809Y-86688955D01*
X102381076Y-86754727D01*
X102358103Y-86777075D01*
X102183194Y-86908400D01*
X102025870Y-87073030D01*
X102022956Y-87077302D01*
X102022955Y-87077303D01*
X101964844Y-87162491D01*
X101897547Y-87261145D01*
X101801671Y-87467692D01*
X101740817Y-87687125D01*
X101716619Y-87913550D01*
X101716916Y-87918702D01*
X101716916Y-87918706D01*
X101721193Y-87992872D01*
X101729727Y-88140887D01*
X101730862Y-88145924D01*
X101730863Y-88145930D01*
X101761480Y-88281787D01*
X101779789Y-88363031D01*
X101781733Y-88367817D01*
X101781734Y-88367822D01*
X101851160Y-88538796D01*
X101865461Y-88574015D01*
X101984442Y-88768174D01*
X102133536Y-88940293D01*
X102308739Y-89085749D01*
X102313190Y-89088350D01*
X102313200Y-89088357D01*
X102346016Y-89107533D01*
X102394739Y-89159172D01*
X102407809Y-89228955D01*
X102381076Y-89294727D01*
X102358103Y-89317075D01*
X102183194Y-89448400D01*
X102179622Y-89452138D01*
X102101722Y-89533656D01*
X102025870Y-89613030D01*
X102022956Y-89617302D01*
X102022955Y-89617303D01*
X101981090Y-89678675D01*
X101897547Y-89801145D01*
X101801671Y-90007692D01*
X101800289Y-90012674D01*
X101800289Y-90012675D01*
X101795359Y-90030453D01*
X101740817Y-90227125D01*
X101716619Y-90453550D01*
X101716916Y-90458702D01*
X101716916Y-90458706D01*
X101719816Y-90508998D01*
X101729727Y-90680887D01*
X101730862Y-90685924D01*
X101730863Y-90685930D01*
X101764050Y-90833192D01*
X101779789Y-90903031D01*
X101781733Y-90907817D01*
X101781734Y-90907822D01*
X101852861Y-91082985D01*
X101865461Y-91114015D01*
X101868160Y-91118419D01*
X101958972Y-91266610D01*
X101984442Y-91308174D01*
X102133536Y-91480293D01*
X102219702Y-91551829D01*
X102303489Y-91621390D01*
X102308739Y-91625749D01*
X102313190Y-91628350D01*
X102313200Y-91628357D01*
X102346016Y-91647533D01*
X102394739Y-91699172D01*
X102407809Y-91768955D01*
X102381076Y-91834727D01*
X102358103Y-91857075D01*
X102183194Y-91988400D01*
X102025870Y-92153030D01*
X102022956Y-92157302D01*
X102022955Y-92157303D01*
X101970599Y-92234055D01*
X101897547Y-92341145D01*
X101801671Y-92547692D01*
X101740817Y-92767125D01*
X101716619Y-92993550D01*
X101716916Y-92998702D01*
X101716916Y-92998706D01*
X101721733Y-93082240D01*
X101729727Y-93220887D01*
X101730862Y-93225924D01*
X101730863Y-93225930D01*
X101776954Y-93430453D01*
X101779789Y-93443031D01*
X101781733Y-93447817D01*
X101781734Y-93447822D01*
X101857747Y-93635019D01*
X101865461Y-93654015D01*
X101984442Y-93848174D01*
X102133536Y-94020293D01*
X102308739Y-94165749D01*
X102313190Y-94168350D01*
X102313200Y-94168357D01*
X102346016Y-94187533D01*
X102394739Y-94239172D01*
X102407809Y-94308955D01*
X102381076Y-94374727D01*
X102358103Y-94397075D01*
X102183194Y-94528400D01*
X102025870Y-94693030D01*
X102022956Y-94697302D01*
X102022955Y-94697303D01*
X102003864Y-94725289D01*
X101897547Y-94881145D01*
X101801671Y-95087692D01*
X101740817Y-95307125D01*
X101716619Y-95533550D01*
X101716916Y-95538702D01*
X101716916Y-95538706D01*
X101718790Y-95571210D01*
X101729727Y-95760887D01*
X101730862Y-95765924D01*
X101730863Y-95765930D01*
X101766889Y-95925789D01*
X101779789Y-95983031D01*
X101781733Y-95987817D01*
X101781734Y-95987822D01*
X101828605Y-96103250D01*
X101865461Y-96194015D01*
X101984442Y-96388174D01*
X102133536Y-96560293D01*
X102137511Y-96563593D01*
X102137514Y-96563596D01*
X102211153Y-96624732D01*
X102250788Y-96683635D01*
X102252286Y-96754615D01*
X102215171Y-96815138D01*
X102206327Y-96822432D01*
X102183194Y-96839800D01*
X102179622Y-96843538D01*
X102051634Y-96977470D01*
X102025870Y-97004430D01*
X102022956Y-97008702D01*
X102022955Y-97008703D01*
X102003942Y-97036575D01*
X101897547Y-97192545D01*
X101801671Y-97399092D01*
X101740817Y-97618525D01*
X101716619Y-97844950D01*
X101729727Y-98072287D01*
X101730862Y-98077324D01*
X101730863Y-98077330D01*
X101778651Y-98289382D01*
X101779789Y-98294431D01*
X101781733Y-98299217D01*
X101781734Y-98299222D01*
X101854947Y-98479522D01*
X101865461Y-98505415D01*
X101984442Y-98699574D01*
X102133536Y-98871693D01*
X102308739Y-99017149D01*
X102313191Y-99019751D01*
X102313196Y-99019754D01*
X102444336Y-99096386D01*
X102505347Y-99132038D01*
X102718079Y-99213272D01*
X102723145Y-99214303D01*
X102723146Y-99214303D01*
X102761455Y-99222097D01*
X102941222Y-99258671D01*
X103069038Y-99263358D01*
X103163620Y-99266827D01*
X103163625Y-99266827D01*
X103168784Y-99267016D01*
X103173904Y-99266360D01*
X103173906Y-99266360D01*
X103246094Y-99257112D01*
X103394653Y-99238081D01*
X103399602Y-99236596D01*
X103399608Y-99236595D01*
X103525954Y-99198689D01*
X103612763Y-99172645D01*
X103620551Y-99168830D01*
X103812615Y-99074738D01*
X103817257Y-99072464D01*
X103821461Y-99069466D01*
X103821465Y-99069463D01*
X103907504Y-99008092D01*
X104002643Y-98940230D01*
X104163943Y-98779492D01*
X104166957Y-98775298D01*
X104166966Y-98775287D01*
X104198672Y-98731163D01*
X104254666Y-98687515D01*
X104325370Y-98681069D01*
X104388334Y-98713872D01*
X104408424Y-98738851D01*
X104492497Y-98876045D01*
X104521740Y-98923764D01*
X104524442Y-98928174D01*
X104673536Y-99100293D01*
X104848739Y-99245749D01*
X104853191Y-99248351D01*
X104853196Y-99248354D01*
X105009826Y-99339881D01*
X105045347Y-99360638D01*
X105258079Y-99441872D01*
X105263145Y-99442903D01*
X105263146Y-99442903D01*
X105312519Y-99452948D01*
X105481222Y-99487271D01*
X105684869Y-99494739D01*
X105752210Y-99517224D01*
X105796706Y-99572547D01*
X105804228Y-99643144D01*
X105769346Y-99709749D01*
X105063997Y-100415098D01*
X105055711Y-100422638D01*
X105049232Y-100426750D01*
X105043807Y-100432527D01*
X105002607Y-100476401D01*
X104999852Y-100479243D01*
X104980115Y-100498980D01*
X104977635Y-100502177D01*
X104969932Y-100511197D01*
X104939664Y-100543429D01*
X104935845Y-100550375D01*
X104935843Y-100550378D01*
X104929902Y-100561184D01*
X104919051Y-100577703D01*
X104906636Y-100593709D01*
X104903491Y-100600978D01*
X104903488Y-100600982D01*
X104889076Y-100634287D01*
X104883859Y-100644937D01*
X104862555Y-100683690D01*
X104860584Y-100691365D01*
X104860584Y-100691366D01*
X104857517Y-100703312D01*
X104851113Y-100722016D01*
X104843069Y-100740605D01*
X104841830Y-100748428D01*
X104841827Y-100748438D01*
X104836151Y-100784274D01*
X104833745Y-100795894D01*
X104822750Y-100838720D01*
X104822750Y-100858974D01*
X104821199Y-100878684D01*
X104818030Y-100898693D01*
X104818776Y-100906585D01*
X104822191Y-100942711D01*
X104822750Y-100954569D01*
X104822750Y-101803000D01*
X104802748Y-101871121D01*
X104749092Y-101917614D01*
X104696750Y-101929000D01*
X104508116Y-101929000D01*
X104445934Y-101935755D01*
X104309545Y-101986885D01*
X104192989Y-102074239D01*
X104105635Y-102190795D01*
X104054505Y-102327184D01*
X104047750Y-102389366D01*
X104047750Y-103760405D01*
X104027748Y-103828526D01*
X104010845Y-103849500D01*
X103755750Y-104104595D01*
X103693438Y-104138621D01*
X103666655Y-104141500D01*
X100327095Y-104141500D01*
X100258974Y-104121498D01*
X100237999Y-104104595D01*
X100032904Y-103899499D01*
X99998879Y-103837187D01*
X99996000Y-103810404D01*
X99996000Y-96103250D01*
X100016002Y-96035129D01*
X100069658Y-95988636D01*
X100122000Y-95977250D01*
X100160634Y-95977250D01*
X100222816Y-95970495D01*
X100359205Y-95919365D01*
X100475761Y-95832011D01*
X100563115Y-95715455D01*
X100614245Y-95579066D01*
X100621000Y-95516884D01*
X100621000Y-93620616D01*
X100614245Y-93558434D01*
X100563115Y-93422045D01*
X100475761Y-93305489D01*
X100359205Y-93218135D01*
X100222816Y-93167005D01*
X100160634Y-93160250D01*
X98564366Y-93160250D01*
X98502184Y-93167005D01*
X98365795Y-93218135D01*
X98249239Y-93305489D01*
X98161885Y-93422045D01*
X98110755Y-93558434D01*
X98104000Y-93620616D01*
X98104000Y-95516884D01*
X98110755Y-95579066D01*
X98161885Y-95715455D01*
X98249239Y-95832011D01*
X98365795Y-95919365D01*
X98502184Y-95970495D01*
X98564366Y-95977250D01*
X98603000Y-95977250D01*
X98671121Y-95997252D01*
X98717614Y-96050908D01*
X98729000Y-96103250D01*
X98729000Y-104046233D01*
X98728473Y-104057416D01*
X98726798Y-104064909D01*
X98727047Y-104072835D01*
X98727047Y-104072836D01*
X98728938Y-104132986D01*
X98729000Y-104136945D01*
X98729000Y-104164856D01*
X98729497Y-104168790D01*
X98729497Y-104168791D01*
X98729505Y-104168856D01*
X98730438Y-104180693D01*
X98731827Y-104224889D01*
X98737478Y-104244339D01*
X98741487Y-104263700D01*
X98744026Y-104283797D01*
X98746945Y-104291168D01*
X98746945Y-104291170D01*
X98760304Y-104324912D01*
X98764149Y-104336142D01*
X98776482Y-104378593D01*
X98780515Y-104385412D01*
X98780517Y-104385417D01*
X98786793Y-104396028D01*
X98795488Y-104413776D01*
X98802948Y-104432617D01*
X98807610Y-104439033D01*
X98807610Y-104439034D01*
X98828936Y-104468387D01*
X98835452Y-104478307D01*
X98857958Y-104516362D01*
X98872279Y-104530683D01*
X98885119Y-104545716D01*
X98897028Y-104562107D01*
X98928913Y-104588484D01*
X98931093Y-104590288D01*
X98939874Y-104598278D01*
X99508853Y-105167258D01*
X99516387Y-105175537D01*
X99520500Y-105182018D01*
X99541595Y-105201827D01*
X99570151Y-105228643D01*
X99572993Y-105231398D01*
X99592730Y-105251135D01*
X99595927Y-105253615D01*
X99604947Y-105261318D01*
X99637179Y-105291586D01*
X99644125Y-105295405D01*
X99644128Y-105295407D01*
X99654934Y-105301348D01*
X99671453Y-105312199D01*
X99687459Y-105324614D01*
X99694728Y-105327759D01*
X99694732Y-105327762D01*
X99728037Y-105342174D01*
X99738687Y-105347391D01*
X99777440Y-105368695D01*
X99785115Y-105370666D01*
X99785116Y-105370666D01*
X99797062Y-105373733D01*
X99815767Y-105380137D01*
X99834355Y-105388181D01*
X99842178Y-105389420D01*
X99842188Y-105389423D01*
X99878024Y-105395099D01*
X99889644Y-105397505D01*
X99921459Y-105405673D01*
X99932470Y-105408500D01*
X99952724Y-105408500D01*
X99972434Y-105410051D01*
X99992443Y-105413220D01*
X100000335Y-105412474D01*
X100019080Y-105410702D01*
X100036462Y-105409059D01*
X100048319Y-105408500D01*
X103902483Y-105408500D01*
X103913666Y-105409027D01*
X103921159Y-105410702D01*
X103929085Y-105410453D01*
X103929086Y-105410453D01*
X103989236Y-105408562D01*
X103993195Y-105408500D01*
X122952483Y-105408500D01*
X122963666Y-105409027D01*
X122971159Y-105410702D01*
X122979085Y-105410453D01*
X122979086Y-105410453D01*
X123039236Y-105408562D01*
X123043195Y-105408500D01*
X142002483Y-105408500D01*
X142013666Y-105409027D01*
X142021159Y-105410702D01*
X142029085Y-105410453D01*
X142029086Y-105410453D01*
X142089236Y-105408562D01*
X142093195Y-105408500D01*
X160939983Y-105408500D01*
X160951166Y-105409027D01*
X160958659Y-105410702D01*
X160966585Y-105410453D01*
X160966586Y-105410453D01*
X161026736Y-105408562D01*
X161030695Y-105408500D01*
X161058606Y-105408500D01*
X161062541Y-105408003D01*
X161062606Y-105407995D01*
X161074443Y-105407062D01*
X161106701Y-105406048D01*
X161110720Y-105405922D01*
X161118639Y-105405673D01*
X161138093Y-105400021D01*
X161157450Y-105396013D01*
X161169680Y-105394468D01*
X161169681Y-105394468D01*
X161177547Y-105393474D01*
X161184918Y-105390555D01*
X161184920Y-105390555D01*
X161218662Y-105377196D01*
X161229892Y-105373351D01*
X161264733Y-105363229D01*
X161264734Y-105363229D01*
X161272343Y-105361018D01*
X161279162Y-105356985D01*
X161279167Y-105356983D01*
X161289778Y-105350707D01*
X161307526Y-105342012D01*
X161326367Y-105334552D01*
X161362137Y-105308564D01*
X161372057Y-105302048D01*
X161403285Y-105283580D01*
X161403288Y-105283578D01*
X161410112Y-105279542D01*
X161424433Y-105265221D01*
X161439467Y-105252380D01*
X161449444Y-105245131D01*
X161455857Y-105240472D01*
X161484048Y-105206395D01*
X161492038Y-105197616D01*
X162206749Y-104482905D01*
X162269061Y-104448879D01*
X162295844Y-104446000D01*
X163554384Y-104446000D01*
X163616566Y-104439245D01*
X163752955Y-104388115D01*
X163869511Y-104300761D01*
X163956865Y-104184205D01*
X164007995Y-104047816D01*
X164014750Y-103985634D01*
X164014750Y-102389366D01*
X164007995Y-102327184D01*
X163956865Y-102190795D01*
X163869511Y-102074239D01*
X163752955Y-101986885D01*
X163616566Y-101935755D01*
X163554384Y-101929000D01*
X161658116Y-101929000D01*
X161595934Y-101935755D01*
X161459545Y-101986885D01*
X161342989Y-102074239D01*
X161255635Y-102190795D01*
X161204505Y-102327184D01*
X161197750Y-102389366D01*
X161197750Y-103647905D01*
X161177748Y-103716026D01*
X161160845Y-103737000D01*
X160793250Y-104104595D01*
X160730938Y-104138621D01*
X160704155Y-104141500D01*
X148488247Y-104141500D01*
X148420126Y-104121498D01*
X148373633Y-104067842D01*
X148362984Y-104001893D01*
X148364381Y-103989033D01*
X148364381Y-103989029D01*
X148364750Y-103985634D01*
X148364750Y-103947000D01*
X148384752Y-103878879D01*
X148438408Y-103832386D01*
X148490750Y-103821000D01*
X149607968Y-103821000D01*
X149619151Y-103821527D01*
X149626644Y-103823202D01*
X149634570Y-103822953D01*
X149634571Y-103822953D01*
X149694721Y-103821062D01*
X149698680Y-103821000D01*
X149726591Y-103821000D01*
X149730526Y-103820503D01*
X149730591Y-103820495D01*
X149742428Y-103819562D01*
X149774686Y-103818548D01*
X149778705Y-103818422D01*
X149786624Y-103818173D01*
X149806078Y-103812521D01*
X149825435Y-103808513D01*
X149837665Y-103806968D01*
X149837666Y-103806968D01*
X149845532Y-103805974D01*
X149852903Y-103803055D01*
X149852905Y-103803055D01*
X149886647Y-103789696D01*
X149897877Y-103785851D01*
X149932718Y-103775729D01*
X149932719Y-103775729D01*
X149940328Y-103773518D01*
X149947147Y-103769485D01*
X149947152Y-103769483D01*
X149957763Y-103763207D01*
X149975511Y-103754512D01*
X149994352Y-103747052D01*
X150030122Y-103721064D01*
X150040042Y-103714548D01*
X150071270Y-103696080D01*
X150071273Y-103696078D01*
X150078097Y-103692042D01*
X150092418Y-103677721D01*
X150107452Y-103664880D01*
X150117429Y-103657631D01*
X150123842Y-103652972D01*
X150152033Y-103618895D01*
X150160023Y-103610116D01*
X162085997Y-91684142D01*
X162094287Y-91676598D01*
X162100768Y-91672485D01*
X162106197Y-91666704D01*
X162129827Y-91641541D01*
X162186178Y-91606897D01*
X162248514Y-91588593D01*
X162257161Y-91586054D01*
X162312489Y-91550497D01*
X162372591Y-91511872D01*
X162372594Y-91511870D01*
X162380171Y-91507000D01*
X162425549Y-91454631D01*
X162470024Y-91403305D01*
X162470026Y-91403302D01*
X162475926Y-91396493D01*
X162536669Y-91263484D01*
X162557479Y-91118750D01*
X162557479Y-89618750D01*
X162554904Y-89582749D01*
X162552732Y-89552372D01*
X162552731Y-89552368D01*
X162552250Y-89545639D01*
X162550348Y-89539160D01*
X162549610Y-89535073D01*
X162557197Y-89464483D01*
X162601744Y-89409201D01*
X162669107Y-89386778D01*
X162737898Y-89404335D01*
X162773209Y-89436509D01*
X162773460Y-89436944D01*
X162862996Y-89536384D01*
X162890096Y-89566481D01*
X162901247Y-89578866D01*
X162959249Y-89621007D01*
X163035506Y-89676411D01*
X163055748Y-89691118D01*
X163061776Y-89693802D01*
X163061778Y-89693803D01*
X163224181Y-89766109D01*
X163230212Y-89768794D01*
X163323612Y-89788647D01*
X163410556Y-89807128D01*
X163410561Y-89807128D01*
X163417013Y-89808500D01*
X163607987Y-89808500D01*
X163614439Y-89807128D01*
X163614444Y-89807128D01*
X163701387Y-89788647D01*
X163794788Y-89768794D01*
X163800819Y-89766109D01*
X163963222Y-89693803D01*
X163963224Y-89693802D01*
X163969252Y-89691118D01*
X163989495Y-89676411D01*
X164065751Y-89621007D01*
X164123753Y-89578866D01*
X164133297Y-89568266D01*
X164247121Y-89441852D01*
X164247122Y-89441851D01*
X164251540Y-89436944D01*
X164320743Y-89317081D01*
X164343723Y-89277279D01*
X164343724Y-89277278D01*
X164347027Y-89271556D01*
X164404265Y-89095398D01*
X164444337Y-89036793D01*
X164509734Y-89009156D01*
X164548894Y-89012518D01*
X164549016Y-89011669D01*
X164692864Y-89032352D01*
X164692865Y-89032352D01*
X164693750Y-89032479D01*
X164693722Y-89032671D01*
X164758528Y-89056844D01*
X164801073Y-89113680D01*
X164805104Y-89126552D01*
X164815003Y-89165338D01*
X164817737Y-89171938D01*
X164819119Y-89175277D01*
X164819124Y-89175287D01*
X164830855Y-89203609D01*
X164837669Y-89216087D01*
X164877979Y-89289909D01*
X164883497Y-89300015D01*
X164983137Y-89407034D01*
X165108891Y-89481645D01*
X165147160Y-89497496D01*
X165182010Y-89507729D01*
X165244966Y-89526215D01*
X165244969Y-89526216D01*
X165252528Y-89528435D01*
X165353697Y-89532050D01*
X165353542Y-89536384D01*
X165353697Y-89536370D01*
X165353697Y-89532479D01*
X165363454Y-89532479D01*
X165367953Y-89532559D01*
X165398657Y-89533656D01*
X165402978Y-89532553D01*
X165404363Y-89532479D01*
X166402424Y-89532479D01*
X166470545Y-89552481D01*
X166517038Y-89606137D01*
X166527142Y-89676411D01*
X166521289Y-89698108D01*
X166521897Y-89698306D01*
X166520537Y-89702491D01*
X166518888Y-89706573D01*
X166517823Y-89710846D01*
X166517822Y-89710848D01*
X166469293Y-89905489D01*
X166450933Y-89979125D01*
X166450474Y-89983493D01*
X166450473Y-89983498D01*
X166424328Y-90232262D01*
X166421572Y-90258482D01*
X166421725Y-90262870D01*
X166421725Y-90262876D01*
X166431019Y-90529000D01*
X166431375Y-90539207D01*
X166432137Y-90543530D01*
X166432138Y-90543537D01*
X166458829Y-90694906D01*
X166480152Y-90815836D01*
X166566953Y-91082984D01*
X166568881Y-91086937D01*
X166568883Y-91086942D01*
X166584236Y-91118419D01*
X166690090Y-91335451D01*
X166739271Y-91408365D01*
X166760780Y-91476022D01*
X166742296Y-91544570D01*
X166686561Y-91593703D01*
X166500675Y-91677438D01*
X166309431Y-91806191D01*
X166305574Y-91809870D01*
X166305572Y-91809872D01*
X166259647Y-91853683D01*
X166142615Y-91965326D01*
X166004996Y-92150292D01*
X166002580Y-92155043D01*
X166002578Y-92155047D01*
X165968566Y-92221944D01*
X165900510Y-92355801D01*
X165898928Y-92360895D01*
X165898927Y-92360898D01*
X165853203Y-92508154D01*
X165832143Y-92575977D01*
X165831442Y-92581266D01*
X165802667Y-92798376D01*
X165801852Y-92804524D01*
X165810501Y-93034908D01*
X165857843Y-93260541D01*
X165859801Y-93265500D01*
X165859802Y-93265502D01*
X165883730Y-93326090D01*
X165942526Y-93474971D01*
X165945293Y-93479530D01*
X165945294Y-93479533D01*
X166010633Y-93587208D01*
X166062127Y-93672067D01*
X166065624Y-93676097D01*
X166209528Y-93841932D01*
X166213227Y-93846195D01*
X166217358Y-93849582D01*
X166387377Y-93988990D01*
X166387383Y-93988994D01*
X166391505Y-93992374D01*
X166396141Y-93995013D01*
X166396144Y-93995015D01*
X166554552Y-94085186D01*
X166591864Y-94106425D01*
X166808575Y-94185087D01*
X166813824Y-94186036D01*
X166813827Y-94186037D01*
X167031358Y-94225373D01*
X167031365Y-94225374D01*
X167035442Y-94226111D01*
X167053164Y-94226947D01*
X167058106Y-94227180D01*
X167058113Y-94227180D01*
X167059594Y-94227250D01*
X167221640Y-94227250D01*
X167294544Y-94221064D01*
X167388159Y-94213121D01*
X167388163Y-94213120D01*
X167393470Y-94212670D01*
X167398625Y-94211332D01*
X167398631Y-94211331D01*
X167611453Y-94156093D01*
X167611457Y-94156092D01*
X167616622Y-94154751D01*
X167621488Y-94152559D01*
X167621491Y-94152558D01*
X167771051Y-94085186D01*
X167826825Y-94060062D01*
X168018069Y-93931309D01*
X168029415Y-93920486D01*
X168150551Y-93804927D01*
X168184885Y-93772174D01*
X168203341Y-93747369D01*
X168282012Y-93641631D01*
X168322504Y-93587208D01*
X168333140Y-93566290D01*
X168406981Y-93421054D01*
X168426990Y-93381699D01*
X168440024Y-93339725D01*
X168493774Y-93166621D01*
X168495357Y-93161523D01*
X168504568Y-93092027D01*
X168524948Y-92938261D01*
X168524948Y-92938256D01*
X168525648Y-92932976D01*
X168516999Y-92702592D01*
X168490623Y-92576881D01*
X168470948Y-92483112D01*
X168476536Y-92412335D01*
X168519501Y-92355815D01*
X168585473Y-92331545D01*
X168631281Y-92328342D01*
X168713962Y-92322560D01*
X168988720Y-92264158D01*
X168992849Y-92262655D01*
X168992853Y-92262654D01*
X169248531Y-92169595D01*
X169248535Y-92169593D01*
X169252676Y-92168086D01*
X169500692Y-92036213D01*
X169504253Y-92033626D01*
X169675867Y-91908942D01*
X169742735Y-91885083D01*
X169811887Y-91901164D01*
X169861367Y-91952078D01*
X169875466Y-92021661D01*
X169867080Y-92057261D01*
X169853307Y-92092048D01*
X169774810Y-92397775D01*
X169735250Y-92710929D01*
X169735250Y-93026571D01*
X169774810Y-93339725D01*
X169853307Y-93645452D01*
X169854760Y-93649121D01*
X169854760Y-93649122D01*
X169966657Y-93931740D01*
X169969503Y-93938929D01*
X169971409Y-93942397D01*
X169971410Y-93942398D01*
X170116916Y-94207070D01*
X170121566Y-94215529D01*
X170307096Y-94470890D01*
X170474667Y-94649335D01*
X170515700Y-94693030D01*
X170523168Y-94700983D01*
X170766375Y-94902182D01*
X171032881Y-95071312D01*
X171036460Y-95072996D01*
X171036467Y-95073000D01*
X171314894Y-95204017D01*
X171314898Y-95204019D01*
X171318484Y-95205706D01*
X171618678Y-95303245D01*
X171928730Y-95362391D01*
X172164912Y-95377250D01*
X172322588Y-95377250D01*
X172558770Y-95362391D01*
X172868822Y-95303245D01*
X173169016Y-95205706D01*
X173172602Y-95204019D01*
X173172606Y-95204017D01*
X173451033Y-95073000D01*
X173451040Y-95072996D01*
X173454619Y-95071312D01*
X173721125Y-94902182D01*
X173964332Y-94700983D01*
X173971801Y-94693030D01*
X174012833Y-94649335D01*
X174180404Y-94470890D01*
X174365934Y-94215529D01*
X174370585Y-94207070D01*
X174516090Y-93942398D01*
X174516091Y-93942397D01*
X174517997Y-93938929D01*
X174520844Y-93931740D01*
X174632740Y-93649122D01*
X174632740Y-93649121D01*
X174634193Y-93645452D01*
X174712690Y-93339725D01*
X174752250Y-93026571D01*
X174752250Y-92710929D01*
X174712690Y-92397775D01*
X174634193Y-92092048D01*
X174632740Y-92088377D01*
X174632736Y-92088366D01*
X174620338Y-92057051D01*
X174613859Y-91986351D01*
X174646632Y-91923371D01*
X174708252Y-91888108D01*
X174779155Y-91891757D01*
X174818480Y-91914147D01*
X174827839Y-91922000D01*
X174866928Y-91954800D01*
X174866932Y-91954803D01*
X174870300Y-91957629D01*
X175108514Y-92106481D01*
X175365125Y-92220732D01*
X175369353Y-92221944D01*
X175369352Y-92221944D01*
X175510890Y-92262529D01*
X175635140Y-92298157D01*
X175639490Y-92298768D01*
X175639493Y-92298769D01*
X175913136Y-92337227D01*
X175977810Y-92366515D01*
X176016383Y-92426119D01*
X176015932Y-92499364D01*
X175992143Y-92575977D01*
X175991442Y-92581266D01*
X175962667Y-92798376D01*
X175961852Y-92804524D01*
X175970501Y-93034908D01*
X176017843Y-93260541D01*
X176019801Y-93265500D01*
X176019802Y-93265502D01*
X176043730Y-93326090D01*
X176102526Y-93474971D01*
X176105293Y-93479530D01*
X176105294Y-93479533D01*
X176170633Y-93587208D01*
X176222127Y-93672067D01*
X176225624Y-93676097D01*
X176369528Y-93841932D01*
X176373227Y-93846195D01*
X176377358Y-93849582D01*
X176547377Y-93988990D01*
X176547383Y-93988994D01*
X176551505Y-93992374D01*
X176716613Y-94086359D01*
X176765918Y-94137440D01*
X176779780Y-94207070D01*
X176753797Y-94273141D01*
X176743375Y-94284955D01*
X168511235Y-102517095D01*
X168448923Y-102551121D01*
X168422140Y-102554000D01*
X167540750Y-102554000D01*
X167472629Y-102533998D01*
X167426136Y-102480342D01*
X167414750Y-102428000D01*
X167414750Y-102389366D01*
X167407995Y-102327184D01*
X167356865Y-102190795D01*
X167269511Y-102074239D01*
X167152955Y-101986885D01*
X167016566Y-101935755D01*
X166954384Y-101929000D01*
X165058116Y-101929000D01*
X164995934Y-101935755D01*
X164859545Y-101986885D01*
X164742989Y-102074239D01*
X164655635Y-102190795D01*
X164604505Y-102327184D01*
X164597750Y-102389366D01*
X164597750Y-103985634D01*
X164604505Y-104047816D01*
X164655635Y-104184205D01*
X164742989Y-104300761D01*
X164859545Y-104388115D01*
X164995934Y-104439245D01*
X165058116Y-104446000D01*
X166954384Y-104446000D01*
X167016566Y-104439245D01*
X167152955Y-104388115D01*
X167269511Y-104300761D01*
X167356865Y-104184205D01*
X167407995Y-104047816D01*
X167414750Y-103985634D01*
X167414750Y-103947000D01*
X167434752Y-103878879D01*
X167488408Y-103832386D01*
X167540750Y-103821000D01*
X168657968Y-103821000D01*
X168669151Y-103821527D01*
X168676644Y-103823202D01*
X168684570Y-103822953D01*
X168684571Y-103822953D01*
X168744721Y-103821062D01*
X168748680Y-103821000D01*
X168776591Y-103821000D01*
X168780526Y-103820503D01*
X168780591Y-103820495D01*
X168792428Y-103819562D01*
X168824686Y-103818548D01*
X168828705Y-103818422D01*
X168836624Y-103818173D01*
X168856078Y-103812521D01*
X168875435Y-103808513D01*
X168887665Y-103806968D01*
X168887666Y-103806968D01*
X168895532Y-103805974D01*
X168902903Y-103803055D01*
X168902905Y-103803055D01*
X168936647Y-103789696D01*
X168947877Y-103785851D01*
X168982718Y-103775729D01*
X168982719Y-103775729D01*
X168990328Y-103773518D01*
X168997147Y-103769485D01*
X168997152Y-103769483D01*
X169007763Y-103763207D01*
X169025511Y-103754512D01*
X169044352Y-103747052D01*
X169080122Y-103721064D01*
X169090042Y-103714548D01*
X169121270Y-103696080D01*
X169121273Y-103696078D01*
X169128097Y-103692042D01*
X169142418Y-103677721D01*
X169157452Y-103664880D01*
X169167429Y-103657631D01*
X169173842Y-103652972D01*
X169202033Y-103618895D01*
X169210023Y-103610116D01*
X181135997Y-91684142D01*
X181144287Y-91676598D01*
X181150768Y-91672485D01*
X181156197Y-91666704D01*
X181179827Y-91641541D01*
X181236178Y-91606897D01*
X181298514Y-91588593D01*
X181307161Y-91586054D01*
X181362489Y-91550497D01*
X181422591Y-91511872D01*
X181422594Y-91511870D01*
X181430171Y-91507000D01*
X181475549Y-91454631D01*
X181520024Y-91403305D01*
X181520026Y-91403302D01*
X181525926Y-91396493D01*
X181586669Y-91263484D01*
X181607479Y-91118750D01*
X181607479Y-89618750D01*
X181604064Y-89571000D01*
X181602732Y-89552377D01*
X181602732Y-89552376D01*
X181602250Y-89545639D01*
X181578420Y-89464483D01*
X181563593Y-89413985D01*
X181563592Y-89413983D01*
X181561054Y-89405339D01*
X181535785Y-89366020D01*
X181486872Y-89289909D01*
X181486870Y-89289906D01*
X181482000Y-89282329D01*
X181462314Y-89265271D01*
X181378307Y-89192478D01*
X181378305Y-89192477D01*
X181371493Y-89186574D01*
X181334027Y-89169464D01*
X181284436Y-89128914D01*
X181277317Y-89119116D01*
X181270798Y-89109193D01*
X181252330Y-89077965D01*
X181252328Y-89077962D01*
X181248292Y-89071138D01*
X181233971Y-89056817D01*
X181221130Y-89041783D01*
X181214046Y-89032032D01*
X181209222Y-89025393D01*
X181175151Y-88997207D01*
X181166372Y-88989218D01*
X181128372Y-88951218D01*
X181094346Y-88888906D01*
X181092157Y-88875293D01*
X181075482Y-88716635D01*
X181075482Y-88716633D01*
X181074792Y-88710072D01*
X181015777Y-88528444D01*
X180920290Y-88363056D01*
X180915722Y-88357982D01*
X180796925Y-88226045D01*
X180796924Y-88226044D01*
X180792503Y-88221134D01*
X180638002Y-88108882D01*
X180631974Y-88106198D01*
X180631972Y-88106197D01*
X180469569Y-88033891D01*
X180469568Y-88033891D01*
X180463538Y-88031206D01*
X180370137Y-88011353D01*
X180283194Y-87992872D01*
X180283189Y-87992872D01*
X180276737Y-87991500D01*
X180085763Y-87991500D01*
X180079311Y-87992872D01*
X180079306Y-87992872D01*
X179992362Y-88011353D01*
X179898962Y-88031206D01*
X179892932Y-88033891D01*
X179892931Y-88033891D01*
X179730528Y-88106197D01*
X179730526Y-88106198D01*
X179724498Y-88108882D01*
X179569997Y-88221134D01*
X179565576Y-88226044D01*
X179565575Y-88226045D01*
X179446779Y-88357982D01*
X179442210Y-88363056D01*
X179414572Y-88410926D01*
X179384122Y-88463668D01*
X179346723Y-88528444D01*
X179345798Y-88531291D01*
X179300685Y-88584366D01*
X179231559Y-88605021D01*
X177953697Y-88605021D01*
X177953697Y-88604916D01*
X177945983Y-88605885D01*
X177920293Y-88604968D01*
X177888843Y-88603844D01*
X177747162Y-88640003D01*
X177737215Y-88644123D01*
X177737213Y-88644124D01*
X177708891Y-88655855D01*
X177673498Y-88675181D01*
X177619405Y-88704718D01*
X177619403Y-88704720D01*
X177612485Y-88708497D01*
X177606714Y-88713870D01*
X177520985Y-88793688D01*
X177457499Y-88825468D01*
X177386909Y-88817879D01*
X177354136Y-88797992D01*
X177257179Y-88716635D01*
X177240572Y-88702700D01*
X177240568Y-88702697D01*
X177237200Y-88699871D01*
X176998986Y-88551019D01*
X176793771Y-88459651D01*
X176739675Y-88413671D01*
X176719026Y-88345743D01*
X176722763Y-88314062D01*
X176765503Y-88142643D01*
X176765504Y-88142638D01*
X176766567Y-88138374D01*
X176777549Y-88033891D01*
X176795469Y-87863386D01*
X176795469Y-87863383D01*
X176795928Y-87859017D01*
X176790105Y-87692262D01*
X176786279Y-87582689D01*
X176786278Y-87582683D01*
X176786125Y-87578292D01*
X176762358Y-87443499D01*
X176738110Y-87305986D01*
X176737348Y-87301663D01*
X176650547Y-87034515D01*
X176642387Y-87017783D01*
X176572266Y-86874016D01*
X176527410Y-86782048D01*
X176524955Y-86778409D01*
X176524952Y-86778403D01*
X176449593Y-86666679D01*
X176370335Y-86549174D01*
X176335751Y-86510764D01*
X176210951Y-86372160D01*
X176182379Y-86340428D01*
X175967200Y-86159871D01*
X175728986Y-86011019D01*
X175472375Y-85896768D01*
X175202360Y-85819343D01*
X175198010Y-85818732D01*
X175198007Y-85818731D01*
X175091531Y-85803767D01*
X174924198Y-85780250D01*
X174713604Y-85780250D01*
X174711418Y-85780403D01*
X174711414Y-85780403D01*
X174507923Y-85794632D01*
X174507918Y-85794633D01*
X174503538Y-85794939D01*
X174228780Y-85853341D01*
X174224651Y-85854844D01*
X174224647Y-85854845D01*
X173968969Y-85947904D01*
X173968965Y-85947906D01*
X173964824Y-85949413D01*
X173716808Y-86081286D01*
X173713249Y-86083872D01*
X173713247Y-86083873D01*
X173494988Y-86242447D01*
X173489558Y-86246392D01*
X173486394Y-86249448D01*
X173486391Y-86249450D01*
X173476098Y-86259390D01*
X173287498Y-86441519D01*
X173114562Y-86662868D01*
X173112366Y-86666672D01*
X173112361Y-86666679D01*
X173021415Y-86824203D01*
X172974114Y-86906131D01*
X172868888Y-87166574D01*
X172867823Y-87170847D01*
X172867822Y-87170849D01*
X172834129Y-87305986D01*
X172800933Y-87439126D01*
X172800474Y-87443494D01*
X172800473Y-87443499D01*
X172774868Y-87687125D01*
X172771572Y-87718483D01*
X172771725Y-87722871D01*
X172771725Y-87722877D01*
X172781154Y-87992872D01*
X172781375Y-87999208D01*
X172782137Y-88003531D01*
X172782138Y-88003538D01*
X172805447Y-88135728D01*
X172830152Y-88275837D01*
X172916953Y-88542985D01*
X172918881Y-88546938D01*
X172918883Y-88546943D01*
X172966282Y-88644124D01*
X173040090Y-88795452D01*
X173042545Y-88799091D01*
X173042548Y-88799097D01*
X173093943Y-88875293D01*
X173197165Y-89028326D01*
X173200110Y-89031597D01*
X173200111Y-89031598D01*
X173268199Y-89107217D01*
X173385121Y-89237072D01*
X173600300Y-89417629D01*
X173838514Y-89566481D01*
X173950858Y-89616500D01*
X174043729Y-89657849D01*
X174097825Y-89703829D01*
X174118474Y-89771757D01*
X174114737Y-89803438D01*
X174071998Y-89974856D01*
X174070933Y-89979126D01*
X174070474Y-89983494D01*
X174070473Y-89983499D01*
X174045193Y-90224033D01*
X174041572Y-90258483D01*
X174041725Y-90262871D01*
X174041725Y-90262877D01*
X174051019Y-90529000D01*
X174051375Y-90539208D01*
X174100152Y-90815837D01*
X174101510Y-90820015D01*
X174114123Y-90858836D01*
X174116150Y-90929804D01*
X174079488Y-90990602D01*
X174015775Y-91021927D01*
X173945241Y-91013833D01*
X173913974Y-90994857D01*
X173802976Y-90903031D01*
X173721125Y-90835318D01*
X173477781Y-90680887D01*
X173457966Y-90668312D01*
X173457965Y-90668312D01*
X173454619Y-90666188D01*
X173451040Y-90664504D01*
X173451033Y-90664500D01*
X173172606Y-90533483D01*
X173172602Y-90533481D01*
X173169016Y-90531794D01*
X173125375Y-90517614D01*
X172872598Y-90435482D01*
X172872600Y-90435482D01*
X172868822Y-90434255D01*
X172558770Y-90375109D01*
X172322588Y-90360250D01*
X172164912Y-90360250D01*
X171928730Y-90375109D01*
X171618678Y-90434255D01*
X171614900Y-90435482D01*
X171614902Y-90435482D01*
X171362126Y-90517614D01*
X171318484Y-90531794D01*
X171314898Y-90533481D01*
X171314894Y-90533483D01*
X171036467Y-90664500D01*
X171036460Y-90664504D01*
X171032881Y-90666188D01*
X171029535Y-90668312D01*
X171029534Y-90668312D01*
X171009719Y-90680887D01*
X170766375Y-90835318D01*
X170763323Y-90837843D01*
X170571651Y-90996408D01*
X170506413Y-91024418D01*
X170436388Y-91012711D01*
X170383808Y-90965004D01*
X170365368Y-90896445D01*
X170369078Y-90868841D01*
X170415503Y-90682642D01*
X170415504Y-90682637D01*
X170416567Y-90678373D01*
X170417625Y-90668312D01*
X170445469Y-90403385D01*
X170445469Y-90403382D01*
X170445928Y-90399016D01*
X170445775Y-90394622D01*
X170436279Y-90122688D01*
X170436278Y-90122682D01*
X170436125Y-90118291D01*
X170432246Y-90096287D01*
X170398602Y-89905489D01*
X170387348Y-89841662D01*
X170377829Y-89812365D01*
X170377204Y-89810440D01*
X170375177Y-89739472D01*
X170411840Y-89678675D01*
X170453943Y-89653104D01*
X170518532Y-89629596D01*
X170518541Y-89629592D01*
X170522676Y-89628087D01*
X170770692Y-89496214D01*
X170790745Y-89481645D01*
X170994379Y-89333697D01*
X170994382Y-89333694D01*
X170997942Y-89331108D01*
X171011735Y-89317789D01*
X171133048Y-89200638D01*
X171200002Y-89135981D01*
X171372938Y-88914632D01*
X171375134Y-88910828D01*
X171375139Y-88910821D01*
X171511185Y-88675181D01*
X171513386Y-88671369D01*
X171618612Y-88410926D01*
X171629359Y-88367822D01*
X171685503Y-88142643D01*
X171685504Y-88142638D01*
X171686567Y-88138374D01*
X171697549Y-88033891D01*
X171715469Y-87863386D01*
X171715469Y-87863383D01*
X171715928Y-87859017D01*
X171710105Y-87692262D01*
X171706279Y-87582689D01*
X171706278Y-87582683D01*
X171706125Y-87578292D01*
X171682358Y-87443499D01*
X171658110Y-87305986D01*
X171657348Y-87301663D01*
X171570547Y-87034515D01*
X171562387Y-87017783D01*
X171492266Y-86874016D01*
X171447410Y-86782048D01*
X171444955Y-86778409D01*
X171444952Y-86778403D01*
X171369593Y-86666679D01*
X171290335Y-86549174D01*
X171255751Y-86510764D01*
X171130951Y-86372160D01*
X171102379Y-86340428D01*
X170887200Y-86159871D01*
X170648986Y-86011019D01*
X170392375Y-85896768D01*
X170122360Y-85819343D01*
X170118010Y-85818732D01*
X170118007Y-85818731D01*
X170011531Y-85803767D01*
X169844198Y-85780250D01*
X169633604Y-85780250D01*
X169631418Y-85780403D01*
X169631414Y-85780403D01*
X169427923Y-85794632D01*
X169427918Y-85794633D01*
X169423538Y-85794939D01*
X169148780Y-85853341D01*
X169144651Y-85854844D01*
X169144647Y-85854845D01*
X168888969Y-85947904D01*
X168888965Y-85947906D01*
X168884824Y-85949413D01*
X168636808Y-86081286D01*
X168633249Y-86083872D01*
X168633247Y-86083873D01*
X168414988Y-86242447D01*
X168409558Y-86246392D01*
X168406394Y-86249448D01*
X168406391Y-86249450D01*
X168396098Y-86259390D01*
X168333201Y-86292321D01*
X168262485Y-86286021D01*
X168206965Y-86242909D01*
X168204004Y-86237485D01*
X168104364Y-86130467D01*
X168096622Y-86125873D01*
X168096620Y-86125872D01*
X167982472Y-86058147D01*
X167978609Y-86055855D01*
X167950287Y-86044124D01*
X167950285Y-86044123D01*
X167943458Y-86041295D01*
X167943453Y-86041293D01*
X167940338Y-86040003D01*
X167937102Y-86039053D01*
X167937094Y-86039050D01*
X167842534Y-86011285D01*
X167842531Y-86011285D01*
X167834972Y-86009065D01*
X167733803Y-86005450D01*
X167733958Y-86001116D01*
X167733803Y-86001130D01*
X167733803Y-86005021D01*
X167724046Y-86005021D01*
X167719547Y-86004941D01*
X167718847Y-86004916D01*
X167688843Y-86003844D01*
X167684522Y-86004947D01*
X167683137Y-86005021D01*
X165353697Y-86005021D01*
X165353697Y-86004916D01*
X165345983Y-86005885D01*
X165320293Y-86004968D01*
X165288843Y-86003844D01*
X165147162Y-86040003D01*
X165137215Y-86044123D01*
X165137213Y-86044124D01*
X165108891Y-86055855D01*
X165105932Y-86057471D01*
X165019405Y-86104718D01*
X165019403Y-86104720D01*
X165012485Y-86108497D01*
X165006714Y-86113870D01*
X164996726Y-86123169D01*
X164905466Y-86208137D01*
X164830855Y-86333891D01*
X164815004Y-86372160D01*
X164814052Y-86375403D01*
X164814050Y-86375408D01*
X164802404Y-86415072D01*
X164764021Y-86474799D01*
X164699441Y-86504292D01*
X164690503Y-86505253D01*
X164620639Y-86510250D01*
X164541132Y-86533595D01*
X164488985Y-86548907D01*
X164488983Y-86548908D01*
X164480339Y-86551446D01*
X164465854Y-86560755D01*
X164364909Y-86625628D01*
X164364906Y-86625630D01*
X164357329Y-86630500D01*
X164353241Y-86635218D01*
X164289932Y-86664130D01*
X164219658Y-86654027D01*
X164166002Y-86607534D01*
X164146000Y-86539413D01*
X164146000Y-85010017D01*
X164146527Y-84998834D01*
X164148202Y-84991341D01*
X164147302Y-84962694D01*
X164146062Y-84923264D01*
X164146000Y-84919305D01*
X164146000Y-84891394D01*
X164145495Y-84887394D01*
X164144562Y-84875551D01*
X164143977Y-84856920D01*
X164143173Y-84831361D01*
X164137521Y-84811907D01*
X164133513Y-84792550D01*
X164131968Y-84780320D01*
X164131968Y-84780319D01*
X164130974Y-84772453D01*
X164124304Y-84755606D01*
X164114696Y-84731338D01*
X164110851Y-84720108D01*
X164100729Y-84685267D01*
X164100729Y-84685266D01*
X164098518Y-84677657D01*
X164094485Y-84670838D01*
X164094483Y-84670833D01*
X164088207Y-84660222D01*
X164079512Y-84642474D01*
X164072052Y-84623633D01*
X164046064Y-84587863D01*
X164039548Y-84577943D01*
X164021080Y-84546715D01*
X164021078Y-84546712D01*
X164017042Y-84539888D01*
X164002721Y-84525567D01*
X163989880Y-84510533D01*
X163982631Y-84500556D01*
X163977972Y-84494143D01*
X163971867Y-84489092D01*
X163971862Y-84489087D01*
X163943896Y-84465951D01*
X163935118Y-84457963D01*
X163222402Y-83745247D01*
X163214862Y-83736961D01*
X163210750Y-83730482D01*
X163161098Y-83683856D01*
X163158257Y-83681102D01*
X163138520Y-83661365D01*
X163135323Y-83658885D01*
X163126301Y-83651180D01*
X163099850Y-83626341D01*
X163094071Y-83620914D01*
X163087125Y-83617095D01*
X163087122Y-83617093D01*
X163076316Y-83611152D01*
X163059797Y-83600301D01*
X163052915Y-83594963D01*
X163043791Y-83587886D01*
X163036522Y-83584741D01*
X163036518Y-83584738D01*
X163003213Y-83570326D01*
X162992563Y-83565109D01*
X162953810Y-83543805D01*
X162934187Y-83538767D01*
X162915484Y-83532363D01*
X162904170Y-83527467D01*
X162904169Y-83527467D01*
X162896895Y-83524319D01*
X162889072Y-83523080D01*
X162889062Y-83523077D01*
X162853226Y-83517401D01*
X162841606Y-83514995D01*
X162806461Y-83505972D01*
X162806460Y-83505972D01*
X162798780Y-83504000D01*
X162778526Y-83504000D01*
X162758815Y-83502449D01*
X162746636Y-83500520D01*
X162738807Y-83499280D01*
X162730915Y-83500026D01*
X162694789Y-83503441D01*
X162682931Y-83504000D01*
X132469716Y-83504000D01*
X132401595Y-83483998D01*
X132355102Y-83430342D01*
X132344998Y-83360068D01*
X132349158Y-83341371D01*
X132402410Y-83166098D01*
X132402411Y-83166092D01*
X132403914Y-83161146D01*
X132416450Y-83065930D01*
X132433200Y-82938701D01*
X132433201Y-82938694D01*
X132433637Y-82935379D01*
X132435296Y-82867500D01*
X132426495Y-82760449D01*
X132417061Y-82645702D01*
X132417060Y-82645696D01*
X132416637Y-82640551D01*
X132382077Y-82502961D01*
X132362422Y-82424708D01*
X132362421Y-82424704D01*
X132361163Y-82419697D01*
X132316090Y-82316036D01*
X132272422Y-82215606D01*
X132272420Y-82215603D01*
X132270362Y-82210869D01*
X132146673Y-82019675D01*
X131993418Y-81851250D01*
X131814713Y-81710118D01*
X131615357Y-81600067D01*
X131470415Y-81548740D01*
X131405579Y-81525780D01*
X131405575Y-81525779D01*
X131400704Y-81524054D01*
X131395611Y-81523147D01*
X131395608Y-81523146D01*
X131181607Y-81485027D01*
X131181601Y-81485026D01*
X131176518Y-81484121D01*
X131089448Y-81483057D01*
X130953989Y-81481402D01*
X130953987Y-81481402D01*
X130948820Y-81481339D01*
X130723726Y-81515783D01*
X130507279Y-81586529D01*
X130305294Y-81691676D01*
X130301161Y-81694779D01*
X130301158Y-81694781D01*
X130127329Y-81825295D01*
X130123194Y-81828400D01*
X129965870Y-81993030D01*
X129879227Y-82120045D01*
X129824318Y-82165045D01*
X129753794Y-82173216D01*
X129690046Y-82141962D01*
X129669349Y-82117478D01*
X129657833Y-82099678D01*
X129647148Y-82090475D01*
X129637581Y-82094879D01*
X128594845Y-83137615D01*
X128532533Y-83171641D01*
X128461718Y-83166576D01*
X128416655Y-83137615D01*
X127376672Y-82097632D01*
X127365136Y-82091332D01*
X127352851Y-82100957D01*
X127339828Y-82120048D01*
X127284917Y-82165051D01*
X127214392Y-82173222D01*
X127150645Y-82141968D01*
X127129950Y-82117487D01*
X127066673Y-82019675D01*
X126913418Y-81851250D01*
X126753734Y-81725140D01*
X127728186Y-81725140D01*
X127734930Y-81737470D01*
X128492938Y-82495478D01*
X128506882Y-82503092D01*
X128508715Y-82502961D01*
X128515330Y-82498710D01*
X129277865Y-81736175D01*
X129284886Y-81723319D01*
X129277357Y-81712986D01*
X129269906Y-81708036D01*
X129079682Y-81603026D01*
X129070273Y-81598798D01*
X128865447Y-81526265D01*
X128855484Y-81523633D01*
X128641560Y-81485527D01*
X128631307Y-81484558D01*
X128414024Y-81481903D01*
X128403741Y-81482623D01*
X128188955Y-81515490D01*
X128178927Y-81517879D01*
X127972388Y-81585386D01*
X127962891Y-81589378D01*
X127770150Y-81689711D01*
X127761422Y-81695208D01*
X127736639Y-81713815D01*
X127728186Y-81725140D01*
X126753734Y-81725140D01*
X126734713Y-81710118D01*
X126535357Y-81600067D01*
X126390415Y-81548740D01*
X126325579Y-81525780D01*
X126325575Y-81525779D01*
X126320704Y-81524054D01*
X126315611Y-81523147D01*
X126315608Y-81523146D01*
X126101607Y-81485027D01*
X126101601Y-81485026D01*
X126096518Y-81484121D01*
X126009448Y-81483057D01*
X125873989Y-81481402D01*
X125873987Y-81481402D01*
X125868820Y-81481339D01*
X125718675Y-81504314D01*
X125648835Y-81515001D01*
X125648832Y-81515002D01*
X125643726Y-81515783D01*
X125616432Y-81524704D01*
X125545469Y-81526857D01*
X125488190Y-81494035D01*
X125268591Y-81274436D01*
X125261051Y-81266150D01*
X125256939Y-81259671D01*
X125207287Y-81213045D01*
X125204446Y-81210291D01*
X125184709Y-81190554D01*
X125181512Y-81188074D01*
X125172490Y-81180369D01*
X125146039Y-81155530D01*
X125140260Y-81150103D01*
X125133314Y-81146284D01*
X125133311Y-81146282D01*
X125122505Y-81140341D01*
X125105986Y-81129490D01*
X125105522Y-81129130D01*
X125089980Y-81117075D01*
X125082711Y-81113930D01*
X125082707Y-81113927D01*
X125049402Y-81099515D01*
X125038752Y-81094298D01*
X124999999Y-81072994D01*
X124980376Y-81067956D01*
X124961673Y-81061552D01*
X124950359Y-81056656D01*
X124950358Y-81056656D01*
X124943084Y-81053508D01*
X124935261Y-81052269D01*
X124935251Y-81052266D01*
X124899415Y-81046590D01*
X124887795Y-81044184D01*
X124852650Y-81035161D01*
X124852649Y-81035161D01*
X124844969Y-81033189D01*
X124824715Y-81033189D01*
X124805004Y-81031638D01*
X124802473Y-81031237D01*
X124784996Y-81028469D01*
X124777104Y-81029215D01*
X124740978Y-81032630D01*
X124729120Y-81033189D01*
X93234574Y-81033189D01*
X93223390Y-81032662D01*
X93215902Y-81030988D01*
X93207979Y-81031237D01*
X93147844Y-81033127D01*
X93143886Y-81033189D01*
X93115955Y-81033189D01*
X93112040Y-81033684D01*
X93112036Y-81033684D01*
X93111978Y-81033692D01*
X93111949Y-81033695D01*
X93100107Y-81034628D01*
X93055921Y-81036016D01*
X93038555Y-81041061D01*
X93036469Y-81041667D01*
X93017117Y-81045675D01*
X93010046Y-81046569D01*
X92997014Y-81048215D01*
X92989645Y-81051132D01*
X92989643Y-81051133D01*
X92955908Y-81064489D01*
X92944680Y-81068334D01*
X92902218Y-81080671D01*
X92895397Y-81084705D01*
X92895392Y-81084707D01*
X92889457Y-81088217D01*
X92820640Y-81105676D01*
X92777099Y-81096171D01*
X92772565Y-81094293D01*
X92761344Y-81089645D01*
X92671003Y-81067956D01*
X92535274Y-81035370D01*
X92535268Y-81035369D01*
X92530461Y-81034215D01*
X92293750Y-81015585D01*
X92057039Y-81034215D01*
X92052232Y-81035369D01*
X92052226Y-81035370D01*
X91916497Y-81067956D01*
X91826156Y-81089645D01*
X91821585Y-81091538D01*
X91821583Y-81091539D01*
X91611361Y-81178615D01*
X91611357Y-81178617D01*
X91606787Y-81180510D01*
X91602567Y-81183096D01*
X91408548Y-81301991D01*
X91408542Y-81301995D01*
X91404334Y-81304574D01*
X91223781Y-81458781D01*
X91069574Y-81639334D01*
X91066995Y-81643542D01*
X91066991Y-81643548D01*
X91010229Y-81736175D01*
X90945510Y-81841787D01*
X90943617Y-81846357D01*
X90943615Y-81846361D01*
X90881097Y-81997295D01*
X90854645Y-82061156D01*
X90846549Y-82094879D01*
X90819744Y-82206531D01*
X90799215Y-82292039D01*
X90780585Y-82528750D01*
X87306025Y-82528750D01*
X87306025Y-82523820D01*
X87288178Y-82297051D01*
X87286635Y-82287304D01*
X87233533Y-82066123D01*
X87230484Y-82056738D01*
X87143437Y-81846587D01*
X87138955Y-81837792D01*
X87036318Y-81670305D01*
X87025860Y-81660843D01*
X87017084Y-81664626D01*
X86165772Y-82515938D01*
X86158158Y-82529882D01*
X85428106Y-82529882D01*
X85429342Y-82527618D01*
X85429211Y-82525785D01*
X85424960Y-82519170D01*
X84573460Y-81667670D01*
X84561080Y-81660910D01*
X84553430Y-81666637D01*
X84448545Y-81837792D01*
X84444063Y-81846587D01*
X84357016Y-82056738D01*
X84353967Y-82066123D01*
X84300865Y-82287304D01*
X84299322Y-82297051D01*
X84281475Y-82523820D01*
X84281475Y-82533680D01*
X77365564Y-82533680D01*
X77365564Y-81296640D01*
X84925843Y-81296640D01*
X84929626Y-81305416D01*
X85780938Y-82156728D01*
X85794882Y-82164342D01*
X85796715Y-82164211D01*
X85803330Y-82159960D01*
X86654830Y-81308460D01*
X86661590Y-81296080D01*
X86655863Y-81288430D01*
X86484708Y-81183545D01*
X86475913Y-81179063D01*
X86265762Y-81092016D01*
X86256377Y-81088967D01*
X86035196Y-81035865D01*
X86025449Y-81034322D01*
X85798680Y-81016475D01*
X85788820Y-81016475D01*
X85562051Y-81034322D01*
X85552304Y-81035865D01*
X85331123Y-81088967D01*
X85321738Y-81092016D01*
X85111587Y-81179063D01*
X85102792Y-81183545D01*
X84935305Y-81286182D01*
X84925843Y-81296640D01*
X77365564Y-81296640D01*
X77365564Y-81015707D01*
X77367310Y-80994803D01*
X77369828Y-80979835D01*
X77370635Y-80975039D01*
X77370788Y-80962500D01*
X77368813Y-80948707D01*
X77367739Y-80923782D01*
X77381937Y-80670955D01*
X77383519Y-80656914D01*
X77431245Y-80376015D01*
X77434389Y-80362240D01*
X77468708Y-80243116D01*
X77513271Y-80088435D01*
X77517932Y-80075115D01*
X77626974Y-79811865D01*
X77633103Y-79799138D01*
X77770929Y-79549762D01*
X77778446Y-79537799D01*
X77943322Y-79305427D01*
X77952132Y-79294379D01*
X78141995Y-79081922D01*
X78151986Y-79071931D01*
X78364443Y-78882068D01*
X78375491Y-78873258D01*
X78607863Y-78708382D01*
X78619826Y-78700865D01*
X78760328Y-78623212D01*
X78869206Y-78563037D01*
X78881929Y-78556910D01*
X79145179Y-78447868D01*
X79158499Y-78443207D01*
X79432307Y-78364324D01*
X79446072Y-78361183D01*
X79726985Y-78313454D01*
X79741014Y-78311874D01*
X79829348Y-78306913D01*
X79990186Y-78297880D01*
X80016632Y-78299182D01*
X80017414Y-78299304D01*
X80017420Y-78299304D01*
X80026294Y-78300686D01*
X80057816Y-78296564D01*
X80074153Y-78295500D01*
X183306922Y-78295500D01*
X183326307Y-78297000D01*
G37*
%TD.AperFunction*%
%TA.AperFunction,Conductor*%
G36*
X126448894Y-89012518D02*
G01*
X126449016Y-89011669D01*
X126592864Y-89032352D01*
X126592865Y-89032352D01*
X126593750Y-89032479D01*
X126593722Y-89032671D01*
X126658528Y-89056844D01*
X126701073Y-89113680D01*
X126705104Y-89126552D01*
X126715003Y-89165338D01*
X126717737Y-89171938D01*
X126719119Y-89175277D01*
X126719124Y-89175287D01*
X126730855Y-89203609D01*
X126737669Y-89216087D01*
X126777979Y-89289909D01*
X126783497Y-89300015D01*
X126883137Y-89407034D01*
X127008891Y-89481645D01*
X127047160Y-89497496D01*
X127082010Y-89507729D01*
X127144966Y-89526215D01*
X127144969Y-89526216D01*
X127152528Y-89528435D01*
X127253697Y-89532050D01*
X127253542Y-89536384D01*
X127253697Y-89536370D01*
X127253697Y-89532479D01*
X127263454Y-89532479D01*
X127267953Y-89532559D01*
X127298657Y-89533656D01*
X127302978Y-89532553D01*
X127304363Y-89532479D01*
X128302424Y-89532479D01*
X128370545Y-89552481D01*
X128417038Y-89606137D01*
X128427142Y-89676411D01*
X128421289Y-89698108D01*
X128421897Y-89698306D01*
X128420537Y-89702491D01*
X128418888Y-89706573D01*
X128417823Y-89710846D01*
X128417822Y-89710848D01*
X128369293Y-89905489D01*
X128350933Y-89979125D01*
X128350474Y-89983493D01*
X128350473Y-89983498D01*
X128324328Y-90232262D01*
X128321572Y-90258482D01*
X128321725Y-90262870D01*
X128321725Y-90262876D01*
X128331019Y-90529000D01*
X128331375Y-90539207D01*
X128332137Y-90543530D01*
X128332138Y-90543537D01*
X128358829Y-90694906D01*
X128380152Y-90815836D01*
X128466953Y-91082984D01*
X128468881Y-91086937D01*
X128468883Y-91086942D01*
X128484236Y-91118419D01*
X128590090Y-91335451D01*
X128639271Y-91408365D01*
X128660780Y-91476022D01*
X128642296Y-91544570D01*
X128586561Y-91593703D01*
X128400675Y-91677438D01*
X128209431Y-91806191D01*
X128205574Y-91809870D01*
X128205572Y-91809872D01*
X128159647Y-91853683D01*
X128042615Y-91965326D01*
X127904996Y-92150292D01*
X127902580Y-92155043D01*
X127902578Y-92155047D01*
X127868566Y-92221944D01*
X127800510Y-92355801D01*
X127798928Y-92360895D01*
X127798927Y-92360898D01*
X127753203Y-92508154D01*
X127732143Y-92575977D01*
X127731442Y-92581266D01*
X127702667Y-92798376D01*
X127701852Y-92804524D01*
X127710501Y-93034908D01*
X127757843Y-93260541D01*
X127759801Y-93265500D01*
X127759802Y-93265502D01*
X127783730Y-93326090D01*
X127842526Y-93474971D01*
X127845293Y-93479530D01*
X127845294Y-93479533D01*
X127910633Y-93587208D01*
X127962127Y-93672067D01*
X127965624Y-93676097D01*
X128109528Y-93841932D01*
X128113227Y-93846195D01*
X128117358Y-93849582D01*
X128287377Y-93988990D01*
X128287383Y-93988994D01*
X128291505Y-93992374D01*
X128296141Y-93995013D01*
X128296144Y-93995015D01*
X128454552Y-94085186D01*
X128491864Y-94106425D01*
X128708575Y-94185087D01*
X128713824Y-94186036D01*
X128713827Y-94186037D01*
X128931358Y-94225373D01*
X128931365Y-94225374D01*
X128935442Y-94226111D01*
X128953164Y-94226947D01*
X128958106Y-94227180D01*
X128958113Y-94227180D01*
X128959594Y-94227250D01*
X129121640Y-94227250D01*
X129194544Y-94221064D01*
X129288159Y-94213121D01*
X129288163Y-94213120D01*
X129293470Y-94212670D01*
X129298625Y-94211332D01*
X129298631Y-94211331D01*
X129511453Y-94156093D01*
X129511457Y-94156092D01*
X129516622Y-94154751D01*
X129521488Y-94152559D01*
X129521491Y-94152558D01*
X129671051Y-94085186D01*
X129726825Y-94060062D01*
X129918069Y-93931309D01*
X129929415Y-93920486D01*
X130050551Y-93804927D01*
X130084885Y-93772174D01*
X130103341Y-93747369D01*
X130182012Y-93641631D01*
X130222504Y-93587208D01*
X130233140Y-93566290D01*
X130306981Y-93421054D01*
X130326990Y-93381699D01*
X130340024Y-93339725D01*
X130393774Y-93166621D01*
X130395357Y-93161523D01*
X130404568Y-93092027D01*
X130424948Y-92938261D01*
X130424948Y-92938256D01*
X130425648Y-92932976D01*
X130416999Y-92702592D01*
X130390623Y-92576881D01*
X130370948Y-92483112D01*
X130376536Y-92412335D01*
X130419501Y-92355815D01*
X130485473Y-92331545D01*
X130531281Y-92328342D01*
X130613962Y-92322560D01*
X130888720Y-92264158D01*
X130892849Y-92262655D01*
X130892853Y-92262654D01*
X131148531Y-92169595D01*
X131148535Y-92169593D01*
X131152676Y-92168086D01*
X131400692Y-92036213D01*
X131404253Y-92033626D01*
X131575867Y-91908942D01*
X131642735Y-91885083D01*
X131711887Y-91901164D01*
X131761367Y-91952078D01*
X131775466Y-92021661D01*
X131767080Y-92057261D01*
X131753307Y-92092048D01*
X131674810Y-92397775D01*
X131635250Y-92710929D01*
X131635250Y-93026571D01*
X131674810Y-93339725D01*
X131753307Y-93645452D01*
X131754760Y-93649121D01*
X131754760Y-93649122D01*
X131866657Y-93931740D01*
X131869503Y-93938929D01*
X131871409Y-93942397D01*
X131871410Y-93942398D01*
X132016916Y-94207070D01*
X132021566Y-94215529D01*
X132207096Y-94470890D01*
X132374667Y-94649335D01*
X132415700Y-94693030D01*
X132423168Y-94700983D01*
X132666375Y-94902182D01*
X132932881Y-95071312D01*
X132936460Y-95072996D01*
X132936467Y-95073000D01*
X133214894Y-95204017D01*
X133214898Y-95204019D01*
X133218484Y-95205706D01*
X133518678Y-95303245D01*
X133828730Y-95362391D01*
X134064912Y-95377250D01*
X134222588Y-95377250D01*
X134458770Y-95362391D01*
X134768822Y-95303245D01*
X135069016Y-95205706D01*
X135072602Y-95204019D01*
X135072606Y-95204017D01*
X135351033Y-95073000D01*
X135351040Y-95072996D01*
X135354619Y-95071312D01*
X135621125Y-94902182D01*
X135864332Y-94700983D01*
X135871801Y-94693030D01*
X135912833Y-94649335D01*
X136080404Y-94470890D01*
X136265934Y-94215529D01*
X136270585Y-94207070D01*
X136416090Y-93942398D01*
X136416091Y-93942397D01*
X136417997Y-93938929D01*
X136420844Y-93931740D01*
X136532740Y-93649122D01*
X136532740Y-93649121D01*
X136534193Y-93645452D01*
X136612690Y-93339725D01*
X136652250Y-93026571D01*
X136652250Y-92710929D01*
X136612690Y-92397775D01*
X136534193Y-92092048D01*
X136532740Y-92088377D01*
X136532736Y-92088366D01*
X136520338Y-92057051D01*
X136513859Y-91986351D01*
X136546632Y-91923371D01*
X136608252Y-91888108D01*
X136679155Y-91891757D01*
X136718480Y-91914147D01*
X136727839Y-91922000D01*
X136766928Y-91954800D01*
X136766932Y-91954803D01*
X136770300Y-91957629D01*
X137008514Y-92106481D01*
X137265125Y-92220732D01*
X137269353Y-92221944D01*
X137269352Y-92221944D01*
X137410890Y-92262529D01*
X137535140Y-92298157D01*
X137539490Y-92298768D01*
X137539493Y-92298769D01*
X137813136Y-92337227D01*
X137877810Y-92366515D01*
X137916383Y-92426119D01*
X137915932Y-92499364D01*
X137892143Y-92575977D01*
X137891442Y-92581266D01*
X137862667Y-92798376D01*
X137861852Y-92804524D01*
X137870501Y-93034908D01*
X137917843Y-93260541D01*
X137919801Y-93265500D01*
X137919802Y-93265502D01*
X137943730Y-93326090D01*
X138002526Y-93474971D01*
X138005293Y-93479530D01*
X138005294Y-93479533D01*
X138070633Y-93587208D01*
X138122127Y-93672067D01*
X138125624Y-93676097D01*
X138269528Y-93841932D01*
X138273227Y-93846195D01*
X138277358Y-93849582D01*
X138447377Y-93988990D01*
X138447383Y-93988994D01*
X138451505Y-93992374D01*
X138616613Y-94086359D01*
X138665918Y-94137440D01*
X138679780Y-94207070D01*
X138653797Y-94273141D01*
X138643375Y-94284955D01*
X130411235Y-102517095D01*
X130348923Y-102551121D01*
X130322140Y-102554000D01*
X129440750Y-102554000D01*
X129372629Y-102533998D01*
X129326136Y-102480342D01*
X129314750Y-102428000D01*
X129314750Y-102389366D01*
X129307995Y-102327184D01*
X129256865Y-102190795D01*
X129169511Y-102074239D01*
X129052955Y-101986885D01*
X128916566Y-101935755D01*
X128854384Y-101929000D01*
X126958116Y-101929000D01*
X126895934Y-101935755D01*
X126759545Y-101986885D01*
X126642989Y-102074239D01*
X126555635Y-102190795D01*
X126504505Y-102327184D01*
X126497750Y-102389366D01*
X126497750Y-103985634D01*
X126498119Y-103989029D01*
X126498119Y-103989033D01*
X126499516Y-104001893D01*
X126486987Y-104071776D01*
X126438666Y-104123791D01*
X126374253Y-104141500D01*
X126038247Y-104141500D01*
X125970126Y-104121498D01*
X125923633Y-104067842D01*
X125912984Y-104001893D01*
X125914381Y-103989033D01*
X125914381Y-103989029D01*
X125914750Y-103985634D01*
X125914750Y-102389366D01*
X125907995Y-102327184D01*
X125856865Y-102190795D01*
X125769511Y-102074239D01*
X125652955Y-101986885D01*
X125516566Y-101935755D01*
X125454384Y-101929000D01*
X123558116Y-101929000D01*
X123495934Y-101935755D01*
X123359545Y-101986885D01*
X123242989Y-102074239D01*
X123155635Y-102190795D01*
X123104505Y-102327184D01*
X123097750Y-102389366D01*
X123097750Y-103760405D01*
X123077748Y-103828526D01*
X123060845Y-103849500D01*
X122805750Y-104104595D01*
X122743438Y-104138621D01*
X122716655Y-104141500D01*
X110388247Y-104141500D01*
X110320126Y-104121498D01*
X110273633Y-104067842D01*
X110262984Y-104001893D01*
X110264381Y-103989033D01*
X110264381Y-103989029D01*
X110264750Y-103985634D01*
X110264750Y-103947000D01*
X110284752Y-103878879D01*
X110338408Y-103832386D01*
X110390750Y-103821000D01*
X118983733Y-103821000D01*
X118994916Y-103821527D01*
X119002409Y-103823202D01*
X119010335Y-103822953D01*
X119010336Y-103822953D01*
X119070486Y-103821062D01*
X119074445Y-103821000D01*
X119102356Y-103821000D01*
X119106291Y-103820503D01*
X119106356Y-103820495D01*
X119118193Y-103819562D01*
X119150451Y-103818548D01*
X119154470Y-103818422D01*
X119162389Y-103818173D01*
X119181843Y-103812521D01*
X119201200Y-103808513D01*
X119213430Y-103806968D01*
X119213431Y-103806968D01*
X119221297Y-103805974D01*
X119228668Y-103803055D01*
X119228670Y-103803055D01*
X119262412Y-103789696D01*
X119273642Y-103785851D01*
X119308483Y-103775729D01*
X119308484Y-103775729D01*
X119316093Y-103773518D01*
X119322912Y-103769485D01*
X119322917Y-103769483D01*
X119333528Y-103763207D01*
X119351276Y-103754512D01*
X119370117Y-103747052D01*
X119405887Y-103721064D01*
X119415807Y-103714548D01*
X119447035Y-103696080D01*
X119447038Y-103696078D01*
X119453862Y-103692042D01*
X119468183Y-103677721D01*
X119483217Y-103664880D01*
X119493194Y-103657631D01*
X119499607Y-103652972D01*
X119527798Y-103618895D01*
X119535788Y-103610116D01*
X119938808Y-103207096D01*
X119947098Y-103199552D01*
X119953579Y-103195439D01*
X120000220Y-103145771D01*
X120002974Y-103142930D01*
X120022696Y-103123208D01*
X120025173Y-103120015D01*
X120032878Y-103110994D01*
X120057720Y-103084539D01*
X120063147Y-103078760D01*
X120066968Y-103071810D01*
X120072907Y-103061007D01*
X120083763Y-103044480D01*
X120091318Y-103034741D01*
X120091319Y-103034739D01*
X120096175Y-103028479D01*
X120113735Y-102987899D01*
X120118952Y-102977251D01*
X120136436Y-102945448D01*
X120136437Y-102945446D01*
X120140256Y-102938499D01*
X120145294Y-102918876D01*
X120151698Y-102900173D01*
X120156594Y-102888859D01*
X120156594Y-102888858D01*
X120159742Y-102881584D01*
X120160981Y-102873761D01*
X120160984Y-102873751D01*
X120166660Y-102837915D01*
X120169066Y-102826295D01*
X120178089Y-102791150D01*
X120178089Y-102791149D01*
X120180061Y-102783469D01*
X120180061Y-102763215D01*
X120181612Y-102743504D01*
X120183541Y-102731325D01*
X120184781Y-102723496D01*
X120180620Y-102679477D01*
X120180061Y-102667620D01*
X120180061Y-99503422D01*
X120200063Y-99435301D01*
X120253719Y-99388808D01*
X120323993Y-99378704D01*
X120351009Y-99385712D01*
X120498079Y-99441872D01*
X120503145Y-99442903D01*
X120503146Y-99442903D01*
X120552519Y-99452948D01*
X120721222Y-99487271D01*
X120848297Y-99491931D01*
X120943620Y-99495427D01*
X120943625Y-99495427D01*
X120948784Y-99495616D01*
X120953904Y-99494960D01*
X120953906Y-99494960D01*
X121061652Y-99481157D01*
X121174653Y-99466681D01*
X121179602Y-99465196D01*
X121179608Y-99465195D01*
X121305954Y-99427289D01*
X121392763Y-99401245D01*
X121479000Y-99358998D01*
X121518022Y-99339881D01*
X121597257Y-99301064D01*
X121601461Y-99298066D01*
X121601465Y-99298063D01*
X121666631Y-99251580D01*
X122646500Y-99251580D01*
X122651781Y-99258634D01*
X122821103Y-99357578D01*
X122830390Y-99362028D01*
X123033388Y-99439545D01*
X123043290Y-99442422D01*
X123256206Y-99485740D01*
X123266458Y-99486963D01*
X123483597Y-99494925D01*
X123493883Y-99494458D01*
X123709420Y-99466847D01*
X123719498Y-99464705D01*
X123927627Y-99402263D01*
X123937225Y-99398502D01*
X124132365Y-99302904D01*
X124141204Y-99297635D01*
X124193854Y-99260080D01*
X124200528Y-99251580D01*
X125186500Y-99251580D01*
X125191781Y-99258634D01*
X125361103Y-99357578D01*
X125370390Y-99362028D01*
X125573388Y-99439545D01*
X125583290Y-99442422D01*
X125796206Y-99485740D01*
X125806458Y-99486963D01*
X126023597Y-99494925D01*
X126033883Y-99494458D01*
X126249420Y-99466847D01*
X126259498Y-99464705D01*
X126467627Y-99402263D01*
X126477225Y-99398502D01*
X126672365Y-99302904D01*
X126681204Y-99297635D01*
X126733854Y-99260080D01*
X126742254Y-99249381D01*
X126735265Y-99236225D01*
X125978562Y-98479522D01*
X125964618Y-98471908D01*
X125962785Y-98472039D01*
X125956170Y-98476290D01*
X125193260Y-99239200D01*
X125186500Y-99251580D01*
X124200528Y-99251580D01*
X124202254Y-99249381D01*
X124195265Y-99236225D01*
X123438562Y-98479522D01*
X123424618Y-98471908D01*
X123422785Y-98472039D01*
X123416170Y-98476290D01*
X122653260Y-99239200D01*
X122646500Y-99251580D01*
X121666631Y-99251580D01*
X121686103Y-99237691D01*
X121782643Y-99168830D01*
X121943943Y-99008092D01*
X122034749Y-98881722D01*
X122054595Y-98854103D01*
X122110590Y-98810455D01*
X122181293Y-98804009D01*
X122244258Y-98836812D01*
X122264351Y-98861795D01*
X122273083Y-98876045D01*
X122283540Y-98885506D01*
X122292318Y-98881722D01*
X123053728Y-98120312D01*
X123060106Y-98108632D01*
X123790158Y-98108632D01*
X123790289Y-98110465D01*
X123794540Y-98117080D01*
X124555070Y-98877610D01*
X124567080Y-98884169D01*
X124578820Y-98875200D01*
X124594313Y-98853640D01*
X124650307Y-98809993D01*
X124721011Y-98803547D01*
X124783975Y-98836350D01*
X124804068Y-98861333D01*
X124813083Y-98876045D01*
X124823540Y-98885506D01*
X124832318Y-98881722D01*
X125593728Y-98120312D01*
X125600106Y-98108632D01*
X126330158Y-98108632D01*
X126330289Y-98110465D01*
X126334540Y-98117080D01*
X127095070Y-98877610D01*
X127107080Y-98884169D01*
X127118821Y-98875200D01*
X127133995Y-98854082D01*
X127189989Y-98810434D01*
X127260692Y-98803987D01*
X127323657Y-98836789D01*
X127343750Y-98861771D01*
X127352497Y-98876045D01*
X127381740Y-98923764D01*
X127384442Y-98928174D01*
X127533536Y-99100293D01*
X127708739Y-99245749D01*
X127713191Y-99248351D01*
X127713196Y-99248354D01*
X127869826Y-99339881D01*
X127905347Y-99360638D01*
X128118079Y-99441872D01*
X128123145Y-99442903D01*
X128123146Y-99442903D01*
X128172519Y-99452948D01*
X128341222Y-99487271D01*
X128468297Y-99491931D01*
X128563620Y-99495427D01*
X128563625Y-99495427D01*
X128568784Y-99495616D01*
X128573904Y-99494960D01*
X128573906Y-99494960D01*
X128681652Y-99481157D01*
X128794653Y-99466681D01*
X128799602Y-99465196D01*
X128799608Y-99465195D01*
X128925954Y-99427289D01*
X129012763Y-99401245D01*
X129099000Y-99358998D01*
X129138022Y-99339881D01*
X129217257Y-99301064D01*
X129221461Y-99298066D01*
X129221465Y-99298063D01*
X129306103Y-99237691D01*
X129402643Y-99168830D01*
X129477650Y-99094085D01*
X129540020Y-99060169D01*
X129610827Y-99065357D01*
X129667589Y-99108003D01*
X129684571Y-99139106D01*
X129718835Y-99230505D01*
X129806189Y-99347061D01*
X129922745Y-99434415D01*
X130059134Y-99485545D01*
X130121316Y-99492300D01*
X131970184Y-99492300D01*
X132032366Y-99485545D01*
X132168755Y-99434415D01*
X132285311Y-99347061D01*
X132372665Y-99230505D01*
X132423795Y-99094116D01*
X132430550Y-99031934D01*
X132430550Y-97183066D01*
X132423795Y-97120884D01*
X132372665Y-96984495D01*
X132285311Y-96867939D01*
X132168755Y-96780585D01*
X132032366Y-96729455D01*
X131970184Y-96722700D01*
X130121316Y-96722700D01*
X130059134Y-96729455D01*
X129922745Y-96780585D01*
X129806189Y-96867939D01*
X129718835Y-96984495D01*
X129715683Y-96992903D01*
X129685436Y-97073586D01*
X129642794Y-97130350D01*
X129576233Y-97155050D01*
X129506884Y-97139842D01*
X129474259Y-97114154D01*
X129456897Y-97095073D01*
X129456893Y-97095069D01*
X129453418Y-97091250D01*
X129274713Y-96950118D01*
X129075357Y-96840067D01*
X128944673Y-96793789D01*
X128865579Y-96765780D01*
X128865575Y-96765779D01*
X128860704Y-96764054D01*
X128855611Y-96763147D01*
X128855608Y-96763146D01*
X128641607Y-96725027D01*
X128641601Y-96725026D01*
X128636518Y-96724121D01*
X128549448Y-96723057D01*
X128413989Y-96721402D01*
X128413987Y-96721402D01*
X128408820Y-96721339D01*
X128183726Y-96755783D01*
X127967279Y-96826529D01*
X127765294Y-96931676D01*
X127761161Y-96934779D01*
X127761158Y-96934781D01*
X127600142Y-97055675D01*
X127583194Y-97068400D01*
X127533039Y-97120884D01*
X127468645Y-97188269D01*
X127425870Y-97233030D01*
X127339227Y-97360045D01*
X127284318Y-97405045D01*
X127213794Y-97413216D01*
X127150046Y-97381962D01*
X127129349Y-97357478D01*
X127117833Y-97339678D01*
X127107148Y-97330475D01*
X127097581Y-97334879D01*
X126337772Y-98094688D01*
X126330158Y-98108632D01*
X125600106Y-98108632D01*
X125601342Y-98106368D01*
X125601211Y-98104535D01*
X125596960Y-98097920D01*
X124836672Y-97337632D01*
X124825136Y-97331332D01*
X124812852Y-97340956D01*
X124799524Y-97360495D01*
X124744613Y-97405499D01*
X124674088Y-97413671D01*
X124610341Y-97382417D01*
X124589644Y-97357933D01*
X124577835Y-97339679D01*
X124567148Y-97330475D01*
X124557581Y-97334879D01*
X123797772Y-98094688D01*
X123790158Y-98108632D01*
X123060106Y-98108632D01*
X123061342Y-98106368D01*
X123061211Y-98104535D01*
X123056960Y-98097920D01*
X122296672Y-97337632D01*
X122285136Y-97331332D01*
X122272851Y-97340957D01*
X122259828Y-97360048D01*
X122204917Y-97405051D01*
X122134392Y-97413222D01*
X122070645Y-97381968D01*
X122049950Y-97357487D01*
X121986673Y-97259675D01*
X121833418Y-97091250D01*
X121673734Y-96965140D01*
X122648186Y-96965140D01*
X122654930Y-96977470D01*
X123412938Y-97735478D01*
X123426882Y-97743092D01*
X123428715Y-97742961D01*
X123435330Y-97738710D01*
X124197865Y-96976175D01*
X124203892Y-96965140D01*
X125188186Y-96965140D01*
X125194930Y-96977470D01*
X125952938Y-97735478D01*
X125966882Y-97743092D01*
X125968715Y-97742961D01*
X125975330Y-97738710D01*
X126737865Y-96976175D01*
X126744886Y-96963319D01*
X126737357Y-96952986D01*
X126729906Y-96948036D01*
X126539682Y-96843026D01*
X126530273Y-96838798D01*
X126325447Y-96766265D01*
X126315484Y-96763633D01*
X126101560Y-96725527D01*
X126091307Y-96724558D01*
X125874024Y-96721903D01*
X125863741Y-96722623D01*
X125648955Y-96755490D01*
X125638927Y-96757879D01*
X125432388Y-96825386D01*
X125422891Y-96829378D01*
X125230150Y-96929711D01*
X125221422Y-96935208D01*
X125196639Y-96953815D01*
X125188186Y-96965140D01*
X124203892Y-96965140D01*
X124204886Y-96963319D01*
X124197357Y-96952986D01*
X124189906Y-96948036D01*
X123999682Y-96843026D01*
X123990273Y-96838798D01*
X123785447Y-96766265D01*
X123775484Y-96763633D01*
X123561560Y-96725527D01*
X123551307Y-96724558D01*
X123334024Y-96721903D01*
X123323741Y-96722623D01*
X123108955Y-96755490D01*
X123098927Y-96757879D01*
X122892388Y-96825386D01*
X122882891Y-96829378D01*
X122690150Y-96929711D01*
X122681422Y-96935208D01*
X122656639Y-96953815D01*
X122648186Y-96965140D01*
X121673734Y-96965140D01*
X121654713Y-96950118D01*
X121496099Y-96862558D01*
X121459888Y-96842568D01*
X121459885Y-96842567D01*
X121455357Y-96840067D01*
X121453396Y-96839373D01*
X121400145Y-96793789D01*
X121379733Y-96725789D01*
X121399325Y-96657550D01*
X121416636Y-96635936D01*
X123985997Y-94066575D01*
X123994287Y-94059031D01*
X124000768Y-94054918D01*
X124047409Y-94005250D01*
X124050163Y-94002409D01*
X124069885Y-93982687D01*
X124072362Y-93979494D01*
X124080067Y-93970473D01*
X124104909Y-93944018D01*
X124110336Y-93938239D01*
X124114157Y-93931289D01*
X124120096Y-93920486D01*
X124130952Y-93903959D01*
X124138507Y-93894220D01*
X124138508Y-93894218D01*
X124143364Y-93887958D01*
X124160924Y-93847378D01*
X124166141Y-93836730D01*
X124183625Y-93804927D01*
X124183626Y-93804925D01*
X124187445Y-93797978D01*
X124192483Y-93778355D01*
X124198887Y-93759652D01*
X124203783Y-93748338D01*
X124203783Y-93748337D01*
X124206931Y-93741063D01*
X124208170Y-93733240D01*
X124208173Y-93733230D01*
X124213849Y-93697394D01*
X124216255Y-93685774D01*
X124225278Y-93650629D01*
X124225278Y-93650628D01*
X124227250Y-93642948D01*
X124227250Y-93622694D01*
X124228801Y-93602983D01*
X124230730Y-93590804D01*
X124231970Y-93582975D01*
X124227809Y-93538956D01*
X124227250Y-93527099D01*
X124227250Y-91608701D01*
X124247252Y-91540580D01*
X124270739Y-91513475D01*
X124272587Y-91511874D01*
X124280171Y-91507000D01*
X124303313Y-91480293D01*
X124370024Y-91403305D01*
X124370026Y-91403302D01*
X124375926Y-91396493D01*
X124436669Y-91263484D01*
X124457479Y-91118750D01*
X124457479Y-89618750D01*
X124454904Y-89582749D01*
X124452732Y-89552372D01*
X124452731Y-89552368D01*
X124452250Y-89545639D01*
X124450348Y-89539160D01*
X124449610Y-89535073D01*
X124457197Y-89464483D01*
X124501744Y-89409201D01*
X124569107Y-89386778D01*
X124637898Y-89404335D01*
X124673209Y-89436509D01*
X124673460Y-89436944D01*
X124762996Y-89536384D01*
X124790096Y-89566481D01*
X124801247Y-89578866D01*
X124859249Y-89621007D01*
X124935506Y-89676411D01*
X124955748Y-89691118D01*
X124961776Y-89693802D01*
X124961778Y-89693803D01*
X125124181Y-89766109D01*
X125130212Y-89768794D01*
X125223612Y-89788647D01*
X125310556Y-89807128D01*
X125310561Y-89807128D01*
X125317013Y-89808500D01*
X125507987Y-89808500D01*
X125514439Y-89807128D01*
X125514444Y-89807128D01*
X125601387Y-89788647D01*
X125694788Y-89768794D01*
X125700819Y-89766109D01*
X125863222Y-89693803D01*
X125863224Y-89693802D01*
X125869252Y-89691118D01*
X125889495Y-89676411D01*
X125965751Y-89621007D01*
X126023753Y-89578866D01*
X126033297Y-89568266D01*
X126147121Y-89441852D01*
X126147122Y-89441851D01*
X126151540Y-89436944D01*
X126220743Y-89317081D01*
X126243723Y-89277279D01*
X126243724Y-89277278D01*
X126247027Y-89271556D01*
X126304265Y-89095398D01*
X126344337Y-89036793D01*
X126409734Y-89009156D01*
X126448894Y-89012518D01*
G37*
%TD.AperFunction*%
%TD*%
M02*
