%TF.GenerationSoftware,KiCad,Pcbnew,(6.0.1)*%
%TF.CreationDate,2022-02-15T20:39:13+08:00*%
%TF.ProjectId,Desk_Macropad,4465736b-5f4d-4616-9372-6f7061642e6b,rev?*%
%TF.SameCoordinates,Original*%
%TF.FileFunction,Soldermask,Top*%
%TF.FilePolarity,Negative*%
%FSLAX46Y46*%
G04 Gerber Fmt 4.6, Leading zero omitted, Abs format (unit mm)*
G04 Created by KiCad (PCBNEW (6.0.1)) date 2022-02-15 20:39:13*
%MOMM*%
%LPD*%
G01*
G04 APERTURE LIST*
G04 Aperture macros list*
%AMFreePoly0*
4,1,17,-0.364645,1.235355,-0.350000,1.200000,-0.350000,0.750000,0.350000,0.750000,0.350000,-0.750000,-0.350000,-0.750000,-0.350000,-1.200000,-0.364645,-1.235355,-0.400000,-1.250000,-2.800000,-1.250000,-2.835355,-1.235355,-2.850000,-1.200000,-2.850000,1.200000,-2.835355,1.235355,-2.800000,1.250000,-0.400000,1.250000,-0.364645,1.235355,-0.364645,1.235355,$1*%
%AMFreePoly1*
4,1,24,2.735355,1.235355,2.750000,1.200000,2.750000,-0.800000,2.748029,-0.804757,2.749028,-0.809806,2.740927,-0.821903,2.735355,-0.835355,2.730600,-0.837325,2.727735,-0.841603,2.127735,-1.241603,2.113450,-1.244429,2.100000,-1.250000,0.300000,-1.250000,0.264645,-1.235355,0.250000,-1.200000,0.250000,-0.750000,-0.350000,-0.750000,-0.350000,0.750000,0.250000,0.750000,0.250000,1.200000,
0.264645,1.235355,0.300000,1.250000,2.700000,1.250000,2.735355,1.235355,2.735355,1.235355,$1*%
G04 Aperture macros list end*
%ADD10FreePoly0,0.000000*%
%ADD11FreePoly1,0.000000*%
%ADD12C,3.000000*%
%ADD13C,1.700000*%
%ADD14C,4.000000*%
%ADD15R,1.800000X1.500000*%
%ADD16C,2.000000*%
%ADD17R,3.200000X2.000000*%
%ADD18R,1.500000X1.800000*%
%ADD19R,1.752600X1.752600*%
%ADD20C,1.752600*%
G04 APERTURE END LIST*
D10*
%TO.C,SW3*%
X161693750Y-90368750D03*
D11*
X145993750Y-87768750D03*
D12*
X149383750Y-90328749D03*
D13*
X148113750Y-92868750D03*
D14*
X153193750Y-92868750D03*
D12*
X157003750Y-90328750D03*
D13*
X158273750Y-92868750D03*
D12*
X155733750Y-87788750D03*
X150653750Y-87788750D03*
%TD*%
D10*
%TO.C,SW4*%
X180743750Y-90368750D03*
D11*
X165043750Y-87768750D03*
D13*
X167163750Y-92868750D03*
D12*
X169703750Y-87788750D03*
X176053750Y-90328750D03*
D13*
X177323750Y-92868750D03*
D12*
X174783750Y-87788750D03*
D14*
X172243750Y-92868750D03*
D12*
X168433750Y-90328749D03*
%TD*%
D15*
%TO.C,D4*%
X146956250Y-103187500D03*
X143556250Y-103187500D03*
%TD*%
%TO.C,D3*%
X124506250Y-103187500D03*
X127906250Y-103187500D03*
%TD*%
D12*
%TO.C,SW1*%
X117633750Y-87788750D03*
X118903750Y-90328750D03*
D13*
X110013750Y-92868750D03*
D12*
X112553750Y-87788750D03*
D13*
X120173750Y-92868750D03*
D12*
X111283750Y-90328749D03*
D14*
X115093750Y-92868750D03*
D11*
X107893750Y-87768750D03*
D10*
X123593750Y-90368750D03*
%TD*%
D16*
%TO.C,SW5*%
X81543750Y-91162500D03*
X81543750Y-96162500D03*
X81543750Y-93662500D03*
D17*
X89043750Y-88062500D03*
X89043750Y-99262500D03*
D16*
X96043750Y-96162500D03*
X96043750Y-91162500D03*
%TD*%
D15*
%TO.C,D2*%
X105456250Y-103187500D03*
X108856250Y-103187500D03*
%TD*%
D16*
%TO.C,RSW1*%
X85793750Y-82528750D03*
X92293750Y-82528750D03*
%TD*%
D10*
%TO.C,SW2*%
X142643750Y-90368750D03*
D11*
X126943750Y-87768750D03*
D12*
X136683750Y-87788750D03*
X137953750Y-90328750D03*
X130333750Y-90328749D03*
D13*
X129063750Y-92868750D03*
D14*
X134143750Y-92868750D03*
D12*
X131603750Y-87788750D03*
D13*
X139223750Y-92868750D03*
%TD*%
D18*
%TO.C,D1*%
X99362500Y-94568750D03*
X99362500Y-91168750D03*
%TD*%
D15*
%TO.C,D5*%
X166006250Y-103187500D03*
X162606250Y-103187500D03*
%TD*%
D19*
%TO.C,U1*%
X131045750Y-98107500D03*
D20*
X128505750Y-98107500D03*
X125965750Y-98107500D03*
X123425750Y-98107500D03*
X120885750Y-98107500D03*
X118345750Y-98107500D03*
X115805750Y-98107500D03*
X113265750Y-98107500D03*
X110725750Y-98107500D03*
X108185750Y-98107500D03*
X105645750Y-98107500D03*
X103105750Y-97878900D03*
X103105750Y-82867500D03*
X105645750Y-82867500D03*
X108185750Y-82867500D03*
X110725750Y-82867500D03*
X113265750Y-82867500D03*
X115805750Y-82867500D03*
X118345750Y-82867500D03*
X120885750Y-82867500D03*
X123425750Y-82867500D03*
X125965750Y-82867500D03*
X128505750Y-82867500D03*
X131045750Y-82867500D03*
X103105750Y-95567500D03*
X103105750Y-93027500D03*
X103105750Y-90487500D03*
X103105750Y-87947500D03*
X103105750Y-85407500D03*
%TD*%
M02*
