<?xml version="1.0" standalone="no"?>
 <!DOCTYPE svg PUBLIC "-//W3C//DTD SVG 1.1//EN" 
 "http://www.w3.org/Graphics/SVG/1.1/DTD/svg11.dtd"> 
<svg
  xmlns:svg="http://www.w3.org/2000/svg"
  xmlns="http://www.w3.org/2000/svg"
  xmlns:xlink="http://www.w3.org/1999/xlink"
  version="1.1"
  width="29.700220cm" height="21.000720cm" viewBox="0 0 297002200 210007200">
<title>SVG Picture created as Desk_Macropad-User_Eco2.svg date 2022/02/22 15:13:54 </title>
  <desc>Picture generated by PCBNEW </desc>
<g style="fill:#000000; fill-opacity:1.000000;stroke:#000000; stroke-opacity:1.000000;
stroke-linecap:round; stroke-linejoin:round;"
 transform="translate(0 0) scale(1 1)">
</g>
<g style="fill:#000000; fill-opacity:0.0; 
stroke:#000000; stroke-width:0.000000; stroke-opacity:1; 
stroke-linecap:round; stroke-linejoin:round;">
</g>
<g style="fill:#000000; fill-opacity:0.0; 
stroke:#000000; stroke-width:150000.000000; stroke-opacity:1; 
stroke-linecap:round; stroke-linejoin:round;">
<path d="M160193750 99868750
L146193750 99868750
" />
<path d="M146193750 85868750
L160193750 85868750
" />
<path d="M146193750 99868750
L146193750 85868750
" />
<path d="M160193750 85868750
L160193750 99868750
" />
<path d="M165243750 99868750
L165243750 85868750
" />
<path d="M179243750 85868750
L179243750 99868750
" />
<path d="M179243750 99868750
L165243750 99868750
" />
<path d="M165243750 85868750
L179243750 85868750
" />
<path d="M122093750 85868750
L122093750 99868750
" />
<path d="M122093750 99868750
L108093750 99868750
" />
<path d="M108093750 99868750
L108093750 85868750
" />
<path d="M108093750 85868750
L122093750 85868750
" />
<path d="M141143750 99868750
L127143750 99868750
" />
<path d="M127143750 99868750
L127143750 85868750
" />
<path d="M127143750 85868750
L141143750 85868750
" />
<path d="M141143750 85868750
L141143750 99868750
" />
<g >
</g>
<g >
</g>
<g >
</g>
<g >
</g>
<g >
</g>
<g >
</g>
<g >
</g>
<g >
</g>
<g >
</g>
<g >
</g>
<g >
</g>
<g >
</g>
<g >
</g>
<g >
</g>
<g >
</g>
</g> 
</svg>
