M48
; DRILL file {KiCad (6.0.1)} date Tue Feb 15 20:39:11 2022
; FORMAT={-:-/ absolute / metric / decimal}
; #@! TF.CreationDate,2022-02-15T20:39:11+08:00
; #@! TF.GenerationSoftware,Kicad,Pcbnew,(6.0.1)
; #@! TF.FileFunction,Plated,1,2,PTH
FMAT,2
METRIC
; #@! TA.AperFunction,Plated,PTH,ViaDrill
T1C0.400
; #@! TA.AperFunction,Plated,PTH,ComponentDrill
T2C0.400
; #@! TA.AperFunction,Plated,PTH,ComponentDrill
T3C1.000
; #@! TA.AperFunction,Plated,PTH,ComponentDrill
T4C1.092
; #@! TA.AperFunction,Plated,PTH,ComponentDrill
T5C1.300
; #@! TA.AperFunction,Plated,PTH,ComponentDrill
T6C1.500
%
G90
G05
T1
X106.362Y-88.9
X123.031Y-88.9
X125.412Y-88.9
X142.081Y-88.9
X144.463Y-88.9
X161.131Y-88.9
X163.512Y-88.9
X180.181Y-88.9
T2
X99.362Y-91.169
X99.362Y-94.569
X105.456Y-103.188
X108.856Y-103.188
X124.506Y-103.188
X127.906Y-103.188
X143.556Y-103.188
X146.956Y-103.188
X162.606Y-103.188
X166.006Y-103.188
T3
X81.544Y-91.162
X81.544Y-93.662
X81.544Y-96.162
X96.044Y-91.162
X96.044Y-96.162
T4
X103.106Y-82.867
X103.106Y-85.407
X103.106Y-87.947
X103.106Y-90.487
X103.106Y-93.027
X103.106Y-95.567
X103.106Y-97.879
X105.646Y-82.867
X105.646Y-98.108
X108.186Y-82.867
X108.186Y-98.108
X110.726Y-82.867
X110.726Y-98.108
X113.266Y-82.867
X113.266Y-98.108
X115.806Y-82.867
X115.806Y-98.108
X118.346Y-82.867
X118.346Y-98.108
X120.886Y-82.867
X120.886Y-98.108
X123.426Y-82.867
X123.426Y-98.108
X125.966Y-82.867
X125.966Y-98.108
X128.506Y-82.867
X128.506Y-98.108
X131.046Y-82.867
X131.046Y-98.108
T5
X85.794Y-82.529
X92.294Y-82.529
T6
G00X88.394Y-88.062
M15
G01X89.694Y-88.062
M16
G05
G00X88.394Y-99.262
M15
G01X89.694Y-99.262
M16
G05
T0
M30
