  0
SECTION
  2
HEADER
  9
$ANGBASE
  50
0.0
  9
$ANGDIR
  70
1
  9
$MEASUREMENT
  70
0
  0
ENDSEC
  0
SECTION
  2
TABLES
  0
TABLE
  2
LTYPE
  70
4
  0
LTYPE
  5
40F
  2
CONTINUOUS
  70
0
  3
Solid line
  72
65
  73
0
  40
0.0
  0
LTYPE
  5
410
  2
DASHDOT
 70
0
  3
Dash Dot ____ _ ____ _
 72
65
 73
4
 40
2.0
 49
1.25
 49
-0.25
 49
0.25
 49
-0.25
  0
LTYPE
  5
411
  2
DASHED
 70
0
  3
Dashed __ __ __ __ __
 72
65
 73
2
 40
0.75
 49
0.5
 49
-0.25
  0
LTYPE
  5
43B
  2
DOTTED
 70
0
  3
Dotted .  .  .  .
 72
65
 73
2
 40
0.2
 49
0.0
 49
-0.2
  0
ENDTAB
  0
TABLE
  2
STYLE
  70
4
  0
STYLE
  2
KICAD
  70
0
  40
0
  41
1
  42
1
  50
0
  71
0
  3
isocp.shx
  0
STYLE
  2
KICADB
  70
0
  40
0
  41
1
  42
1
  50
0
  71
0
  3
isocp.shx
  0
STYLE
  2
KICADI
  70
0
  40
0
  41
1
  42
1
  50
15
  71
0
  3
isocp.shx
  0
STYLE
  2
KICADBI
  70
0
  40
0
  41
1
  42
1
  50
15
  71
0
  3
isocp.shx
  0
ENDTAB
  0
TABLE
  2
LAYER
  70
1
  0
LAYER
  2
BLACK
  70
0
  62
7
  6
CONTINUOUS
  0
ENDTAB
  0
ENDSEC
  0
SECTION
  2
ENTITIES
0
LINE
8
BLACK
6
CONTINUOUS
10
6.30722
20
-3.37777
11
6.30735
21
-3.37775
0
LINE
8
BLACK
6
CONTINUOUS
10
6.30735
20
-3.37775
11
6.30747
21
-3.37782
0
LINE
8
BLACK
6
CONTINUOUS
10
6.30747
20
-3.37782
11
6.30785
21
-3.37788
0
LINE
8
BLACK
6
CONTINUOUS
10
6.30785
20
-3.37788
11
6.30844
21
-3.37838
0
LINE
8
BLACK
6
CONTINUOUS
10
6.30844
20
-3.37838
11
6.3091
21
-3.37876
0
LINE
8
BLACK
6
CONTINUOUS
10
6.3091
20
-3.37876
11
6.30919
21
-3.37901
0
LINE
8
BLACK
6
CONTINUOUS
10
6.30919
20
-3.37901
11
6.3094
21
-3.37918
0
LINE
8
BLACK
6
CONTINUOUS
10
6.3094
20
-3.37918
11
6.30953
21
-3.37994
0
LINE
8
BLACK
6
CONTINUOUS
10
6.30953
20
-3.37994
11
6.30979
21
-3.38066
0
LINE
8
BLACK
6
CONTINUOUS
10
6.30979
20
-3.38066
11
6.30979
21
-3.93184
0
LINE
8
BLACK
6
CONTINUOUS
10
6.30979
20
-3.93184
11
6.30973
21
-3.93222
0
LINE
8
BLACK
6
CONTINUOUS
10
6.30973
20
-3.93222
11
6.30975
21
-3.93235
0
LINE
8
BLACK
6
CONTINUOUS
10
6.30975
20
-3.93235
11
6.30968
21
-3.93247
0
LINE
8
BLACK
6
CONTINUOUS
10
6.30968
20
-3.93247
11
6.30962
21
-3.93285
0
LINE
8
BLACK
6
CONTINUOUS
10
6.30962
20
-3.93285
11
6.30912
21
-3.93344
0
LINE
8
BLACK
6
CONTINUOUS
10
6.30912
20
-3.93344
11
6.30874
21
-3.9341
0
LINE
8
BLACK
6
CONTINUOUS
10
6.30874
20
-3.9341
11
6.30849
21
-3.93419
0
LINE
8
BLACK
6
CONTINUOUS
10
6.30849
20
-3.93419
11
6.30832
21
-3.9344
0
LINE
8
BLACK
6
CONTINUOUS
10
6.30832
20
-3.9344
11
6.30756
21
-3.93453
0
LINE
8
BLACK
6
CONTINUOUS
10
6.30756
20
-3.93453
11
6.30684
21
-3.93479
0
LINE
8
BLACK
6
CONTINUOUS
10
6.30684
20
-3.93479
11
5.75566
21
-3.93479
0
LINE
8
BLACK
6
CONTINUOUS
10
5.75566
20
-3.93479
11
5.75528
21
-3.93473
0
LINE
8
BLACK
6
CONTINUOUS
10
5.75528
20
-3.93473
11
5.75515
21
-3.93475
0
LINE
8
BLACK
6
CONTINUOUS
10
5.75515
20
-3.93475
11
5.75503
21
-3.93468
0
LINE
8
BLACK
6
CONTINUOUS
10
5.75503
20
-3.93468
11
5.75465
21
-3.93462
0
LINE
8
BLACK
6
CONTINUOUS
10
5.75465
20
-3.93462
11
5.75406
21
-3.93412
0
LINE
8
BLACK
6
CONTINUOUS
10
5.75406
20
-3.93412
11
5.7534
21
-3.93374
0
LINE
8
BLACK
6
CONTINUOUS
10
5.7534
20
-3.93374
11
5.75331
21
-3.93349
0
LINE
8
BLACK
6
CONTINUOUS
10
5.75331
20
-3.93349
11
5.7531
21
-3.93332
0
LINE
8
BLACK
6
CONTINUOUS
10
5.7531
20
-3.93332
11
5.75297
21
-3.93256
0
LINE
8
BLACK
6
CONTINUOUS
10
5.75297
20
-3.93256
11
5.75271
21
-3.93184
0
LINE
8
BLACK
6
CONTINUOUS
10
5.75271
20
-3.93184
11
5.75271
21
-3.38066
0
LINE
8
BLACK
6
CONTINUOUS
10
5.75271
20
-3.38066
11
5.75277
21
-3.38028
0
LINE
8
BLACK
6
CONTINUOUS
10
5.75277
20
-3.38028
11
5.75275
21
-3.38015
0
LINE
8
BLACK
6
CONTINUOUS
10
5.75275
20
-3.38015
11
5.75282
21
-3.38003
0
LINE
8
BLACK
6
CONTINUOUS
10
5.75282
20
-3.38003
11
5.75288
21
-3.37965
0
LINE
8
BLACK
6
CONTINUOUS
10
5.75288
20
-3.37965
11
5.75338
21
-3.37906
0
LINE
8
BLACK
6
CONTINUOUS
10
5.75338
20
-3.37906
11
5.75376
21
-3.3784
0
LINE
8
BLACK
6
CONTINUOUS
10
5.75376
20
-3.3784
11
5.75401
21
-3.37831
0
LINE
8
BLACK
6
CONTINUOUS
10
5.75401
20
-3.37831
11
5.75418
21
-3.3781
0
LINE
8
BLACK
6
CONTINUOUS
10
5.75418
20
-3.3781
11
5.75494
21
-3.37797
0
LINE
8
BLACK
6
CONTINUOUS
10
5.75494
20
-3.37797
11
5.75566
21
-3.37771
0
LINE
8
BLACK
6
CONTINUOUS
10
5.75566
20
-3.37771
11
6.30684
21
-3.37771
0
LINE
8
BLACK
6
CONTINUOUS
10
6.30684
20
-3.37771
11
6.30722
21
-3.37777
0
LINE
8
BLACK
6
CONTINUOUS
10
5.75861
20
-3.38361
11
5.75861
21
-3.92889
0
LINE
8
BLACK
6
CONTINUOUS
10
5.75861
20
-3.92889
11
6.30389
21
-3.92889
0
LINE
8
BLACK
6
CONTINUOUS
10
6.30389
20
-3.92889
11
6.30389
21
-3.38361
0
LINE
8
BLACK
6
CONTINUOUS
10
6.30389
20
-3.38361
11
5.75861
21
-3.38361
0
LINE
8
BLACK
6
CONTINUOUS
10
7.05722
20
-3.37777
11
7.05735
21
-3.37775
0
LINE
8
BLACK
6
CONTINUOUS
10
7.05735
20
-3.37775
11
7.05747
21
-3.37782
0
LINE
8
BLACK
6
CONTINUOUS
10
7.05747
20
-3.37782
11
7.05785
21
-3.37788
0
LINE
8
BLACK
6
CONTINUOUS
10
7.05785
20
-3.37788
11
7.05844
21
-3.37838
0
LINE
8
BLACK
6
CONTINUOUS
10
7.05844
20
-3.37838
11
7.0591
21
-3.37876
0
LINE
8
BLACK
6
CONTINUOUS
10
7.0591
20
-3.37876
11
7.05919
21
-3.37901
0
LINE
8
BLACK
6
CONTINUOUS
10
7.05919
20
-3.37901
11
7.0594
21
-3.37918
0
LINE
8
BLACK
6
CONTINUOUS
10
7.0594
20
-3.37918
11
7.05953
21
-3.37994
0
LINE
8
BLACK
6
CONTINUOUS
10
7.05953
20
-3.37994
11
7.05979
21
-3.38066
0
LINE
8
BLACK
6
CONTINUOUS
10
7.05979
20
-3.38066
11
7.05979
21
-3.93184
0
LINE
8
BLACK
6
CONTINUOUS
10
7.05979
20
-3.93184
11
7.05973
21
-3.93222
0
LINE
8
BLACK
6
CONTINUOUS
10
7.05973
20
-3.93222
11
7.05975
21
-3.93235
0
LINE
8
BLACK
6
CONTINUOUS
10
7.05975
20
-3.93235
11
7.05968
21
-3.93247
0
LINE
8
BLACK
6
CONTINUOUS
10
7.05968
20
-3.93247
11
7.05962
21
-3.93285
0
LINE
8
BLACK
6
CONTINUOUS
10
7.05962
20
-3.93285
11
7.05912
21
-3.93344
0
LINE
8
BLACK
6
CONTINUOUS
10
7.05912
20
-3.93344
11
7.05874
21
-3.9341
0
LINE
8
BLACK
6
CONTINUOUS
10
7.05874
20
-3.9341
11
7.05849
21
-3.93419
0
LINE
8
BLACK
6
CONTINUOUS
10
7.05849
20
-3.93419
11
7.05832
21
-3.9344
0
LINE
8
BLACK
6
CONTINUOUS
10
7.05832
20
-3.9344
11
7.05756
21
-3.93453
0
LINE
8
BLACK
6
CONTINUOUS
10
7.05756
20
-3.93453
11
7.05684
21
-3.93479
0
LINE
8
BLACK
6
CONTINUOUS
10
7.05684
20
-3.93479
11
6.50566
21
-3.93479
0
LINE
8
BLACK
6
CONTINUOUS
10
6.50566
20
-3.93479
11
6.50528
21
-3.93473
0
LINE
8
BLACK
6
CONTINUOUS
10
6.50528
20
-3.93473
11
6.50515
21
-3.93475
0
LINE
8
BLACK
6
CONTINUOUS
10
6.50515
20
-3.93475
11
6.50503
21
-3.93468
0
LINE
8
BLACK
6
CONTINUOUS
10
6.50503
20
-3.93468
11
6.50465
21
-3.93462
0
LINE
8
BLACK
6
CONTINUOUS
10
6.50465
20
-3.93462
11
6.50406
21
-3.93412
0
LINE
8
BLACK
6
CONTINUOUS
10
6.50406
20
-3.93412
11
6.5034
21
-3.93374
0
LINE
8
BLACK
6
CONTINUOUS
10
6.5034
20
-3.93374
11
6.50331
21
-3.93349
0
LINE
8
BLACK
6
CONTINUOUS
10
6.50331
20
-3.93349
11
6.5031
21
-3.93332
0
LINE
8
BLACK
6
CONTINUOUS
10
6.5031
20
-3.93332
11
6.50297
21
-3.93256
0
LINE
8
BLACK
6
CONTINUOUS
10
6.50297
20
-3.93256
11
6.50271
21
-3.93184
0
LINE
8
BLACK
6
CONTINUOUS
10
6.50271
20
-3.93184
11
6.50271
21
-3.38066
0
LINE
8
BLACK
6
CONTINUOUS
10
6.50271
20
-3.38066
11
6.50277
21
-3.38028
0
LINE
8
BLACK
6
CONTINUOUS
10
6.50277
20
-3.38028
11
6.50275
21
-3.38015
0
LINE
8
BLACK
6
CONTINUOUS
10
6.50275
20
-3.38015
11
6.50282
21
-3.38003
0
LINE
8
BLACK
6
CONTINUOUS
10
6.50282
20
-3.38003
11
6.50288
21
-3.37965
0
LINE
8
BLACK
6
CONTINUOUS
10
6.50288
20
-3.37965
11
6.50338
21
-3.37906
0
LINE
8
BLACK
6
CONTINUOUS
10
6.50338
20
-3.37906
11
6.50376
21
-3.3784
0
LINE
8
BLACK
6
CONTINUOUS
10
6.50376
20
-3.3784
11
6.50401
21
-3.37831
0
LINE
8
BLACK
6
CONTINUOUS
10
6.50401
20
-3.37831
11
6.50418
21
-3.3781
0
LINE
8
BLACK
6
CONTINUOUS
10
6.50418
20
-3.3781
11
6.50494
21
-3.37797
0
LINE
8
BLACK
6
CONTINUOUS
10
6.50494
20
-3.37797
11
6.50566
21
-3.37771
0
LINE
8
BLACK
6
CONTINUOUS
10
6.50566
20
-3.37771
11
7.05684
21
-3.37771
0
LINE
8
BLACK
6
CONTINUOUS
10
7.05684
20
-3.37771
11
7.05722
21
-3.37777
0
LINE
8
BLACK
6
CONTINUOUS
10
6.50861
20
-3.38361
11
6.50861
21
-3.92889
0
LINE
8
BLACK
6
CONTINUOUS
10
6.50861
20
-3.92889
11
7.05389
21
-3.92889
0
LINE
8
BLACK
6
CONTINUOUS
10
7.05389
20
-3.92889
11
7.05389
21
-3.38361
0
LINE
8
BLACK
6
CONTINUOUS
10
7.05389
20
-3.38361
11
6.50861
21
-3.38361
0
LINE
8
BLACK
6
CONTINUOUS
10
4.80722
20
-3.37777
11
4.80735
21
-3.37775
0
LINE
8
BLACK
6
CONTINUOUS
10
4.80735
20
-3.37775
11
4.80747
21
-3.37782
0
LINE
8
BLACK
6
CONTINUOUS
10
4.80747
20
-3.37782
11
4.80785
21
-3.37788
0
LINE
8
BLACK
6
CONTINUOUS
10
4.80785
20
-3.37788
11
4.80844
21
-3.37838
0
LINE
8
BLACK
6
CONTINUOUS
10
4.80844
20
-3.37838
11
4.8091
21
-3.37876
0
LINE
8
BLACK
6
CONTINUOUS
10
4.8091
20
-3.37876
11
4.80919
21
-3.37901
0
LINE
8
BLACK
6
CONTINUOUS
10
4.80919
20
-3.37901
11
4.8094
21
-3.37918
0
LINE
8
BLACK
6
CONTINUOUS
10
4.8094
20
-3.37918
11
4.80953
21
-3.37994
0
LINE
8
BLACK
6
CONTINUOUS
10
4.80953
20
-3.37994
11
4.80979
21
-3.38066
0
LINE
8
BLACK
6
CONTINUOUS
10
4.80979
20
-3.38066
11
4.80979
21
-3.93184
0
LINE
8
BLACK
6
CONTINUOUS
10
4.80979
20
-3.93184
11
4.80973
21
-3.93222
0
LINE
8
BLACK
6
CONTINUOUS
10
4.80973
20
-3.93222
11
4.80975
21
-3.93235
0
LINE
8
BLACK
6
CONTINUOUS
10
4.80975
20
-3.93235
11
4.80968
21
-3.93247
0
LINE
8
BLACK
6
CONTINUOUS
10
4.80968
20
-3.93247
11
4.80962
21
-3.93285
0
LINE
8
BLACK
6
CONTINUOUS
10
4.80962
20
-3.93285
11
4.80912
21
-3.93344
0
LINE
8
BLACK
6
CONTINUOUS
10
4.80912
20
-3.93344
11
4.80874
21
-3.9341
0
LINE
8
BLACK
6
CONTINUOUS
10
4.80874
20
-3.9341
11
4.80849
21
-3.93419
0
LINE
8
BLACK
6
CONTINUOUS
10
4.80849
20
-3.93419
11
4.80832
21
-3.9344
0
LINE
8
BLACK
6
CONTINUOUS
10
4.80832
20
-3.9344
11
4.80756
21
-3.93453
0
LINE
8
BLACK
6
CONTINUOUS
10
4.80756
20
-3.93453
11
4.80684
21
-3.93479
0
LINE
8
BLACK
6
CONTINUOUS
10
4.80684
20
-3.93479
11
4.25566
21
-3.93479
0
LINE
8
BLACK
6
CONTINUOUS
10
4.25566
20
-3.93479
11
4.25528
21
-3.93473
0
LINE
8
BLACK
6
CONTINUOUS
10
4.25528
20
-3.93473
11
4.25515
21
-3.93475
0
LINE
8
BLACK
6
CONTINUOUS
10
4.25515
20
-3.93475
11
4.25503
21
-3.93468
0
LINE
8
BLACK
6
CONTINUOUS
10
4.25503
20
-3.93468
11
4.25465
21
-3.93462
0
LINE
8
BLACK
6
CONTINUOUS
10
4.25465
20
-3.93462
11
4.25406
21
-3.93412
0
LINE
8
BLACK
6
CONTINUOUS
10
4.25406
20
-3.93412
11
4.2534
21
-3.93374
0
LINE
8
BLACK
6
CONTINUOUS
10
4.2534
20
-3.93374
11
4.25331
21
-3.93349
0
LINE
8
BLACK
6
CONTINUOUS
10
4.25331
20
-3.93349
11
4.2531
21
-3.93332
0
LINE
8
BLACK
6
CONTINUOUS
10
4.2531
20
-3.93332
11
4.25297
21
-3.93256
0
LINE
8
BLACK
6
CONTINUOUS
10
4.25297
20
-3.93256
11
4.25271
21
-3.93184
0
LINE
8
BLACK
6
CONTINUOUS
10
4.25271
20
-3.93184
11
4.25271
21
-3.38066
0
LINE
8
BLACK
6
CONTINUOUS
10
4.25271
20
-3.38066
11
4.25277
21
-3.38028
0
LINE
8
BLACK
6
CONTINUOUS
10
4.25277
20
-3.38028
11
4.25275
21
-3.38015
0
LINE
8
BLACK
6
CONTINUOUS
10
4.25275
20
-3.38015
11
4.25282
21
-3.38003
0
LINE
8
BLACK
6
CONTINUOUS
10
4.25282
20
-3.38003
11
4.25288
21
-3.37965
0
LINE
8
BLACK
6
CONTINUOUS
10
4.25288
20
-3.37965
11
4.25338
21
-3.37906
0
LINE
8
BLACK
6
CONTINUOUS
10
4.25338
20
-3.37906
11
4.25376
21
-3.3784
0
LINE
8
BLACK
6
CONTINUOUS
10
4.25376
20
-3.3784
11
4.25401
21
-3.37831
0
LINE
8
BLACK
6
CONTINUOUS
10
4.25401
20
-3.37831
11
4.25418
21
-3.3781
0
LINE
8
BLACK
6
CONTINUOUS
10
4.25418
20
-3.3781
11
4.25494
21
-3.37797
0
LINE
8
BLACK
6
CONTINUOUS
10
4.25494
20
-3.37797
11
4.25566
21
-3.37771
0
LINE
8
BLACK
6
CONTINUOUS
10
4.25566
20
-3.37771
11
4.80684
21
-3.37771
0
LINE
8
BLACK
6
CONTINUOUS
10
4.80684
20
-3.37771
11
4.80722
21
-3.37777
0
LINE
8
BLACK
6
CONTINUOUS
10
4.25861
20
-3.38361
11
4.25861
21
-3.92889
0
LINE
8
BLACK
6
CONTINUOUS
10
4.25861
20
-3.92889
11
4.80389
21
-3.92889
0
LINE
8
BLACK
6
CONTINUOUS
10
4.80389
20
-3.92889
11
4.80389
21
-3.38361
0
LINE
8
BLACK
6
CONTINUOUS
10
4.80389
20
-3.38361
11
4.25861
21
-3.38361
0
LINE
8
BLACK
6
CONTINUOUS
10
5.55722
20
-3.37777
11
5.55735
21
-3.37775
0
LINE
8
BLACK
6
CONTINUOUS
10
5.55735
20
-3.37775
11
5.55747
21
-3.37782
0
LINE
8
BLACK
6
CONTINUOUS
10
5.55747
20
-3.37782
11
5.55785
21
-3.37788
0
LINE
8
BLACK
6
CONTINUOUS
10
5.55785
20
-3.37788
11
5.55844
21
-3.37838
0
LINE
8
BLACK
6
CONTINUOUS
10
5.55844
20
-3.37838
11
5.5591
21
-3.37876
0
LINE
8
BLACK
6
CONTINUOUS
10
5.5591
20
-3.37876
11
5.55919
21
-3.37901
0
LINE
8
BLACK
6
CONTINUOUS
10
5.55919
20
-3.37901
11
5.5594
21
-3.37918
0
LINE
8
BLACK
6
CONTINUOUS
10
5.5594
20
-3.37918
11
5.55953
21
-3.37994
0
LINE
8
BLACK
6
CONTINUOUS
10
5.55953
20
-3.37994
11
5.55979
21
-3.38066
0
LINE
8
BLACK
6
CONTINUOUS
10
5.55979
20
-3.38066
11
5.55979
21
-3.93184
0
LINE
8
BLACK
6
CONTINUOUS
10
5.55979
20
-3.93184
11
5.55973
21
-3.93222
0
LINE
8
BLACK
6
CONTINUOUS
10
5.55973
20
-3.93222
11
5.55975
21
-3.93235
0
LINE
8
BLACK
6
CONTINUOUS
10
5.55975
20
-3.93235
11
5.55968
21
-3.93247
0
LINE
8
BLACK
6
CONTINUOUS
10
5.55968
20
-3.93247
11
5.55962
21
-3.93285
0
LINE
8
BLACK
6
CONTINUOUS
10
5.55962
20
-3.93285
11
5.55912
21
-3.93344
0
LINE
8
BLACK
6
CONTINUOUS
10
5.55912
20
-3.93344
11
5.55874
21
-3.9341
0
LINE
8
BLACK
6
CONTINUOUS
10
5.55874
20
-3.9341
11
5.55849
21
-3.93419
0
LINE
8
BLACK
6
CONTINUOUS
10
5.55849
20
-3.93419
11
5.55832
21
-3.9344
0
LINE
8
BLACK
6
CONTINUOUS
10
5.55832
20
-3.9344
11
5.55756
21
-3.93453
0
LINE
8
BLACK
6
CONTINUOUS
10
5.55756
20
-3.93453
11
5.55684
21
-3.93479
0
LINE
8
BLACK
6
CONTINUOUS
10
5.55684
20
-3.93479
11
5.00566
21
-3.93479
0
LINE
8
BLACK
6
CONTINUOUS
10
5.00566
20
-3.93479
11
5.00528
21
-3.93473
0
LINE
8
BLACK
6
CONTINUOUS
10
5.00528
20
-3.93473
11
5.00515
21
-3.93475
0
LINE
8
BLACK
6
CONTINUOUS
10
5.00515
20
-3.93475
11
5.00503
21
-3.93468
0
LINE
8
BLACK
6
CONTINUOUS
10
5.00503
20
-3.93468
11
5.00465
21
-3.93462
0
LINE
8
BLACK
6
CONTINUOUS
10
5.00465
20
-3.93462
11
5.00406
21
-3.93412
0
LINE
8
BLACK
6
CONTINUOUS
10
5.00406
20
-3.93412
11
5.0034
21
-3.93374
0
LINE
8
BLACK
6
CONTINUOUS
10
5.0034
20
-3.93374
11
5.00331
21
-3.93349
0
LINE
8
BLACK
6
CONTINUOUS
10
5.00331
20
-3.93349
11
5.0031
21
-3.93332
0
LINE
8
BLACK
6
CONTINUOUS
10
5.0031
20
-3.93332
11
5.00297
21
-3.93256
0
LINE
8
BLACK
6
CONTINUOUS
10
5.00297
20
-3.93256
11
5.00271
21
-3.93184
0
LINE
8
BLACK
6
CONTINUOUS
10
5.00271
20
-3.93184
11
5.00271
21
-3.38066
0
LINE
8
BLACK
6
CONTINUOUS
10
5.00271
20
-3.38066
11
5.00277
21
-3.38028
0
LINE
8
BLACK
6
CONTINUOUS
10
5.00277
20
-3.38028
11
5.00275
21
-3.38015
0
LINE
8
BLACK
6
CONTINUOUS
10
5.00275
20
-3.38015
11
5.00282
21
-3.38003
0
LINE
8
BLACK
6
CONTINUOUS
10
5.00282
20
-3.38003
11
5.00288
21
-3.37965
0
LINE
8
BLACK
6
CONTINUOUS
10
5.00288
20
-3.37965
11
5.00338
21
-3.37906
0
LINE
8
BLACK
6
CONTINUOUS
10
5.00338
20
-3.37906
11
5.00376
21
-3.3784
0
LINE
8
BLACK
6
CONTINUOUS
10
5.00376
20
-3.3784
11
5.00401
21
-3.37831
0
LINE
8
BLACK
6
CONTINUOUS
10
5.00401
20
-3.37831
11
5.00418
21
-3.3781
0
LINE
8
BLACK
6
CONTINUOUS
10
5.00418
20
-3.3781
11
5.00494
21
-3.37797
0
LINE
8
BLACK
6
CONTINUOUS
10
5.00494
20
-3.37797
11
5.00566
21
-3.37771
0
LINE
8
BLACK
6
CONTINUOUS
10
5.00566
20
-3.37771
11
5.55684
21
-3.37771
0
LINE
8
BLACK
6
CONTINUOUS
10
5.55684
20
-3.37771
11
5.55722
21
-3.37777
0
LINE
8
BLACK
6
CONTINUOUS
10
5.00861
20
-3.38361
11
5.00861
21
-3.92889
0
LINE
8
BLACK
6
CONTINUOUS
10
5.00861
20
-3.92889
11
5.55389
21
-3.92889
0
LINE
8
BLACK
6
CONTINUOUS
10
5.55389
20
-3.92889
11
5.55389
21
-3.38361
0
LINE
8
BLACK
6
CONTINUOUS
10
5.55389
20
-3.38361
11
5.00861
21
-3.38361
  0
ENDSEC
  0
EOF
