<?xml version="1.0" standalone="no"?>
 <!DOCTYPE svg PUBLIC "-//W3C//DTD SVG 1.1//EN" 
 "http://www.w3.org/Graphics/SVG/1.1/DTD/svg11.dtd"> 
<svg
  xmlns:svg="http://www.w3.org/2000/svg"
  xmlns="http://www.w3.org/2000/svg"
  xmlns:xlink="http://www.w3.org/1999/xlink"
  version="1.1"
  width="29.700220cm" height="21.000720cm" viewBox="0 0 297002200 210007200">
<title>SVG Picture created as Desk_Macropad-F_Fab.svg date 2022/02/22 15:13:54 </title>
  <desc>Picture generated by PCBNEW </desc>
<g style="fill:#000000; fill-opacity:1.000000;stroke:#000000; stroke-opacity:1.000000;
stroke-linecap:round; stroke-linejoin:round;"
 transform="translate(0 0) scale(1 1)">
</g>
<g style="fill:#000000; fill-opacity:0.0; 
stroke:#000000; stroke-width:0.000000; stroke-opacity:1; 
stroke-linecap:round; stroke-linejoin:round;">
</g>
<g style="fill:#000000; fill-opacity:0.0; 
stroke:#000000; stroke-width:150000.000000; stroke-opacity:1; 
stroke-linecap:round; stroke-linejoin:round;">
<text x="89043750.000000" y="102062500.000000"
textLength="22619049.000000" font-size="1333333.000000" lengthAdjust="spacingAndGlyphs"
text-anchor="middle" opacity="0">Device_Rotary_Encoder_Switch</text>
<g class="stroked-text"><desc>Device_Rotary_Encoder_Switch</desc>
<path d="M77972321 102014880
L77972321 101014880
L78210416 101014880
L78353273 101062500
L78448511 101157738
L78496130 101252976
L78543750 101443452
L78543750 101586309
L78496130 101776785
L78448511 101872023
L78353273 101967261
L78210416 102014880
L77972321 102014880
" />
<path d="M79353273 101967261
L79258035 102014880
L79067559 102014880
L78972321 101967261
L78924702 101872023
L78924702 101491071
L78972321 101395833
L79067559 101348214
L79258035 101348214
L79353273 101395833
L79400892 101491071
L79400892 101586309
L78924702 101681547
" />
<path d="M79734226 101348214
L79972321 102014880
L80210416 101348214
" />
<path d="M80591369 102014880
L80591369 101348214
" />
<path d="M80591369 101014880
L80543750 101062500
L80591369 101110119
L80638988 101062500
L80591369 101014880
L80591369 101110119
" />
<path d="M81496130 101967261
L81400892 102014880
L81210416 102014880
L81115178 101967261
L81067559 101919642
L81019940 101824404
L81019940 101538690
L81067559 101443452
L81115178 101395833
L81210416 101348214
L81400892 101348214
L81496130 101395833
" />
<path d="M82305654 101967261
L82210416 102014880
L82019940 102014880
L81924702 101967261
L81877083 101872023
L81877083 101491071
L81924702 101395833
L82019940 101348214
L82210416 101348214
L82305654 101395833
L82353273 101491071
L82353273 101586309
L81877083 101681547
" />
<path d="M82543750 102110119
L83305654 102110119
" />
<path d="M84115178 102014880
L83781845 101538690
" />
<path d="M83543750 102014880
L83543750 101014880
L83924702 101014880
L84019940 101062500
L84067559 101110119
L84115178 101205357
L84115178 101348214
L84067559 101443452
L84019940 101491071
L83924702 101538690
L83543750 101538690
" />
<path d="M84686607 102014880
L84591369 101967261
L84543750 101919642
L84496130 101824404
L84496130 101538690
L84543750 101443452
L84591369 101395833
L84686607 101348214
L84829464 101348214
L84924702 101395833
L84972321 101443452
L85019940 101538690
L85019940 101824404
L84972321 101919642
L84924702 101967261
L84829464 102014880
L84686607 102014880
" />
<path d="M85305654 101348214
L85686607 101348214
" />
<path d="M85448511 101014880
L85448511 101872023
L85496130 101967261
L85591369 102014880
L85686607 102014880
" />
<path d="M86448511 102014880
L86448511 101491071
L86400892 101395833
L86305654 101348214
L86115178 101348214
L86019940 101395833
" />
<path d="M86448511 101967261
L86353273 102014880
L86115178 102014880
L86019940 101967261
L85972321 101872023
L85972321 101776785
L86019940 101681547
L86115178 101633928
L86353273 101633928
L86448511 101586309
" />
<path d="M86924702 102014880
L86924702 101348214
" />
<path d="M86924702 101538690
L86972321 101443452
L87019940 101395833
L87115178 101348214
L87210416 101348214
" />
<path d="M87448511 101348214
L87686607 102014880
" />
<path d="M87924702 101348214
L87686607 102014880
L87591369 102252976
L87543750 102300595
L87448511 102348214
" />
<path d="M88067559 102110119
L88829464 102110119
" />
<path d="M89067559 101491071
L89400892 101491071
" />
<path d="M89543750 102014880
L89067559 102014880
L89067559 101014880
L89543750 101014880
" />
<path d="M89972321 101348214
L89972321 102014880
" />
<path d="M89972321 101443452
L90019940 101395833
L90115178 101348214
L90258035 101348214
L90353273 101395833
L90400892 101491071
L90400892 102014880
" />
<path d="M91305654 101967261
L91210416 102014880
L91019940 102014880
L90924702 101967261
L90877083 101919642
L90829464 101824404
L90829464 101538690
L90877083 101443452
L90924702 101395833
L91019940 101348214
L91210416 101348214
L91305654 101395833
" />
<path d="M91877083 102014880
L91781845 101967261
L91734226 101919642
L91686607 101824404
L91686607 101538690
L91734226 101443452
L91781845 101395833
L91877083 101348214
L92019940 101348214
L92115178 101395833
L92162797 101443452
L92210416 101538690
L92210416 101824404
L92162797 101919642
L92115178 101967261
L92019940 102014880
L91877083 102014880
" />
<path d="M93067559 102014880
L93067559 101014880
" />
<path d="M93067559 101967261
L92972321 102014880
L92781845 102014880
L92686607 101967261
L92638988 101919642
L92591369 101824404
L92591369 101538690
L92638988 101443452
L92686607 101395833
L92781845 101348214
L92972321 101348214
L93067559 101395833
" />
<path d="M93924702 101967261
L93829464 102014880
L93638988 102014880
L93543750 101967261
L93496130 101872023
L93496130 101491071
L93543750 101395833
L93638988 101348214
L93829464 101348214
L93924702 101395833
L93972321 101491071
L93972321 101586309
L93496130 101681547
" />
<path d="M94400892 102014880
L94400892 101348214
" />
<path d="M94400892 101538690
L94448511 101443452
L94496130 101395833
L94591369 101348214
L94686607 101348214
" />
<path d="M94781845 102110119
L95543750 102110119
" />
<path d="M95734226 101967261
L95877083 102014880
L96115178 102014880
L96210416 101967261
L96258035 101919642
L96305654 101824404
L96305654 101729166
L96258035 101633928
L96210416 101586309
L96115178 101538690
L95924702 101491071
L95829464 101443452
L95781845 101395833
L95734226 101300595
L95734226 101205357
L95781845 101110119
L95829464 101062500
L95924702 101014880
L96162797 101014880
L96305654 101062500
" />
<path d="M96638988 101348214
L96829464 102014880
L97019940 101538690
L97210416 102014880
L97400892 101348214
" />
<path d="M97781845 102014880
L97781845 101348214
" />
<path d="M97781845 101014880
L97734226 101062500
L97781845 101110119
L97829464 101062500
L97781845 101014880
L97781845 101110119
" />
<path d="M98115178 101348214
L98496130 101348214
" />
<path d="M98258035 101014880
L98258035 101872023
L98305654 101967261
L98400892 102014880
L98496130 102014880
" />
<path d="M99258035 101967261
L99162797 102014880
L98972321 102014880
L98877083 101967261
L98829464 101919642
L98781845 101824404
L98781845 101538690
L98829464 101443452
L98877083 101395833
L98972321 101348214
L99162797 101348214
L99258035 101395833
" />
<path d="M99686607 102014880
L99686607 101014880
" />
<path d="M100115178 102014880
L100115178 101491071
L100067559 101395833
L99972321 101348214
L99829464 101348214
L99734226 101395833
L99686607 101443452
" />
</g><path d="M164193750 103868749
L164193749 81868750
" />
<path d="M142193750 81868751
L142193751 103868750
" />
<path d="M142193751 103868750
L164193750 103868749
" />
<path d="M164193749 81868750
L142193750 81868751
" />
<path d="M183243750 103868749
L183243749 81868750
" />
<path d="M183243749 81868750
L161243750 81868751
" />
<path d="M161243751 103868750
L183243750 103868749
" />
<path d="M161243750 81868751
L161243751 103868750
" />
<path d="M126093750 103868749
L126093749 81868750
" />
<path d="M104093751 103868750
L126093750 103868749
" />
<path d="M104093750 81868751
L104093751 103868750
" />
<path d="M126093749 81868750
L104093750 81868751
" />
</g>
<g style="fill:#000000; fill-opacity:0.0; 
stroke:#000000; stroke-width:120000.000000; stroke-opacity:1; 
stroke-linecap:round; stroke-linejoin:round;">
<path d="M95043750 99462500
L83043750 99462500
" />
<path d="M84043750 87862500
L95043750 87862500
" />
<path d="M86043750 93662500
L92043750 93662500
" />
<path d="M83043750 99462500
L83043750 88962500
" />
<path d="M83043750 88962500
L84043750 87862500
" />
<path d="M95043750 87862500
L95043750 99462500
" />
<path d="M89043750 90662500
L89043750 96662500
" />
<circle cx="89043750.000000" cy="93662500.000000" r="3000000.000000" /> 
</g>
<g style="fill:#000000; fill-opacity:0.0; 
stroke:#000000; stroke-width:150000.000000; stroke-opacity:1; 
stroke-linecap:round; stroke-linejoin:round;">
<path d="M123143751 103868750
L145143750 103868749
" />
<path d="M145143749 81868750
L123143750 81868751
" />
<path d="M145143750 103868749
L145143749 81868750
" />
<path d="M123143750 81868751
L123143751 103868750
" />
<g >
</g>
<g >
</g>
<g >
</g>
<g >
</g>
<g >
</g>
<g >
</g>
<g >
</g>
<g >
</g>
<g >
</g>
<g >
</g>
<g >
</g>
<g >
</g>
<g >
</g>
<g >
</g>
<g >
</g>
</g> 
</svg>
