  0
SECTION
  2
HEADER
  9
$ANGBASE
  50
0.0
  9
$ANGDIR
  70
1
  9
$MEASUREMENT
  70
0
  0
ENDSEC
  0
SECTION
  2
TABLES
  0
TABLE
  2
LTYPE
  70
4
  0
LTYPE
  5
40F
  2
CONTINUOUS
  70
0
  3
Solid line
  72
65
  73
0
  40
0.0
  0
LTYPE
  5
410
  2
DASHDOT
 70
0
  3
Dash Dot ____ _ ____ _
 72
65
 73
4
 40
2.0
 49
1.25
 49
-0.25
 49
0.25
 49
-0.25
  0
LTYPE
  5
411
  2
DASHED
 70
0
  3
Dashed __ __ __ __ __
 72
65
 73
2
 40
0.75
 49
0.5
 49
-0.25
  0
LTYPE
  5
43B
  2
DOTTED
 70
0
  3
Dotted .  .  .  .
 72
65
 73
2
 40
0.2
 49
0.0
 49
-0.2
  0
ENDTAB
  0
TABLE
  2
STYLE
  70
4
  0
STYLE
  2
KICAD
  70
0
  40
0
  41
1
  42
1
  50
0
  71
0
  3
isocp.shx
  0
STYLE
  2
KICADB
  70
0
  40
0
  41
1
  42
1
  50
0
  71
0
  3
isocp.shx
  0
STYLE
  2
KICADI
  70
0
  40
0
  41
1
  42
1
  50
15
  71
0
  3
isocp.shx
  0
STYLE
  2
KICADBI
  70
0
  40
0
  41
1
  42
1
  50
15
  71
0
  3
isocp.shx
  0
ENDTAB
  0
TABLE
  2
LAYER
  70
1
  0
LAYER
  2
BLACK
  70
0
  62
7
  6
CONTINUOUS
  0
ENDTAB
  0
ENDSEC
  0
SECTION
  2
ENTITIES
0
LINE
8
BLACK
6
CONTINUOUS
10
3.12449
20
-4.24919
11
3.11165
21
-4.24575
0
LINE
8
BLACK
6
CONTINUOUS
10
3.11165
20
-4.24575
11
3.09925
21
-4.24099
0
LINE
8
BLACK
6
CONTINUOUS
10
3.09925
20
-4.24099
11
3.0874
21
-4.23496
0
LINE
8
BLACK
6
CONTINUOUS
10
3.0874
20
-4.23496
11
3.07626
21
-4.22772
0
LINE
8
BLACK
6
CONTINUOUS
10
3.07626
20
-4.22772
11
3.06593
21
-4.21936
0
LINE
8
BLACK
6
CONTINUOUS
10
3.06593
20
-4.21936
11
3.05653
21
-4.20996
0
LINE
8
BLACK
6
CONTINUOUS
10
3.05653
20
-4.20996
11
3.04817
21
-4.19963
0
LINE
8
BLACK
6
CONTINUOUS
10
3.04817
20
-4.19963
11
3.04093
21
-4.18848
0
LINE
8
BLACK
6
CONTINUOUS
10
3.04093
20
-4.18848
11
3.0349
21
-4.17664
0
LINE
8
BLACK
6
CONTINUOUS
10
3.0349
20
-4.17664
11
3.03013
21
-4.16424
0
LINE
8
BLACK
6
CONTINUOUS
10
3.03013
20
-4.16424
11
3.02669
21
-4.1514
0
LINE
8
BLACK
6
CONTINUOUS
10
3.02669
20
-4.1514
11
3.02462
21
-4.13827
0
LINE
8
BLACK
6
CONTINUOUS
10
3.02462
20
-4.13827
11
3.02392
21
-4.125
0
LINE
8
BLACK
6
CONTINUOUS
10
3.02392
20
-4.125
11
3.02392
21
-3.1875
0
LINE
8
BLACK
6
CONTINUOUS
10
3.02392
20
-3.1875
11
3.02462
21
-3.17423
0
LINE
8
BLACK
6
CONTINUOUS
10
3.02462
20
-3.17423
11
3.02669
21
-3.1611
0
LINE
8
BLACK
6
CONTINUOUS
10
3.02669
20
-3.1611
11
3.03013
21
-3.14826
0
LINE
8
BLACK
6
CONTINUOUS
10
3.03013
20
-3.14826
11
3.0349
21
-3.13586
0
LINE
8
BLACK
6
CONTINUOUS
10
3.0349
20
-3.13586
11
3.04093
21
-3.12402
0
LINE
8
BLACK
6
CONTINUOUS
10
3.04093
20
-3.12402
11
3.04817
21
-3.11287
0
LINE
8
BLACK
6
CONTINUOUS
10
3.04817
20
-3.11287
11
3.05653
21
-3.10254
0
LINE
8
BLACK
6
CONTINUOUS
10
3.05653
20
-3.10254
11
3.06593
21
-3.09314
0
LINE
8
BLACK
6
CONTINUOUS
10
3.06593
20
-3.09314
11
3.07626
21
-3.08478
0
LINE
8
BLACK
6
CONTINUOUS
10
3.07626
20
-3.08478
11
3.0874
21
-3.07754
0
LINE
8
BLACK
6
CONTINUOUS
10
3.0874
20
-3.07754
11
3.09925
21
-3.07151
0
LINE
8
BLACK
6
CONTINUOUS
10
3.09925
20
-3.07151
11
3.11165
21
-3.06675
0
LINE
8
BLACK
6
CONTINUOUS
10
3.11165
20
-3.06675
11
3.12449
21
-3.06331
0
LINE
8
BLACK
6
CONTINUOUS
10
3.12449
20
-3.06331
11
3.13762
21
-3.06123
0
LINE
8
BLACK
6
CONTINUOUS
10
3.13762
20
-3.06123
11
3.15089
21
-3.06053
0
LINE
8
BLACK
6
CONTINUOUS
10
3.15089
20
-3.06053
11
7.21875
21
-3.06053
0
LINE
8
BLACK
6
CONTINUOUS
10
7.21875
20
-3.06053
11
7.23202
21
-3.06123
0
LINE
8
BLACK
6
CONTINUOUS
10
7.23202
20
-3.06123
11
7.24515
21
-3.06331
0
LINE
8
BLACK
6
CONTINUOUS
10
7.24515
20
-3.06331
11
7.25799
21
-3.06675
0
LINE
8
BLACK
6
CONTINUOUS
10
7.25799
20
-3.06675
11
7.27039
21
-3.07151
0
LINE
8
BLACK
6
CONTINUOUS
10
7.27039
20
-3.07151
11
7.28223
21
-3.07754
0
LINE
8
BLACK
6
CONTINUOUS
10
7.28223
20
-3.07754
11
7.29338
21
-3.08478
0
LINE
8
BLACK
6
CONTINUOUS
10
7.29338
20
-3.08478
11
7.30371
21
-3.09314
0
LINE
8
BLACK
6
CONTINUOUS
10
7.30371
20
-3.09314
11
7.31311
21
-3.10254
0
LINE
8
BLACK
6
CONTINUOUS
10
7.31311
20
-3.10254
11
7.32147
21
-3.11287
0
LINE
8
BLACK
6
CONTINUOUS
10
7.32147
20
-3.11287
11
7.32871
21
-3.12402
0
LINE
8
BLACK
6
CONTINUOUS
10
7.32871
20
-3.12402
11
7.33474
21
-3.13586
0
LINE
8
BLACK
6
CONTINUOUS
10
7.33474
20
-3.13586
11
7.3395
21
-3.14826
0
LINE
8
BLACK
6
CONTINUOUS
10
7.3395
20
-3.14826
11
7.34294
21
-3.1611
0
LINE
8
BLACK
6
CONTINUOUS
10
7.34294
20
-3.1611
11
7.34502
21
-3.17423
0
LINE
8
BLACK
6
CONTINUOUS
10
7.34502
20
-3.17423
11
7.34572
21
-3.1875
0
LINE
8
BLACK
6
CONTINUOUS
10
7.34572
20
-3.1875
11
7.34572
21
-4.125
0
LINE
8
BLACK
6
CONTINUOUS
10
7.34572
20
-4.125
11
7.34506
21
-4.13791
0
LINE
8
BLACK
6
CONTINUOUS
10
7.34506
20
-4.13791
11
7.34309
21
-4.15069
0
LINE
8
BLACK
6
CONTINUOUS
10
7.34309
20
-4.15069
11
7.33984
21
-4.1632
0
LINE
8
BLACK
6
CONTINUOUS
10
7.33984
20
-4.1632
11
7.33532
21
-4.17531
0
LINE
8
BLACK
6
CONTINUOUS
10
7.33532
20
-4.17531
11
7.3296
21
-4.18691
0
LINE
8
BLACK
6
CONTINUOUS
10
7.3296
20
-4.18691
11
7.32273
21
-4.19786
0
LINE
8
BLACK
6
CONTINUOUS
10
7.32273
20
-4.19786
11
7.31479
21
-4.20805
0
LINE
8
BLACK
6
CONTINUOUS
10
7.31479
20
-4.20805
11
7.30584
21
-4.21739
0
LINE
8
BLACK
6
CONTINUOUS
10
7.30584
20
-4.21739
11
7.296
21
-4.22577
0
LINE
8
BLACK
6
CONTINUOUS
10
7.296
20
-4.22577
11
7.28535
21
-4.2331
0
LINE
8
BLACK
6
CONTINUOUS
10
7.28535
20
-4.2331
11
7.27401
21
-4.23931
0
LINE
8
BLACK
6
CONTINUOUS
10
7.27401
20
-4.23931
11
7.2621
21
-4.24434
0
LINE
8
BLACK
6
CONTINUOUS
10
7.2621
20
-4.24434
11
7.24974
21
-4.24813
0
LINE
8
BLACK
6
CONTINUOUS
10
7.24974
20
-4.24813
11
7.23706
21
-4.25064
0
LINE
8
BLACK
6
CONTINUOUS
10
7.23706
20
-4.25064
11
7.22445
21
-4.25183
0
LINE
8
BLACK
6
CONTINUOUS
10
7.22445
20
-4.25183
11
7.22411
21
-4.25197
0
LINE
8
BLACK
6
CONTINUOUS
10
7.22411
20
-4.25197
11
3.15089
21
-4.25197
0
LINE
8
BLACK
6
CONTINUOUS
10
3.15089
20
-4.25197
11
3.13762
21
-4.25127
0
LINE
8
BLACK
6
CONTINUOUS
10
3.13762
20
-4.25127
11
3.12449
21
-4.24919
0
LINE
8
BLACK
6
CONTINUOUS
10
3.15053
20
-3.06432
11
3.13801
21
-3.06497
0
LINE
8
BLACK
6
CONTINUOUS
10
3.13801
20
-3.06497
11
3.12527
21
-3.06699
0
LINE
8
BLACK
6
CONTINUOUS
10
3.12527
20
-3.06699
11
3.11282
21
-3.07033
0
LINE
8
BLACK
6
CONTINUOUS
10
3.11282
20
-3.07033
11
3.10078
21
-3.07495
0
LINE
8
BLACK
6
CONTINUOUS
10
3.10078
20
-3.07495
11
3.08929
21
-3.08081
0
LINE
8
BLACK
6
CONTINUOUS
10
3.08929
20
-3.08081
11
3.07847
21
-3.08783
0
LINE
8
BLACK
6
CONTINUOUS
10
3.07847
20
-3.08783
11
3.06845
21
-3.09594
0
LINE
8
BLACK
6
CONTINUOUS
10
3.06845
20
-3.09594
11
3.05933
21
-3.10506
0
LINE
8
BLACK
6
CONTINUOUS
10
3.05933
20
-3.10506
11
3.05122
21
-3.11508
0
LINE
8
BLACK
6
CONTINUOUS
10
3.05122
20
-3.11508
11
3.04419
21
-3.1259
0
LINE
8
BLACK
6
CONTINUOUS
10
3.04419
20
-3.1259
11
3.03834
21
-3.13739
0
LINE
8
BLACK
6
CONTINUOUS
10
3.03834
20
-3.13739
11
3.03372
21
-3.14943
0
LINE
8
BLACK
6
CONTINUOUS
10
3.03372
20
-3.14943
11
3.03038
21
-3.16189
0
LINE
8
BLACK
6
CONTINUOUS
10
3.03038
20
-3.16189
11
3.02836
21
-3.17462
0
LINE
8
BLACK
6
CONTINUOUS
10
3.02836
20
-3.17462
11
3.02771
21
-3.18714
0
LINE
8
BLACK
6
CONTINUOUS
10
3.02771
20
-3.18714
11
3.02786
21
-3.1875
0
LINE
8
BLACK
6
CONTINUOUS
10
3.02786
20
-3.1875
11
3.02786
21
-4.125
0
LINE
8
BLACK
6
CONTINUOUS
10
3.02786
20
-4.125
11
3.02771
21
-4.12536
0
LINE
8
BLACK
6
CONTINUOUS
10
3.02771
20
-4.12536
11
3.02836
21
-4.13788
0
LINE
8
BLACK
6
CONTINUOUS
10
3.02836
20
-4.13788
11
3.03038
21
-4.15061
0
LINE
8
BLACK
6
CONTINUOUS
10
3.03038
20
-4.15061
11
3.03372
21
-4.16307
0
LINE
8
BLACK
6
CONTINUOUS
10
3.03372
20
-4.16307
11
3.03834
21
-4.17511
0
LINE
8
BLACK
6
CONTINUOUS
10
3.03834
20
-4.17511
11
3.04419
21
-4.1866
0
LINE
8
BLACK
6
CONTINUOUS
10
3.04419
20
-4.1866
11
3.05122
21
-4.19742
0
LINE
8
BLACK
6
CONTINUOUS
10
3.05122
20
-4.19742
11
3.05933
21
-4.20744
0
LINE
8
BLACK
6
CONTINUOUS
10
3.05933
20
-4.20744
11
3.06845
21
-4.21656
0
LINE
8
BLACK
6
CONTINUOUS
10
3.06845
20
-4.21656
11
3.07847
21
-4.22467
0
LINE
8
BLACK
6
CONTINUOUS
10
3.07847
20
-4.22467
11
3.08929
21
-4.23169
0
LINE
8
BLACK
6
CONTINUOUS
10
3.08929
20
-4.23169
11
3.10078
21
-4.23755
0
LINE
8
BLACK
6
CONTINUOUS
10
3.10078
20
-4.23755
11
3.11282
21
-4.24217
0
LINE
8
BLACK
6
CONTINUOUS
10
3.11282
20
-4.24217
11
3.12527
21
-4.24551
0
LINE
8
BLACK
6
CONTINUOUS
10
3.12527
20
-4.24551
11
3.13801
21
-4.24753
0
LINE
8
BLACK
6
CONTINUOUS
10
3.13801
20
-4.24753
11
3.15053
21
-4.24818
0
LINE
8
BLACK
6
CONTINUOUS
10
3.15053
20
-4.24818
11
3.15089
21
-4.24803
0
LINE
8
BLACK
6
CONTINUOUS
10
3.15089
20
-4.24803
11
7.22378
21
-4.24803
0
LINE
8
BLACK
6
CONTINUOUS
10
7.22378
20
-4.24803
11
7.22402
21
-4.24792
0
LINE
8
BLACK
6
CONTINUOUS
10
7.22402
20
-4.24792
11
7.22437
21
-4.24804
0
LINE
8
BLACK
6
CONTINUOUS
10
7.22437
20
-4.24804
11
7.23652
21
-4.2469
0
LINE
8
BLACK
6
CONTINUOUS
10
7.23652
20
-4.2469
11
7.24882
21
-4.24446
0
LINE
8
BLACK
6
CONTINUOUS
10
7.24882
20
-4.24446
11
7.26081
21
-4.24079
0
LINE
8
BLACK
6
CONTINUOUS
10
7.26081
20
-4.24079
11
7.27237
21
-4.23591
0
LINE
8
BLACK
6
CONTINUOUS
10
7.27237
20
-4.23591
11
7.28337
21
-4.22988
0
LINE
8
BLACK
6
CONTINUOUS
10
7.28337
20
-4.22988
11
7.2937
21
-4.22277
0
LINE
8
BLACK
6
CONTINUOUS
10
7.2937
20
-4.22277
11
7.30325
21
-4.21464
0
LINE
8
BLACK
6
CONTINUOUS
10
7.30325
20
-4.21464
11
7.31193
21
-4.20558
0
LINE
8
BLACK
6
CONTINUOUS
10
7.31193
20
-4.20558
11
7.31964
21
-4.19569
0
LINE
8
BLACK
6
CONTINUOUS
10
7.31964
20
-4.19569
11
7.3263
21
-4.18506
0
LINE
8
BLACK
6
CONTINUOUS
10
7.3263
20
-4.18506
11
7.33185
21
-4.17382
0
LINE
8
BLACK
6
CONTINUOUS
10
7.33185
20
-4.17382
11
7.33623
21
-4.16206
0
LINE
8
BLACK
6
CONTINUOUS
10
7.33623
20
-4.16206
11
7.33939
21
-4.14992
0
LINE
8
BLACK
6
CONTINUOUS
10
7.33939
20
-4.14992
11
7.3413
21
-4.13753
0
LINE
8
BLACK
6
CONTINUOUS
10
7.3413
20
-4.13753
11
7.34192
21
-4.12534
0
LINE
8
BLACK
6
CONTINUOUS
10
7.34192
20
-4.12534
11
7.34178
21
-4.125
0
LINE
8
BLACK
6
CONTINUOUS
10
7.34178
20
-4.125
11
7.34178
21
-3.1875
0
LINE
8
BLACK
6
CONTINUOUS
10
7.34178
20
-3.1875
11
7.34193
21
-3.18714
0
LINE
8
BLACK
6
CONTINUOUS
10
7.34193
20
-3.18714
11
7.34128
21
-3.17462
0
LINE
8
BLACK
6
CONTINUOUS
10
7.34128
20
-3.17462
11
7.33926
21
-3.16189
0
LINE
8
BLACK
6
CONTINUOUS
10
7.33926
20
-3.16189
11
7.33592
21
-3.14943
0
LINE
8
BLACK
6
CONTINUOUS
10
7.33592
20
-3.14943
11
7.3313
21
-3.13739
0
LINE
8
BLACK
6
CONTINUOUS
10
7.3313
20
-3.13739
11
7.32544
21
-3.1259
0
LINE
8
BLACK
6
CONTINUOUS
10
7.32544
20
-3.1259
11
7.31842
21
-3.11508
0
LINE
8
BLACK
6
CONTINUOUS
10
7.31842
20
-3.11508
11
7.31031
21
-3.10506
0
LINE
8
BLACK
6
CONTINUOUS
10
7.31031
20
-3.10506
11
7.30119
21
-3.09594
0
LINE
8
BLACK
6
CONTINUOUS
10
7.30119
20
-3.09594
11
7.29117
21
-3.08783
0
LINE
8
BLACK
6
CONTINUOUS
10
7.29117
20
-3.08783
11
7.28035
21
-3.08081
0
LINE
8
BLACK
6
CONTINUOUS
10
7.28035
20
-3.08081
11
7.26886
21
-3.07495
0
LINE
8
BLACK
6
CONTINUOUS
10
7.26886
20
-3.07495
11
7.25682
21
-3.07033
0
LINE
8
BLACK
6
CONTINUOUS
10
7.25682
20
-3.07033
11
7.24436
21
-3.06699
0
LINE
8
BLACK
6
CONTINUOUS
10
7.24436
20
-3.06699
11
7.23163
21
-3.06497
0
LINE
8
BLACK
6
CONTINUOUS
10
7.23163
20
-3.06497
11
7.21911
21
-3.06432
0
LINE
8
BLACK
6
CONTINUOUS
10
7.21911
20
-3.06432
11
7.21875
21
-3.06447
0
LINE
8
BLACK
6
CONTINUOUS
10
7.21875
20
-3.06447
11
3.15089
21
-3.06447
0
LINE
8
BLACK
6
CONTINUOUS
10
3.15089
20
-3.06447
11
3.15053
21
-3.06432
  0
ENDSEC
  0
EOF
